M48
; DRILL file {KiCad 9.0.4} date 2025-12-01T18:17:04-0500
; FORMAT={-:-/ absolute / inch / decimal}
; #@! TF.CreationDate,2025-12-01T18:17:04-05:00
; #@! TF.GenerationSoftware,Kicad,Pcbnew,9.0.4
; #@! TF.FileFunction,Plated,1,2,PTH
FMAT,2
INCH
; #@! TA.AperFunction,Plated,PTH,ViaDrill
T1C0.0157
; #@! TA.AperFunction,Plated,PTH,ComponentDrill
T2C0.0236
; #@! TA.AperFunction,Plated,PTH,ViaDrill
T3C0.0315
; #@! TA.AperFunction,Plated,PTH,ComponentDrill
T4C0.0315
; #@! TA.AperFunction,Plated,PTH,ComponentDrill
T5C0.0354
; #@! TA.AperFunction,Plated,PTH,ComponentDrill
T6C0.0394
; #@! TA.AperFunction,Plated,PTH,ComponentDrill
T7C0.1260
%
G90
G05
T1
X5.115Y-3.2283
X5.2047Y-3.2028
X5.3031Y-3.189
X5.4094Y-3.1703
X5.5098Y-3.1516
X5.6102Y-3.1358
X5.7098Y-3.1136
X5.7776Y-3.0571
X5.8368Y-3.0733
X5.8456Y-2.9684
X5.9324Y-3.0
T2
X6.5472Y-3.0699
X6.5472Y-3.1289
T3
X6.6142Y-2.7589
T4
X5.5472Y-2.7165
X5.5472Y-2.8865
X5.6322Y-2.7165
X5.6322Y-2.8865
X5.7172Y-2.7165
X5.7172Y-2.8865
X5.8022Y-2.7165
X5.8022Y-2.8865
X5.8872Y-2.7165
X5.8872Y-2.8865
X5.9722Y-2.7165
X5.9722Y-2.8865
X6.0572Y-2.7165
X6.0572Y-2.8865
X6.1422Y-2.7165
X6.1422Y-2.8865
X6.2272Y-2.7165
X6.2272Y-2.8865
X6.3122Y-2.7165
X6.3122Y-2.8865
X6.3972Y-2.7165
X6.3972Y-2.8865
X6.4822Y-2.7165
X6.4822Y-2.8865
X6.5472Y-3.247
X6.5472Y-3.647
T5
X6.3898Y-3.2533
X6.3898Y-3.3533
T6
X5.0079Y-3.2057
X5.0079Y-3.3057
X5.1549Y-3.3528
X5.1549Y-3.4528
X5.2549Y-3.3528
X5.2549Y-3.4528
X5.3549Y-3.4528
X5.3549Y-3.3528
X5.4549Y-3.3528
X5.4549Y-3.4528
X5.5549Y-3.3528
X5.5549Y-3.4528
X5.6549Y-3.3528
X5.6549Y-3.4528
X5.7549Y-3.3528
X5.7549Y-3.4528
X5.8549Y-3.3528
X5.8549Y-3.4528
X5.9549Y-3.3528
X5.9549Y-3.4528
X6.0549Y-3.3528
X6.0549Y-3.4528
X6.748Y-3.5463
X6.848Y-3.5463
T7
X5.0937Y-2.8015
X6.9357Y-2.8015
T6
G00X6.7024Y-3.3071
M15
G01X6.7024Y-3.2283
M16
G05
G00X6.8598Y-3.0827
M15
G01X6.7811Y-3.0827
M16
G05
G00X6.9386Y-3.3071
M15
G01X6.9386Y-3.2283
M16
G05
M30
