G04 #@! TF.GenerationSoftware,KiCad,Pcbnew,9.0.4*
G04 #@! TF.CreationDate,2025-12-01T18:17:10-05:00*
G04 #@! TF.ProjectId,pass-c2e,70617373-2d63-4326-952e-6b696361645f,rev?*
G04 #@! TF.SameCoordinates,Original*
G04 #@! TF.FileFunction,Legend,Top*
G04 #@! TF.FilePolarity,Positive*
%FSLAX46Y46*%
G04 Gerber Fmt 4.6, Leading zero omitted, Abs format (unit mm)*
G04 Created by KiCad (PCBNEW 9.0.4) date 2025-12-01 18:17:10*
%MOMM*%
%LPD*%
G01*
G04 APERTURE LIST*
G04 Aperture macros list*
%AMRoundRect*
0 Rectangle with rounded corners*
0 $1 Rounding radius*
0 $2 $3 $4 $5 $6 $7 $8 $9 X,Y pos of 4 corners*
0 Add a 4 corners polygon primitive as box body*
4,1,4,$2,$3,$4,$5,$6,$7,$8,$9,$2,$3,0*
0 Add four circle primitives for the rounded corners*
1,1,$1+$1,$2,$3*
1,1,$1+$1,$4,$5*
1,1,$1+$1,$6,$7*
1,1,$1+$1,$8,$9*
0 Add four rect primitives between the rounded corners*
20,1,$1+$1,$2,$3,$4,$5,0*
20,1,$1+$1,$4,$5,$6,$7,0*
20,1,$1+$1,$6,$7,$8,$9,0*
20,1,$1+$1,$8,$9,$2,$3,0*%
G04 Aperture macros list end*
%ADD10C,0.200000*%
%ADD11C,0.381000*%
%ADD12C,0.203200*%
%ADD13C,0.150000*%
%ADD14C,0.240000*%
%ADD15C,0.160000*%
%ADD16C,0.120000*%
%ADD17C,0.100000*%
%ADD18O,1.400000X2.400000*%
%ADD19C,5.199380*%
%ADD20O,1.600000X1.600000*%
%ADD21C,1.600000*%
%ADD22R,3.500000X3.500000*%
%ADD23RoundRect,0.750000X0.750000X1.000000X-0.750000X1.000000X-0.750000X-1.000000X0.750000X-1.000000X0*%
%ADD24RoundRect,0.875000X0.875000X0.875000X-0.875000X0.875000X-0.875000X-0.875000X0.875000X-0.875000X0*%
%ADD25R,1.800000X1.800000*%
%ADD26C,1.800000*%
%ADD27R,1.700000X1.700000*%
%ADD28O,1.700000X1.700000*%
%ADD29R,1.200000X1.200000*%
%ADD30C,1.200000*%
%ADD31O,2.410000X8.760000*%
G04 #@! TA.AperFunction,Profile*
%ADD32C,0.200660*%
G04 #@! TD*
G04 APERTURE END LIST*
D10*
X140539283Y-62867219D02*
X140539283Y-63105314D01*
X140301188Y-63010076D02*
X140539283Y-63105314D01*
X140539283Y-63105314D02*
X140777378Y-63010076D01*
X140396426Y-63295790D02*
X140539283Y-63105314D01*
X140539283Y-63105314D02*
X140682140Y-63295790D01*
X141301188Y-62867219D02*
X141301188Y-63105314D01*
X141063093Y-63010076D02*
X141301188Y-63105314D01*
X141301188Y-63105314D02*
X141539283Y-63010076D01*
X141158331Y-63295790D02*
X141301188Y-63105314D01*
X141301188Y-63105314D02*
X141444045Y-63295790D01*
X142682141Y-63867219D02*
X142682141Y-62867219D01*
X143158331Y-63200552D02*
X143158331Y-63867219D01*
X143158331Y-63295790D02*
X143205950Y-63248171D01*
X143205950Y-63248171D02*
X143301188Y-63200552D01*
X143301188Y-63200552D02*
X143444045Y-63200552D01*
X143444045Y-63200552D02*
X143539283Y-63248171D01*
X143539283Y-63248171D02*
X143586902Y-63343409D01*
X143586902Y-63343409D02*
X143586902Y-63867219D01*
X144015474Y-63819600D02*
X144110712Y-63867219D01*
X144110712Y-63867219D02*
X144301188Y-63867219D01*
X144301188Y-63867219D02*
X144396426Y-63819600D01*
X144396426Y-63819600D02*
X144444045Y-63724361D01*
X144444045Y-63724361D02*
X144444045Y-63676742D01*
X144444045Y-63676742D02*
X144396426Y-63581504D01*
X144396426Y-63581504D02*
X144301188Y-63533885D01*
X144301188Y-63533885D02*
X144158331Y-63533885D01*
X144158331Y-63533885D02*
X144063093Y-63486266D01*
X144063093Y-63486266D02*
X144015474Y-63391028D01*
X144015474Y-63391028D02*
X144015474Y-63343409D01*
X144015474Y-63343409D02*
X144063093Y-63248171D01*
X144063093Y-63248171D02*
X144158331Y-63200552D01*
X144158331Y-63200552D02*
X144301188Y-63200552D01*
X144301188Y-63200552D02*
X144396426Y-63248171D01*
X144729760Y-63200552D02*
X145110712Y-63200552D01*
X144872617Y-62867219D02*
X144872617Y-63724361D01*
X144872617Y-63724361D02*
X144920236Y-63819600D01*
X144920236Y-63819600D02*
X145015474Y-63867219D01*
X145015474Y-63867219D02*
X145110712Y-63867219D01*
X145872617Y-63867219D02*
X145872617Y-63343409D01*
X145872617Y-63343409D02*
X145824998Y-63248171D01*
X145824998Y-63248171D02*
X145729760Y-63200552D01*
X145729760Y-63200552D02*
X145539284Y-63200552D01*
X145539284Y-63200552D02*
X145444046Y-63248171D01*
X145872617Y-63819600D02*
X145777379Y-63867219D01*
X145777379Y-63867219D02*
X145539284Y-63867219D01*
X145539284Y-63867219D02*
X145444046Y-63819600D01*
X145444046Y-63819600D02*
X145396427Y-63724361D01*
X145396427Y-63724361D02*
X145396427Y-63629123D01*
X145396427Y-63629123D02*
X145444046Y-63533885D01*
X145444046Y-63533885D02*
X145539284Y-63486266D01*
X145539284Y-63486266D02*
X145777379Y-63486266D01*
X145777379Y-63486266D02*
X145872617Y-63438647D01*
X146491665Y-63867219D02*
X146396427Y-63819600D01*
X146396427Y-63819600D02*
X146348808Y-63724361D01*
X146348808Y-63724361D02*
X146348808Y-62867219D01*
X147015475Y-63867219D02*
X146920237Y-63819600D01*
X146920237Y-63819600D02*
X146872618Y-63724361D01*
X146872618Y-63724361D02*
X146872618Y-62867219D01*
X148729761Y-63771980D02*
X148682142Y-63819600D01*
X148682142Y-63819600D02*
X148539285Y-63867219D01*
X148539285Y-63867219D02*
X148444047Y-63867219D01*
X148444047Y-63867219D02*
X148301190Y-63819600D01*
X148301190Y-63819600D02*
X148205952Y-63724361D01*
X148205952Y-63724361D02*
X148158333Y-63629123D01*
X148158333Y-63629123D02*
X148110714Y-63438647D01*
X148110714Y-63438647D02*
X148110714Y-63295790D01*
X148110714Y-63295790D02*
X148158333Y-63105314D01*
X148158333Y-63105314D02*
X148205952Y-63010076D01*
X148205952Y-63010076D02*
X148301190Y-62914838D01*
X148301190Y-62914838D02*
X148444047Y-62867219D01*
X148444047Y-62867219D02*
X148539285Y-62867219D01*
X148539285Y-62867219D02*
X148682142Y-62914838D01*
X148682142Y-62914838D02*
X148729761Y-62962457D01*
X149539285Y-63819600D02*
X149444047Y-63867219D01*
X149444047Y-63867219D02*
X149253571Y-63867219D01*
X149253571Y-63867219D02*
X149158333Y-63819600D01*
X149158333Y-63819600D02*
X149110714Y-63724361D01*
X149110714Y-63724361D02*
X149110714Y-63343409D01*
X149110714Y-63343409D02*
X149158333Y-63248171D01*
X149158333Y-63248171D02*
X149253571Y-63200552D01*
X149253571Y-63200552D02*
X149444047Y-63200552D01*
X149444047Y-63200552D02*
X149539285Y-63248171D01*
X149539285Y-63248171D02*
X149586904Y-63343409D01*
X149586904Y-63343409D02*
X149586904Y-63438647D01*
X149586904Y-63438647D02*
X149110714Y-63533885D01*
X150015476Y-63200552D02*
X150015476Y-63867219D01*
X150015476Y-63295790D02*
X150063095Y-63248171D01*
X150063095Y-63248171D02*
X150158333Y-63200552D01*
X150158333Y-63200552D02*
X150301190Y-63200552D01*
X150301190Y-63200552D02*
X150396428Y-63248171D01*
X150396428Y-63248171D02*
X150444047Y-63343409D01*
X150444047Y-63343409D02*
X150444047Y-63867219D01*
X150777381Y-63200552D02*
X151158333Y-63200552D01*
X150920238Y-62867219D02*
X150920238Y-63724361D01*
X150920238Y-63724361D02*
X150967857Y-63819600D01*
X150967857Y-63819600D02*
X151063095Y-63867219D01*
X151063095Y-63867219D02*
X151158333Y-63867219D01*
X151491667Y-63867219D02*
X151491667Y-63200552D01*
X151491667Y-63391028D02*
X151539286Y-63295790D01*
X151539286Y-63295790D02*
X151586905Y-63248171D01*
X151586905Y-63248171D02*
X151682143Y-63200552D01*
X151682143Y-63200552D02*
X151777381Y-63200552D01*
X152253572Y-63867219D02*
X152158334Y-63819600D01*
X152158334Y-63819600D02*
X152110715Y-63771980D01*
X152110715Y-63771980D02*
X152063096Y-63676742D01*
X152063096Y-63676742D02*
X152063096Y-63391028D01*
X152063096Y-63391028D02*
X152110715Y-63295790D01*
X152110715Y-63295790D02*
X152158334Y-63248171D01*
X152158334Y-63248171D02*
X152253572Y-63200552D01*
X152253572Y-63200552D02*
X152396429Y-63200552D01*
X152396429Y-63200552D02*
X152491667Y-63248171D01*
X152491667Y-63248171D02*
X152539286Y-63295790D01*
X152539286Y-63295790D02*
X152586905Y-63391028D01*
X152586905Y-63391028D02*
X152586905Y-63676742D01*
X152586905Y-63676742D02*
X152539286Y-63771980D01*
X152539286Y-63771980D02*
X152491667Y-63819600D01*
X152491667Y-63819600D02*
X152396429Y-63867219D01*
X152396429Y-63867219D02*
X152253572Y-63867219D01*
X153015477Y-63200552D02*
X153015477Y-63867219D01*
X153015477Y-63295790D02*
X153063096Y-63248171D01*
X153063096Y-63248171D02*
X153158334Y-63200552D01*
X153158334Y-63200552D02*
X153301191Y-63200552D01*
X153301191Y-63200552D02*
X153396429Y-63248171D01*
X153396429Y-63248171D02*
X153444048Y-63343409D01*
X153444048Y-63343409D02*
X153444048Y-63867219D01*
X153920239Y-63867219D02*
X153920239Y-63200552D01*
X153920239Y-62867219D02*
X153872620Y-62914838D01*
X153872620Y-62914838D02*
X153920239Y-62962457D01*
X153920239Y-62962457D02*
X153967858Y-62914838D01*
X153967858Y-62914838D02*
X153920239Y-62867219D01*
X153920239Y-62867219D02*
X153920239Y-62962457D01*
X154825000Y-63819600D02*
X154729762Y-63867219D01*
X154729762Y-63867219D02*
X154539286Y-63867219D01*
X154539286Y-63867219D02*
X154444048Y-63819600D01*
X154444048Y-63819600D02*
X154396429Y-63771980D01*
X154396429Y-63771980D02*
X154348810Y-63676742D01*
X154348810Y-63676742D02*
X154348810Y-63391028D01*
X154348810Y-63391028D02*
X154396429Y-63295790D01*
X154396429Y-63295790D02*
X154444048Y-63248171D01*
X154444048Y-63248171D02*
X154539286Y-63200552D01*
X154539286Y-63200552D02*
X154729762Y-63200552D01*
X154729762Y-63200552D02*
X154825000Y-63248171D01*
X155205953Y-63819600D02*
X155301191Y-63867219D01*
X155301191Y-63867219D02*
X155491667Y-63867219D01*
X155491667Y-63867219D02*
X155586905Y-63819600D01*
X155586905Y-63819600D02*
X155634524Y-63724361D01*
X155634524Y-63724361D02*
X155634524Y-63676742D01*
X155634524Y-63676742D02*
X155586905Y-63581504D01*
X155586905Y-63581504D02*
X155491667Y-63533885D01*
X155491667Y-63533885D02*
X155348810Y-63533885D01*
X155348810Y-63533885D02*
X155253572Y-63486266D01*
X155253572Y-63486266D02*
X155205953Y-63391028D01*
X155205953Y-63391028D02*
X155205953Y-63343409D01*
X155205953Y-63343409D02*
X155253572Y-63248171D01*
X155253572Y-63248171D02*
X155348810Y-63200552D01*
X155348810Y-63200552D02*
X155491667Y-63200552D01*
X155491667Y-63200552D02*
X155586905Y-63248171D01*
X156967858Y-63867219D02*
X156872620Y-63819600D01*
X156872620Y-63819600D02*
X156825001Y-63771980D01*
X156825001Y-63771980D02*
X156777382Y-63676742D01*
X156777382Y-63676742D02*
X156777382Y-63391028D01*
X156777382Y-63391028D02*
X156825001Y-63295790D01*
X156825001Y-63295790D02*
X156872620Y-63248171D01*
X156872620Y-63248171D02*
X156967858Y-63200552D01*
X156967858Y-63200552D02*
X157110715Y-63200552D01*
X157110715Y-63200552D02*
X157205953Y-63248171D01*
X157205953Y-63248171D02*
X157253572Y-63295790D01*
X157253572Y-63295790D02*
X157301191Y-63391028D01*
X157301191Y-63391028D02*
X157301191Y-63676742D01*
X157301191Y-63676742D02*
X157253572Y-63771980D01*
X157253572Y-63771980D02*
X157205953Y-63819600D01*
X157205953Y-63819600D02*
X157110715Y-63867219D01*
X157110715Y-63867219D02*
X156967858Y-63867219D01*
X157729763Y-63200552D02*
X157729763Y-63867219D01*
X157729763Y-63295790D02*
X157777382Y-63248171D01*
X157777382Y-63248171D02*
X157872620Y-63200552D01*
X157872620Y-63200552D02*
X158015477Y-63200552D01*
X158015477Y-63200552D02*
X158110715Y-63248171D01*
X158110715Y-63248171D02*
X158158334Y-63343409D01*
X158158334Y-63343409D02*
X158158334Y-63867219D01*
X159253573Y-63200552D02*
X159634525Y-63200552D01*
X159396430Y-62867219D02*
X159396430Y-63724361D01*
X159396430Y-63724361D02*
X159444049Y-63819600D01*
X159444049Y-63819600D02*
X159539287Y-63867219D01*
X159539287Y-63867219D02*
X159634525Y-63867219D01*
X159967859Y-63867219D02*
X159967859Y-62867219D01*
X160396430Y-63867219D02*
X160396430Y-63343409D01*
X160396430Y-63343409D02*
X160348811Y-63248171D01*
X160348811Y-63248171D02*
X160253573Y-63200552D01*
X160253573Y-63200552D02*
X160110716Y-63200552D01*
X160110716Y-63200552D02*
X160015478Y-63248171D01*
X160015478Y-63248171D02*
X159967859Y-63295790D01*
X160872621Y-63867219D02*
X160872621Y-63200552D01*
X160872621Y-62867219D02*
X160825002Y-62914838D01*
X160825002Y-62914838D02*
X160872621Y-62962457D01*
X160872621Y-62962457D02*
X160920240Y-62914838D01*
X160920240Y-62914838D02*
X160872621Y-62867219D01*
X160872621Y-62867219D02*
X160872621Y-62962457D01*
X161301192Y-63819600D02*
X161396430Y-63867219D01*
X161396430Y-63867219D02*
X161586906Y-63867219D01*
X161586906Y-63867219D02*
X161682144Y-63819600D01*
X161682144Y-63819600D02*
X161729763Y-63724361D01*
X161729763Y-63724361D02*
X161729763Y-63676742D01*
X161729763Y-63676742D02*
X161682144Y-63581504D01*
X161682144Y-63581504D02*
X161586906Y-63533885D01*
X161586906Y-63533885D02*
X161444049Y-63533885D01*
X161444049Y-63533885D02*
X161348811Y-63486266D01*
X161348811Y-63486266D02*
X161301192Y-63391028D01*
X161301192Y-63391028D02*
X161301192Y-63343409D01*
X161301192Y-63343409D02*
X161348811Y-63248171D01*
X161348811Y-63248171D02*
X161444049Y-63200552D01*
X161444049Y-63200552D02*
X161586906Y-63200552D01*
X161586906Y-63200552D02*
X161682144Y-63248171D01*
X162872621Y-63819600D02*
X162967859Y-63867219D01*
X162967859Y-63867219D02*
X163158335Y-63867219D01*
X163158335Y-63867219D02*
X163253573Y-63819600D01*
X163253573Y-63819600D02*
X163301192Y-63724361D01*
X163301192Y-63724361D02*
X163301192Y-63676742D01*
X163301192Y-63676742D02*
X163253573Y-63581504D01*
X163253573Y-63581504D02*
X163158335Y-63533885D01*
X163158335Y-63533885D02*
X163015478Y-63533885D01*
X163015478Y-63533885D02*
X162920240Y-63486266D01*
X162920240Y-63486266D02*
X162872621Y-63391028D01*
X162872621Y-63391028D02*
X162872621Y-63343409D01*
X162872621Y-63343409D02*
X162920240Y-63248171D01*
X162920240Y-63248171D02*
X163015478Y-63200552D01*
X163015478Y-63200552D02*
X163158335Y-63200552D01*
X163158335Y-63200552D02*
X163253573Y-63248171D01*
X163729764Y-63867219D02*
X163729764Y-63200552D01*
X163729764Y-62867219D02*
X163682145Y-62914838D01*
X163682145Y-62914838D02*
X163729764Y-62962457D01*
X163729764Y-62962457D02*
X163777383Y-62914838D01*
X163777383Y-62914838D02*
X163729764Y-62867219D01*
X163729764Y-62867219D02*
X163729764Y-62962457D01*
X164634525Y-63867219D02*
X164634525Y-62867219D01*
X164634525Y-63819600D02*
X164539287Y-63867219D01*
X164539287Y-63867219D02*
X164348811Y-63867219D01*
X164348811Y-63867219D02*
X164253573Y-63819600D01*
X164253573Y-63819600D02*
X164205954Y-63771980D01*
X164205954Y-63771980D02*
X164158335Y-63676742D01*
X164158335Y-63676742D02*
X164158335Y-63391028D01*
X164158335Y-63391028D02*
X164205954Y-63295790D01*
X164205954Y-63295790D02*
X164253573Y-63248171D01*
X164253573Y-63248171D02*
X164348811Y-63200552D01*
X164348811Y-63200552D02*
X164539287Y-63200552D01*
X164539287Y-63200552D02*
X164634525Y-63248171D01*
X165491668Y-63819600D02*
X165396430Y-63867219D01*
X165396430Y-63867219D02*
X165205954Y-63867219D01*
X165205954Y-63867219D02*
X165110716Y-63819600D01*
X165110716Y-63819600D02*
X165063097Y-63724361D01*
X165063097Y-63724361D02*
X165063097Y-63343409D01*
X165063097Y-63343409D02*
X165110716Y-63248171D01*
X165110716Y-63248171D02*
X165205954Y-63200552D01*
X165205954Y-63200552D02*
X165396430Y-63200552D01*
X165396430Y-63200552D02*
X165491668Y-63248171D01*
X165491668Y-63248171D02*
X165539287Y-63343409D01*
X165539287Y-63343409D02*
X165539287Y-63438647D01*
X165539287Y-63438647D02*
X165063097Y-63533885D01*
X165967859Y-63771980D02*
X166015478Y-63819600D01*
X166015478Y-63819600D02*
X165967859Y-63867219D01*
X165967859Y-63867219D02*
X165920240Y-63819600D01*
X165920240Y-63819600D02*
X165967859Y-63771980D01*
X165967859Y-63771980D02*
X165967859Y-63867219D01*
X165967859Y-63486266D02*
X165920240Y-62914838D01*
X165920240Y-62914838D02*
X165967859Y-62867219D01*
X165967859Y-62867219D02*
X166015478Y-62914838D01*
X166015478Y-62914838D02*
X165967859Y-63486266D01*
X165967859Y-63486266D02*
X165967859Y-62867219D01*
X167348811Y-62867219D02*
X167348811Y-63105314D01*
X167110716Y-63010076D02*
X167348811Y-63105314D01*
X167348811Y-63105314D02*
X167586906Y-63010076D01*
X167205954Y-63295790D02*
X167348811Y-63105314D01*
X167348811Y-63105314D02*
X167491668Y-63295790D01*
X168110716Y-62867219D02*
X168110716Y-63105314D01*
X167872621Y-63010076D02*
X168110716Y-63105314D01*
X168110716Y-63105314D02*
X168348811Y-63010076D01*
X167967859Y-63295790D02*
X168110716Y-63105314D01*
X168110716Y-63105314D02*
X168253573Y-63295790D01*
D11*
X175850000Y-88402152D02*
X169463500Y-88397848D01*
X169479304Y-88402000D02*
X169475000Y-93325000D01*
X175879304Y-88377000D02*
X175875000Y-93300000D01*
D12*
X181500906Y-62669523D02*
X181500906Y-63250095D01*
X180484906Y-62959809D02*
X181500906Y-62959809D01*
X181500906Y-63782285D02*
X181500906Y-63975809D01*
X181500906Y-63975809D02*
X181452525Y-64072571D01*
X181452525Y-64072571D02*
X181355763Y-64169333D01*
X181355763Y-64169333D02*
X181162239Y-64217714D01*
X181162239Y-64217714D02*
X180823572Y-64217714D01*
X180823572Y-64217714D02*
X180630048Y-64169333D01*
X180630048Y-64169333D02*
X180533287Y-64072571D01*
X180533287Y-64072571D02*
X180484906Y-63975809D01*
X180484906Y-63975809D02*
X180484906Y-63782285D01*
X180484906Y-63782285D02*
X180533287Y-63685523D01*
X180533287Y-63685523D02*
X180630048Y-63588761D01*
X180630048Y-63588761D02*
X180823572Y-63540380D01*
X180823572Y-63540380D02*
X181162239Y-63540380D01*
X181162239Y-63540380D02*
X181355763Y-63588761D01*
X181355763Y-63588761D02*
X181452525Y-63685523D01*
X181452525Y-63685523D02*
X181500906Y-63782285D01*
X180484906Y-64653142D02*
X181500906Y-64653142D01*
X181500906Y-64653142D02*
X181500906Y-65040190D01*
X181500906Y-65040190D02*
X181452525Y-65136952D01*
X181452525Y-65136952D02*
X181404144Y-65185333D01*
X181404144Y-65185333D02*
X181307382Y-65233714D01*
X181307382Y-65233714D02*
X181162239Y-65233714D01*
X181162239Y-65233714D02*
X181065477Y-65185333D01*
X181065477Y-65185333D02*
X181017096Y-65136952D01*
X181017096Y-65136952D02*
X180968715Y-65040190D01*
X180968715Y-65040190D02*
X180968715Y-64653142D01*
D13*
X149661905Y-77767127D02*
X149623809Y-77805223D01*
X149623809Y-77805223D02*
X149509524Y-77843318D01*
X149509524Y-77843318D02*
X149433333Y-77843318D01*
X149433333Y-77843318D02*
X149319047Y-77805223D01*
X149319047Y-77805223D02*
X149242857Y-77729032D01*
X149242857Y-77729032D02*
X149204762Y-77652842D01*
X149204762Y-77652842D02*
X149166666Y-77500461D01*
X149166666Y-77500461D02*
X149166666Y-77386175D01*
X149166666Y-77386175D02*
X149204762Y-77233794D01*
X149204762Y-77233794D02*
X149242857Y-77157603D01*
X149242857Y-77157603D02*
X149319047Y-77081413D01*
X149319047Y-77081413D02*
X149433333Y-77043318D01*
X149433333Y-77043318D02*
X149509524Y-77043318D01*
X149509524Y-77043318D02*
X149623809Y-77081413D01*
X149623809Y-77081413D02*
X149661905Y-77119508D01*
X150004762Y-77424270D02*
X150271428Y-77424270D01*
X150385714Y-77843318D02*
X150004762Y-77843318D01*
X150004762Y-77843318D02*
X150004762Y-77043318D01*
X150004762Y-77043318D02*
X150385714Y-77043318D01*
X150728572Y-77843318D02*
X150728572Y-77043318D01*
X150728572Y-77043318D02*
X151185715Y-77843318D01*
X151185715Y-77843318D02*
X151185715Y-77043318D01*
X151452381Y-77043318D02*
X151909524Y-77043318D01*
X151680952Y-77843318D02*
X151680952Y-77043318D01*
X152633334Y-77843318D02*
X152366667Y-77462365D01*
X152176191Y-77843318D02*
X152176191Y-77043318D01*
X152176191Y-77043318D02*
X152480953Y-77043318D01*
X152480953Y-77043318D02*
X152557143Y-77081413D01*
X152557143Y-77081413D02*
X152595238Y-77119508D01*
X152595238Y-77119508D02*
X152633334Y-77195699D01*
X152633334Y-77195699D02*
X152633334Y-77309984D01*
X152633334Y-77309984D02*
X152595238Y-77386175D01*
X152595238Y-77386175D02*
X152557143Y-77424270D01*
X152557143Y-77424270D02*
X152480953Y-77462365D01*
X152480953Y-77462365D02*
X152176191Y-77462365D01*
X153128572Y-77043318D02*
X153280953Y-77043318D01*
X153280953Y-77043318D02*
X153357143Y-77081413D01*
X153357143Y-77081413D02*
X153433334Y-77157603D01*
X153433334Y-77157603D02*
X153471429Y-77309984D01*
X153471429Y-77309984D02*
X153471429Y-77576651D01*
X153471429Y-77576651D02*
X153433334Y-77729032D01*
X153433334Y-77729032D02*
X153357143Y-77805223D01*
X153357143Y-77805223D02*
X153280953Y-77843318D01*
X153280953Y-77843318D02*
X153128572Y-77843318D01*
X153128572Y-77843318D02*
X153052381Y-77805223D01*
X153052381Y-77805223D02*
X152976191Y-77729032D01*
X152976191Y-77729032D02*
X152938095Y-77576651D01*
X152938095Y-77576651D02*
X152938095Y-77309984D01*
X152938095Y-77309984D02*
X152976191Y-77157603D01*
X152976191Y-77157603D02*
X153052381Y-77081413D01*
X153052381Y-77081413D02*
X153128572Y-77043318D01*
X153814286Y-77843318D02*
X153814286Y-77043318D01*
X153814286Y-77043318D02*
X154271429Y-77843318D01*
X154271429Y-77843318D02*
X154271429Y-77043318D01*
X154652381Y-77843318D02*
X154652381Y-77043318D01*
X155490476Y-77767127D02*
X155452380Y-77805223D01*
X155452380Y-77805223D02*
X155338095Y-77843318D01*
X155338095Y-77843318D02*
X155261904Y-77843318D01*
X155261904Y-77843318D02*
X155147618Y-77805223D01*
X155147618Y-77805223D02*
X155071428Y-77729032D01*
X155071428Y-77729032D02*
X155033333Y-77652842D01*
X155033333Y-77652842D02*
X154995237Y-77500461D01*
X154995237Y-77500461D02*
X154995237Y-77386175D01*
X154995237Y-77386175D02*
X155033333Y-77233794D01*
X155033333Y-77233794D02*
X155071428Y-77157603D01*
X155071428Y-77157603D02*
X155147618Y-77081413D01*
X155147618Y-77081413D02*
X155261904Y-77043318D01*
X155261904Y-77043318D02*
X155338095Y-77043318D01*
X155338095Y-77043318D02*
X155452380Y-77081413D01*
X155452380Y-77081413D02*
X155490476Y-77119508D01*
X155795237Y-77805223D02*
X155909523Y-77843318D01*
X155909523Y-77843318D02*
X156099999Y-77843318D01*
X156099999Y-77843318D02*
X156176190Y-77805223D01*
X156176190Y-77805223D02*
X156214285Y-77767127D01*
X156214285Y-77767127D02*
X156252380Y-77690937D01*
X156252380Y-77690937D02*
X156252380Y-77614746D01*
X156252380Y-77614746D02*
X156214285Y-77538556D01*
X156214285Y-77538556D02*
X156176190Y-77500461D01*
X156176190Y-77500461D02*
X156099999Y-77462365D01*
X156099999Y-77462365D02*
X155947618Y-77424270D01*
X155947618Y-77424270D02*
X155871428Y-77386175D01*
X155871428Y-77386175D02*
X155833333Y-77348080D01*
X155833333Y-77348080D02*
X155795237Y-77271889D01*
X155795237Y-77271889D02*
X155795237Y-77195699D01*
X155795237Y-77195699D02*
X155833333Y-77119508D01*
X155833333Y-77119508D02*
X155871428Y-77081413D01*
X155871428Y-77081413D02*
X155947618Y-77043318D01*
X155947618Y-77043318D02*
X156138095Y-77043318D01*
X156138095Y-77043318D02*
X156252380Y-77081413D01*
X157204762Y-77843318D02*
X157204762Y-77043318D01*
X157204762Y-77043318D02*
X157471428Y-77614746D01*
X157471428Y-77614746D02*
X157738095Y-77043318D01*
X157738095Y-77043318D02*
X157738095Y-77843318D01*
X158080952Y-77614746D02*
X158461905Y-77614746D01*
X158004762Y-77843318D02*
X158271429Y-77043318D01*
X158271429Y-77043318D02*
X158538095Y-77843318D01*
X159185714Y-77843318D02*
X158804762Y-77843318D01*
X158804762Y-77843318D02*
X158804762Y-77043318D01*
X159452381Y-77424270D02*
X159719047Y-77424270D01*
X159833333Y-77843318D02*
X159452381Y-77843318D01*
X159452381Y-77843318D02*
X159452381Y-77043318D01*
X159452381Y-77043318D02*
X159833333Y-77043318D01*
X152214285Y-79436035D02*
X152176190Y-79397939D01*
X152176190Y-79397939D02*
X152099999Y-79283654D01*
X152099999Y-79283654D02*
X152061904Y-79207463D01*
X152061904Y-79207463D02*
X152023809Y-79093178D01*
X152023809Y-79093178D02*
X151985714Y-78902701D01*
X151985714Y-78902701D02*
X151985714Y-78750320D01*
X151985714Y-78750320D02*
X152023809Y-78559844D01*
X152023809Y-78559844D02*
X152061904Y-78445558D01*
X152061904Y-78445558D02*
X152099999Y-78369368D01*
X152099999Y-78369368D02*
X152176190Y-78255082D01*
X152176190Y-78255082D02*
X152214285Y-78216987D01*
X152480951Y-78407463D02*
X152519047Y-78369368D01*
X152519047Y-78369368D02*
X152595237Y-78331273D01*
X152595237Y-78331273D02*
X152785713Y-78331273D01*
X152785713Y-78331273D02*
X152861904Y-78369368D01*
X152861904Y-78369368D02*
X152899999Y-78407463D01*
X152899999Y-78407463D02*
X152938094Y-78483654D01*
X152938094Y-78483654D02*
X152938094Y-78559844D01*
X152938094Y-78559844D02*
X152899999Y-78674130D01*
X152899999Y-78674130D02*
X152442856Y-79131273D01*
X152442856Y-79131273D02*
X152938094Y-79131273D01*
X153623809Y-78597939D02*
X153623809Y-79131273D01*
X153433333Y-78293178D02*
X153242856Y-78864606D01*
X153242856Y-78864606D02*
X153738095Y-78864606D01*
X154042857Y-78826511D02*
X154652381Y-78826511D01*
X155033333Y-78597939D02*
X155033333Y-79397939D01*
X155033333Y-78636035D02*
X155109523Y-78597939D01*
X155109523Y-78597939D02*
X155261904Y-78597939D01*
X155261904Y-78597939D02*
X155338095Y-78636035D01*
X155338095Y-78636035D02*
X155376190Y-78674130D01*
X155376190Y-78674130D02*
X155414285Y-78750320D01*
X155414285Y-78750320D02*
X155414285Y-78978892D01*
X155414285Y-78978892D02*
X155376190Y-79055082D01*
X155376190Y-79055082D02*
X155338095Y-79093178D01*
X155338095Y-79093178D02*
X155261904Y-79131273D01*
X155261904Y-79131273D02*
X155109523Y-79131273D01*
X155109523Y-79131273D02*
X155033333Y-79093178D01*
X155757143Y-79131273D02*
X155757143Y-78597939D01*
X155757143Y-78331273D02*
X155719047Y-78369368D01*
X155719047Y-78369368D02*
X155757143Y-78407463D01*
X155757143Y-78407463D02*
X155795238Y-78369368D01*
X155795238Y-78369368D02*
X155757143Y-78331273D01*
X155757143Y-78331273D02*
X155757143Y-78407463D01*
X156138095Y-78597939D02*
X156138095Y-79131273D01*
X156138095Y-78674130D02*
X156176190Y-78636035D01*
X156176190Y-78636035D02*
X156252380Y-78597939D01*
X156252380Y-78597939D02*
X156366666Y-78597939D01*
X156366666Y-78597939D02*
X156442857Y-78636035D01*
X156442857Y-78636035D02*
X156480952Y-78712225D01*
X156480952Y-78712225D02*
X156480952Y-79131273D01*
X156785714Y-79436035D02*
X156823809Y-79397939D01*
X156823809Y-79397939D02*
X156900000Y-79283654D01*
X156900000Y-79283654D02*
X156938095Y-79207463D01*
X156938095Y-79207463D02*
X156976190Y-79093178D01*
X156976190Y-79093178D02*
X157014286Y-78902701D01*
X157014286Y-78902701D02*
X157014286Y-78750320D01*
X157014286Y-78750320D02*
X156976190Y-78559844D01*
X156976190Y-78559844D02*
X156938095Y-78445558D01*
X156938095Y-78445558D02*
X156900000Y-78369368D01*
X156900000Y-78369368D02*
X156823809Y-78255082D01*
X156823809Y-78255082D02*
X156785714Y-78216987D01*
D11*
X131600000Y-91475000D02*
X130220000Y-91475000D01*
X130900000Y-89745000D01*
X131600000Y-91475000D01*
G36*
X131600000Y-91475000D02*
G01*
X130220000Y-91475000D01*
X130900000Y-89745000D01*
X131600000Y-91475000D01*
G37*
X128400000Y-86000000D02*
X123477000Y-85995696D01*
X123503500Y-79367848D02*
X128396500Y-79382152D01*
D12*
X178440476Y-76318453D02*
X177956666Y-76318453D01*
X177956666Y-76318453D02*
X177908285Y-76802263D01*
X177908285Y-76802263D02*
X177956666Y-76753882D01*
X177956666Y-76753882D02*
X178053428Y-76705501D01*
X178053428Y-76705501D02*
X178295333Y-76705501D01*
X178295333Y-76705501D02*
X178392095Y-76753882D01*
X178392095Y-76753882D02*
X178440476Y-76802263D01*
X178440476Y-76802263D02*
X178488857Y-76899025D01*
X178488857Y-76899025D02*
X178488857Y-77140930D01*
X178488857Y-77140930D02*
X178440476Y-77237692D01*
X178440476Y-77237692D02*
X178392095Y-77286073D01*
X178392095Y-77286073D02*
X178295333Y-77334453D01*
X178295333Y-77334453D02*
X178053428Y-77334453D01*
X178053428Y-77334453D02*
X177956666Y-77286073D01*
X177956666Y-77286073D02*
X177908285Y-77237692D01*
X178779142Y-76318453D02*
X179117809Y-77334453D01*
X179117809Y-77334453D02*
X179456476Y-76318453D01*
X179795142Y-77334453D02*
X179795142Y-76318453D01*
X179795142Y-76318453D02*
X180037047Y-76318453D01*
X180037047Y-76318453D02*
X180182190Y-76366834D01*
X180182190Y-76366834D02*
X180278952Y-76463596D01*
X180278952Y-76463596D02*
X180327333Y-76560358D01*
X180327333Y-76560358D02*
X180375714Y-76753882D01*
X180375714Y-76753882D02*
X180375714Y-76899025D01*
X180375714Y-76899025D02*
X180327333Y-77092549D01*
X180327333Y-77092549D02*
X180278952Y-77189311D01*
X180278952Y-77189311D02*
X180182190Y-77286073D01*
X180182190Y-77286073D02*
X180037047Y-77334453D01*
X180037047Y-77334453D02*
X179795142Y-77334453D01*
X181391714Y-77237692D02*
X181343333Y-77286073D01*
X181343333Y-77286073D02*
X181198190Y-77334453D01*
X181198190Y-77334453D02*
X181101428Y-77334453D01*
X181101428Y-77334453D02*
X180956285Y-77286073D01*
X180956285Y-77286073D02*
X180859523Y-77189311D01*
X180859523Y-77189311D02*
X180811142Y-77092549D01*
X180811142Y-77092549D02*
X180762761Y-76899025D01*
X180762761Y-76899025D02*
X180762761Y-76753882D01*
X180762761Y-76753882D02*
X180811142Y-76560358D01*
X180811142Y-76560358D02*
X180859523Y-76463596D01*
X180859523Y-76463596D02*
X180956285Y-76366834D01*
X180956285Y-76366834D02*
X181101428Y-76318453D01*
X181101428Y-76318453D02*
X181198190Y-76318453D01*
X181198190Y-76318453D02*
X181343333Y-76366834D01*
X181343333Y-76366834D02*
X181391714Y-76415215D01*
D14*
X143900000Y-92193520D02*
X143766667Y-92260186D01*
X143766667Y-92260186D02*
X143500000Y-92260186D01*
X143500000Y-92260186D02*
X143366667Y-92193520D01*
X143366667Y-92193520D02*
X143300000Y-92126853D01*
X143300000Y-92126853D02*
X143233333Y-91993520D01*
X143233333Y-91993520D02*
X143233333Y-91593520D01*
X143233333Y-91593520D02*
X143300000Y-91460186D01*
X143300000Y-91460186D02*
X143366667Y-91393520D01*
X143366667Y-91393520D02*
X143500000Y-91326853D01*
X143500000Y-91326853D02*
X143766667Y-91326853D01*
X143766667Y-91326853D02*
X143900000Y-91393520D01*
X144500000Y-92260186D02*
X144500000Y-90860186D01*
X144500000Y-91393520D02*
X144633333Y-91326853D01*
X144633333Y-91326853D02*
X144900000Y-91326853D01*
X144900000Y-91326853D02*
X145033333Y-91393520D01*
X145033333Y-91393520D02*
X145100000Y-91460186D01*
X145100000Y-91460186D02*
X145166667Y-91593520D01*
X145166667Y-91593520D02*
X145166667Y-91993520D01*
X145166667Y-91993520D02*
X145100000Y-92126853D01*
X145100000Y-92126853D02*
X145033333Y-92193520D01*
X145033333Y-92193520D02*
X144900000Y-92260186D01*
X144900000Y-92260186D02*
X144633333Y-92260186D01*
X144633333Y-92260186D02*
X144500000Y-92193520D01*
X145766667Y-92260186D02*
X145766667Y-91326853D01*
X145766667Y-91460186D02*
X145833334Y-91393520D01*
X145833334Y-91393520D02*
X145966667Y-91326853D01*
X145966667Y-91326853D02*
X146166667Y-91326853D01*
X146166667Y-91326853D02*
X146300000Y-91393520D01*
X146300000Y-91393520D02*
X146366667Y-91526853D01*
X146366667Y-91526853D02*
X146366667Y-92260186D01*
X146366667Y-91526853D02*
X146433334Y-91393520D01*
X146433334Y-91393520D02*
X146566667Y-91326853D01*
X146566667Y-91326853D02*
X146766667Y-91326853D01*
X146766667Y-91326853D02*
X146900000Y-91393520D01*
X146900000Y-91393520D02*
X146966667Y-91526853D01*
X146966667Y-91526853D02*
X146966667Y-92260186D01*
X147566667Y-92193520D02*
X147766667Y-92260186D01*
X147766667Y-92260186D02*
X148100001Y-92260186D01*
X148100001Y-92260186D02*
X148233334Y-92193520D01*
X148233334Y-92193520D02*
X148300001Y-92126853D01*
X148300001Y-92126853D02*
X148366667Y-91993520D01*
X148366667Y-91993520D02*
X148366667Y-91860186D01*
X148366667Y-91860186D02*
X148300001Y-91726853D01*
X148300001Y-91726853D02*
X148233334Y-91660186D01*
X148233334Y-91660186D02*
X148100001Y-91593520D01*
X148100001Y-91593520D02*
X147833334Y-91526853D01*
X147833334Y-91526853D02*
X147700001Y-91460186D01*
X147700001Y-91460186D02*
X147633334Y-91393520D01*
X147633334Y-91393520D02*
X147566667Y-91260186D01*
X147566667Y-91260186D02*
X147566667Y-91126853D01*
X147566667Y-91126853D02*
X147633334Y-90993520D01*
X147633334Y-90993520D02*
X147700001Y-90926853D01*
X147700001Y-90926853D02*
X147833334Y-90860186D01*
X147833334Y-90860186D02*
X148166667Y-90860186D01*
X148166667Y-90860186D02*
X148366667Y-90926853D01*
X148966667Y-92260186D02*
X148966667Y-90860186D01*
X148966667Y-90860186D02*
X149300000Y-90860186D01*
X149300000Y-90860186D02*
X149500000Y-90926853D01*
X149500000Y-90926853D02*
X149633334Y-91060186D01*
X149633334Y-91060186D02*
X149700000Y-91193520D01*
X149700000Y-91193520D02*
X149766667Y-91460186D01*
X149766667Y-91460186D02*
X149766667Y-91660186D01*
X149766667Y-91660186D02*
X149700000Y-91926853D01*
X149700000Y-91926853D02*
X149633334Y-92060186D01*
X149633334Y-92060186D02*
X149500000Y-92193520D01*
X149500000Y-92193520D02*
X149300000Y-92260186D01*
X149300000Y-92260186D02*
X148966667Y-92260186D01*
X150366667Y-91726853D02*
X151433334Y-91726853D01*
X152100000Y-91326853D02*
X152100000Y-92726853D01*
X152100000Y-91393520D02*
X152233333Y-91326853D01*
X152233333Y-91326853D02*
X152500000Y-91326853D01*
X152500000Y-91326853D02*
X152633333Y-91393520D01*
X152633333Y-91393520D02*
X152700000Y-91460186D01*
X152700000Y-91460186D02*
X152766667Y-91593520D01*
X152766667Y-91593520D02*
X152766667Y-91993520D01*
X152766667Y-91993520D02*
X152700000Y-92126853D01*
X152700000Y-92126853D02*
X152633333Y-92193520D01*
X152633333Y-92193520D02*
X152500000Y-92260186D01*
X152500000Y-92260186D02*
X152233333Y-92260186D01*
X152233333Y-92260186D02*
X152100000Y-92193520D01*
X153966667Y-92260186D02*
X153966667Y-91526853D01*
X153966667Y-91526853D02*
X153900000Y-91393520D01*
X153900000Y-91393520D02*
X153766667Y-91326853D01*
X153766667Y-91326853D02*
X153500000Y-91326853D01*
X153500000Y-91326853D02*
X153366667Y-91393520D01*
X153966667Y-92193520D02*
X153833334Y-92260186D01*
X153833334Y-92260186D02*
X153500000Y-92260186D01*
X153500000Y-92260186D02*
X153366667Y-92193520D01*
X153366667Y-92193520D02*
X153300000Y-92060186D01*
X153300000Y-92060186D02*
X153300000Y-91926853D01*
X153300000Y-91926853D02*
X153366667Y-91793520D01*
X153366667Y-91793520D02*
X153500000Y-91726853D01*
X153500000Y-91726853D02*
X153833334Y-91726853D01*
X153833334Y-91726853D02*
X153966667Y-91660186D01*
X154566667Y-92193520D02*
X154700001Y-92260186D01*
X154700001Y-92260186D02*
X154966667Y-92260186D01*
X154966667Y-92260186D02*
X155100001Y-92193520D01*
X155100001Y-92193520D02*
X155166667Y-92060186D01*
X155166667Y-92060186D02*
X155166667Y-91993520D01*
X155166667Y-91993520D02*
X155100001Y-91860186D01*
X155100001Y-91860186D02*
X154966667Y-91793520D01*
X154966667Y-91793520D02*
X154766667Y-91793520D01*
X154766667Y-91793520D02*
X154633334Y-91726853D01*
X154633334Y-91726853D02*
X154566667Y-91593520D01*
X154566667Y-91593520D02*
X154566667Y-91526853D01*
X154566667Y-91526853D02*
X154633334Y-91393520D01*
X154633334Y-91393520D02*
X154766667Y-91326853D01*
X154766667Y-91326853D02*
X154966667Y-91326853D01*
X154966667Y-91326853D02*
X155100001Y-91393520D01*
X155700000Y-92193520D02*
X155833334Y-92260186D01*
X155833334Y-92260186D02*
X156100000Y-92260186D01*
X156100000Y-92260186D02*
X156233334Y-92193520D01*
X156233334Y-92193520D02*
X156300000Y-92060186D01*
X156300000Y-92060186D02*
X156300000Y-91993520D01*
X156300000Y-91993520D02*
X156233334Y-91860186D01*
X156233334Y-91860186D02*
X156100000Y-91793520D01*
X156100000Y-91793520D02*
X155900000Y-91793520D01*
X155900000Y-91793520D02*
X155766667Y-91726853D01*
X155766667Y-91726853D02*
X155700000Y-91593520D01*
X155700000Y-91593520D02*
X155700000Y-91526853D01*
X155700000Y-91526853D02*
X155766667Y-91393520D01*
X155766667Y-91393520D02*
X155900000Y-91326853D01*
X155900000Y-91326853D02*
X156100000Y-91326853D01*
X156100000Y-91326853D02*
X156233334Y-91393520D01*
X156900000Y-91726853D02*
X157966667Y-91726853D01*
X159233333Y-92193520D02*
X159100000Y-92260186D01*
X159100000Y-92260186D02*
X158833333Y-92260186D01*
X158833333Y-92260186D02*
X158700000Y-92193520D01*
X158700000Y-92193520D02*
X158633333Y-92126853D01*
X158633333Y-92126853D02*
X158566666Y-91993520D01*
X158566666Y-91993520D02*
X158566666Y-91593520D01*
X158566666Y-91593520D02*
X158633333Y-91460186D01*
X158633333Y-91460186D02*
X158700000Y-91393520D01*
X158700000Y-91393520D02*
X158833333Y-91326853D01*
X158833333Y-91326853D02*
X159100000Y-91326853D01*
X159100000Y-91326853D02*
X159233333Y-91393520D01*
X159766666Y-90993520D02*
X159833333Y-90926853D01*
X159833333Y-90926853D02*
X159966666Y-90860186D01*
X159966666Y-90860186D02*
X160300000Y-90860186D01*
X160300000Y-90860186D02*
X160433333Y-90926853D01*
X160433333Y-90926853D02*
X160500000Y-90993520D01*
X160500000Y-90993520D02*
X160566666Y-91126853D01*
X160566666Y-91126853D02*
X160566666Y-91260186D01*
X160566666Y-91260186D02*
X160500000Y-91460186D01*
X160500000Y-91460186D02*
X159700000Y-92260186D01*
X159700000Y-92260186D02*
X160566666Y-92260186D01*
X161699999Y-92193520D02*
X161566666Y-92260186D01*
X161566666Y-92260186D02*
X161299999Y-92260186D01*
X161299999Y-92260186D02*
X161166666Y-92193520D01*
X161166666Y-92193520D02*
X161099999Y-92060186D01*
X161099999Y-92060186D02*
X161099999Y-91526853D01*
X161099999Y-91526853D02*
X161166666Y-91393520D01*
X161166666Y-91393520D02*
X161299999Y-91326853D01*
X161299999Y-91326853D02*
X161566666Y-91326853D01*
X161566666Y-91326853D02*
X161699999Y-91393520D01*
X161699999Y-91393520D02*
X161766666Y-91526853D01*
X161766666Y-91526853D02*
X161766666Y-91660186D01*
X161766666Y-91660186D02*
X161099999Y-91793520D01*
D15*
X140795236Y-93417727D02*
X140909522Y-93455822D01*
X140909522Y-93455822D02*
X140947617Y-93493918D01*
X140947617Y-93493918D02*
X140985713Y-93570108D01*
X140985713Y-93570108D02*
X140985713Y-93684394D01*
X140985713Y-93684394D02*
X140947617Y-93760584D01*
X140947617Y-93760584D02*
X140909522Y-93798680D01*
X140909522Y-93798680D02*
X140833332Y-93836775D01*
X140833332Y-93836775D02*
X140528570Y-93836775D01*
X140528570Y-93836775D02*
X140528570Y-93036775D01*
X140528570Y-93036775D02*
X140795236Y-93036775D01*
X140795236Y-93036775D02*
X140871427Y-93074870D01*
X140871427Y-93074870D02*
X140909522Y-93112965D01*
X140909522Y-93112965D02*
X140947617Y-93189156D01*
X140947617Y-93189156D02*
X140947617Y-93265346D01*
X140947617Y-93265346D02*
X140909522Y-93341537D01*
X140909522Y-93341537D02*
X140871427Y-93379632D01*
X140871427Y-93379632D02*
X140795236Y-93417727D01*
X140795236Y-93417727D02*
X140528570Y-93417727D01*
X141252379Y-93303441D02*
X141442855Y-93836775D01*
X141633332Y-93303441D02*
X141442855Y-93836775D01*
X141442855Y-93836775D02*
X141366665Y-94027251D01*
X141366665Y-94027251D02*
X141328570Y-94065346D01*
X141328570Y-94065346D02*
X141252379Y-94103441D01*
X142509522Y-93798680D02*
X142623808Y-93836775D01*
X142623808Y-93836775D02*
X142814284Y-93836775D01*
X142814284Y-93836775D02*
X142890475Y-93798680D01*
X142890475Y-93798680D02*
X142928570Y-93760584D01*
X142928570Y-93760584D02*
X142966665Y-93684394D01*
X142966665Y-93684394D02*
X142966665Y-93608203D01*
X142966665Y-93608203D02*
X142928570Y-93532013D01*
X142928570Y-93532013D02*
X142890475Y-93493918D01*
X142890475Y-93493918D02*
X142814284Y-93455822D01*
X142814284Y-93455822D02*
X142661903Y-93417727D01*
X142661903Y-93417727D02*
X142585713Y-93379632D01*
X142585713Y-93379632D02*
X142547618Y-93341537D01*
X142547618Y-93341537D02*
X142509522Y-93265346D01*
X142509522Y-93265346D02*
X142509522Y-93189156D01*
X142509522Y-93189156D02*
X142547618Y-93112965D01*
X142547618Y-93112965D02*
X142585713Y-93074870D01*
X142585713Y-93074870D02*
X142661903Y-93036775D01*
X142661903Y-93036775D02*
X142852380Y-93036775D01*
X142852380Y-93036775D02*
X142966665Y-93074870D01*
X143195237Y-93303441D02*
X143499999Y-93303441D01*
X143309523Y-93036775D02*
X143309523Y-93722489D01*
X143309523Y-93722489D02*
X143347618Y-93798680D01*
X143347618Y-93798680D02*
X143423808Y-93836775D01*
X143423808Y-93836775D02*
X143499999Y-93836775D01*
X144071428Y-93798680D02*
X143995237Y-93836775D01*
X143995237Y-93836775D02*
X143842856Y-93836775D01*
X143842856Y-93836775D02*
X143766666Y-93798680D01*
X143766666Y-93798680D02*
X143728570Y-93722489D01*
X143728570Y-93722489D02*
X143728570Y-93417727D01*
X143728570Y-93417727D02*
X143766666Y-93341537D01*
X143766666Y-93341537D02*
X143842856Y-93303441D01*
X143842856Y-93303441D02*
X143995237Y-93303441D01*
X143995237Y-93303441D02*
X144071428Y-93341537D01*
X144071428Y-93341537D02*
X144109523Y-93417727D01*
X144109523Y-93417727D02*
X144109523Y-93493918D01*
X144109523Y-93493918D02*
X143728570Y-93570108D01*
X144376189Y-93303441D02*
X144566665Y-93836775D01*
X144566665Y-93836775D02*
X144757142Y-93303441D01*
X145366666Y-93798680D02*
X145290475Y-93836775D01*
X145290475Y-93836775D02*
X145138094Y-93836775D01*
X145138094Y-93836775D02*
X145061904Y-93798680D01*
X145061904Y-93798680D02*
X145023808Y-93722489D01*
X145023808Y-93722489D02*
X145023808Y-93417727D01*
X145023808Y-93417727D02*
X145061904Y-93341537D01*
X145061904Y-93341537D02*
X145138094Y-93303441D01*
X145138094Y-93303441D02*
X145290475Y-93303441D01*
X145290475Y-93303441D02*
X145366666Y-93341537D01*
X145366666Y-93341537D02*
X145404761Y-93417727D01*
X145404761Y-93417727D02*
X145404761Y-93493918D01*
X145404761Y-93493918D02*
X145023808Y-93570108D01*
X146585713Y-93036775D02*
X146585713Y-93608203D01*
X146585713Y-93608203D02*
X146547618Y-93722489D01*
X146547618Y-93722489D02*
X146471427Y-93798680D01*
X146471427Y-93798680D02*
X146357142Y-93836775D01*
X146357142Y-93836775D02*
X146280951Y-93836775D01*
X146966666Y-93760584D02*
X147004761Y-93798680D01*
X147004761Y-93798680D02*
X146966666Y-93836775D01*
X146966666Y-93836775D02*
X146928570Y-93798680D01*
X146928570Y-93798680D02*
X146966666Y-93760584D01*
X146966666Y-93760584D02*
X146966666Y-93836775D01*
X148376189Y-93074870D02*
X148299999Y-93036775D01*
X148299999Y-93036775D02*
X148185713Y-93036775D01*
X148185713Y-93036775D02*
X148071427Y-93074870D01*
X148071427Y-93074870D02*
X147995237Y-93151060D01*
X147995237Y-93151060D02*
X147957142Y-93227251D01*
X147957142Y-93227251D02*
X147919046Y-93379632D01*
X147919046Y-93379632D02*
X147919046Y-93493918D01*
X147919046Y-93493918D02*
X147957142Y-93646299D01*
X147957142Y-93646299D02*
X147995237Y-93722489D01*
X147995237Y-93722489D02*
X148071427Y-93798680D01*
X148071427Y-93798680D02*
X148185713Y-93836775D01*
X148185713Y-93836775D02*
X148261904Y-93836775D01*
X148261904Y-93836775D02*
X148376189Y-93798680D01*
X148376189Y-93798680D02*
X148414285Y-93760584D01*
X148414285Y-93760584D02*
X148414285Y-93493918D01*
X148414285Y-93493918D02*
X148261904Y-93493918D01*
X148757142Y-93836775D02*
X148757142Y-93303441D01*
X148757142Y-93455822D02*
X148795237Y-93379632D01*
X148795237Y-93379632D02*
X148833332Y-93341537D01*
X148833332Y-93341537D02*
X148909523Y-93303441D01*
X148909523Y-93303441D02*
X148985713Y-93303441D01*
X149595237Y-93836775D02*
X149595237Y-93417727D01*
X149595237Y-93417727D02*
X149557142Y-93341537D01*
X149557142Y-93341537D02*
X149480951Y-93303441D01*
X149480951Y-93303441D02*
X149328570Y-93303441D01*
X149328570Y-93303441D02*
X149252380Y-93341537D01*
X149595237Y-93798680D02*
X149519046Y-93836775D01*
X149519046Y-93836775D02*
X149328570Y-93836775D01*
X149328570Y-93836775D02*
X149252380Y-93798680D01*
X149252380Y-93798680D02*
X149214284Y-93722489D01*
X149214284Y-93722489D02*
X149214284Y-93646299D01*
X149214284Y-93646299D02*
X149252380Y-93570108D01*
X149252380Y-93570108D02*
X149328570Y-93532013D01*
X149328570Y-93532013D02*
X149519046Y-93532013D01*
X149519046Y-93532013D02*
X149595237Y-93493918D01*
X149899999Y-93303441D02*
X150090475Y-93836775D01*
X150280952Y-93303441D02*
X150090475Y-93836775D01*
X150090475Y-93836775D02*
X150014285Y-94027251D01*
X150014285Y-94027251D02*
X149976190Y-94065346D01*
X149976190Y-94065346D02*
X149899999Y-94103441D01*
X150623809Y-93798680D02*
X150623809Y-93836775D01*
X150623809Y-93836775D02*
X150585714Y-93912965D01*
X150585714Y-93912965D02*
X150547618Y-93951060D01*
X151461904Y-93036775D02*
X151728571Y-93836775D01*
X151728571Y-93836775D02*
X151995237Y-93036775D01*
X152680951Y-93836775D02*
X152223808Y-93836775D01*
X152452380Y-93836775D02*
X152452380Y-93036775D01*
X152452380Y-93036775D02*
X152376189Y-93151060D01*
X152376189Y-93151060D02*
X152299999Y-93227251D01*
X152299999Y-93227251D02*
X152223808Y-93265346D01*
X153023809Y-93760584D02*
X153061904Y-93798680D01*
X153061904Y-93798680D02*
X153023809Y-93836775D01*
X153023809Y-93836775D02*
X152985713Y-93798680D01*
X152985713Y-93798680D02*
X153023809Y-93760584D01*
X153023809Y-93760584D02*
X153023809Y-93836775D01*
X153557142Y-93036775D02*
X153633332Y-93036775D01*
X153633332Y-93036775D02*
X153709523Y-93074870D01*
X153709523Y-93074870D02*
X153747618Y-93112965D01*
X153747618Y-93112965D02*
X153785713Y-93189156D01*
X153785713Y-93189156D02*
X153823808Y-93341537D01*
X153823808Y-93341537D02*
X153823808Y-93532013D01*
X153823808Y-93532013D02*
X153785713Y-93684394D01*
X153785713Y-93684394D02*
X153747618Y-93760584D01*
X153747618Y-93760584D02*
X153709523Y-93798680D01*
X153709523Y-93798680D02*
X153633332Y-93836775D01*
X153633332Y-93836775D02*
X153557142Y-93836775D01*
X153557142Y-93836775D02*
X153480951Y-93798680D01*
X153480951Y-93798680D02*
X153442856Y-93760584D01*
X153442856Y-93760584D02*
X153404761Y-93684394D01*
X153404761Y-93684394D02*
X153366665Y-93532013D01*
X153366665Y-93532013D02*
X153366665Y-93341537D01*
X153366665Y-93341537D02*
X153404761Y-93189156D01*
X153404761Y-93189156D02*
X153442856Y-93112965D01*
X153442856Y-93112965D02*
X153480951Y-93074870D01*
X153480951Y-93074870D02*
X153557142Y-93036775D01*
X154776190Y-93532013D02*
X155385714Y-93532013D01*
X156338094Y-93112965D02*
X156376190Y-93074870D01*
X156376190Y-93074870D02*
X156452380Y-93036775D01*
X156452380Y-93036775D02*
X156642856Y-93036775D01*
X156642856Y-93036775D02*
X156719047Y-93074870D01*
X156719047Y-93074870D02*
X156757142Y-93112965D01*
X156757142Y-93112965D02*
X156795237Y-93189156D01*
X156795237Y-93189156D02*
X156795237Y-93265346D01*
X156795237Y-93265346D02*
X156757142Y-93379632D01*
X156757142Y-93379632D02*
X156299999Y-93836775D01*
X156299999Y-93836775D02*
X156795237Y-93836775D01*
X157290476Y-93036775D02*
X157366666Y-93036775D01*
X157366666Y-93036775D02*
X157442857Y-93074870D01*
X157442857Y-93074870D02*
X157480952Y-93112965D01*
X157480952Y-93112965D02*
X157519047Y-93189156D01*
X157519047Y-93189156D02*
X157557142Y-93341537D01*
X157557142Y-93341537D02*
X157557142Y-93532013D01*
X157557142Y-93532013D02*
X157519047Y-93684394D01*
X157519047Y-93684394D02*
X157480952Y-93760584D01*
X157480952Y-93760584D02*
X157442857Y-93798680D01*
X157442857Y-93798680D02*
X157366666Y-93836775D01*
X157366666Y-93836775D02*
X157290476Y-93836775D01*
X157290476Y-93836775D02*
X157214285Y-93798680D01*
X157214285Y-93798680D02*
X157176190Y-93760584D01*
X157176190Y-93760584D02*
X157138095Y-93684394D01*
X157138095Y-93684394D02*
X157099999Y-93532013D01*
X157099999Y-93532013D02*
X157099999Y-93341537D01*
X157099999Y-93341537D02*
X157138095Y-93189156D01*
X157138095Y-93189156D02*
X157176190Y-93112965D01*
X157176190Y-93112965D02*
X157214285Y-93074870D01*
X157214285Y-93074870D02*
X157290476Y-93036775D01*
X157861904Y-93112965D02*
X157900000Y-93074870D01*
X157900000Y-93074870D02*
X157976190Y-93036775D01*
X157976190Y-93036775D02*
X158166666Y-93036775D01*
X158166666Y-93036775D02*
X158242857Y-93074870D01*
X158242857Y-93074870D02*
X158280952Y-93112965D01*
X158280952Y-93112965D02*
X158319047Y-93189156D01*
X158319047Y-93189156D02*
X158319047Y-93265346D01*
X158319047Y-93265346D02*
X158280952Y-93379632D01*
X158280952Y-93379632D02*
X157823809Y-93836775D01*
X157823809Y-93836775D02*
X158319047Y-93836775D01*
X159042857Y-93036775D02*
X158661905Y-93036775D01*
X158661905Y-93036775D02*
X158623809Y-93417727D01*
X158623809Y-93417727D02*
X158661905Y-93379632D01*
X158661905Y-93379632D02*
X158738095Y-93341537D01*
X158738095Y-93341537D02*
X158928571Y-93341537D01*
X158928571Y-93341537D02*
X159004762Y-93379632D01*
X159004762Y-93379632D02*
X159042857Y-93417727D01*
X159042857Y-93417727D02*
X159080952Y-93493918D01*
X159080952Y-93493918D02*
X159080952Y-93684394D01*
X159080952Y-93684394D02*
X159042857Y-93760584D01*
X159042857Y-93760584D02*
X159004762Y-93798680D01*
X159004762Y-93798680D02*
X158928571Y-93836775D01*
X158928571Y-93836775D02*
X158738095Y-93836775D01*
X158738095Y-93836775D02*
X158661905Y-93798680D01*
X158661905Y-93798680D02*
X158623809Y-93760584D01*
X159423810Y-93532013D02*
X160033334Y-93532013D01*
X160833333Y-93836775D02*
X160376190Y-93836775D01*
X160604762Y-93836775D02*
X160604762Y-93036775D01*
X160604762Y-93036775D02*
X160528571Y-93151060D01*
X160528571Y-93151060D02*
X160452381Y-93227251D01*
X160452381Y-93227251D02*
X160376190Y-93265346D01*
X161138095Y-93112965D02*
X161176191Y-93074870D01*
X161176191Y-93074870D02*
X161252381Y-93036775D01*
X161252381Y-93036775D02*
X161442857Y-93036775D01*
X161442857Y-93036775D02*
X161519048Y-93074870D01*
X161519048Y-93074870D02*
X161557143Y-93112965D01*
X161557143Y-93112965D02*
X161595238Y-93189156D01*
X161595238Y-93189156D02*
X161595238Y-93265346D01*
X161595238Y-93265346D02*
X161557143Y-93379632D01*
X161557143Y-93379632D02*
X161100000Y-93836775D01*
X161100000Y-93836775D02*
X161595238Y-93836775D01*
X161938096Y-93532013D02*
X162547620Y-93532013D01*
X163080953Y-93036775D02*
X163157143Y-93036775D01*
X163157143Y-93036775D02*
X163233334Y-93074870D01*
X163233334Y-93074870D02*
X163271429Y-93112965D01*
X163271429Y-93112965D02*
X163309524Y-93189156D01*
X163309524Y-93189156D02*
X163347619Y-93341537D01*
X163347619Y-93341537D02*
X163347619Y-93532013D01*
X163347619Y-93532013D02*
X163309524Y-93684394D01*
X163309524Y-93684394D02*
X163271429Y-93760584D01*
X163271429Y-93760584D02*
X163233334Y-93798680D01*
X163233334Y-93798680D02*
X163157143Y-93836775D01*
X163157143Y-93836775D02*
X163080953Y-93836775D01*
X163080953Y-93836775D02*
X163004762Y-93798680D01*
X163004762Y-93798680D02*
X162966667Y-93760584D01*
X162966667Y-93760584D02*
X162928572Y-93684394D01*
X162928572Y-93684394D02*
X162890476Y-93532013D01*
X162890476Y-93532013D02*
X162890476Y-93341537D01*
X162890476Y-93341537D02*
X162928572Y-93189156D01*
X162928572Y-93189156D02*
X162966667Y-93112965D01*
X162966667Y-93112965D02*
X163004762Y-93074870D01*
X163004762Y-93074870D02*
X163080953Y-93036775D01*
X164109524Y-93836775D02*
X163652381Y-93836775D01*
X163880953Y-93836775D02*
X163880953Y-93036775D01*
X163880953Y-93036775D02*
X163804762Y-93151060D01*
X163804762Y-93151060D02*
X163728572Y-93227251D01*
X163728572Y-93227251D02*
X163652381Y-93265346D01*
D13*
X177335771Y-77611904D02*
X177288152Y-77659523D01*
X177288152Y-77659523D02*
X177145295Y-77754761D01*
X177145295Y-77754761D02*
X177050057Y-77802380D01*
X177050057Y-77802380D02*
X176907200Y-77849999D01*
X176907200Y-77849999D02*
X176669104Y-77897618D01*
X176669104Y-77897618D02*
X176478628Y-77897618D01*
X176478628Y-77897618D02*
X176240533Y-77849999D01*
X176240533Y-77849999D02*
X176097676Y-77802380D01*
X176097676Y-77802380D02*
X176002438Y-77754761D01*
X176002438Y-77754761D02*
X175859580Y-77659523D01*
X175859580Y-77659523D02*
X175811961Y-77611904D01*
X176573866Y-77230951D02*
X176573866Y-76469047D01*
X176954819Y-76849999D02*
X176192914Y-76849999D01*
X177335771Y-76088094D02*
X177288152Y-76040475D01*
X177288152Y-76040475D02*
X177145295Y-75945237D01*
X177145295Y-75945237D02*
X177050057Y-75897618D01*
X177050057Y-75897618D02*
X176907200Y-75849999D01*
X176907200Y-75849999D02*
X176669104Y-75802380D01*
X176669104Y-75802380D02*
X176478628Y-75802380D01*
X176478628Y-75802380D02*
X176240533Y-75849999D01*
X176240533Y-75849999D02*
X176097676Y-75897618D01*
X176097676Y-75897618D02*
X176002438Y-75945237D01*
X176002438Y-75945237D02*
X175859580Y-76040475D01*
X175859580Y-76040475D02*
X175811961Y-76088094D01*
X123938895Y-63335714D02*
X123900800Y-63297618D01*
X123900800Y-63297618D02*
X123862704Y-63183333D01*
X123862704Y-63183333D02*
X123862704Y-63107142D01*
X123862704Y-63107142D02*
X123900800Y-62992856D01*
X123900800Y-62992856D02*
X123976990Y-62916666D01*
X123976990Y-62916666D02*
X124053180Y-62878571D01*
X124053180Y-62878571D02*
X124205561Y-62840475D01*
X124205561Y-62840475D02*
X124319847Y-62840475D01*
X124319847Y-62840475D02*
X124472228Y-62878571D01*
X124472228Y-62878571D02*
X124548419Y-62916666D01*
X124548419Y-62916666D02*
X124624609Y-62992856D01*
X124624609Y-62992856D02*
X124662704Y-63107142D01*
X124662704Y-63107142D02*
X124662704Y-63183333D01*
X124662704Y-63183333D02*
X124624609Y-63297618D01*
X124624609Y-63297618D02*
X124586514Y-63335714D01*
X124662704Y-63830952D02*
X124662704Y-63983333D01*
X124662704Y-63983333D02*
X124624609Y-64059523D01*
X124624609Y-64059523D02*
X124548419Y-64135714D01*
X124548419Y-64135714D02*
X124396038Y-64173809D01*
X124396038Y-64173809D02*
X124129371Y-64173809D01*
X124129371Y-64173809D02*
X123976990Y-64135714D01*
X123976990Y-64135714D02*
X123900800Y-64059523D01*
X123900800Y-64059523D02*
X123862704Y-63983333D01*
X123862704Y-63983333D02*
X123862704Y-63830952D01*
X123862704Y-63830952D02*
X123900800Y-63754761D01*
X123900800Y-63754761D02*
X123976990Y-63678571D01*
X123976990Y-63678571D02*
X124129371Y-63640475D01*
X124129371Y-63640475D02*
X124396038Y-63640475D01*
X124396038Y-63640475D02*
X124548419Y-63678571D01*
X124548419Y-63678571D02*
X124624609Y-63754761D01*
X124624609Y-63754761D02*
X124662704Y-63830952D01*
X123862704Y-64516666D02*
X124662704Y-64516666D01*
X124662704Y-64516666D02*
X124091276Y-64783332D01*
X124091276Y-64783332D02*
X124662704Y-65049999D01*
X124662704Y-65049999D02*
X123862704Y-65049999D01*
X123862704Y-65430952D02*
X124662704Y-65430952D01*
X124662704Y-65430952D02*
X124662704Y-65735714D01*
X124662704Y-65735714D02*
X124624609Y-65811904D01*
X124624609Y-65811904D02*
X124586514Y-65849999D01*
X124586514Y-65849999D02*
X124510323Y-65888095D01*
X124510323Y-65888095D02*
X124396038Y-65888095D01*
X124396038Y-65888095D02*
X124319847Y-65849999D01*
X124319847Y-65849999D02*
X124281752Y-65811904D01*
X124281752Y-65811904D02*
X124243657Y-65735714D01*
X124243657Y-65735714D02*
X124243657Y-65430952D01*
X124662704Y-66230952D02*
X124015085Y-66230952D01*
X124015085Y-66230952D02*
X123938895Y-66269047D01*
X123938895Y-66269047D02*
X123900800Y-66307142D01*
X123900800Y-66307142D02*
X123862704Y-66383333D01*
X123862704Y-66383333D02*
X123862704Y-66535714D01*
X123862704Y-66535714D02*
X123900800Y-66611904D01*
X123900800Y-66611904D02*
X123938895Y-66649999D01*
X123938895Y-66649999D02*
X124015085Y-66688095D01*
X124015085Y-66688095D02*
X124662704Y-66688095D01*
X124662704Y-66954761D02*
X124662704Y-67411904D01*
X123862704Y-67183332D02*
X124662704Y-67183332D01*
X124281752Y-67678571D02*
X124281752Y-67945237D01*
X123862704Y-68059523D02*
X123862704Y-67678571D01*
X123862704Y-67678571D02*
X124662704Y-67678571D01*
X124662704Y-67678571D02*
X124662704Y-68059523D01*
X123862704Y-68859524D02*
X124243657Y-68592857D01*
X123862704Y-68402381D02*
X124662704Y-68402381D01*
X124662704Y-68402381D02*
X124662704Y-68707143D01*
X124662704Y-68707143D02*
X124624609Y-68783333D01*
X124624609Y-68783333D02*
X124586514Y-68821428D01*
X124586514Y-68821428D02*
X124510323Y-68859524D01*
X124510323Y-68859524D02*
X124396038Y-68859524D01*
X124396038Y-68859524D02*
X124319847Y-68821428D01*
X124319847Y-68821428D02*
X124281752Y-68783333D01*
X124281752Y-68783333D02*
X124243657Y-68707143D01*
X124243657Y-68707143D02*
X124243657Y-68402381D01*
D12*
X159803523Y-87934453D02*
X159803523Y-86918453D01*
X159803523Y-86918453D02*
X160190571Y-86918453D01*
X160190571Y-86918453D02*
X160287333Y-86966834D01*
X160287333Y-86966834D02*
X160335714Y-87015215D01*
X160335714Y-87015215D02*
X160384095Y-87111977D01*
X160384095Y-87111977D02*
X160384095Y-87257120D01*
X160384095Y-87257120D02*
X160335714Y-87353882D01*
X160335714Y-87353882D02*
X160287333Y-87402263D01*
X160287333Y-87402263D02*
X160190571Y-87450644D01*
X160190571Y-87450644D02*
X159803523Y-87450644D01*
X161013047Y-86918453D02*
X161206571Y-86918453D01*
X161206571Y-86918453D02*
X161303333Y-86966834D01*
X161303333Y-86966834D02*
X161400095Y-87063596D01*
X161400095Y-87063596D02*
X161448476Y-87257120D01*
X161448476Y-87257120D02*
X161448476Y-87595787D01*
X161448476Y-87595787D02*
X161400095Y-87789311D01*
X161400095Y-87789311D02*
X161303333Y-87886073D01*
X161303333Y-87886073D02*
X161206571Y-87934453D01*
X161206571Y-87934453D02*
X161013047Y-87934453D01*
X161013047Y-87934453D02*
X160916285Y-87886073D01*
X160916285Y-87886073D02*
X160819523Y-87789311D01*
X160819523Y-87789311D02*
X160771142Y-87595787D01*
X160771142Y-87595787D02*
X160771142Y-87257120D01*
X160771142Y-87257120D02*
X160819523Y-87063596D01*
X160819523Y-87063596D02*
X160916285Y-86966834D01*
X160916285Y-86966834D02*
X161013047Y-86918453D01*
X161787142Y-86918453D02*
X162029047Y-87934453D01*
X162029047Y-87934453D02*
X162222571Y-87208739D01*
X162222571Y-87208739D02*
X162416095Y-87934453D01*
X162416095Y-87934453D02*
X162658000Y-86918453D01*
X163045047Y-87402263D02*
X163383714Y-87402263D01*
X163528857Y-87934453D02*
X163045047Y-87934453D01*
X163045047Y-87934453D02*
X163045047Y-86918453D01*
X163045047Y-86918453D02*
X163528857Y-86918453D01*
X164544857Y-87934453D02*
X164206190Y-87450644D01*
X163964285Y-87934453D02*
X163964285Y-86918453D01*
X163964285Y-86918453D02*
X164351333Y-86918453D01*
X164351333Y-86918453D02*
X164448095Y-86966834D01*
X164448095Y-86966834D02*
X164496476Y-87015215D01*
X164496476Y-87015215D02*
X164544857Y-87111977D01*
X164544857Y-87111977D02*
X164544857Y-87257120D01*
X164544857Y-87257120D02*
X164496476Y-87353882D01*
X164496476Y-87353882D02*
X164448095Y-87402263D01*
X164448095Y-87402263D02*
X164351333Y-87450644D01*
X164351333Y-87450644D02*
X163964285Y-87450644D01*
X124756546Y-81174381D02*
X124756546Y-80690571D01*
X124756546Y-80690571D02*
X124272736Y-80642190D01*
X124272736Y-80642190D02*
X124321117Y-80690571D01*
X124321117Y-80690571D02*
X124369498Y-80787333D01*
X124369498Y-80787333D02*
X124369498Y-81029238D01*
X124369498Y-81029238D02*
X124321117Y-81126000D01*
X124321117Y-81126000D02*
X124272736Y-81174381D01*
X124272736Y-81174381D02*
X124175974Y-81222762D01*
X124175974Y-81222762D02*
X123934069Y-81222762D01*
X123934069Y-81222762D02*
X123837307Y-81174381D01*
X123837307Y-81174381D02*
X123788927Y-81126000D01*
X123788927Y-81126000D02*
X123740546Y-81029238D01*
X123740546Y-81029238D02*
X123740546Y-80787333D01*
X123740546Y-80787333D02*
X123788927Y-80690571D01*
X123788927Y-80690571D02*
X123837307Y-80642190D01*
X124756546Y-81513047D02*
X123740546Y-81851714D01*
X123740546Y-81851714D02*
X124756546Y-82190381D01*
X124708165Y-84609428D02*
X124756546Y-84512666D01*
X124756546Y-84512666D02*
X124756546Y-84367523D01*
X124756546Y-84367523D02*
X124708165Y-84222380D01*
X124708165Y-84222380D02*
X124611403Y-84125618D01*
X124611403Y-84125618D02*
X124514641Y-84077237D01*
X124514641Y-84077237D02*
X124321117Y-84028856D01*
X124321117Y-84028856D02*
X124175974Y-84028856D01*
X124175974Y-84028856D02*
X123982450Y-84077237D01*
X123982450Y-84077237D02*
X123885688Y-84125618D01*
X123885688Y-84125618D02*
X123788927Y-84222380D01*
X123788927Y-84222380D02*
X123740546Y-84367523D01*
X123740546Y-84367523D02*
X123740546Y-84464285D01*
X123740546Y-84464285D02*
X123788927Y-84609428D01*
X123788927Y-84609428D02*
X123837307Y-84657809D01*
X123837307Y-84657809D02*
X124175974Y-84657809D01*
X124175974Y-84657809D02*
X124175974Y-84464285D01*
D13*
X129671428Y-95612295D02*
X129671428Y-94812295D01*
X130052380Y-95193247D02*
X130319046Y-95193247D01*
X130433332Y-95612295D02*
X130052380Y-95612295D01*
X130052380Y-95612295D02*
X130052380Y-94812295D01*
X130052380Y-94812295D02*
X130433332Y-94812295D01*
X130776190Y-95193247D02*
X131042856Y-95193247D01*
X131157142Y-95612295D02*
X130776190Y-95612295D01*
X130776190Y-95612295D02*
X130776190Y-94812295D01*
X130776190Y-94812295D02*
X131157142Y-94812295D01*
X131500000Y-95193247D02*
X131766666Y-95193247D01*
X131880952Y-95612295D02*
X131500000Y-95612295D01*
X131500000Y-95612295D02*
X131500000Y-94812295D01*
X131500000Y-94812295D02*
X131880952Y-94812295D01*
X132833334Y-95612295D02*
X132833334Y-94812295D01*
X132833334Y-94812295D02*
X133023810Y-94812295D01*
X133023810Y-94812295D02*
X133138096Y-94850390D01*
X133138096Y-94850390D02*
X133214286Y-94926580D01*
X133214286Y-94926580D02*
X133252381Y-95002771D01*
X133252381Y-95002771D02*
X133290477Y-95155152D01*
X133290477Y-95155152D02*
X133290477Y-95269438D01*
X133290477Y-95269438D02*
X133252381Y-95421819D01*
X133252381Y-95421819D02*
X133214286Y-95498009D01*
X133214286Y-95498009D02*
X133138096Y-95574200D01*
X133138096Y-95574200D02*
X133023810Y-95612295D01*
X133023810Y-95612295D02*
X132833334Y-95612295D01*
X133633334Y-95193247D02*
X133900000Y-95193247D01*
X134014286Y-95612295D02*
X133633334Y-95612295D01*
X133633334Y-95612295D02*
X133633334Y-94812295D01*
X133633334Y-94812295D02*
X134014286Y-94812295D01*
X134242858Y-94812295D02*
X134509525Y-95612295D01*
X134509525Y-95612295D02*
X134776191Y-94812295D01*
X135042858Y-95612295D02*
X135042858Y-94812295D01*
X135880953Y-95536104D02*
X135842857Y-95574200D01*
X135842857Y-95574200D02*
X135728572Y-95612295D01*
X135728572Y-95612295D02*
X135652381Y-95612295D01*
X135652381Y-95612295D02*
X135538095Y-95574200D01*
X135538095Y-95574200D02*
X135461905Y-95498009D01*
X135461905Y-95498009D02*
X135423810Y-95421819D01*
X135423810Y-95421819D02*
X135385714Y-95269438D01*
X135385714Y-95269438D02*
X135385714Y-95155152D01*
X135385714Y-95155152D02*
X135423810Y-95002771D01*
X135423810Y-95002771D02*
X135461905Y-94926580D01*
X135461905Y-94926580D02*
X135538095Y-94850390D01*
X135538095Y-94850390D02*
X135652381Y-94812295D01*
X135652381Y-94812295D02*
X135728572Y-94812295D01*
X135728572Y-94812295D02*
X135842857Y-94850390D01*
X135842857Y-94850390D02*
X135880953Y-94888485D01*
X136223810Y-95193247D02*
X136490476Y-95193247D01*
X136604762Y-95612295D02*
X136223810Y-95612295D01*
X136223810Y-95612295D02*
X136223810Y-94812295D01*
X136223810Y-94812295D02*
X136604762Y-94812295D01*
X136909524Y-95574200D02*
X137023810Y-95612295D01*
X137023810Y-95612295D02*
X137214286Y-95612295D01*
X137214286Y-95612295D02*
X137290477Y-95574200D01*
X137290477Y-95574200D02*
X137328572Y-95536104D01*
X137328572Y-95536104D02*
X137366667Y-95459914D01*
X137366667Y-95459914D02*
X137366667Y-95383723D01*
X137366667Y-95383723D02*
X137328572Y-95307533D01*
X137328572Y-95307533D02*
X137290477Y-95269438D01*
X137290477Y-95269438D02*
X137214286Y-95231342D01*
X137214286Y-95231342D02*
X137061905Y-95193247D01*
X137061905Y-95193247D02*
X136985715Y-95155152D01*
X136985715Y-95155152D02*
X136947620Y-95117057D01*
X136947620Y-95117057D02*
X136909524Y-95040866D01*
X136909524Y-95040866D02*
X136909524Y-94964676D01*
X136909524Y-94964676D02*
X136947620Y-94888485D01*
X136947620Y-94888485D02*
X136985715Y-94850390D01*
X136985715Y-94850390D02*
X137061905Y-94812295D01*
X137061905Y-94812295D02*
X137252382Y-94812295D01*
X137252382Y-94812295D02*
X137366667Y-94850390D01*
D12*
X170999381Y-92168453D02*
X170515571Y-92168453D01*
X170515571Y-92168453D02*
X170467190Y-92652263D01*
X170467190Y-92652263D02*
X170515571Y-92603882D01*
X170515571Y-92603882D02*
X170612333Y-92555501D01*
X170612333Y-92555501D02*
X170854238Y-92555501D01*
X170854238Y-92555501D02*
X170951000Y-92603882D01*
X170951000Y-92603882D02*
X170999381Y-92652263D01*
X170999381Y-92652263D02*
X171047762Y-92749025D01*
X171047762Y-92749025D02*
X171047762Y-92990930D01*
X171047762Y-92990930D02*
X170999381Y-93087692D01*
X170999381Y-93087692D02*
X170951000Y-93136073D01*
X170951000Y-93136073D02*
X170854238Y-93184453D01*
X170854238Y-93184453D02*
X170612333Y-93184453D01*
X170612333Y-93184453D02*
X170515571Y-93136073D01*
X170515571Y-93136073D02*
X170467190Y-93087692D01*
X171338047Y-92168453D02*
X171676714Y-93184453D01*
X171676714Y-93184453D02*
X172015381Y-92168453D01*
X174434428Y-92216834D02*
X174337666Y-92168453D01*
X174337666Y-92168453D02*
X174192523Y-92168453D01*
X174192523Y-92168453D02*
X174047380Y-92216834D01*
X174047380Y-92216834D02*
X173950618Y-92313596D01*
X173950618Y-92313596D02*
X173902237Y-92410358D01*
X173902237Y-92410358D02*
X173853856Y-92603882D01*
X173853856Y-92603882D02*
X173853856Y-92749025D01*
X173853856Y-92749025D02*
X173902237Y-92942549D01*
X173902237Y-92942549D02*
X173950618Y-93039311D01*
X173950618Y-93039311D02*
X174047380Y-93136073D01*
X174047380Y-93136073D02*
X174192523Y-93184453D01*
X174192523Y-93184453D02*
X174289285Y-93184453D01*
X174289285Y-93184453D02*
X174434428Y-93136073D01*
X174434428Y-93136073D02*
X174482809Y-93087692D01*
X174482809Y-93087692D02*
X174482809Y-92749025D01*
X174482809Y-92749025D02*
X174289285Y-92749025D01*
D13*
X135075121Y-82013485D02*
X135113217Y-81975390D01*
X135113217Y-81975390D02*
X135189407Y-81937295D01*
X135189407Y-81937295D02*
X135379883Y-81937295D01*
X135379883Y-81937295D02*
X135456074Y-81975390D01*
X135456074Y-81975390D02*
X135494169Y-82013485D01*
X135494169Y-82013485D02*
X135532264Y-82089676D01*
X135532264Y-82089676D02*
X135532264Y-82165866D01*
X135532264Y-82165866D02*
X135494169Y-82280152D01*
X135494169Y-82280152D02*
X135037026Y-82737295D01*
X135037026Y-82737295D02*
X135532264Y-82737295D01*
X136027503Y-81937295D02*
X136103693Y-81937295D01*
X136103693Y-81937295D02*
X136179884Y-81975390D01*
X136179884Y-81975390D02*
X136217979Y-82013485D01*
X136217979Y-82013485D02*
X136256074Y-82089676D01*
X136256074Y-82089676D02*
X136294169Y-82242057D01*
X136294169Y-82242057D02*
X136294169Y-82432533D01*
X136294169Y-82432533D02*
X136256074Y-82584914D01*
X136256074Y-82584914D02*
X136217979Y-82661104D01*
X136217979Y-82661104D02*
X136179884Y-82699200D01*
X136179884Y-82699200D02*
X136103693Y-82737295D01*
X136103693Y-82737295D02*
X136027503Y-82737295D01*
X136027503Y-82737295D02*
X135951312Y-82699200D01*
X135951312Y-82699200D02*
X135913217Y-82661104D01*
X135913217Y-82661104D02*
X135875122Y-82584914D01*
X135875122Y-82584914D02*
X135837026Y-82432533D01*
X135837026Y-82432533D02*
X135837026Y-82242057D01*
X135837026Y-82242057D02*
X135875122Y-82089676D01*
X135875122Y-82089676D02*
X135913217Y-82013485D01*
X135913217Y-82013485D02*
X135951312Y-81975390D01*
X135951312Y-81975390D02*
X136027503Y-81937295D01*
X136637027Y-82432533D02*
X137246551Y-82432533D01*
X137627503Y-82203961D02*
X137627503Y-83003961D01*
X137627503Y-82242057D02*
X137703693Y-82203961D01*
X137703693Y-82203961D02*
X137856074Y-82203961D01*
X137856074Y-82203961D02*
X137932265Y-82242057D01*
X137932265Y-82242057D02*
X137970360Y-82280152D01*
X137970360Y-82280152D02*
X138008455Y-82356342D01*
X138008455Y-82356342D02*
X138008455Y-82584914D01*
X138008455Y-82584914D02*
X137970360Y-82661104D01*
X137970360Y-82661104D02*
X137932265Y-82699200D01*
X137932265Y-82699200D02*
X137856074Y-82737295D01*
X137856074Y-82737295D02*
X137703693Y-82737295D01*
X137703693Y-82737295D02*
X137627503Y-82699200D01*
X138351313Y-82737295D02*
X138351313Y-82203961D01*
X138351313Y-81937295D02*
X138313217Y-81975390D01*
X138313217Y-81975390D02*
X138351313Y-82013485D01*
X138351313Y-82013485D02*
X138389408Y-81975390D01*
X138389408Y-81975390D02*
X138351313Y-81937295D01*
X138351313Y-81937295D02*
X138351313Y-82013485D01*
X138732265Y-82203961D02*
X138732265Y-82737295D01*
X138732265Y-82280152D02*
X138770360Y-82242057D01*
X138770360Y-82242057D02*
X138846550Y-82203961D01*
X138846550Y-82203961D02*
X138960836Y-82203961D01*
X138960836Y-82203961D02*
X139037027Y-82242057D01*
X139037027Y-82242057D02*
X139075122Y-82318247D01*
X139075122Y-82318247D02*
X139075122Y-82737295D01*
X140408456Y-82699200D02*
X140332265Y-82737295D01*
X140332265Y-82737295D02*
X140179884Y-82737295D01*
X140179884Y-82737295D02*
X140103694Y-82699200D01*
X140103694Y-82699200D02*
X140065599Y-82661104D01*
X140065599Y-82661104D02*
X140027503Y-82584914D01*
X140027503Y-82584914D02*
X140027503Y-82356342D01*
X140027503Y-82356342D02*
X140065599Y-82280152D01*
X140065599Y-82280152D02*
X140103694Y-82242057D01*
X140103694Y-82242057D02*
X140179884Y-82203961D01*
X140179884Y-82203961D02*
X140332265Y-82203961D01*
X140332265Y-82203961D02*
X140408456Y-82242057D01*
X141094170Y-82737295D02*
X141094170Y-82318247D01*
X141094170Y-82318247D02*
X141056075Y-82242057D01*
X141056075Y-82242057D02*
X140979884Y-82203961D01*
X140979884Y-82203961D02*
X140827503Y-82203961D01*
X140827503Y-82203961D02*
X140751313Y-82242057D01*
X141094170Y-82699200D02*
X141017979Y-82737295D01*
X141017979Y-82737295D02*
X140827503Y-82737295D01*
X140827503Y-82737295D02*
X140751313Y-82699200D01*
X140751313Y-82699200D02*
X140713217Y-82623009D01*
X140713217Y-82623009D02*
X140713217Y-82546819D01*
X140713217Y-82546819D02*
X140751313Y-82470628D01*
X140751313Y-82470628D02*
X140827503Y-82432533D01*
X140827503Y-82432533D02*
X141017979Y-82432533D01*
X141017979Y-82432533D02*
X141094170Y-82394438D01*
X141475123Y-82737295D02*
X141475123Y-81937295D01*
X141475123Y-82242057D02*
X141551313Y-82203961D01*
X141551313Y-82203961D02*
X141703694Y-82203961D01*
X141703694Y-82203961D02*
X141779885Y-82242057D01*
X141779885Y-82242057D02*
X141817980Y-82280152D01*
X141817980Y-82280152D02*
X141856075Y-82356342D01*
X141856075Y-82356342D02*
X141856075Y-82584914D01*
X141856075Y-82584914D02*
X141817980Y-82661104D01*
X141817980Y-82661104D02*
X141779885Y-82699200D01*
X141779885Y-82699200D02*
X141703694Y-82737295D01*
X141703694Y-82737295D02*
X141551313Y-82737295D01*
X141551313Y-82737295D02*
X141475123Y-82699200D01*
X142313218Y-82737295D02*
X142237028Y-82699200D01*
X142237028Y-82699200D02*
X142198933Y-82623009D01*
X142198933Y-82623009D02*
X142198933Y-81937295D01*
X142922743Y-82699200D02*
X142846552Y-82737295D01*
X142846552Y-82737295D02*
X142694171Y-82737295D01*
X142694171Y-82737295D02*
X142617981Y-82699200D01*
X142617981Y-82699200D02*
X142579885Y-82623009D01*
X142579885Y-82623009D02*
X142579885Y-82318247D01*
X142579885Y-82318247D02*
X142617981Y-82242057D01*
X142617981Y-82242057D02*
X142694171Y-82203961D01*
X142694171Y-82203961D02*
X142846552Y-82203961D01*
X142846552Y-82203961D02*
X142922743Y-82242057D01*
X142922743Y-82242057D02*
X142960838Y-82318247D01*
X142960838Y-82318247D02*
X142960838Y-82394438D01*
X142960838Y-82394438D02*
X142579885Y-82470628D01*
X143798933Y-82203961D02*
X144103695Y-82203961D01*
X143913219Y-81937295D02*
X143913219Y-82623009D01*
X143913219Y-82623009D02*
X143951314Y-82699200D01*
X143951314Y-82699200D02*
X144027504Y-82737295D01*
X144027504Y-82737295D02*
X144103695Y-82737295D01*
X144484647Y-82737295D02*
X144408457Y-82699200D01*
X144408457Y-82699200D02*
X144370362Y-82661104D01*
X144370362Y-82661104D02*
X144332266Y-82584914D01*
X144332266Y-82584914D02*
X144332266Y-82356342D01*
X144332266Y-82356342D02*
X144370362Y-82280152D01*
X144370362Y-82280152D02*
X144408457Y-82242057D01*
X144408457Y-82242057D02*
X144484647Y-82203961D01*
X144484647Y-82203961D02*
X144598933Y-82203961D01*
X144598933Y-82203961D02*
X144675124Y-82242057D01*
X144675124Y-82242057D02*
X144713219Y-82280152D01*
X144713219Y-82280152D02*
X144751314Y-82356342D01*
X144751314Y-82356342D02*
X144751314Y-82584914D01*
X144751314Y-82584914D02*
X144713219Y-82661104D01*
X144713219Y-82661104D02*
X144675124Y-82699200D01*
X144675124Y-82699200D02*
X144598933Y-82737295D01*
X144598933Y-82737295D02*
X144484647Y-82737295D01*
X146046553Y-82699200D02*
X145970362Y-82737295D01*
X145970362Y-82737295D02*
X145817981Y-82737295D01*
X145817981Y-82737295D02*
X145741791Y-82699200D01*
X145741791Y-82699200D02*
X145703696Y-82661104D01*
X145703696Y-82661104D02*
X145665600Y-82584914D01*
X145665600Y-82584914D02*
X145665600Y-82356342D01*
X145665600Y-82356342D02*
X145703696Y-82280152D01*
X145703696Y-82280152D02*
X145741791Y-82242057D01*
X145741791Y-82242057D02*
X145817981Y-82203961D01*
X145817981Y-82203961D02*
X145970362Y-82203961D01*
X145970362Y-82203961D02*
X146046553Y-82242057D01*
X146389410Y-82737295D02*
X146389410Y-81937295D01*
X146389410Y-82242057D02*
X146465600Y-82203961D01*
X146465600Y-82203961D02*
X146617981Y-82203961D01*
X146617981Y-82203961D02*
X146694172Y-82242057D01*
X146694172Y-82242057D02*
X146732267Y-82280152D01*
X146732267Y-82280152D02*
X146770362Y-82356342D01*
X146770362Y-82356342D02*
X146770362Y-82584914D01*
X146770362Y-82584914D02*
X146732267Y-82661104D01*
X146732267Y-82661104D02*
X146694172Y-82699200D01*
X146694172Y-82699200D02*
X146617981Y-82737295D01*
X146617981Y-82737295D02*
X146465600Y-82737295D01*
X146465600Y-82737295D02*
X146389410Y-82699200D01*
X147113220Y-82737295D02*
X147113220Y-82203961D01*
X147113220Y-82280152D02*
X147151315Y-82242057D01*
X147151315Y-82242057D02*
X147227505Y-82203961D01*
X147227505Y-82203961D02*
X147341791Y-82203961D01*
X147341791Y-82203961D02*
X147417982Y-82242057D01*
X147417982Y-82242057D02*
X147456077Y-82318247D01*
X147456077Y-82318247D02*
X147456077Y-82737295D01*
X147456077Y-82318247D02*
X147494172Y-82242057D01*
X147494172Y-82242057D02*
X147570363Y-82203961D01*
X147570363Y-82203961D02*
X147684648Y-82203961D01*
X147684648Y-82203961D02*
X147760839Y-82242057D01*
X147760839Y-82242057D02*
X147798934Y-82318247D01*
X147798934Y-82318247D02*
X147798934Y-82737295D01*
X148141791Y-82699200D02*
X148256077Y-82737295D01*
X148256077Y-82737295D02*
X148446553Y-82737295D01*
X148446553Y-82737295D02*
X148522744Y-82699200D01*
X148522744Y-82699200D02*
X148560839Y-82661104D01*
X148560839Y-82661104D02*
X148598934Y-82584914D01*
X148598934Y-82584914D02*
X148598934Y-82508723D01*
X148598934Y-82508723D02*
X148560839Y-82432533D01*
X148560839Y-82432533D02*
X148522744Y-82394438D01*
X148522744Y-82394438D02*
X148446553Y-82356342D01*
X148446553Y-82356342D02*
X148294172Y-82318247D01*
X148294172Y-82318247D02*
X148217982Y-82280152D01*
X148217982Y-82280152D02*
X148179887Y-82242057D01*
X148179887Y-82242057D02*
X148141791Y-82165866D01*
X148141791Y-82165866D02*
X148141791Y-82089676D01*
X148141791Y-82089676D02*
X148179887Y-82013485D01*
X148179887Y-82013485D02*
X148217982Y-81975390D01*
X148217982Y-81975390D02*
X148294172Y-81937295D01*
X148294172Y-81937295D02*
X148484649Y-81937295D01*
X148484649Y-81937295D02*
X148598934Y-81975390D01*
X148941792Y-82737295D02*
X148941792Y-81937295D01*
X148941792Y-81937295D02*
X149132268Y-81937295D01*
X149132268Y-81937295D02*
X149246554Y-81975390D01*
X149246554Y-81975390D02*
X149322744Y-82051580D01*
X149322744Y-82051580D02*
X149360839Y-82127771D01*
X149360839Y-82127771D02*
X149398935Y-82280152D01*
X149398935Y-82280152D02*
X149398935Y-82394438D01*
X149398935Y-82394438D02*
X149360839Y-82546819D01*
X149360839Y-82546819D02*
X149322744Y-82623009D01*
X149322744Y-82623009D02*
X149246554Y-82699200D01*
X149246554Y-82699200D02*
X149132268Y-82737295D01*
X149132268Y-82737295D02*
X148941792Y-82737295D01*
X169054819Y-89316666D02*
X168578628Y-89649999D01*
X169054819Y-89888094D02*
X168054819Y-89888094D01*
X168054819Y-89888094D02*
X168054819Y-89507142D01*
X168054819Y-89507142D02*
X168102438Y-89411904D01*
X168102438Y-89411904D02*
X168150057Y-89364285D01*
X168150057Y-89364285D02*
X168245295Y-89316666D01*
X168245295Y-89316666D02*
X168388152Y-89316666D01*
X168388152Y-89316666D02*
X168483390Y-89364285D01*
X168483390Y-89364285D02*
X168531009Y-89411904D01*
X168531009Y-89411904D02*
X168578628Y-89507142D01*
X168578628Y-89507142D02*
X168578628Y-89888094D01*
X168054819Y-88983332D02*
X168054819Y-88364285D01*
X168054819Y-88364285D02*
X168435771Y-88697618D01*
X168435771Y-88697618D02*
X168435771Y-88554761D01*
X168435771Y-88554761D02*
X168483390Y-88459523D01*
X168483390Y-88459523D02*
X168531009Y-88411904D01*
X168531009Y-88411904D02*
X168626247Y-88364285D01*
X168626247Y-88364285D02*
X168864342Y-88364285D01*
X168864342Y-88364285D02*
X168959580Y-88411904D01*
X168959580Y-88411904D02*
X169007200Y-88459523D01*
X169007200Y-88459523D02*
X169054819Y-88554761D01*
X169054819Y-88554761D02*
X169054819Y-88840475D01*
X169054819Y-88840475D02*
X169007200Y-88935713D01*
X169007200Y-88935713D02*
X168959580Y-88983332D01*
X179740476Y-88104819D02*
X179740476Y-88819104D01*
X179740476Y-88819104D02*
X179692857Y-88961961D01*
X179692857Y-88961961D02*
X179597619Y-89057200D01*
X179597619Y-89057200D02*
X179454762Y-89104819D01*
X179454762Y-89104819D02*
X179359524Y-89104819D01*
X180740476Y-89104819D02*
X180169048Y-89104819D01*
X180454762Y-89104819D02*
X180454762Y-88104819D01*
X180454762Y-88104819D02*
X180359524Y-88247676D01*
X180359524Y-88247676D02*
X180264286Y-88342914D01*
X180264286Y-88342914D02*
X180169048Y-88390533D01*
X181359524Y-88104819D02*
X181454762Y-88104819D01*
X181454762Y-88104819D02*
X181550000Y-88152438D01*
X181550000Y-88152438D02*
X181597619Y-88200057D01*
X181597619Y-88200057D02*
X181645238Y-88295295D01*
X181645238Y-88295295D02*
X181692857Y-88485771D01*
X181692857Y-88485771D02*
X181692857Y-88723866D01*
X181692857Y-88723866D02*
X181645238Y-88914342D01*
X181645238Y-88914342D02*
X181597619Y-89009580D01*
X181597619Y-89009580D02*
X181550000Y-89057200D01*
X181550000Y-89057200D02*
X181454762Y-89104819D01*
X181454762Y-89104819D02*
X181359524Y-89104819D01*
X181359524Y-89104819D02*
X181264286Y-89057200D01*
X181264286Y-89057200D02*
X181216667Y-89009580D01*
X181216667Y-89009580D02*
X181169048Y-88914342D01*
X181169048Y-88914342D02*
X181121429Y-88723866D01*
X181121429Y-88723866D02*
X181121429Y-88485771D01*
X181121429Y-88485771D02*
X181169048Y-88295295D01*
X181169048Y-88295295D02*
X181216667Y-88200057D01*
X181216667Y-88200057D02*
X181264286Y-88152438D01*
X181264286Y-88152438D02*
X181359524Y-88104819D01*
X176004819Y-90408333D02*
X176719104Y-90408333D01*
X176719104Y-90408333D02*
X176861961Y-90455952D01*
X176861961Y-90455952D02*
X176957200Y-90551190D01*
X176957200Y-90551190D02*
X177004819Y-90694047D01*
X177004819Y-90694047D02*
X177004819Y-90789285D01*
X176100057Y-89979761D02*
X176052438Y-89932142D01*
X176052438Y-89932142D02*
X176004819Y-89836904D01*
X176004819Y-89836904D02*
X176004819Y-89598809D01*
X176004819Y-89598809D02*
X176052438Y-89503571D01*
X176052438Y-89503571D02*
X176100057Y-89455952D01*
X176100057Y-89455952D02*
X176195295Y-89408333D01*
X176195295Y-89408333D02*
X176290533Y-89408333D01*
X176290533Y-89408333D02*
X176433390Y-89455952D01*
X176433390Y-89455952D02*
X177004819Y-90027380D01*
X177004819Y-90027380D02*
X177004819Y-89408333D01*
X161982142Y-80559580D02*
X161934523Y-80607200D01*
X161934523Y-80607200D02*
X161791666Y-80654819D01*
X161791666Y-80654819D02*
X161696428Y-80654819D01*
X161696428Y-80654819D02*
X161553571Y-80607200D01*
X161553571Y-80607200D02*
X161458333Y-80511961D01*
X161458333Y-80511961D02*
X161410714Y-80416723D01*
X161410714Y-80416723D02*
X161363095Y-80226247D01*
X161363095Y-80226247D02*
X161363095Y-80083390D01*
X161363095Y-80083390D02*
X161410714Y-79892914D01*
X161410714Y-79892914D02*
X161458333Y-79797676D01*
X161458333Y-79797676D02*
X161553571Y-79702438D01*
X161553571Y-79702438D02*
X161696428Y-79654819D01*
X161696428Y-79654819D02*
X161791666Y-79654819D01*
X161791666Y-79654819D02*
X161934523Y-79702438D01*
X161934523Y-79702438D02*
X161982142Y-79750057D01*
X162934523Y-80654819D02*
X162363095Y-80654819D01*
X162648809Y-80654819D02*
X162648809Y-79654819D01*
X162648809Y-79654819D02*
X162553571Y-79797676D01*
X162553571Y-79797676D02*
X162458333Y-79892914D01*
X162458333Y-79892914D02*
X162363095Y-79940533D01*
X163267857Y-79654819D02*
X163934523Y-79654819D01*
X163934523Y-79654819D02*
X163505952Y-80654819D01*
X174159523Y-95759580D02*
X174111904Y-95807200D01*
X174111904Y-95807200D02*
X173969047Y-95854819D01*
X173969047Y-95854819D02*
X173873809Y-95854819D01*
X173873809Y-95854819D02*
X173730952Y-95807200D01*
X173730952Y-95807200D02*
X173635714Y-95711961D01*
X173635714Y-95711961D02*
X173588095Y-95616723D01*
X173588095Y-95616723D02*
X173540476Y-95426247D01*
X173540476Y-95426247D02*
X173540476Y-95283390D01*
X173540476Y-95283390D02*
X173588095Y-95092914D01*
X173588095Y-95092914D02*
X173635714Y-94997676D01*
X173635714Y-94997676D02*
X173730952Y-94902438D01*
X173730952Y-94902438D02*
X173873809Y-94854819D01*
X173873809Y-94854819D02*
X173969047Y-94854819D01*
X173969047Y-94854819D02*
X174111904Y-94902438D01*
X174111904Y-94902438D02*
X174159523Y-94950057D01*
X174588095Y-95854819D02*
X174588095Y-94854819D01*
X174588095Y-94854819D02*
X175159523Y-95854819D01*
X175159523Y-95854819D02*
X175159523Y-94854819D01*
X175588095Y-94950057D02*
X175635714Y-94902438D01*
X175635714Y-94902438D02*
X175730952Y-94854819D01*
X175730952Y-94854819D02*
X175969047Y-94854819D01*
X175969047Y-94854819D02*
X176064285Y-94902438D01*
X176064285Y-94902438D02*
X176111904Y-94950057D01*
X176111904Y-94950057D02*
X176159523Y-95045295D01*
X176159523Y-95045295D02*
X176159523Y-95140533D01*
X176159523Y-95140533D02*
X176111904Y-95283390D01*
X176111904Y-95283390D02*
X175540476Y-95854819D01*
X175540476Y-95854819D02*
X176159523Y-95854819D01*
X127891666Y-88104819D02*
X127891666Y-88819104D01*
X127891666Y-88819104D02*
X127844047Y-88961961D01*
X127844047Y-88961961D02*
X127748809Y-89057200D01*
X127748809Y-89057200D02*
X127605952Y-89104819D01*
X127605952Y-89104819D02*
X127510714Y-89104819D01*
X128891666Y-89104819D02*
X128320238Y-89104819D01*
X128605952Y-89104819D02*
X128605952Y-88104819D01*
X128605952Y-88104819D02*
X128510714Y-88247676D01*
X128510714Y-88247676D02*
X128415476Y-88342914D01*
X128415476Y-88342914D02*
X128320238Y-88390533D01*
X127891665Y-86704819D02*
X127891665Y-87419104D01*
X127891665Y-87419104D02*
X127844046Y-87561961D01*
X127844046Y-87561961D02*
X127748808Y-87657200D01*
X127748808Y-87657200D02*
X127605951Y-87704819D01*
X127605951Y-87704819D02*
X127510713Y-87704819D01*
X128272618Y-86704819D02*
X128891665Y-86704819D01*
X128891665Y-86704819D02*
X128558332Y-87085771D01*
X128558332Y-87085771D02*
X128701189Y-87085771D01*
X128701189Y-87085771D02*
X128796427Y-87133390D01*
X128796427Y-87133390D02*
X128844046Y-87181009D01*
X128844046Y-87181009D02*
X128891665Y-87276247D01*
X128891665Y-87276247D02*
X128891665Y-87514342D01*
X128891665Y-87514342D02*
X128844046Y-87609580D01*
X128844046Y-87609580D02*
X128796427Y-87657200D01*
X128796427Y-87657200D02*
X128701189Y-87704819D01*
X128701189Y-87704819D02*
X128415475Y-87704819D01*
X128415475Y-87704819D02*
X128320237Y-87657200D01*
X128320237Y-87657200D02*
X128272618Y-87609580D01*
D16*
X166300000Y-91595000D02*
X166300000Y-90825000D01*
X164930000Y-90825000D02*
X167670000Y-90825000D01*
X167670000Y-90825000D02*
X167670000Y-84285000D01*
X164930000Y-84285000D02*
X164930000Y-90825000D01*
X167670000Y-84285000D02*
X164930000Y-84285000D01*
X166300000Y-83515000D02*
X166300000Y-84284999D01*
X169140000Y-86750000D02*
X169140000Y-87800000D01*
X169340000Y-78400000D02*
X171240000Y-78400000D01*
X169340000Y-81100000D02*
X169340000Y-78400000D01*
X169340000Y-87600000D02*
X169340000Y-85000000D01*
X170190000Y-87800000D02*
X169140000Y-87800000D01*
X175240000Y-78400000D02*
X184040000Y-78400000D01*
X184040000Y-78400000D02*
X184040000Y-87600000D01*
X184040000Y-87600000D02*
X169340000Y-87600000D01*
X161220000Y-82345000D02*
X161064000Y-82345000D01*
X163536000Y-82345000D02*
X163380000Y-82345000D01*
X161220163Y-84946130D02*
G75*
G02*
X161220000Y-82864039I1079837J1041130D01*
G01*
X161221392Y-85577335D02*
G75*
G02*
X161064484Y-82345000I1078608J1672335D01*
G01*
X163380000Y-82864039D02*
G75*
G02*
X163379837Y-84946130I-1080000J-1040961D01*
G01*
X163535516Y-82345000D02*
G75*
G02*
X163378608Y-85577335I-1235516J-1560000D01*
G01*
X172670001Y-88745000D02*
X175270000Y-88745000D01*
X175270000Y-91405000D02*
X175270000Y-88745000D01*
X172670001Y-91405000D02*
X172670001Y-88745000D01*
X172670001Y-91405000D02*
X175270000Y-91405000D01*
X171400000Y-91405000D02*
X170070000Y-91405000D01*
X170070000Y-91405000D02*
X170070000Y-90075000D01*
X164220000Y-78685001D02*
X165460000Y-78685000D01*
X164220000Y-78725000D02*
X165460000Y-78725000D01*
X164221000Y-78644999D02*
X165460000Y-78645000D01*
X164223000Y-78605000D02*
X165460000Y-78605000D01*
X164226000Y-78565000D02*
X165460000Y-78565000D01*
X164228999Y-78525000D02*
X165460000Y-78525000D01*
X164233000Y-78485000D02*
X165460000Y-78485000D01*
X164238000Y-78445000D02*
X165460000Y-78445000D01*
X164244000Y-78405000D02*
X165460000Y-78405000D01*
X164250001Y-78365000D02*
X165460000Y-78365000D01*
X164258000Y-78325000D02*
X165460000Y-78325000D01*
X164266000Y-78285000D02*
X165460000Y-78285000D01*
X164275000Y-78245000D02*
X165460000Y-78245000D01*
X164284000Y-78205000D02*
X165460000Y-78205000D01*
X164295000Y-78165000D02*
X165460000Y-78165000D01*
X164306000Y-78125000D02*
X165460000Y-78125000D01*
X164318000Y-78085000D02*
X165460000Y-78085000D01*
X164332000Y-78045000D02*
X165460000Y-78045000D01*
X164346000Y-78004000D02*
X165460000Y-78004000D01*
X164360000Y-77964000D02*
X165460000Y-77964000D01*
X164376000Y-77924000D02*
X165460000Y-77924000D01*
X164392999Y-77884000D02*
X165460000Y-77884000D01*
X164411000Y-77844000D02*
X165460000Y-77844000D01*
X164430000Y-77804000D02*
X165460000Y-77804000D01*
X164449000Y-77764000D02*
X165460000Y-77764000D01*
X164470001Y-77724000D02*
X165460000Y-77724000D01*
X164492000Y-77684000D02*
X165460000Y-77684000D01*
X164515000Y-77644000D02*
X165460000Y-77644000D01*
X164540000Y-77604000D02*
X165460000Y-77604000D01*
X164565000Y-77564000D02*
X165460000Y-77564000D01*
X164592000Y-77524000D02*
X165460000Y-77524000D01*
X164620000Y-77484000D02*
X165460000Y-77484000D01*
X164650000Y-77444000D02*
X165460000Y-77444000D01*
X164681000Y-77404000D02*
X165460000Y-77404000D01*
X164713000Y-77364000D02*
X165460000Y-77364000D01*
X164748000Y-77324000D02*
X165460000Y-77324000D01*
X164784000Y-77284000D02*
X165460000Y-77284000D01*
X164822000Y-77244000D02*
X165460000Y-77244000D01*
X164862000Y-77204000D02*
X165460000Y-77204000D01*
X164904000Y-77164000D02*
X165460000Y-77164000D01*
X164905000Y-80794801D02*
X165305000Y-80794801D01*
X164949000Y-77124000D02*
X167651000Y-77124000D01*
X164996000Y-77084000D02*
X167604000Y-77084000D01*
X165046001Y-77044000D02*
X167553999Y-77044000D01*
X165100000Y-77004000D02*
X167500000Y-77004000D01*
X165105000Y-80994801D02*
X165105000Y-80594800D01*
X165158000Y-76964000D02*
X167442000Y-76964000D01*
X165220000Y-76924000D02*
X167380000Y-76924000D01*
X165287000Y-76884000D02*
X167313000Y-76884000D01*
X165360001Y-76844000D02*
X167239999Y-76844000D01*
X165441000Y-76804000D02*
X167159000Y-76804000D01*
X165532000Y-76764001D02*
X167068000Y-76764001D01*
X165636000Y-76724000D02*
X166964000Y-76724000D01*
X165763000Y-76684000D02*
X166837000Y-76684000D01*
X165930000Y-76644000D02*
X166670000Y-76644000D01*
X167140000Y-77164000D02*
X167696000Y-77164000D01*
X167140000Y-77204000D02*
X167738000Y-77204000D01*
X167140000Y-77244000D02*
X167778000Y-77244000D01*
X167140000Y-77284000D02*
X167816000Y-77284000D01*
X167140000Y-77324000D02*
X167852000Y-77324000D01*
X167140000Y-77364000D02*
X167887000Y-77364000D01*
X167140000Y-77404000D02*
X167919000Y-77404000D01*
X167140000Y-77444000D02*
X167950000Y-77444000D01*
X167140000Y-77484000D02*
X167980000Y-77484000D01*
X167140000Y-77524000D02*
X168008000Y-77524000D01*
X167140000Y-77564000D02*
X168035000Y-77564000D01*
X167140000Y-77604000D02*
X168060000Y-77604000D01*
X167140000Y-77644000D02*
X168085000Y-77644000D01*
X167140000Y-77684000D02*
X168108000Y-77684000D01*
X167140000Y-77724000D02*
X168129999Y-77724000D01*
X167140000Y-77764000D02*
X168151000Y-77764000D01*
X167140000Y-77804000D02*
X168170000Y-77804000D01*
X167140000Y-77844000D02*
X168189000Y-77844000D01*
X167140000Y-77884000D02*
X168207001Y-77884000D01*
X167140000Y-77924000D02*
X168224000Y-77924000D01*
X167140000Y-77964000D02*
X168240000Y-77964000D01*
X167140000Y-78004000D02*
X168254000Y-78004000D01*
X167140000Y-78045000D02*
X168268000Y-78045000D01*
X167140000Y-78085000D02*
X168282000Y-78085000D01*
X167140000Y-78125000D02*
X168294000Y-78125000D01*
X167140000Y-78165000D02*
X168305000Y-78165000D01*
X167140000Y-78205000D02*
X168316000Y-78205000D01*
X167140000Y-78245000D02*
X168325000Y-78245000D01*
X167140000Y-78285000D02*
X168334000Y-78285000D01*
X167140000Y-78325000D02*
X168342000Y-78325000D01*
X167140000Y-78365000D02*
X168349999Y-78365000D01*
X167140000Y-78405000D02*
X168356000Y-78405000D01*
X167140000Y-78445000D02*
X168362000Y-78445000D01*
X167140000Y-78485000D02*
X168367000Y-78485000D01*
X167140000Y-78525000D02*
X168371001Y-78525000D01*
X167140000Y-78565000D02*
X168374000Y-78565000D01*
X167140000Y-78605000D02*
X168377000Y-78605000D01*
X167140000Y-78645000D02*
X168379000Y-78644999D01*
X167140000Y-78685000D02*
X168380000Y-78685001D01*
X167140000Y-78725000D02*
X168380000Y-78725000D01*
X168419999Y-78725000D02*
G75*
G02*
X164180001Y-78725000I-2119999J0D01*
G01*
X164180001Y-78725000D02*
G75*
G02*
X168419999Y-78725000I2119999J0D01*
G01*
X155125000Y-89030000D02*
X155125000Y-83830000D01*
X132205001Y-89030000D02*
X155125000Y-89030000D01*
X132205001Y-89030000D02*
X132205000Y-86430000D01*
X132205000Y-86430000D02*
X129605000Y-86429999D01*
X130935000Y-89030000D02*
X129605000Y-89030000D01*
X129605000Y-89030000D02*
X129605000Y-87700000D01*
X129605000Y-86429999D02*
X129605000Y-83830000D01*
X129605000Y-83830000D02*
X155125000Y-83830000D01*
X128530000Y-82695001D02*
X128530000Y-85295000D01*
X125870000Y-85295000D02*
X128530000Y-85295000D01*
X125870000Y-82695001D02*
X128530000Y-82695001D01*
X125870000Y-82695001D02*
X125870000Y-85295000D01*
X125870000Y-81425000D02*
X125870000Y-80095000D01*
X125870000Y-80095000D02*
X127200000Y-80095000D01*
%LPC*%
D17*
X177247350Y-96253900D02*
X177133050Y-105753500D01*
X127890000Y-105740000D01*
X127940800Y-96240400D01*
X177247350Y-96253900D01*
G36*
X177247350Y-96253900D02*
G01*
X177133050Y-105753500D01*
X127890000Y-105740000D01*
X127940800Y-96240400D01*
X177247350Y-96253900D01*
G37*
X176117250Y-65862200D02*
X176002950Y-75361800D01*
X128739900Y-75298300D01*
X128790700Y-65798700D01*
X176117250Y-65862200D01*
G36*
X176117250Y-65862200D02*
G01*
X176002950Y-75361800D01*
X128739900Y-75298300D01*
X128790700Y-65798700D01*
X176117250Y-65862200D01*
G37*
D18*
X164649000Y-73318000D03*
X162489999Y-73318000D03*
X160331000Y-73318000D03*
X158172000Y-73318000D03*
X156013000Y-73318000D03*
X153854000Y-73318000D03*
X151695000Y-73318000D03*
X149536000Y-73318000D03*
X147377000Y-73318000D03*
X145218000Y-73318000D03*
X143059001Y-73318000D03*
X140900000Y-73318000D03*
X164649000Y-69000000D03*
X162489999Y-69000000D03*
X160331000Y-69000000D03*
X158172000Y-69000000D03*
X156013000Y-69000000D03*
X153854000Y-69000000D03*
X151695000Y-69000000D03*
X149536000Y-69000000D03*
X147377000Y-69000000D03*
X145218000Y-69000000D03*
X143059001Y-69000000D03*
X140900000Y-69000000D03*
D19*
X176167900Y-71159000D03*
X129381100Y-71159000D03*
D20*
X166300000Y-82475000D03*
D21*
X166300000Y-92635000D03*
D22*
X170240000Y-83000000D03*
D23*
X176240000Y-83000000D03*
D24*
X173240000Y-78300000D03*
D25*
X162300000Y-82635000D03*
D26*
X162300000Y-85175000D03*
D27*
X171400000Y-90075000D03*
D28*
X173940000Y-90075000D03*
D29*
X166300000Y-79475000D03*
D30*
X166300000Y-77975000D03*
D31*
X131040000Y-101240000D03*
X135000000Y-101240000D03*
X138960000Y-101240000D03*
X142920000Y-101240000D03*
X146880000Y-101240000D03*
X150840000Y-101240000D03*
X154800000Y-101240000D03*
X158760000Y-101240000D03*
X162720000Y-101240000D03*
X166680000Y-101240000D03*
X170640000Y-101240000D03*
X174600000Y-101240000D03*
D28*
X153795000Y-85160000D03*
X153795000Y-87700000D03*
X151255000Y-85160000D03*
X151255000Y-87700000D03*
X148715000Y-85160000D03*
X148715001Y-87700000D03*
X146175000Y-85160000D03*
X146175000Y-87700000D03*
X143635000Y-85160000D03*
X143635000Y-87700000D03*
X141095000Y-85160000D03*
X141095000Y-87700000D03*
X138555000Y-85160000D03*
X138555000Y-87700000D03*
X136015000Y-85160000D03*
X136014999Y-87700000D03*
X133475000Y-85160000D03*
X133475000Y-87700000D03*
X130935000Y-85160000D03*
D27*
X130935000Y-87700000D03*
X127200000Y-81425000D03*
D28*
X127200000Y-83965000D03*
%LPD*%
D32*
X123240000Y-94550000D02*
X123247227Y-62361081D01*
X182130000Y-94510000D02*
X182150000Y-62375000D01*
X123247227Y-62361081D02*
X182150000Y-62375000D01*
X129388000Y-105748500D02*
X135039500Y-105748500D01*
X177140000Y-104351500D02*
X177140000Y-94509000D01*
X138913000Y-105748500D02*
X162789000Y-105748500D01*
X177140000Y-104351500D02*
G75*
G02*
X175743000Y-105748500I-1397000J0D01*
G01*
X129388000Y-105748500D02*
G75*
G02*
X127991000Y-104351500I0J1397000D01*
G01*
X127827228Y-91510000D02*
G75*
G02*
X124452772Y-91510000I-1687228J0D01*
G01*
X124452772Y-91510000D02*
G75*
G02*
X127827228Y-91510000I1687228J0D01*
G01*
X177140000Y-94509000D02*
X182130000Y-94510000D01*
X127991000Y-94547100D02*
X123240000Y-94550000D01*
X127991000Y-104351500D02*
X127991000Y-94547100D01*
X180947227Y-91680000D02*
G75*
G02*
X177572773Y-91680000I-1687227J0D01*
G01*
X177572773Y-91680000D02*
G75*
G02*
X180947227Y-91680000I1687227J0D01*
G01*
X165265500Y-96668000D02*
X164186000Y-96668000D01*
X166662500Y-105748500D02*
G75*
G02*
X165265500Y-104351500I0J1397000D01*
G01*
X164186000Y-96668000D02*
X164186000Y-104351500D01*
X165265500Y-104351500D02*
X165265500Y-96668000D01*
X166662500Y-105748500D02*
X175743000Y-105748500D01*
X164186000Y-104351500D02*
G75*
G02*
X162789000Y-105748500I-1397000J0D01*
G01*
X136436500Y-96731500D02*
X137516000Y-96731500D01*
X137516000Y-104351500D02*
X137516000Y-96731500D01*
X136436500Y-104351500D02*
G75*
G02*
X135039500Y-105748500I-1397000J0D01*
G01*
X138913000Y-105748500D02*
G75*
G02*
X137516000Y-104351500I0J1397000D01*
G01*
X136436500Y-96731500D02*
X136436500Y-104351500D01*
M02*
