M48
; DRILL file {KiCad 8.0.6} date 2024-11-18T21:13:22-0500
; FORMAT={-:-/ absolute / inch / decimal}
; #@! TF.CreationDate,2024-11-18T21:13:22-05:00
; #@! TF.GenerationSoftware,Kicad,Pcbnew,8.0.6
; #@! TF.FileFunction,Plated,1,2,PTH
FMAT,2
INCH
; #@! TA.AperFunction,Plated,PTH,ViaDrill
T1C0.0157
; #@! TA.AperFunction,Plated,PTH,ComponentDrill
T2C0.0315
; #@! TA.AperFunction,Plated,PTH,ComponentDrill
T3C0.0354
; #@! TA.AperFunction,Plated,PTH,ComponentDrill
T4C0.0394
; #@! TA.AperFunction,Plated,PTH,ComponentDrill
T5C0.0512
%
G90
G05
T1
X4.7687Y-4.035
X4.8248Y-4.4165
X5.4828Y-4.1153
X5.515Y-4.0386
X5.558Y-3.9665
X5.5738Y-3.8904
X5.9311Y-4.0795
X5.935Y-4.1515
X5.9378Y-4.2453
X5.9583Y-4.6909
X5.9594Y-3.7906
X5.9722Y-4.0026
X5.9982Y-3.9262
X6.0053Y-4.8665
X6.1598Y-4.1875
X6.2441Y-3.2945
X6.3571Y-4.6547
X6.6103Y-3.4653
X6.6358Y-3.842
X6.6567Y-3.3933
X6.7106Y-3.4653
X6.8075Y-3.4653
X6.9098Y-3.4293
X6.9563Y-4.2453
X7.0083Y-3.4293
X7.1598Y-3.7213
T2
X4.9685Y-4.3685
X4.9685Y-4.4669
X5.1075Y-3.224
X5.11Y-3.3375
X5.11Y-3.6375
X5.11Y-3.7375
X5.11Y-4.3375
X5.2059Y-3.224
X5.21Y-3.3375
X5.21Y-3.6375
X5.21Y-3.7375
X5.21Y-4.3375
X5.31Y-3.3375
X5.31Y-3.6375
X5.31Y-3.7375
X5.31Y-4.3375
X5.41Y-3.3375
X5.41Y-3.6375
X5.41Y-3.7375
X5.41Y-4.3375
X5.51Y-3.3375
X5.51Y-3.6375
X5.51Y-3.7375
X5.51Y-4.3375
X5.61Y-3.3375
X5.61Y-3.6375
X5.61Y-3.7375
X5.61Y-4.3375
X5.71Y-3.3375
X5.71Y-3.6375
X5.71Y-3.7375
X5.71Y-4.3375
X5.81Y-3.3375
X5.81Y-3.6375
X5.81Y-3.7375
X5.81Y-4.3375
X5.91Y-3.3375
X5.91Y-3.6375
X5.91Y-3.7375
X5.91Y-4.3375
X6.01Y-3.3375
X6.01Y-3.6375
X6.01Y-3.7375
X6.01Y-4.3375
X6.01Y-4.445
X6.1084Y-4.445
X6.11Y-3.7375
X6.11Y-4.3375
X6.1614Y-3.2425
X6.1614Y-3.3409
X6.1614Y-3.4697
X6.1614Y-3.5681
X6.21Y-3.7375
X6.21Y-4.3375
X6.31Y-3.3375
X6.31Y-3.6375
X6.31Y-3.7375
X6.31Y-4.3375
X6.3165Y-4.4646
X6.41Y-3.3375
X6.41Y-3.6375
X6.41Y-3.7375
X6.41Y-4.3375
X6.415Y-4.4646
X6.51Y-3.3375
X6.51Y-3.6375
X6.51Y-3.7375
X6.51Y-4.3375
X6.5606Y-4.8094
X6.5606Y-5.2094
X6.6028Y-4.5154
X6.61Y-3.2375
X6.61Y-3.3375
X6.61Y-3.6375
X6.61Y-3.7375
X6.61Y-4.3375
X6.6976Y-4.8087
X6.6976Y-5.2087
X6.71Y-3.2375
X6.71Y-3.3375
X6.71Y-3.6375
X6.71Y-3.7375
X6.71Y-4.3375
X6.7949Y-4.5154
X6.81Y-3.2375
X6.81Y-3.3375
X6.81Y-3.6375
X6.81Y-3.7375
X6.81Y-4.3375
X6.8116Y-4.8087
X6.8116Y-5.2087
X6.91Y-3.2375
X6.91Y-3.3375
X6.91Y-3.6375
X6.91Y-3.7375
X6.91Y-4.3375
X6.9408Y-4.8071
X6.9408Y-5.2071
X7.0079Y-4.4602
X7.0079Y-4.5587
X7.01Y-3.2375
X7.01Y-3.3375
X7.01Y-3.6375
X7.01Y-3.7375
X7.01Y-4.3375
X7.0695Y-4.8087
X7.0695Y-5.2087
X7.11Y-3.2375
X7.11Y-3.3375
X7.11Y-3.6375
X7.1967Y-4.8087
X7.1967Y-5.2087
X7.21Y-3.2375
X7.21Y-3.3375
X7.21Y-3.6375
X7.3661Y-3.5071
X7.4646Y-3.5071
T3
X4.8646Y-3.9451
X4.8646Y-4.2091
X4.8651Y-3.6861
X4.9646Y-3.9451
X4.9646Y-4.2091
X4.9651Y-3.6861
T4
X5.1173Y-4.4677
X5.2173Y-4.4677
X5.3173Y-4.4677
X5.4173Y-4.4677
X5.5173Y-4.4677
X5.6173Y-4.4677
X6.1711Y-4.7669
X6.1711Y-4.8669
X6.1711Y-4.9669
X6.1711Y-5.0669
X6.1711Y-5.1669
X6.1711Y-5.2669
X7.3693Y-3.8709
X7.3693Y-3.9709
X7.3693Y-4.0709
X7.3693Y-4.1709
X7.3693Y-4.2709
X7.3693Y-4.3709
X7.3693Y-4.4709
X7.3693Y-4.5709
X7.3693Y-4.6709
X7.3693Y-4.7709
X7.4469Y-5.0657
X7.4469Y-5.2429
X7.4693Y-3.8709
X7.4693Y-3.9709
X7.4693Y-4.0709
X7.4693Y-4.1709
X7.4693Y-4.2709
X7.4693Y-4.3709
X7.4693Y-4.4709
X7.4693Y-4.5709
X7.4693Y-4.6709
X7.4693Y-4.7709
T5
X7.3484Y-5.0165
X7.3484Y-5.2921
M30
