%TF.GenerationSoftware,KiCad,Pcbnew,8.0.6*%
%TF.CreationDate,2024-11-18T21:13:26-05:00*%
%TF.ProjectId,CBM-SD,43424d2d-5344-42e6-9b69-6361645f7063,1.0*%
%TF.SameCoordinates,Original*%
%TF.FileFunction,Drillmap*%
%TF.FilePolarity,Positive*%
%FSLAX45Y45*%
G04 Gerber Fmt 4.5, Leading zero omitted, Abs format (unit mm)*
G04 Created by KiCad (PCBNEW 8.0.6) date 2024-11-18 21:13:26*
%MOMM*%
%LPD*%
G01*
G04 APERTURE LIST*
%ADD10C,0.200660*%
%ADD11C,0.200000*%
%ADD12C,0.100000*%
%ADD13C,0.130000*%
G04 APERTURE END LIST*
D10*
X11987000Y-7923000D02*
X19187000Y-7923000D01*
X19187000Y-14357000D01*
X11987000Y-14357000D01*
X11987000Y-7923000D01*
X12468723Y-8225000D02*
G75*
G02*
X12131277Y-8225000I-168723J0D01*
G01*
X12131277Y-8225000D02*
G75*
G02*
X12468723Y-8225000I168723J0D01*
G01*
X12468723Y-14134000D02*
G75*
G02*
X12131277Y-14134000I-168723J0D01*
G01*
X12131277Y-14134000D02*
G75*
G02*
X12468723Y-14134000I168723J0D01*
G01*
X19050723Y-8263000D02*
G75*
G02*
X18713277Y-8263000I-168723J0D01*
G01*
X18713277Y-8263000D02*
G75*
G02*
X19050723Y-8263000I168723J0D01*
G01*
X19050723Y-14063000D02*
G75*
G02*
X18713277Y-14063000I-168723J0D01*
G01*
X18713277Y-14063000D02*
G75*
G02*
X19050723Y-14063000I168723J0D01*
G01*
D11*
D12*
X12092560Y-10229000D02*
X12132560Y-10269000D01*
X12132560Y-10229000D02*
X12092560Y-10269000D01*
X12235000Y-11198000D02*
X12275000Y-11238000D01*
X12275000Y-11198000D02*
X12235000Y-11238000D01*
X13906225Y-10432775D02*
X13946225Y-10472775D01*
X13946225Y-10432775D02*
X13906225Y-10472775D01*
X13988000Y-10238000D02*
X14028000Y-10278000D01*
X14028000Y-10238000D02*
X13988000Y-10278000D01*
X14097200Y-10054800D02*
X14137200Y-10094800D01*
X14137200Y-10054800D02*
X14097200Y-10094800D01*
X14137500Y-9861500D02*
X14177500Y-9901500D01*
X14177500Y-9861500D02*
X14137500Y-9901500D01*
X15045000Y-10342000D02*
X15085000Y-10382000D01*
X15085000Y-10342000D02*
X15045000Y-10382000D01*
X15055000Y-10524880D02*
X15095000Y-10564880D01*
X15095000Y-10524880D02*
X15055000Y-10564880D01*
X15062000Y-10763000D02*
X15102000Y-10803000D01*
X15102000Y-10763000D02*
X15062000Y-10803000D01*
X15114000Y-11895000D02*
X15154000Y-11935000D01*
X15154000Y-11895000D02*
X15114000Y-11935000D01*
X15117000Y-9608000D02*
X15157000Y-9648000D01*
X15157000Y-9608000D02*
X15117000Y-9648000D01*
X15149342Y-10146658D02*
X15189342Y-10186658D01*
X15189342Y-10146658D02*
X15149342Y-10186658D01*
X15215500Y-9952500D02*
X15255500Y-9992500D01*
X15255500Y-9952500D02*
X15215500Y-9992500D01*
X15233560Y-12341000D02*
X15273560Y-12381000D01*
X15273560Y-12341000D02*
X15233560Y-12381000D01*
X15626000Y-10616320D02*
X15666000Y-10656320D01*
X15666000Y-10616320D02*
X15626000Y-10656320D01*
X15840000Y-8348000D02*
X15880000Y-8388000D01*
X15880000Y-8348000D02*
X15840000Y-8388000D01*
X16127000Y-11803000D02*
X16167000Y-11843000D01*
X16167000Y-11803000D02*
X16127000Y-11843000D01*
X16770044Y-8781880D02*
X16810045Y-8821880D01*
X16810045Y-8781880D02*
X16770044Y-8821880D01*
X16835000Y-9738600D02*
X16875000Y-9778600D01*
X16875000Y-9738600D02*
X16835000Y-9778600D01*
X16888000Y-8599000D02*
X16928000Y-8639000D01*
X16928000Y-8599000D02*
X16888000Y-8639000D01*
X17025000Y-8781880D02*
X17065000Y-8821880D01*
X17065000Y-8781880D02*
X17025000Y-8821880D01*
X17271000Y-8781880D02*
X17311000Y-8821880D01*
X17311000Y-8781880D02*
X17271000Y-8821880D01*
X17531000Y-8690440D02*
X17571000Y-8730440D01*
X17571000Y-8690440D02*
X17531000Y-8730440D01*
X17649000Y-10763000D02*
X17689000Y-10803000D01*
X17689000Y-10763000D02*
X17649000Y-10803000D01*
X17781000Y-8690440D02*
X17821000Y-8730440D01*
X17821000Y-8690440D02*
X17781000Y-8730440D01*
X18166000Y-9432000D02*
X18206000Y-9472000D01*
X18206000Y-9432000D02*
X18166000Y-9472000D01*
X12660000Y-11096000D02*
G75*
G02*
X12580000Y-11096000I-40000J0D01*
G01*
X12580000Y-11096000D02*
G75*
G02*
X12660000Y-11096000I40000J0D01*
G01*
X12660000Y-11346000D02*
G75*
G02*
X12580000Y-11346000I-40000J0D01*
G01*
X12580000Y-11346000D02*
G75*
G02*
X12660000Y-11346000I40000J0D01*
G01*
X13013000Y-8189000D02*
G75*
G02*
X12933000Y-8189000I-40000J0D01*
G01*
X12933000Y-8189000D02*
G75*
G02*
X13013000Y-8189000I40000J0D01*
G01*
X13019400Y-8477250D02*
G75*
G02*
X12939400Y-8477250I-40000J0D01*
G01*
X12939400Y-8477250D02*
G75*
G02*
X13019400Y-8477250I40000J0D01*
G01*
X13019400Y-9239250D02*
G75*
G02*
X12939400Y-9239250I-40000J0D01*
G01*
X12939400Y-9239250D02*
G75*
G02*
X13019400Y-9239250I40000J0D01*
G01*
X13019400Y-9493250D02*
G75*
G02*
X12939400Y-9493250I-40000J0D01*
G01*
X12939400Y-9493250D02*
G75*
G02*
X13019400Y-9493250I40000J0D01*
G01*
X13019400Y-11017250D02*
G75*
G02*
X12939400Y-11017250I-40000J0D01*
G01*
X12939400Y-11017250D02*
G75*
G02*
X13019400Y-11017250I40000J0D01*
G01*
X13263000Y-8189000D02*
G75*
G02*
X13183000Y-8189000I-40000J0D01*
G01*
X13183000Y-8189000D02*
G75*
G02*
X13263000Y-8189000I40000J0D01*
G01*
X13273400Y-8477250D02*
G75*
G02*
X13193400Y-8477250I-40000J0D01*
G01*
X13193400Y-8477250D02*
G75*
G02*
X13273400Y-8477250I40000J0D01*
G01*
X13273400Y-9239250D02*
G75*
G02*
X13193400Y-9239250I-40000J0D01*
G01*
X13193400Y-9239250D02*
G75*
G02*
X13273400Y-9239250I40000J0D01*
G01*
X13273400Y-9493250D02*
G75*
G02*
X13193400Y-9493250I-40000J0D01*
G01*
X13193400Y-9493250D02*
G75*
G02*
X13273400Y-9493250I40000J0D01*
G01*
X13273400Y-11017250D02*
G75*
G02*
X13193400Y-11017250I-40000J0D01*
G01*
X13193400Y-11017250D02*
G75*
G02*
X13273400Y-11017250I40000J0D01*
G01*
X13527400Y-8477250D02*
G75*
G02*
X13447400Y-8477250I-40000J0D01*
G01*
X13447400Y-8477250D02*
G75*
G02*
X13527400Y-8477250I40000J0D01*
G01*
X13527400Y-9239250D02*
G75*
G02*
X13447400Y-9239250I-40000J0D01*
G01*
X13447400Y-9239250D02*
G75*
G02*
X13527400Y-9239250I40000J0D01*
G01*
X13527400Y-9493250D02*
G75*
G02*
X13447400Y-9493250I-40000J0D01*
G01*
X13447400Y-9493250D02*
G75*
G02*
X13527400Y-9493250I40000J0D01*
G01*
X13527400Y-11017250D02*
G75*
G02*
X13447400Y-11017250I-40000J0D01*
G01*
X13447400Y-11017250D02*
G75*
G02*
X13527400Y-11017250I40000J0D01*
G01*
X13781400Y-8477250D02*
G75*
G02*
X13701400Y-8477250I-40000J0D01*
G01*
X13701400Y-8477250D02*
G75*
G02*
X13781400Y-8477250I40000J0D01*
G01*
X13781400Y-9239250D02*
G75*
G02*
X13701400Y-9239250I-40000J0D01*
G01*
X13701400Y-9239250D02*
G75*
G02*
X13781400Y-9239250I40000J0D01*
G01*
X13781400Y-9493250D02*
G75*
G02*
X13701400Y-9493250I-40000J0D01*
G01*
X13701400Y-9493250D02*
G75*
G02*
X13781400Y-9493250I40000J0D01*
G01*
X13781400Y-11017250D02*
G75*
G02*
X13701400Y-11017250I-40000J0D01*
G01*
X13701400Y-11017250D02*
G75*
G02*
X13781400Y-11017250I40000J0D01*
G01*
X14035400Y-8477250D02*
G75*
G02*
X13955400Y-8477250I-40000J0D01*
G01*
X13955400Y-8477250D02*
G75*
G02*
X14035400Y-8477250I40000J0D01*
G01*
X14035400Y-9239250D02*
G75*
G02*
X13955400Y-9239250I-40000J0D01*
G01*
X13955400Y-9239250D02*
G75*
G02*
X14035400Y-9239250I40000J0D01*
G01*
X14035400Y-9493250D02*
G75*
G02*
X13955400Y-9493250I-40000J0D01*
G01*
X13955400Y-9493250D02*
G75*
G02*
X14035400Y-9493250I40000J0D01*
G01*
X14035400Y-11017250D02*
G75*
G02*
X13955400Y-11017250I-40000J0D01*
G01*
X13955400Y-11017250D02*
G75*
G02*
X14035400Y-11017250I40000J0D01*
G01*
X14289400Y-8477250D02*
G75*
G02*
X14209400Y-8477250I-40000J0D01*
G01*
X14209400Y-8477250D02*
G75*
G02*
X14289400Y-8477250I40000J0D01*
G01*
X14289400Y-9239250D02*
G75*
G02*
X14209400Y-9239250I-40000J0D01*
G01*
X14209400Y-9239250D02*
G75*
G02*
X14289400Y-9239250I40000J0D01*
G01*
X14289400Y-9493250D02*
G75*
G02*
X14209400Y-9493250I-40000J0D01*
G01*
X14209400Y-9493250D02*
G75*
G02*
X14289400Y-9493250I40000J0D01*
G01*
X14289400Y-11017250D02*
G75*
G02*
X14209400Y-11017250I-40000J0D01*
G01*
X14209400Y-11017250D02*
G75*
G02*
X14289400Y-11017250I40000J0D01*
G01*
X14543400Y-8477250D02*
G75*
G02*
X14463400Y-8477250I-40000J0D01*
G01*
X14463400Y-8477250D02*
G75*
G02*
X14543400Y-8477250I40000J0D01*
G01*
X14543400Y-9239250D02*
G75*
G02*
X14463400Y-9239250I-40000J0D01*
G01*
X14463400Y-9239250D02*
G75*
G02*
X14543400Y-9239250I40000J0D01*
G01*
X14543400Y-9493250D02*
G75*
G02*
X14463400Y-9493250I-40000J0D01*
G01*
X14463400Y-9493250D02*
G75*
G02*
X14543400Y-9493250I40000J0D01*
G01*
X14543400Y-11017250D02*
G75*
G02*
X14463400Y-11017250I-40000J0D01*
G01*
X14463400Y-11017250D02*
G75*
G02*
X14543400Y-11017250I40000J0D01*
G01*
X14797400Y-8477250D02*
G75*
G02*
X14717400Y-8477250I-40000J0D01*
G01*
X14717400Y-8477250D02*
G75*
G02*
X14797400Y-8477250I40000J0D01*
G01*
X14797400Y-9239250D02*
G75*
G02*
X14717400Y-9239250I-40000J0D01*
G01*
X14717400Y-9239250D02*
G75*
G02*
X14797400Y-9239250I40000J0D01*
G01*
X14797400Y-9493250D02*
G75*
G02*
X14717400Y-9493250I-40000J0D01*
G01*
X14717400Y-9493250D02*
G75*
G02*
X14797400Y-9493250I40000J0D01*
G01*
X14797400Y-11017250D02*
G75*
G02*
X14717400Y-11017250I-40000J0D01*
G01*
X14717400Y-11017250D02*
G75*
G02*
X14797400Y-11017250I40000J0D01*
G01*
X15051400Y-8477250D02*
G75*
G02*
X14971400Y-8477250I-40000J0D01*
G01*
X14971400Y-8477250D02*
G75*
G02*
X15051400Y-8477250I40000J0D01*
G01*
X15051400Y-9239250D02*
G75*
G02*
X14971400Y-9239250I-40000J0D01*
G01*
X14971400Y-9239250D02*
G75*
G02*
X15051400Y-9239250I40000J0D01*
G01*
X15051400Y-9493250D02*
G75*
G02*
X14971400Y-9493250I-40000J0D01*
G01*
X14971400Y-9493250D02*
G75*
G02*
X15051400Y-9493250I40000J0D01*
G01*
X15051400Y-11017250D02*
G75*
G02*
X14971400Y-11017250I-40000J0D01*
G01*
X14971400Y-11017250D02*
G75*
G02*
X15051400Y-11017250I40000J0D01*
G01*
X15305400Y-8477250D02*
G75*
G02*
X15225400Y-8477250I-40000J0D01*
G01*
X15225400Y-8477250D02*
G75*
G02*
X15305400Y-8477250I40000J0D01*
G01*
X15305400Y-9239250D02*
G75*
G02*
X15225400Y-9239250I-40000J0D01*
G01*
X15225400Y-9239250D02*
G75*
G02*
X15305400Y-9239250I40000J0D01*
G01*
X15305400Y-9493250D02*
G75*
G02*
X15225400Y-9493250I-40000J0D01*
G01*
X15225400Y-9493250D02*
G75*
G02*
X15305400Y-9493250I40000J0D01*
G01*
X15305400Y-11017250D02*
G75*
G02*
X15225400Y-11017250I-40000J0D01*
G01*
X15225400Y-11017250D02*
G75*
G02*
X15305400Y-11017250I40000J0D01*
G01*
X15305400Y-11290300D02*
G75*
G02*
X15225400Y-11290300I-40000J0D01*
G01*
X15225400Y-11290300D02*
G75*
G02*
X15305400Y-11290300I40000J0D01*
G01*
X15555400Y-11290300D02*
G75*
G02*
X15475400Y-11290300I-40000J0D01*
G01*
X15475400Y-11290300D02*
G75*
G02*
X15555400Y-11290300I40000J0D01*
G01*
X15559400Y-9493250D02*
G75*
G02*
X15479400Y-9493250I-40000J0D01*
G01*
X15479400Y-9493250D02*
G75*
G02*
X15559400Y-9493250I40000J0D01*
G01*
X15559400Y-11017250D02*
G75*
G02*
X15479400Y-11017250I-40000J0D01*
G01*
X15479400Y-11017250D02*
G75*
G02*
X15559400Y-11017250I40000J0D01*
G01*
X15690000Y-8236000D02*
G75*
G02*
X15610000Y-8236000I-40000J0D01*
G01*
X15610000Y-8236000D02*
G75*
G02*
X15690000Y-8236000I40000J0D01*
G01*
X15690000Y-8486000D02*
G75*
G02*
X15610000Y-8486000I-40000J0D01*
G01*
X15610000Y-8486000D02*
G75*
G02*
X15690000Y-8486000I40000J0D01*
G01*
X15690000Y-8813000D02*
G75*
G02*
X15610000Y-8813000I-40000J0D01*
G01*
X15610000Y-8813000D02*
G75*
G02*
X15690000Y-8813000I40000J0D01*
G01*
X15690000Y-9063000D02*
G75*
G02*
X15610000Y-9063000I-40000J0D01*
G01*
X15610000Y-9063000D02*
G75*
G02*
X15690000Y-9063000I40000J0D01*
G01*
X15813400Y-9493250D02*
G75*
G02*
X15733400Y-9493250I-40000J0D01*
G01*
X15733400Y-9493250D02*
G75*
G02*
X15813400Y-9493250I40000J0D01*
G01*
X15813400Y-11017250D02*
G75*
G02*
X15733400Y-11017250I-40000J0D01*
G01*
X15733400Y-11017250D02*
G75*
G02*
X15813400Y-11017250I40000J0D01*
G01*
X16067400Y-8477250D02*
G75*
G02*
X15987400Y-8477250I-40000J0D01*
G01*
X15987400Y-8477250D02*
G75*
G02*
X16067400Y-8477250I40000J0D01*
G01*
X16067400Y-9239250D02*
G75*
G02*
X15987400Y-9239250I-40000J0D01*
G01*
X15987400Y-9239250D02*
G75*
G02*
X16067400Y-9239250I40000J0D01*
G01*
X16067400Y-9493250D02*
G75*
G02*
X15987400Y-9493250I-40000J0D01*
G01*
X15987400Y-9493250D02*
G75*
G02*
X16067400Y-9493250I40000J0D01*
G01*
X16067400Y-11017250D02*
G75*
G02*
X15987400Y-11017250I-40000J0D01*
G01*
X15987400Y-11017250D02*
G75*
G02*
X16067400Y-11017250I40000J0D01*
G01*
X16084000Y-11340000D02*
G75*
G02*
X16004000Y-11340000I-40000J0D01*
G01*
X16004000Y-11340000D02*
G75*
G02*
X16084000Y-11340000I40000J0D01*
G01*
X16321400Y-8477250D02*
G75*
G02*
X16241400Y-8477250I-40000J0D01*
G01*
X16241400Y-8477250D02*
G75*
G02*
X16321400Y-8477250I40000J0D01*
G01*
X16321400Y-9239250D02*
G75*
G02*
X16241400Y-9239250I-40000J0D01*
G01*
X16241400Y-9239250D02*
G75*
G02*
X16321400Y-9239250I40000J0D01*
G01*
X16321400Y-9493250D02*
G75*
G02*
X16241400Y-9493250I-40000J0D01*
G01*
X16241400Y-9493250D02*
G75*
G02*
X16321400Y-9493250I40000J0D01*
G01*
X16321400Y-11017250D02*
G75*
G02*
X16241400Y-11017250I-40000J0D01*
G01*
X16241400Y-11017250D02*
G75*
G02*
X16321400Y-11017250I40000J0D01*
G01*
X16334000Y-11340000D02*
G75*
G02*
X16254000Y-11340000I-40000J0D01*
G01*
X16254000Y-11340000D02*
G75*
G02*
X16334000Y-11340000I40000J0D01*
G01*
X16575400Y-8477250D02*
G75*
G02*
X16495400Y-8477250I-40000J0D01*
G01*
X16495400Y-8477250D02*
G75*
G02*
X16575400Y-8477250I40000J0D01*
G01*
X16575400Y-9239250D02*
G75*
G02*
X16495400Y-9239250I-40000J0D01*
G01*
X16495400Y-9239250D02*
G75*
G02*
X16575400Y-9239250I40000J0D01*
G01*
X16575400Y-9493250D02*
G75*
G02*
X16495400Y-9493250I-40000J0D01*
G01*
X16495400Y-9493250D02*
G75*
G02*
X16575400Y-9493250I40000J0D01*
G01*
X16575400Y-11017250D02*
G75*
G02*
X16495400Y-11017250I-40000J0D01*
G01*
X16495400Y-11017250D02*
G75*
G02*
X16575400Y-11017250I40000J0D01*
G01*
X16704000Y-12216000D02*
G75*
G02*
X16624000Y-12216000I-40000J0D01*
G01*
X16624000Y-12216000D02*
G75*
G02*
X16704000Y-12216000I40000J0D01*
G01*
X16704000Y-13232000D02*
G75*
G02*
X16624000Y-13232000I-40000J0D01*
G01*
X16624000Y-13232000D02*
G75*
G02*
X16704000Y-13232000I40000J0D01*
G01*
X16811000Y-11469000D02*
G75*
G02*
X16731000Y-11469000I-40000J0D01*
G01*
X16731000Y-11469000D02*
G75*
G02*
X16811000Y-11469000I40000J0D01*
G01*
X16829400Y-8223250D02*
G75*
G02*
X16749400Y-8223250I-40000J0D01*
G01*
X16749400Y-8223250D02*
G75*
G02*
X16829400Y-8223250I40000J0D01*
G01*
X16829400Y-8477250D02*
G75*
G02*
X16749400Y-8477250I-40000J0D01*
G01*
X16749400Y-8477250D02*
G75*
G02*
X16829400Y-8477250I40000J0D01*
G01*
X16829400Y-9239250D02*
G75*
G02*
X16749400Y-9239250I-40000J0D01*
G01*
X16749400Y-9239250D02*
G75*
G02*
X16829400Y-9239250I40000J0D01*
G01*
X16829400Y-9493250D02*
G75*
G02*
X16749400Y-9493250I-40000J0D01*
G01*
X16749400Y-9493250D02*
G75*
G02*
X16829400Y-9493250I40000J0D01*
G01*
X16829400Y-11017250D02*
G75*
G02*
X16749400Y-11017250I-40000J0D01*
G01*
X16749400Y-11017250D02*
G75*
G02*
X16829400Y-11017250I40000J0D01*
G01*
X17052000Y-12214000D02*
G75*
G02*
X16972000Y-12214000I-40000J0D01*
G01*
X16972000Y-12214000D02*
G75*
G02*
X17052000Y-12214000I40000J0D01*
G01*
X17052000Y-13230000D02*
G75*
G02*
X16972000Y-13230000I-40000J0D01*
G01*
X16972000Y-13230000D02*
G75*
G02*
X17052000Y-13230000I40000J0D01*
G01*
X17083400Y-8223250D02*
G75*
G02*
X17003400Y-8223250I-40000J0D01*
G01*
X17003400Y-8223250D02*
G75*
G02*
X17083400Y-8223250I40000J0D01*
G01*
X17083400Y-8477250D02*
G75*
G02*
X17003400Y-8477250I-40000J0D01*
G01*
X17003400Y-8477250D02*
G75*
G02*
X17083400Y-8477250I40000J0D01*
G01*
X17083400Y-9239250D02*
G75*
G02*
X17003400Y-9239250I-40000J0D01*
G01*
X17003400Y-9239250D02*
G75*
G02*
X17083400Y-9239250I40000J0D01*
G01*
X17083400Y-9493250D02*
G75*
G02*
X17003400Y-9493250I-40000J0D01*
G01*
X17003400Y-9493250D02*
G75*
G02*
X17083400Y-9493250I40000J0D01*
G01*
X17083400Y-11017250D02*
G75*
G02*
X17003400Y-11017250I-40000J0D01*
G01*
X17003400Y-11017250D02*
G75*
G02*
X17083400Y-11017250I40000J0D01*
G01*
X17299000Y-11469000D02*
G75*
G02*
X17219000Y-11469000I-40000J0D01*
G01*
X17219000Y-11469000D02*
G75*
G02*
X17299000Y-11469000I40000J0D01*
G01*
X17337400Y-8223250D02*
G75*
G02*
X17257400Y-8223250I-40000J0D01*
G01*
X17257400Y-8223250D02*
G75*
G02*
X17337400Y-8223250I40000J0D01*
G01*
X17337400Y-8477250D02*
G75*
G02*
X17257400Y-8477250I-40000J0D01*
G01*
X17257400Y-8477250D02*
G75*
G02*
X17337400Y-8477250I40000J0D01*
G01*
X17337400Y-9239250D02*
G75*
G02*
X17257400Y-9239250I-40000J0D01*
G01*
X17257400Y-9239250D02*
G75*
G02*
X17337400Y-9239250I40000J0D01*
G01*
X17337400Y-9493250D02*
G75*
G02*
X17257400Y-9493250I-40000J0D01*
G01*
X17257400Y-9493250D02*
G75*
G02*
X17337400Y-9493250I40000J0D01*
G01*
X17337400Y-11017250D02*
G75*
G02*
X17257400Y-11017250I-40000J0D01*
G01*
X17257400Y-11017250D02*
G75*
G02*
X17337400Y-11017250I40000J0D01*
G01*
X17341560Y-12214000D02*
G75*
G02*
X17261560Y-12214000I-40000J0D01*
G01*
X17261560Y-12214000D02*
G75*
G02*
X17341560Y-12214000I40000J0D01*
G01*
X17341560Y-13230000D02*
G75*
G02*
X17261560Y-13230000I-40000J0D01*
G01*
X17261560Y-13230000D02*
G75*
G02*
X17341560Y-13230000I40000J0D01*
G01*
X17591400Y-8223250D02*
G75*
G02*
X17511400Y-8223250I-40000J0D01*
G01*
X17511400Y-8223250D02*
G75*
G02*
X17591400Y-8223250I40000J0D01*
G01*
X17591400Y-8477250D02*
G75*
G02*
X17511400Y-8477250I-40000J0D01*
G01*
X17511400Y-8477250D02*
G75*
G02*
X17591400Y-8477250I40000J0D01*
G01*
X17591400Y-9239250D02*
G75*
G02*
X17511400Y-9239250I-40000J0D01*
G01*
X17511400Y-9239250D02*
G75*
G02*
X17591400Y-9239250I40000J0D01*
G01*
X17591400Y-9493250D02*
G75*
G02*
X17511400Y-9493250I-40000J0D01*
G01*
X17511400Y-9493250D02*
G75*
G02*
X17591400Y-9493250I40000J0D01*
G01*
X17591400Y-11017250D02*
G75*
G02*
X17511400Y-11017250I-40000J0D01*
G01*
X17511400Y-11017250D02*
G75*
G02*
X17591400Y-11017250I40000J0D01*
G01*
X17669560Y-12210000D02*
G75*
G02*
X17589560Y-12210000I-40000J0D01*
G01*
X17589560Y-12210000D02*
G75*
G02*
X17669560Y-12210000I40000J0D01*
G01*
X17669560Y-13226000D02*
G75*
G02*
X17589560Y-13226000I-40000J0D01*
G01*
X17589560Y-13226000D02*
G75*
G02*
X17669560Y-13226000I40000J0D01*
G01*
X17840000Y-11329000D02*
G75*
G02*
X17760000Y-11329000I-40000J0D01*
G01*
X17760000Y-11329000D02*
G75*
G02*
X17840000Y-11329000I40000J0D01*
G01*
X17840000Y-11579000D02*
G75*
G02*
X17760000Y-11579000I-40000J0D01*
G01*
X17760000Y-11579000D02*
G75*
G02*
X17840000Y-11579000I40000J0D01*
G01*
X17845400Y-8223250D02*
G75*
G02*
X17765400Y-8223250I-40000J0D01*
G01*
X17765400Y-8223250D02*
G75*
G02*
X17845400Y-8223250I40000J0D01*
G01*
X17845400Y-8477250D02*
G75*
G02*
X17765400Y-8477250I-40000J0D01*
G01*
X17765400Y-8477250D02*
G75*
G02*
X17845400Y-8477250I40000J0D01*
G01*
X17845400Y-9239250D02*
G75*
G02*
X17765400Y-9239250I-40000J0D01*
G01*
X17765400Y-9239250D02*
G75*
G02*
X17845400Y-9239250I40000J0D01*
G01*
X17845400Y-9493250D02*
G75*
G02*
X17765400Y-9493250I-40000J0D01*
G01*
X17765400Y-9493250D02*
G75*
G02*
X17845400Y-9493250I40000J0D01*
G01*
X17845400Y-11017250D02*
G75*
G02*
X17765400Y-11017250I-40000J0D01*
G01*
X17765400Y-11017250D02*
G75*
G02*
X17845400Y-11017250I40000J0D01*
G01*
X17996560Y-12214000D02*
G75*
G02*
X17916560Y-12214000I-40000J0D01*
G01*
X17916560Y-12214000D02*
G75*
G02*
X17996560Y-12214000I40000J0D01*
G01*
X17996560Y-13230000D02*
G75*
G02*
X17916560Y-13230000I-40000J0D01*
G01*
X17916560Y-13230000D02*
G75*
G02*
X17996560Y-13230000I40000J0D01*
G01*
X18099400Y-8223250D02*
G75*
G02*
X18019400Y-8223250I-40000J0D01*
G01*
X18019400Y-8223250D02*
G75*
G02*
X18099400Y-8223250I40000J0D01*
G01*
X18099400Y-8477250D02*
G75*
G02*
X18019400Y-8477250I-40000J0D01*
G01*
X18019400Y-8477250D02*
G75*
G02*
X18099400Y-8477250I40000J0D01*
G01*
X18099400Y-9239250D02*
G75*
G02*
X18019400Y-9239250I-40000J0D01*
G01*
X18019400Y-9239250D02*
G75*
G02*
X18099400Y-9239250I40000J0D01*
G01*
X18319560Y-12214000D02*
G75*
G02*
X18239560Y-12214000I-40000J0D01*
G01*
X18239560Y-12214000D02*
G75*
G02*
X18319560Y-12214000I40000J0D01*
G01*
X18319560Y-13230000D02*
G75*
G02*
X18239560Y-13230000I-40000J0D01*
G01*
X18239560Y-13230000D02*
G75*
G02*
X18319560Y-13230000I40000J0D01*
G01*
X18353400Y-8223250D02*
G75*
G02*
X18273400Y-8223250I-40000J0D01*
G01*
X18273400Y-8223250D02*
G75*
G02*
X18353400Y-8223250I40000J0D01*
G01*
X18353400Y-8477250D02*
G75*
G02*
X18273400Y-8477250I-40000J0D01*
G01*
X18273400Y-8477250D02*
G75*
G02*
X18353400Y-8477250I40000J0D01*
G01*
X18353400Y-9239250D02*
G75*
G02*
X18273400Y-9239250I-40000J0D01*
G01*
X18273400Y-9239250D02*
G75*
G02*
X18353400Y-9239250I40000J0D01*
G01*
X18750000Y-8908000D02*
G75*
G02*
X18670000Y-8908000I-40000J0D01*
G01*
X18670000Y-8908000D02*
G75*
G02*
X18750000Y-8908000I40000J0D01*
G01*
X19000000Y-8908000D02*
G75*
G02*
X18920000Y-8908000I-40000J0D01*
G01*
X18920000Y-8908000D02*
G75*
G02*
X19000000Y-8908000I40000J0D01*
G01*
X12356000Y-9975440D02*
X12356000Y-10065440D01*
X12311000Y-10020440D02*
X12401000Y-10020440D01*
X12356000Y-10646000D02*
X12356000Y-10736000D01*
X12311000Y-10691000D02*
X12401000Y-10691000D01*
X12357270Y-9317580D02*
X12357270Y-9407580D01*
X12312270Y-9362580D02*
X12402270Y-9362580D01*
X12610000Y-9975440D02*
X12610000Y-10065440D01*
X12565000Y-10020440D02*
X12655000Y-10020440D01*
X12610000Y-10646000D02*
X12610000Y-10736000D01*
X12565000Y-10691000D02*
X12655000Y-10691000D01*
X12611270Y-9317580D02*
X12611270Y-9407580D01*
X12566270Y-9362580D02*
X12656270Y-9362580D01*
X13033356Y-11383356D02*
X13033356Y-11312644D01*
X12962644Y-11312644D01*
X12962644Y-11383356D01*
X13033356Y-11383356D01*
X13287356Y-11383356D02*
X13287356Y-11312644D01*
X13216644Y-11312644D01*
X13216644Y-11383356D01*
X13287356Y-11383356D01*
X13541356Y-11383356D02*
X13541356Y-11312644D01*
X13470644Y-11312644D01*
X13470644Y-11383356D01*
X13541356Y-11383356D01*
X13795356Y-11383356D02*
X13795356Y-11312644D01*
X13724644Y-11312644D01*
X13724644Y-11383356D01*
X13795356Y-11383356D01*
X14049356Y-11383356D02*
X14049356Y-11312644D01*
X13978644Y-11312644D01*
X13978644Y-11383356D01*
X14049356Y-11383356D01*
X14303356Y-11383356D02*
X14303356Y-11312644D01*
X14232644Y-11312644D01*
X14232644Y-11383356D01*
X14303356Y-11383356D01*
X15709856Y-12143356D02*
X15709856Y-12072644D01*
X15639144Y-12072644D01*
X15639144Y-12143356D01*
X15709856Y-12143356D01*
X15709856Y-12397356D02*
X15709856Y-12326644D01*
X15639144Y-12326644D01*
X15639144Y-12397356D01*
X15709856Y-12397356D01*
X15709856Y-12651356D02*
X15709856Y-12580644D01*
X15639144Y-12580644D01*
X15639144Y-12651356D01*
X15709856Y-12651356D01*
X15709856Y-12905356D02*
X15709856Y-12834644D01*
X15639144Y-12834644D01*
X15639144Y-12905356D01*
X15709856Y-12905356D01*
X15709856Y-13159356D02*
X15709856Y-13088644D01*
X15639144Y-13088644D01*
X15639144Y-13159356D01*
X15709856Y-13159356D01*
X15709856Y-13413356D02*
X15709856Y-13342644D01*
X15639144Y-13342644D01*
X15639144Y-13413356D01*
X15709856Y-13413356D01*
X18753356Y-9867356D02*
X18753356Y-9796644D01*
X18682644Y-9796644D01*
X18682644Y-9867356D01*
X18753356Y-9867356D01*
X18753356Y-10121356D02*
X18753356Y-10050644D01*
X18682644Y-10050644D01*
X18682644Y-10121356D01*
X18753356Y-10121356D01*
X18753356Y-10375356D02*
X18753356Y-10304644D01*
X18682644Y-10304644D01*
X18682644Y-10375356D01*
X18753356Y-10375356D01*
X18753356Y-10629356D02*
X18753356Y-10558644D01*
X18682644Y-10558644D01*
X18682644Y-10629356D01*
X18753356Y-10629356D01*
X18753356Y-10883356D02*
X18753356Y-10812644D01*
X18682644Y-10812644D01*
X18682644Y-10883356D01*
X18753356Y-10883356D01*
X18753356Y-11137356D02*
X18753356Y-11066644D01*
X18682644Y-11066644D01*
X18682644Y-11137356D01*
X18753356Y-11137356D01*
X18753356Y-11391356D02*
X18753356Y-11320644D01*
X18682644Y-11320644D01*
X18682644Y-11391356D01*
X18753356Y-11391356D01*
X18753356Y-11645356D02*
X18753356Y-11574644D01*
X18682644Y-11574644D01*
X18682644Y-11645356D01*
X18753356Y-11645356D01*
X18753356Y-11899356D02*
X18753356Y-11828644D01*
X18682644Y-11828644D01*
X18682644Y-11899356D01*
X18753356Y-11899356D01*
X18753356Y-12153356D02*
X18753356Y-12082644D01*
X18682644Y-12082644D01*
X18682644Y-12153356D01*
X18753356Y-12153356D01*
X18950356Y-12902356D02*
X18950356Y-12831644D01*
X18879644Y-12831644D01*
X18879644Y-12902356D01*
X18950356Y-12902356D01*
X18950356Y-13352356D02*
X18950356Y-13281644D01*
X18879644Y-13281644D01*
X18879644Y-13352356D01*
X18950356Y-13352356D01*
X19007356Y-9867356D02*
X19007356Y-9796644D01*
X18936644Y-9796644D01*
X18936644Y-9867356D01*
X19007356Y-9867356D01*
X19007356Y-10121356D02*
X19007356Y-10050644D01*
X18936644Y-10050644D01*
X18936644Y-10121356D01*
X19007356Y-10121356D01*
X19007356Y-10375356D02*
X19007356Y-10304644D01*
X18936644Y-10304644D01*
X18936644Y-10375356D01*
X19007356Y-10375356D01*
X19007356Y-10629356D02*
X19007356Y-10558644D01*
X18936644Y-10558644D01*
X18936644Y-10629356D01*
X19007356Y-10629356D01*
X19007356Y-10883356D02*
X19007356Y-10812644D01*
X18936644Y-10812644D01*
X18936644Y-10883356D01*
X19007356Y-10883356D01*
X19007356Y-11137356D02*
X19007356Y-11066644D01*
X18936644Y-11066644D01*
X18936644Y-11137356D01*
X19007356Y-11137356D01*
X19007356Y-11391356D02*
X19007356Y-11320644D01*
X18936644Y-11320644D01*
X18936644Y-11391356D01*
X19007356Y-11391356D01*
X19007356Y-11645356D02*
X19007356Y-11574644D01*
X18936644Y-11574644D01*
X18936644Y-11645356D01*
X19007356Y-11645356D01*
X19007356Y-11899356D02*
X19007356Y-11828644D01*
X18936644Y-11828644D01*
X18936644Y-11899356D01*
X19007356Y-11899356D01*
X19007356Y-12153356D02*
X19007356Y-12082644D01*
X18936644Y-12082644D01*
X18936644Y-12153356D01*
X19007356Y-12153356D01*
D13*
X18665000Y-12807000D02*
X18730000Y-12742000D01*
X18665000Y-12677000D01*
X18600000Y-12742000D01*
X18665000Y-12807000D01*
X18665000Y-13507000D02*
X18730000Y-13442000D01*
X18665000Y-13377000D01*
X18600000Y-13442000D01*
X18665000Y-13507000D01*
D11*
X12237744Y-14678517D02*
X12237744Y-14478517D01*
X12237744Y-14478517D02*
X12285363Y-14478517D01*
X12285363Y-14478517D02*
X12313934Y-14488041D01*
X12313934Y-14488041D02*
X12332982Y-14507088D01*
X12332982Y-14507088D02*
X12342506Y-14526136D01*
X12342506Y-14526136D02*
X12352029Y-14564231D01*
X12352029Y-14564231D02*
X12352029Y-14592802D01*
X12352029Y-14592802D02*
X12342506Y-14630898D01*
X12342506Y-14630898D02*
X12332982Y-14649945D01*
X12332982Y-14649945D02*
X12313934Y-14668993D01*
X12313934Y-14668993D02*
X12285363Y-14678517D01*
X12285363Y-14678517D02*
X12237744Y-14678517D01*
X12437744Y-14678517D02*
X12437744Y-14545183D01*
X12437744Y-14583279D02*
X12447268Y-14564231D01*
X12447268Y-14564231D02*
X12456791Y-14554707D01*
X12456791Y-14554707D02*
X12475839Y-14545183D01*
X12475839Y-14545183D02*
X12494887Y-14545183D01*
X12561553Y-14678517D02*
X12561553Y-14545183D01*
X12561553Y-14478517D02*
X12552029Y-14488041D01*
X12552029Y-14488041D02*
X12561553Y-14497564D01*
X12561553Y-14497564D02*
X12571077Y-14488041D01*
X12571077Y-14488041D02*
X12561553Y-14478517D01*
X12561553Y-14478517D02*
X12561553Y-14497564D01*
X12685363Y-14678517D02*
X12666315Y-14668993D01*
X12666315Y-14668993D02*
X12656791Y-14649945D01*
X12656791Y-14649945D02*
X12656791Y-14478517D01*
X12790125Y-14678517D02*
X12771077Y-14668993D01*
X12771077Y-14668993D02*
X12761553Y-14649945D01*
X12761553Y-14649945D02*
X12761553Y-14478517D01*
X13018696Y-14678517D02*
X13018696Y-14478517D01*
X13018696Y-14478517D02*
X13085363Y-14621374D01*
X13085363Y-14621374D02*
X13152029Y-14478517D01*
X13152029Y-14478517D02*
X13152029Y-14678517D01*
X13332982Y-14678517D02*
X13332982Y-14573755D01*
X13332982Y-14573755D02*
X13323458Y-14554707D01*
X13323458Y-14554707D02*
X13304410Y-14545183D01*
X13304410Y-14545183D02*
X13266315Y-14545183D01*
X13266315Y-14545183D02*
X13247268Y-14554707D01*
X13332982Y-14668993D02*
X13313934Y-14678517D01*
X13313934Y-14678517D02*
X13266315Y-14678517D01*
X13266315Y-14678517D02*
X13247268Y-14668993D01*
X13247268Y-14668993D02*
X13237744Y-14649945D01*
X13237744Y-14649945D02*
X13237744Y-14630898D01*
X13237744Y-14630898D02*
X13247268Y-14611850D01*
X13247268Y-14611850D02*
X13266315Y-14602326D01*
X13266315Y-14602326D02*
X13313934Y-14602326D01*
X13313934Y-14602326D02*
X13332982Y-14592802D01*
X13428220Y-14545183D02*
X13428220Y-14745183D01*
X13428220Y-14554707D02*
X13447268Y-14545183D01*
X13447268Y-14545183D02*
X13485363Y-14545183D01*
X13485363Y-14545183D02*
X13504410Y-14554707D01*
X13504410Y-14554707D02*
X13513934Y-14564231D01*
X13513934Y-14564231D02*
X13523458Y-14583279D01*
X13523458Y-14583279D02*
X13523458Y-14640421D01*
X13523458Y-14640421D02*
X13513934Y-14659469D01*
X13513934Y-14659469D02*
X13504410Y-14668993D01*
X13504410Y-14668993D02*
X13485363Y-14678517D01*
X13485363Y-14678517D02*
X13447268Y-14678517D01*
X13447268Y-14678517D02*
X13428220Y-14668993D01*
X13609172Y-14659469D02*
X13618696Y-14668993D01*
X13618696Y-14668993D02*
X13609172Y-14678517D01*
X13609172Y-14678517D02*
X13599649Y-14668993D01*
X13599649Y-14668993D02*
X13609172Y-14659469D01*
X13609172Y-14659469D02*
X13609172Y-14678517D01*
X13609172Y-14554707D02*
X13618696Y-14564231D01*
X13618696Y-14564231D02*
X13609172Y-14573755D01*
X13609172Y-14573755D02*
X13599649Y-14564231D01*
X13599649Y-14564231D02*
X13609172Y-14554707D01*
X13609172Y-14554707D02*
X13609172Y-14573755D01*
D12*
X11936967Y-14987033D02*
X11976967Y-15027033D01*
X11976967Y-14987033D02*
X11936967Y-15027033D01*
D11*
X12275839Y-14898517D02*
X12294887Y-14898517D01*
X12294887Y-14898517D02*
X12313934Y-14908041D01*
X12313934Y-14908041D02*
X12323458Y-14917564D01*
X12323458Y-14917564D02*
X12332982Y-14936612D01*
X12332982Y-14936612D02*
X12342506Y-14974707D01*
X12342506Y-14974707D02*
X12342506Y-15022326D01*
X12342506Y-15022326D02*
X12332982Y-15060421D01*
X12332982Y-15060421D02*
X12323458Y-15079469D01*
X12323458Y-15079469D02*
X12313934Y-15088993D01*
X12313934Y-15088993D02*
X12294887Y-15098517D01*
X12294887Y-15098517D02*
X12275839Y-15098517D01*
X12275839Y-15098517D02*
X12256791Y-15088993D01*
X12256791Y-15088993D02*
X12247268Y-15079469D01*
X12247268Y-15079469D02*
X12237744Y-15060421D01*
X12237744Y-15060421D02*
X12228220Y-15022326D01*
X12228220Y-15022326D02*
X12228220Y-14974707D01*
X12228220Y-14974707D02*
X12237744Y-14936612D01*
X12237744Y-14936612D02*
X12247268Y-14917564D01*
X12247268Y-14917564D02*
X12256791Y-14908041D01*
X12256791Y-14908041D02*
X12275839Y-14898517D01*
X12428220Y-15079469D02*
X12437744Y-15088993D01*
X12437744Y-15088993D02*
X12428220Y-15098517D01*
X12428220Y-15098517D02*
X12418696Y-15088993D01*
X12418696Y-15088993D02*
X12428220Y-15079469D01*
X12428220Y-15079469D02*
X12428220Y-15098517D01*
X12609172Y-14965183D02*
X12609172Y-15098517D01*
X12561553Y-14888993D02*
X12513934Y-15031850D01*
X12513934Y-15031850D02*
X12637744Y-15031850D01*
X12752029Y-14898517D02*
X12771077Y-14898517D01*
X12771077Y-14898517D02*
X12790125Y-14908041D01*
X12790125Y-14908041D02*
X12799649Y-14917564D01*
X12799649Y-14917564D02*
X12809172Y-14936612D01*
X12809172Y-14936612D02*
X12818696Y-14974707D01*
X12818696Y-14974707D02*
X12818696Y-15022326D01*
X12818696Y-15022326D02*
X12809172Y-15060421D01*
X12809172Y-15060421D02*
X12799649Y-15079469D01*
X12799649Y-15079469D02*
X12790125Y-15088993D01*
X12790125Y-15088993D02*
X12771077Y-15098517D01*
X12771077Y-15098517D02*
X12752029Y-15098517D01*
X12752029Y-15098517D02*
X12732982Y-15088993D01*
X12732982Y-15088993D02*
X12723458Y-15079469D01*
X12723458Y-15079469D02*
X12713934Y-15060421D01*
X12713934Y-15060421D02*
X12704410Y-15022326D01*
X12704410Y-15022326D02*
X12704410Y-14974707D01*
X12704410Y-14974707D02*
X12713934Y-14936612D01*
X12713934Y-14936612D02*
X12723458Y-14917564D01*
X12723458Y-14917564D02*
X12732982Y-14908041D01*
X12732982Y-14908041D02*
X12752029Y-14898517D01*
X12942506Y-14898517D02*
X12961553Y-14898517D01*
X12961553Y-14898517D02*
X12980601Y-14908041D01*
X12980601Y-14908041D02*
X12990125Y-14917564D01*
X12990125Y-14917564D02*
X12999649Y-14936612D01*
X12999649Y-14936612D02*
X13009172Y-14974707D01*
X13009172Y-14974707D02*
X13009172Y-15022326D01*
X13009172Y-15022326D02*
X12999649Y-15060421D01*
X12999649Y-15060421D02*
X12990125Y-15079469D01*
X12990125Y-15079469D02*
X12980601Y-15088993D01*
X12980601Y-15088993D02*
X12961553Y-15098517D01*
X12961553Y-15098517D02*
X12942506Y-15098517D01*
X12942506Y-15098517D02*
X12923458Y-15088993D01*
X12923458Y-15088993D02*
X12913934Y-15079469D01*
X12913934Y-15079469D02*
X12904410Y-15060421D01*
X12904410Y-15060421D02*
X12894887Y-15022326D01*
X12894887Y-15022326D02*
X12894887Y-14974707D01*
X12894887Y-14974707D02*
X12904410Y-14936612D01*
X12904410Y-14936612D02*
X12913934Y-14917564D01*
X12913934Y-14917564D02*
X12923458Y-14908041D01*
X12923458Y-14908041D02*
X12942506Y-14898517D01*
X13094887Y-15098517D02*
X13094887Y-14965183D01*
X13094887Y-14984231D02*
X13104410Y-14974707D01*
X13104410Y-14974707D02*
X13123458Y-14965183D01*
X13123458Y-14965183D02*
X13152030Y-14965183D01*
X13152030Y-14965183D02*
X13171077Y-14974707D01*
X13171077Y-14974707D02*
X13180601Y-14993755D01*
X13180601Y-14993755D02*
X13180601Y-15098517D01*
X13180601Y-14993755D02*
X13190125Y-14974707D01*
X13190125Y-14974707D02*
X13209172Y-14965183D01*
X13209172Y-14965183D02*
X13237744Y-14965183D01*
X13237744Y-14965183D02*
X13256791Y-14974707D01*
X13256791Y-14974707D02*
X13266315Y-14993755D01*
X13266315Y-14993755D02*
X13266315Y-15098517D01*
X13361553Y-15098517D02*
X13361553Y-14965183D01*
X13361553Y-14984231D02*
X13371077Y-14974707D01*
X13371077Y-14974707D02*
X13390125Y-14965183D01*
X13390125Y-14965183D02*
X13418696Y-14965183D01*
X13418696Y-14965183D02*
X13437744Y-14974707D01*
X13437744Y-14974707D02*
X13447268Y-14993755D01*
X13447268Y-14993755D02*
X13447268Y-15098517D01*
X13447268Y-14993755D02*
X13456791Y-14974707D01*
X13456791Y-14974707D02*
X13475839Y-14965183D01*
X13475839Y-14965183D02*
X13504410Y-14965183D01*
X13504410Y-14965183D02*
X13523458Y-14974707D01*
X13523458Y-14974707D02*
X13532982Y-14993755D01*
X13532982Y-14993755D02*
X13532982Y-15098517D01*
X13923458Y-14888993D02*
X13752030Y-15146136D01*
X14180601Y-14898517D02*
X14199649Y-14898517D01*
X14199649Y-14898517D02*
X14218696Y-14908041D01*
X14218696Y-14908041D02*
X14228220Y-14917564D01*
X14228220Y-14917564D02*
X14237744Y-14936612D01*
X14237744Y-14936612D02*
X14247268Y-14974707D01*
X14247268Y-14974707D02*
X14247268Y-15022326D01*
X14247268Y-15022326D02*
X14237744Y-15060421D01*
X14237744Y-15060421D02*
X14228220Y-15079469D01*
X14228220Y-15079469D02*
X14218696Y-15088993D01*
X14218696Y-15088993D02*
X14199649Y-15098517D01*
X14199649Y-15098517D02*
X14180601Y-15098517D01*
X14180601Y-15098517D02*
X14161553Y-15088993D01*
X14161553Y-15088993D02*
X14152030Y-15079469D01*
X14152030Y-15079469D02*
X14142506Y-15060421D01*
X14142506Y-15060421D02*
X14132982Y-15022326D01*
X14132982Y-15022326D02*
X14132982Y-14974707D01*
X14132982Y-14974707D02*
X14142506Y-14936612D01*
X14142506Y-14936612D02*
X14152030Y-14917564D01*
X14152030Y-14917564D02*
X14161553Y-14908041D01*
X14161553Y-14908041D02*
X14180601Y-14898517D01*
X14332982Y-15079469D02*
X14342506Y-15088993D01*
X14342506Y-15088993D02*
X14332982Y-15098517D01*
X14332982Y-15098517D02*
X14323458Y-15088993D01*
X14323458Y-15088993D02*
X14332982Y-15079469D01*
X14332982Y-15079469D02*
X14332982Y-15098517D01*
X14466315Y-14898517D02*
X14485363Y-14898517D01*
X14485363Y-14898517D02*
X14504411Y-14908041D01*
X14504411Y-14908041D02*
X14513934Y-14917564D01*
X14513934Y-14917564D02*
X14523458Y-14936612D01*
X14523458Y-14936612D02*
X14532982Y-14974707D01*
X14532982Y-14974707D02*
X14532982Y-15022326D01*
X14532982Y-15022326D02*
X14523458Y-15060421D01*
X14523458Y-15060421D02*
X14513934Y-15079469D01*
X14513934Y-15079469D02*
X14504411Y-15088993D01*
X14504411Y-15088993D02*
X14485363Y-15098517D01*
X14485363Y-15098517D02*
X14466315Y-15098517D01*
X14466315Y-15098517D02*
X14447268Y-15088993D01*
X14447268Y-15088993D02*
X14437744Y-15079469D01*
X14437744Y-15079469D02*
X14428220Y-15060421D01*
X14428220Y-15060421D02*
X14418696Y-15022326D01*
X14418696Y-15022326D02*
X14418696Y-14974707D01*
X14418696Y-14974707D02*
X14428220Y-14936612D01*
X14428220Y-14936612D02*
X14437744Y-14917564D01*
X14437744Y-14917564D02*
X14447268Y-14908041D01*
X14447268Y-14908041D02*
X14466315Y-14898517D01*
X14723458Y-15098517D02*
X14609173Y-15098517D01*
X14666315Y-15098517D02*
X14666315Y-14898517D01*
X14666315Y-14898517D02*
X14647268Y-14927088D01*
X14647268Y-14927088D02*
X14628220Y-14946136D01*
X14628220Y-14946136D02*
X14609173Y-14955660D01*
X14904411Y-14898517D02*
X14809173Y-14898517D01*
X14809173Y-14898517D02*
X14799649Y-14993755D01*
X14799649Y-14993755D02*
X14809173Y-14984231D01*
X14809173Y-14984231D02*
X14828220Y-14974707D01*
X14828220Y-14974707D02*
X14875839Y-14974707D01*
X14875839Y-14974707D02*
X14894887Y-14984231D01*
X14894887Y-14984231D02*
X14904411Y-14993755D01*
X14904411Y-14993755D02*
X14913934Y-15012802D01*
X14913934Y-15012802D02*
X14913934Y-15060421D01*
X14913934Y-15060421D02*
X14904411Y-15079469D01*
X14904411Y-15079469D02*
X14894887Y-15088993D01*
X14894887Y-15088993D02*
X14875839Y-15098517D01*
X14875839Y-15098517D02*
X14828220Y-15098517D01*
X14828220Y-15098517D02*
X14809173Y-15088993D01*
X14809173Y-15088993D02*
X14799649Y-15079469D01*
X14980601Y-14898517D02*
X15113934Y-14898517D01*
X15113934Y-14898517D02*
X15028220Y-15098517D01*
X15180601Y-14898517D02*
X15180601Y-14936612D01*
X15256792Y-14898517D02*
X15256792Y-14936612D01*
X15552030Y-15174707D02*
X15542506Y-15165183D01*
X15542506Y-15165183D02*
X15523458Y-15136612D01*
X15523458Y-15136612D02*
X15513935Y-15117564D01*
X15513935Y-15117564D02*
X15504411Y-15088993D01*
X15504411Y-15088993D02*
X15494887Y-15041374D01*
X15494887Y-15041374D02*
X15494887Y-15003279D01*
X15494887Y-15003279D02*
X15504411Y-14955660D01*
X15504411Y-14955660D02*
X15513935Y-14927088D01*
X15513935Y-14927088D02*
X15523458Y-14908041D01*
X15523458Y-14908041D02*
X15542506Y-14879469D01*
X15542506Y-14879469D02*
X15552030Y-14869945D01*
X15618696Y-14917564D02*
X15628220Y-14908041D01*
X15628220Y-14908041D02*
X15647268Y-14898517D01*
X15647268Y-14898517D02*
X15694887Y-14898517D01*
X15694887Y-14898517D02*
X15713935Y-14908041D01*
X15713935Y-14908041D02*
X15723458Y-14917564D01*
X15723458Y-14917564D02*
X15732982Y-14936612D01*
X15732982Y-14936612D02*
X15732982Y-14955660D01*
X15732982Y-14955660D02*
X15723458Y-14984231D01*
X15723458Y-14984231D02*
X15609173Y-15098517D01*
X15609173Y-15098517D02*
X15732982Y-15098517D01*
X15904411Y-14898517D02*
X15866315Y-14898517D01*
X15866315Y-14898517D02*
X15847268Y-14908041D01*
X15847268Y-14908041D02*
X15837744Y-14917564D01*
X15837744Y-14917564D02*
X15818696Y-14946136D01*
X15818696Y-14946136D02*
X15809173Y-14984231D01*
X15809173Y-14984231D02*
X15809173Y-15060421D01*
X15809173Y-15060421D02*
X15818696Y-15079469D01*
X15818696Y-15079469D02*
X15828220Y-15088993D01*
X15828220Y-15088993D02*
X15847268Y-15098517D01*
X15847268Y-15098517D02*
X15885363Y-15098517D01*
X15885363Y-15098517D02*
X15904411Y-15088993D01*
X15904411Y-15088993D02*
X15913935Y-15079469D01*
X15913935Y-15079469D02*
X15923458Y-15060421D01*
X15923458Y-15060421D02*
X15923458Y-15012802D01*
X15923458Y-15012802D02*
X15913935Y-14993755D01*
X15913935Y-14993755D02*
X15904411Y-14984231D01*
X15904411Y-14984231D02*
X15885363Y-14974707D01*
X15885363Y-14974707D02*
X15847268Y-14974707D01*
X15847268Y-14974707D02*
X15828220Y-14984231D01*
X15828220Y-14984231D02*
X15818696Y-14993755D01*
X15818696Y-14993755D02*
X15809173Y-15012802D01*
X16161554Y-15098517D02*
X16161554Y-14898517D01*
X16247268Y-15098517D02*
X16247268Y-14993755D01*
X16247268Y-14993755D02*
X16237744Y-14974707D01*
X16237744Y-14974707D02*
X16218697Y-14965183D01*
X16218697Y-14965183D02*
X16190125Y-14965183D01*
X16190125Y-14965183D02*
X16171077Y-14974707D01*
X16171077Y-14974707D02*
X16161554Y-14984231D01*
X16371077Y-15098517D02*
X16352030Y-15088993D01*
X16352030Y-15088993D02*
X16342506Y-15079469D01*
X16342506Y-15079469D02*
X16332982Y-15060421D01*
X16332982Y-15060421D02*
X16332982Y-15003279D01*
X16332982Y-15003279D02*
X16342506Y-14984231D01*
X16342506Y-14984231D02*
X16352030Y-14974707D01*
X16352030Y-14974707D02*
X16371077Y-14965183D01*
X16371077Y-14965183D02*
X16399649Y-14965183D01*
X16399649Y-14965183D02*
X16418697Y-14974707D01*
X16418697Y-14974707D02*
X16428220Y-14984231D01*
X16428220Y-14984231D02*
X16437744Y-15003279D01*
X16437744Y-15003279D02*
X16437744Y-15060421D01*
X16437744Y-15060421D02*
X16428220Y-15079469D01*
X16428220Y-15079469D02*
X16418697Y-15088993D01*
X16418697Y-15088993D02*
X16399649Y-15098517D01*
X16399649Y-15098517D02*
X16371077Y-15098517D01*
X16552030Y-15098517D02*
X16532982Y-15088993D01*
X16532982Y-15088993D02*
X16523458Y-15069945D01*
X16523458Y-15069945D02*
X16523458Y-14898517D01*
X16704411Y-15088993D02*
X16685363Y-15098517D01*
X16685363Y-15098517D02*
X16647268Y-15098517D01*
X16647268Y-15098517D02*
X16628220Y-15088993D01*
X16628220Y-15088993D02*
X16618697Y-15069945D01*
X16618697Y-15069945D02*
X16618697Y-14993755D01*
X16618697Y-14993755D02*
X16628220Y-14974707D01*
X16628220Y-14974707D02*
X16647268Y-14965183D01*
X16647268Y-14965183D02*
X16685363Y-14965183D01*
X16685363Y-14965183D02*
X16704411Y-14974707D01*
X16704411Y-14974707D02*
X16713935Y-14993755D01*
X16713935Y-14993755D02*
X16713935Y-15012802D01*
X16713935Y-15012802D02*
X16618697Y-15031850D01*
X16790125Y-15088993D02*
X16809173Y-15098517D01*
X16809173Y-15098517D02*
X16847268Y-15098517D01*
X16847268Y-15098517D02*
X16866316Y-15088993D01*
X16866316Y-15088993D02*
X16875840Y-15069945D01*
X16875840Y-15069945D02*
X16875840Y-15060421D01*
X16875840Y-15060421D02*
X16866316Y-15041374D01*
X16866316Y-15041374D02*
X16847268Y-15031850D01*
X16847268Y-15031850D02*
X16818697Y-15031850D01*
X16818697Y-15031850D02*
X16799649Y-15022326D01*
X16799649Y-15022326D02*
X16790125Y-15003279D01*
X16790125Y-15003279D02*
X16790125Y-14993755D01*
X16790125Y-14993755D02*
X16799649Y-14974707D01*
X16799649Y-14974707D02*
X16818697Y-14965183D01*
X16818697Y-14965183D02*
X16847268Y-14965183D01*
X16847268Y-14965183D02*
X16866316Y-14974707D01*
X16942506Y-15174707D02*
X16952030Y-15165183D01*
X16952030Y-15165183D02*
X16971078Y-15136612D01*
X16971078Y-15136612D02*
X16980601Y-15117564D01*
X16980601Y-15117564D02*
X16990125Y-15088993D01*
X16990125Y-15088993D02*
X16999649Y-15041374D01*
X16999649Y-15041374D02*
X16999649Y-15003279D01*
X16999649Y-15003279D02*
X16990125Y-14955660D01*
X16990125Y-14955660D02*
X16980601Y-14927088D01*
X16980601Y-14927088D02*
X16971078Y-14908041D01*
X16971078Y-14908041D02*
X16952030Y-14879469D01*
X16952030Y-14879469D02*
X16942506Y-14869945D01*
D12*
X11976967Y-15271033D02*
G75*
G02*
X11896967Y-15271033I-40000J0D01*
G01*
X11896967Y-15271033D02*
G75*
G02*
X11976967Y-15271033I40000J0D01*
G01*
D11*
X12275839Y-15162517D02*
X12294887Y-15162517D01*
X12294887Y-15162517D02*
X12313934Y-15172041D01*
X12313934Y-15172041D02*
X12323458Y-15181564D01*
X12323458Y-15181564D02*
X12332982Y-15200612D01*
X12332982Y-15200612D02*
X12342506Y-15238707D01*
X12342506Y-15238707D02*
X12342506Y-15286326D01*
X12342506Y-15286326D02*
X12332982Y-15324421D01*
X12332982Y-15324421D02*
X12323458Y-15343469D01*
X12323458Y-15343469D02*
X12313934Y-15352993D01*
X12313934Y-15352993D02*
X12294887Y-15362517D01*
X12294887Y-15362517D02*
X12275839Y-15362517D01*
X12275839Y-15362517D02*
X12256791Y-15352993D01*
X12256791Y-15352993D02*
X12247268Y-15343469D01*
X12247268Y-15343469D02*
X12237744Y-15324421D01*
X12237744Y-15324421D02*
X12228220Y-15286326D01*
X12228220Y-15286326D02*
X12228220Y-15238707D01*
X12228220Y-15238707D02*
X12237744Y-15200612D01*
X12237744Y-15200612D02*
X12247268Y-15181564D01*
X12247268Y-15181564D02*
X12256791Y-15172041D01*
X12256791Y-15172041D02*
X12275839Y-15162517D01*
X12428220Y-15343469D02*
X12437744Y-15352993D01*
X12437744Y-15352993D02*
X12428220Y-15362517D01*
X12428220Y-15362517D02*
X12418696Y-15352993D01*
X12418696Y-15352993D02*
X12428220Y-15343469D01*
X12428220Y-15343469D02*
X12428220Y-15362517D01*
X12552029Y-15248231D02*
X12532982Y-15238707D01*
X12532982Y-15238707D02*
X12523458Y-15229183D01*
X12523458Y-15229183D02*
X12513934Y-15210136D01*
X12513934Y-15210136D02*
X12513934Y-15200612D01*
X12513934Y-15200612D02*
X12523458Y-15181564D01*
X12523458Y-15181564D02*
X12532982Y-15172041D01*
X12532982Y-15172041D02*
X12552029Y-15162517D01*
X12552029Y-15162517D02*
X12590125Y-15162517D01*
X12590125Y-15162517D02*
X12609172Y-15172041D01*
X12609172Y-15172041D02*
X12618696Y-15181564D01*
X12618696Y-15181564D02*
X12628220Y-15200612D01*
X12628220Y-15200612D02*
X12628220Y-15210136D01*
X12628220Y-15210136D02*
X12618696Y-15229183D01*
X12618696Y-15229183D02*
X12609172Y-15238707D01*
X12609172Y-15238707D02*
X12590125Y-15248231D01*
X12590125Y-15248231D02*
X12552029Y-15248231D01*
X12552029Y-15248231D02*
X12532982Y-15257755D01*
X12532982Y-15257755D02*
X12523458Y-15267279D01*
X12523458Y-15267279D02*
X12513934Y-15286326D01*
X12513934Y-15286326D02*
X12513934Y-15324421D01*
X12513934Y-15324421D02*
X12523458Y-15343469D01*
X12523458Y-15343469D02*
X12532982Y-15352993D01*
X12532982Y-15352993D02*
X12552029Y-15362517D01*
X12552029Y-15362517D02*
X12590125Y-15362517D01*
X12590125Y-15362517D02*
X12609172Y-15352993D01*
X12609172Y-15352993D02*
X12618696Y-15343469D01*
X12618696Y-15343469D02*
X12628220Y-15324421D01*
X12628220Y-15324421D02*
X12628220Y-15286326D01*
X12628220Y-15286326D02*
X12618696Y-15267279D01*
X12618696Y-15267279D02*
X12609172Y-15257755D01*
X12609172Y-15257755D02*
X12590125Y-15248231D01*
X12752029Y-15162517D02*
X12771077Y-15162517D01*
X12771077Y-15162517D02*
X12790125Y-15172041D01*
X12790125Y-15172041D02*
X12799649Y-15181564D01*
X12799649Y-15181564D02*
X12809172Y-15200612D01*
X12809172Y-15200612D02*
X12818696Y-15238707D01*
X12818696Y-15238707D02*
X12818696Y-15286326D01*
X12818696Y-15286326D02*
X12809172Y-15324421D01*
X12809172Y-15324421D02*
X12799649Y-15343469D01*
X12799649Y-15343469D02*
X12790125Y-15352993D01*
X12790125Y-15352993D02*
X12771077Y-15362517D01*
X12771077Y-15362517D02*
X12752029Y-15362517D01*
X12752029Y-15362517D02*
X12732982Y-15352993D01*
X12732982Y-15352993D02*
X12723458Y-15343469D01*
X12723458Y-15343469D02*
X12713934Y-15324421D01*
X12713934Y-15324421D02*
X12704410Y-15286326D01*
X12704410Y-15286326D02*
X12704410Y-15238707D01*
X12704410Y-15238707D02*
X12713934Y-15200612D01*
X12713934Y-15200612D02*
X12723458Y-15181564D01*
X12723458Y-15181564D02*
X12732982Y-15172041D01*
X12732982Y-15172041D02*
X12752029Y-15162517D01*
X12942506Y-15162517D02*
X12961553Y-15162517D01*
X12961553Y-15162517D02*
X12980601Y-15172041D01*
X12980601Y-15172041D02*
X12990125Y-15181564D01*
X12990125Y-15181564D02*
X12999649Y-15200612D01*
X12999649Y-15200612D02*
X13009172Y-15238707D01*
X13009172Y-15238707D02*
X13009172Y-15286326D01*
X13009172Y-15286326D02*
X12999649Y-15324421D01*
X12999649Y-15324421D02*
X12990125Y-15343469D01*
X12990125Y-15343469D02*
X12980601Y-15352993D01*
X12980601Y-15352993D02*
X12961553Y-15362517D01*
X12961553Y-15362517D02*
X12942506Y-15362517D01*
X12942506Y-15362517D02*
X12923458Y-15352993D01*
X12923458Y-15352993D02*
X12913934Y-15343469D01*
X12913934Y-15343469D02*
X12904410Y-15324421D01*
X12904410Y-15324421D02*
X12894887Y-15286326D01*
X12894887Y-15286326D02*
X12894887Y-15238707D01*
X12894887Y-15238707D02*
X12904410Y-15200612D01*
X12904410Y-15200612D02*
X12913934Y-15181564D01*
X12913934Y-15181564D02*
X12923458Y-15172041D01*
X12923458Y-15172041D02*
X12942506Y-15162517D01*
X13094887Y-15362517D02*
X13094887Y-15229183D01*
X13094887Y-15248231D02*
X13104410Y-15238707D01*
X13104410Y-15238707D02*
X13123458Y-15229183D01*
X13123458Y-15229183D02*
X13152030Y-15229183D01*
X13152030Y-15229183D02*
X13171077Y-15238707D01*
X13171077Y-15238707D02*
X13180601Y-15257755D01*
X13180601Y-15257755D02*
X13180601Y-15362517D01*
X13180601Y-15257755D02*
X13190125Y-15238707D01*
X13190125Y-15238707D02*
X13209172Y-15229183D01*
X13209172Y-15229183D02*
X13237744Y-15229183D01*
X13237744Y-15229183D02*
X13256791Y-15238707D01*
X13256791Y-15238707D02*
X13266315Y-15257755D01*
X13266315Y-15257755D02*
X13266315Y-15362517D01*
X13361553Y-15362517D02*
X13361553Y-15229183D01*
X13361553Y-15248231D02*
X13371077Y-15238707D01*
X13371077Y-15238707D02*
X13390125Y-15229183D01*
X13390125Y-15229183D02*
X13418696Y-15229183D01*
X13418696Y-15229183D02*
X13437744Y-15238707D01*
X13437744Y-15238707D02*
X13447268Y-15257755D01*
X13447268Y-15257755D02*
X13447268Y-15362517D01*
X13447268Y-15257755D02*
X13456791Y-15238707D01*
X13456791Y-15238707D02*
X13475839Y-15229183D01*
X13475839Y-15229183D02*
X13504410Y-15229183D01*
X13504410Y-15229183D02*
X13523458Y-15238707D01*
X13523458Y-15238707D02*
X13532982Y-15257755D01*
X13532982Y-15257755D02*
X13532982Y-15362517D01*
X13923458Y-15152993D02*
X13752030Y-15410136D01*
X14180601Y-15162517D02*
X14199649Y-15162517D01*
X14199649Y-15162517D02*
X14218696Y-15172041D01*
X14218696Y-15172041D02*
X14228220Y-15181564D01*
X14228220Y-15181564D02*
X14237744Y-15200612D01*
X14237744Y-15200612D02*
X14247268Y-15238707D01*
X14247268Y-15238707D02*
X14247268Y-15286326D01*
X14247268Y-15286326D02*
X14237744Y-15324421D01*
X14237744Y-15324421D02*
X14228220Y-15343469D01*
X14228220Y-15343469D02*
X14218696Y-15352993D01*
X14218696Y-15352993D02*
X14199649Y-15362517D01*
X14199649Y-15362517D02*
X14180601Y-15362517D01*
X14180601Y-15362517D02*
X14161553Y-15352993D01*
X14161553Y-15352993D02*
X14152030Y-15343469D01*
X14152030Y-15343469D02*
X14142506Y-15324421D01*
X14142506Y-15324421D02*
X14132982Y-15286326D01*
X14132982Y-15286326D02*
X14132982Y-15238707D01*
X14132982Y-15238707D02*
X14142506Y-15200612D01*
X14142506Y-15200612D02*
X14152030Y-15181564D01*
X14152030Y-15181564D02*
X14161553Y-15172041D01*
X14161553Y-15172041D02*
X14180601Y-15162517D01*
X14332982Y-15343469D02*
X14342506Y-15352993D01*
X14342506Y-15352993D02*
X14332982Y-15362517D01*
X14332982Y-15362517D02*
X14323458Y-15352993D01*
X14323458Y-15352993D02*
X14332982Y-15343469D01*
X14332982Y-15343469D02*
X14332982Y-15362517D01*
X14466315Y-15162517D02*
X14485363Y-15162517D01*
X14485363Y-15162517D02*
X14504411Y-15172041D01*
X14504411Y-15172041D02*
X14513934Y-15181564D01*
X14513934Y-15181564D02*
X14523458Y-15200612D01*
X14523458Y-15200612D02*
X14532982Y-15238707D01*
X14532982Y-15238707D02*
X14532982Y-15286326D01*
X14532982Y-15286326D02*
X14523458Y-15324421D01*
X14523458Y-15324421D02*
X14513934Y-15343469D01*
X14513934Y-15343469D02*
X14504411Y-15352993D01*
X14504411Y-15352993D02*
X14485363Y-15362517D01*
X14485363Y-15362517D02*
X14466315Y-15362517D01*
X14466315Y-15362517D02*
X14447268Y-15352993D01*
X14447268Y-15352993D02*
X14437744Y-15343469D01*
X14437744Y-15343469D02*
X14428220Y-15324421D01*
X14428220Y-15324421D02*
X14418696Y-15286326D01*
X14418696Y-15286326D02*
X14418696Y-15238707D01*
X14418696Y-15238707D02*
X14428220Y-15200612D01*
X14428220Y-15200612D02*
X14437744Y-15181564D01*
X14437744Y-15181564D02*
X14447268Y-15172041D01*
X14447268Y-15172041D02*
X14466315Y-15162517D01*
X14599649Y-15162517D02*
X14723458Y-15162517D01*
X14723458Y-15162517D02*
X14656792Y-15238707D01*
X14656792Y-15238707D02*
X14685363Y-15238707D01*
X14685363Y-15238707D02*
X14704411Y-15248231D01*
X14704411Y-15248231D02*
X14713934Y-15257755D01*
X14713934Y-15257755D02*
X14723458Y-15276802D01*
X14723458Y-15276802D02*
X14723458Y-15324421D01*
X14723458Y-15324421D02*
X14713934Y-15343469D01*
X14713934Y-15343469D02*
X14704411Y-15352993D01*
X14704411Y-15352993D02*
X14685363Y-15362517D01*
X14685363Y-15362517D02*
X14628220Y-15362517D01*
X14628220Y-15362517D02*
X14609173Y-15352993D01*
X14609173Y-15352993D02*
X14599649Y-15343469D01*
X14913934Y-15362517D02*
X14799649Y-15362517D01*
X14856792Y-15362517D02*
X14856792Y-15162517D01*
X14856792Y-15162517D02*
X14837744Y-15191088D01*
X14837744Y-15191088D02*
X14818696Y-15210136D01*
X14818696Y-15210136D02*
X14799649Y-15219660D01*
X15094887Y-15162517D02*
X14999649Y-15162517D01*
X14999649Y-15162517D02*
X14990125Y-15257755D01*
X14990125Y-15257755D02*
X14999649Y-15248231D01*
X14999649Y-15248231D02*
X15018696Y-15238707D01*
X15018696Y-15238707D02*
X15066315Y-15238707D01*
X15066315Y-15238707D02*
X15085363Y-15248231D01*
X15085363Y-15248231D02*
X15094887Y-15257755D01*
X15094887Y-15257755D02*
X15104411Y-15276802D01*
X15104411Y-15276802D02*
X15104411Y-15324421D01*
X15104411Y-15324421D02*
X15094887Y-15343469D01*
X15094887Y-15343469D02*
X15085363Y-15352993D01*
X15085363Y-15352993D02*
X15066315Y-15362517D01*
X15066315Y-15362517D02*
X15018696Y-15362517D01*
X15018696Y-15362517D02*
X14999649Y-15352993D01*
X14999649Y-15352993D02*
X14990125Y-15343469D01*
X15180601Y-15162517D02*
X15180601Y-15200612D01*
X15256792Y-15162517D02*
X15256792Y-15200612D01*
X15552030Y-15438707D02*
X15542506Y-15429183D01*
X15542506Y-15429183D02*
X15523458Y-15400612D01*
X15523458Y-15400612D02*
X15513935Y-15381564D01*
X15513935Y-15381564D02*
X15504411Y-15352993D01*
X15504411Y-15352993D02*
X15494887Y-15305374D01*
X15494887Y-15305374D02*
X15494887Y-15267279D01*
X15494887Y-15267279D02*
X15504411Y-15219660D01*
X15504411Y-15219660D02*
X15513935Y-15191088D01*
X15513935Y-15191088D02*
X15523458Y-15172041D01*
X15523458Y-15172041D02*
X15542506Y-15143469D01*
X15542506Y-15143469D02*
X15552030Y-15133945D01*
X15732982Y-15362517D02*
X15618696Y-15362517D01*
X15675839Y-15362517D02*
X15675839Y-15162517D01*
X15675839Y-15162517D02*
X15656792Y-15191088D01*
X15656792Y-15191088D02*
X15637744Y-15210136D01*
X15637744Y-15210136D02*
X15618696Y-15219660D01*
X15923458Y-15362517D02*
X15809173Y-15362517D01*
X15866315Y-15362517D02*
X15866315Y-15162517D01*
X15866315Y-15162517D02*
X15847268Y-15191088D01*
X15847268Y-15191088D02*
X15828220Y-15210136D01*
X15828220Y-15210136D02*
X15809173Y-15219660D01*
X15990125Y-15162517D02*
X16123458Y-15162517D01*
X16123458Y-15162517D02*
X16037744Y-15362517D01*
X16352030Y-15362517D02*
X16352030Y-15162517D01*
X16437744Y-15362517D02*
X16437744Y-15257755D01*
X16437744Y-15257755D02*
X16428220Y-15238707D01*
X16428220Y-15238707D02*
X16409173Y-15229183D01*
X16409173Y-15229183D02*
X16380601Y-15229183D01*
X16380601Y-15229183D02*
X16361554Y-15238707D01*
X16361554Y-15238707D02*
X16352030Y-15248231D01*
X16561554Y-15362517D02*
X16542506Y-15352993D01*
X16542506Y-15352993D02*
X16532982Y-15343469D01*
X16532982Y-15343469D02*
X16523458Y-15324421D01*
X16523458Y-15324421D02*
X16523458Y-15267279D01*
X16523458Y-15267279D02*
X16532982Y-15248231D01*
X16532982Y-15248231D02*
X16542506Y-15238707D01*
X16542506Y-15238707D02*
X16561554Y-15229183D01*
X16561554Y-15229183D02*
X16590125Y-15229183D01*
X16590125Y-15229183D02*
X16609173Y-15238707D01*
X16609173Y-15238707D02*
X16618697Y-15248231D01*
X16618697Y-15248231D02*
X16628220Y-15267279D01*
X16628220Y-15267279D02*
X16628220Y-15324421D01*
X16628220Y-15324421D02*
X16618697Y-15343469D01*
X16618697Y-15343469D02*
X16609173Y-15352993D01*
X16609173Y-15352993D02*
X16590125Y-15362517D01*
X16590125Y-15362517D02*
X16561554Y-15362517D01*
X16742506Y-15362517D02*
X16723458Y-15352993D01*
X16723458Y-15352993D02*
X16713935Y-15333945D01*
X16713935Y-15333945D02*
X16713935Y-15162517D01*
X16894887Y-15352993D02*
X16875840Y-15362517D01*
X16875840Y-15362517D02*
X16837744Y-15362517D01*
X16837744Y-15362517D02*
X16818697Y-15352993D01*
X16818697Y-15352993D02*
X16809173Y-15333945D01*
X16809173Y-15333945D02*
X16809173Y-15257755D01*
X16809173Y-15257755D02*
X16818697Y-15238707D01*
X16818697Y-15238707D02*
X16837744Y-15229183D01*
X16837744Y-15229183D02*
X16875840Y-15229183D01*
X16875840Y-15229183D02*
X16894887Y-15238707D01*
X16894887Y-15238707D02*
X16904411Y-15257755D01*
X16904411Y-15257755D02*
X16904411Y-15276802D01*
X16904411Y-15276802D02*
X16809173Y-15295850D01*
X16980601Y-15352993D02*
X16999649Y-15362517D01*
X16999649Y-15362517D02*
X17037744Y-15362517D01*
X17037744Y-15362517D02*
X17056792Y-15352993D01*
X17056792Y-15352993D02*
X17066316Y-15333945D01*
X17066316Y-15333945D02*
X17066316Y-15324421D01*
X17066316Y-15324421D02*
X17056792Y-15305374D01*
X17056792Y-15305374D02*
X17037744Y-15295850D01*
X17037744Y-15295850D02*
X17009173Y-15295850D01*
X17009173Y-15295850D02*
X16990125Y-15286326D01*
X16990125Y-15286326D02*
X16980601Y-15267279D01*
X16980601Y-15267279D02*
X16980601Y-15257755D01*
X16980601Y-15257755D02*
X16990125Y-15238707D01*
X16990125Y-15238707D02*
X17009173Y-15229183D01*
X17009173Y-15229183D02*
X17037744Y-15229183D01*
X17037744Y-15229183D02*
X17056792Y-15238707D01*
X17132982Y-15438707D02*
X17142506Y-15429183D01*
X17142506Y-15429183D02*
X17161554Y-15400612D01*
X17161554Y-15400612D02*
X17171078Y-15381564D01*
X17171078Y-15381564D02*
X17180601Y-15352993D01*
X17180601Y-15352993D02*
X17190125Y-15305374D01*
X17190125Y-15305374D02*
X17190125Y-15267279D01*
X17190125Y-15267279D02*
X17180601Y-15219660D01*
X17180601Y-15219660D02*
X17171078Y-15191088D01*
X17171078Y-15191088D02*
X17161554Y-15172041D01*
X17161554Y-15172041D02*
X17142506Y-15143469D01*
X17142506Y-15143469D02*
X17132982Y-15133945D01*
D12*
X11931967Y-15490033D02*
X11931967Y-15580033D01*
X11886967Y-15535033D02*
X11976967Y-15535033D01*
D11*
X12275839Y-15426517D02*
X12294887Y-15426517D01*
X12294887Y-15426517D02*
X12313934Y-15436041D01*
X12313934Y-15436041D02*
X12323458Y-15445564D01*
X12323458Y-15445564D02*
X12332982Y-15464612D01*
X12332982Y-15464612D02*
X12342506Y-15502707D01*
X12342506Y-15502707D02*
X12342506Y-15550326D01*
X12342506Y-15550326D02*
X12332982Y-15588421D01*
X12332982Y-15588421D02*
X12323458Y-15607469D01*
X12323458Y-15607469D02*
X12313934Y-15616993D01*
X12313934Y-15616993D02*
X12294887Y-15626517D01*
X12294887Y-15626517D02*
X12275839Y-15626517D01*
X12275839Y-15626517D02*
X12256791Y-15616993D01*
X12256791Y-15616993D02*
X12247268Y-15607469D01*
X12247268Y-15607469D02*
X12237744Y-15588421D01*
X12237744Y-15588421D02*
X12228220Y-15550326D01*
X12228220Y-15550326D02*
X12228220Y-15502707D01*
X12228220Y-15502707D02*
X12237744Y-15464612D01*
X12237744Y-15464612D02*
X12247268Y-15445564D01*
X12247268Y-15445564D02*
X12256791Y-15436041D01*
X12256791Y-15436041D02*
X12275839Y-15426517D01*
X12428220Y-15607469D02*
X12437744Y-15616993D01*
X12437744Y-15616993D02*
X12428220Y-15626517D01*
X12428220Y-15626517D02*
X12418696Y-15616993D01*
X12418696Y-15616993D02*
X12428220Y-15607469D01*
X12428220Y-15607469D02*
X12428220Y-15626517D01*
X12532982Y-15626517D02*
X12571077Y-15626517D01*
X12571077Y-15626517D02*
X12590125Y-15616993D01*
X12590125Y-15616993D02*
X12599649Y-15607469D01*
X12599649Y-15607469D02*
X12618696Y-15578898D01*
X12618696Y-15578898D02*
X12628220Y-15540802D01*
X12628220Y-15540802D02*
X12628220Y-15464612D01*
X12628220Y-15464612D02*
X12618696Y-15445564D01*
X12618696Y-15445564D02*
X12609172Y-15436041D01*
X12609172Y-15436041D02*
X12590125Y-15426517D01*
X12590125Y-15426517D02*
X12552029Y-15426517D01*
X12552029Y-15426517D02*
X12532982Y-15436041D01*
X12532982Y-15436041D02*
X12523458Y-15445564D01*
X12523458Y-15445564D02*
X12513934Y-15464612D01*
X12513934Y-15464612D02*
X12513934Y-15512231D01*
X12513934Y-15512231D02*
X12523458Y-15531279D01*
X12523458Y-15531279D02*
X12532982Y-15540802D01*
X12532982Y-15540802D02*
X12552029Y-15550326D01*
X12552029Y-15550326D02*
X12590125Y-15550326D01*
X12590125Y-15550326D02*
X12609172Y-15540802D01*
X12609172Y-15540802D02*
X12618696Y-15531279D01*
X12618696Y-15531279D02*
X12628220Y-15512231D01*
X12752029Y-15426517D02*
X12771077Y-15426517D01*
X12771077Y-15426517D02*
X12790125Y-15436041D01*
X12790125Y-15436041D02*
X12799649Y-15445564D01*
X12799649Y-15445564D02*
X12809172Y-15464612D01*
X12809172Y-15464612D02*
X12818696Y-15502707D01*
X12818696Y-15502707D02*
X12818696Y-15550326D01*
X12818696Y-15550326D02*
X12809172Y-15588421D01*
X12809172Y-15588421D02*
X12799649Y-15607469D01*
X12799649Y-15607469D02*
X12790125Y-15616993D01*
X12790125Y-15616993D02*
X12771077Y-15626517D01*
X12771077Y-15626517D02*
X12752029Y-15626517D01*
X12752029Y-15626517D02*
X12732982Y-15616993D01*
X12732982Y-15616993D02*
X12723458Y-15607469D01*
X12723458Y-15607469D02*
X12713934Y-15588421D01*
X12713934Y-15588421D02*
X12704410Y-15550326D01*
X12704410Y-15550326D02*
X12704410Y-15502707D01*
X12704410Y-15502707D02*
X12713934Y-15464612D01*
X12713934Y-15464612D02*
X12723458Y-15445564D01*
X12723458Y-15445564D02*
X12732982Y-15436041D01*
X12732982Y-15436041D02*
X12752029Y-15426517D01*
X12942506Y-15426517D02*
X12961553Y-15426517D01*
X12961553Y-15426517D02*
X12980601Y-15436041D01*
X12980601Y-15436041D02*
X12990125Y-15445564D01*
X12990125Y-15445564D02*
X12999649Y-15464612D01*
X12999649Y-15464612D02*
X13009172Y-15502707D01*
X13009172Y-15502707D02*
X13009172Y-15550326D01*
X13009172Y-15550326D02*
X12999649Y-15588421D01*
X12999649Y-15588421D02*
X12990125Y-15607469D01*
X12990125Y-15607469D02*
X12980601Y-15616993D01*
X12980601Y-15616993D02*
X12961553Y-15626517D01*
X12961553Y-15626517D02*
X12942506Y-15626517D01*
X12942506Y-15626517D02*
X12923458Y-15616993D01*
X12923458Y-15616993D02*
X12913934Y-15607469D01*
X12913934Y-15607469D02*
X12904410Y-15588421D01*
X12904410Y-15588421D02*
X12894887Y-15550326D01*
X12894887Y-15550326D02*
X12894887Y-15502707D01*
X12894887Y-15502707D02*
X12904410Y-15464612D01*
X12904410Y-15464612D02*
X12913934Y-15445564D01*
X12913934Y-15445564D02*
X12923458Y-15436041D01*
X12923458Y-15436041D02*
X12942506Y-15426517D01*
X13094887Y-15626517D02*
X13094887Y-15493183D01*
X13094887Y-15512231D02*
X13104410Y-15502707D01*
X13104410Y-15502707D02*
X13123458Y-15493183D01*
X13123458Y-15493183D02*
X13152030Y-15493183D01*
X13152030Y-15493183D02*
X13171077Y-15502707D01*
X13171077Y-15502707D02*
X13180601Y-15521755D01*
X13180601Y-15521755D02*
X13180601Y-15626517D01*
X13180601Y-15521755D02*
X13190125Y-15502707D01*
X13190125Y-15502707D02*
X13209172Y-15493183D01*
X13209172Y-15493183D02*
X13237744Y-15493183D01*
X13237744Y-15493183D02*
X13256791Y-15502707D01*
X13256791Y-15502707D02*
X13266315Y-15521755D01*
X13266315Y-15521755D02*
X13266315Y-15626517D01*
X13361553Y-15626517D02*
X13361553Y-15493183D01*
X13361553Y-15512231D02*
X13371077Y-15502707D01*
X13371077Y-15502707D02*
X13390125Y-15493183D01*
X13390125Y-15493183D02*
X13418696Y-15493183D01*
X13418696Y-15493183D02*
X13437744Y-15502707D01*
X13437744Y-15502707D02*
X13447268Y-15521755D01*
X13447268Y-15521755D02*
X13447268Y-15626517D01*
X13447268Y-15521755D02*
X13456791Y-15502707D01*
X13456791Y-15502707D02*
X13475839Y-15493183D01*
X13475839Y-15493183D02*
X13504410Y-15493183D01*
X13504410Y-15493183D02*
X13523458Y-15502707D01*
X13523458Y-15502707D02*
X13532982Y-15521755D01*
X13532982Y-15521755D02*
X13532982Y-15626517D01*
X13923458Y-15416993D02*
X13752030Y-15674136D01*
X14180601Y-15426517D02*
X14199649Y-15426517D01*
X14199649Y-15426517D02*
X14218696Y-15436041D01*
X14218696Y-15436041D02*
X14228220Y-15445564D01*
X14228220Y-15445564D02*
X14237744Y-15464612D01*
X14237744Y-15464612D02*
X14247268Y-15502707D01*
X14247268Y-15502707D02*
X14247268Y-15550326D01*
X14247268Y-15550326D02*
X14237744Y-15588421D01*
X14237744Y-15588421D02*
X14228220Y-15607469D01*
X14228220Y-15607469D02*
X14218696Y-15616993D01*
X14218696Y-15616993D02*
X14199649Y-15626517D01*
X14199649Y-15626517D02*
X14180601Y-15626517D01*
X14180601Y-15626517D02*
X14161553Y-15616993D01*
X14161553Y-15616993D02*
X14152030Y-15607469D01*
X14152030Y-15607469D02*
X14142506Y-15588421D01*
X14142506Y-15588421D02*
X14132982Y-15550326D01*
X14132982Y-15550326D02*
X14132982Y-15502707D01*
X14132982Y-15502707D02*
X14142506Y-15464612D01*
X14142506Y-15464612D02*
X14152030Y-15445564D01*
X14152030Y-15445564D02*
X14161553Y-15436041D01*
X14161553Y-15436041D02*
X14180601Y-15426517D01*
X14332982Y-15607469D02*
X14342506Y-15616993D01*
X14342506Y-15616993D02*
X14332982Y-15626517D01*
X14332982Y-15626517D02*
X14323458Y-15616993D01*
X14323458Y-15616993D02*
X14332982Y-15607469D01*
X14332982Y-15607469D02*
X14332982Y-15626517D01*
X14466315Y-15426517D02*
X14485363Y-15426517D01*
X14485363Y-15426517D02*
X14504411Y-15436041D01*
X14504411Y-15436041D02*
X14513934Y-15445564D01*
X14513934Y-15445564D02*
X14523458Y-15464612D01*
X14523458Y-15464612D02*
X14532982Y-15502707D01*
X14532982Y-15502707D02*
X14532982Y-15550326D01*
X14532982Y-15550326D02*
X14523458Y-15588421D01*
X14523458Y-15588421D02*
X14513934Y-15607469D01*
X14513934Y-15607469D02*
X14504411Y-15616993D01*
X14504411Y-15616993D02*
X14485363Y-15626517D01*
X14485363Y-15626517D02*
X14466315Y-15626517D01*
X14466315Y-15626517D02*
X14447268Y-15616993D01*
X14447268Y-15616993D02*
X14437744Y-15607469D01*
X14437744Y-15607469D02*
X14428220Y-15588421D01*
X14428220Y-15588421D02*
X14418696Y-15550326D01*
X14418696Y-15550326D02*
X14418696Y-15502707D01*
X14418696Y-15502707D02*
X14428220Y-15464612D01*
X14428220Y-15464612D02*
X14437744Y-15445564D01*
X14437744Y-15445564D02*
X14447268Y-15436041D01*
X14447268Y-15436041D02*
X14466315Y-15426517D01*
X14599649Y-15426517D02*
X14723458Y-15426517D01*
X14723458Y-15426517D02*
X14656792Y-15502707D01*
X14656792Y-15502707D02*
X14685363Y-15502707D01*
X14685363Y-15502707D02*
X14704411Y-15512231D01*
X14704411Y-15512231D02*
X14713934Y-15521755D01*
X14713934Y-15521755D02*
X14723458Y-15540802D01*
X14723458Y-15540802D02*
X14723458Y-15588421D01*
X14723458Y-15588421D02*
X14713934Y-15607469D01*
X14713934Y-15607469D02*
X14704411Y-15616993D01*
X14704411Y-15616993D02*
X14685363Y-15626517D01*
X14685363Y-15626517D02*
X14628220Y-15626517D01*
X14628220Y-15626517D02*
X14609173Y-15616993D01*
X14609173Y-15616993D02*
X14599649Y-15607469D01*
X14904411Y-15426517D02*
X14809173Y-15426517D01*
X14809173Y-15426517D02*
X14799649Y-15521755D01*
X14799649Y-15521755D02*
X14809173Y-15512231D01*
X14809173Y-15512231D02*
X14828220Y-15502707D01*
X14828220Y-15502707D02*
X14875839Y-15502707D01*
X14875839Y-15502707D02*
X14894887Y-15512231D01*
X14894887Y-15512231D02*
X14904411Y-15521755D01*
X14904411Y-15521755D02*
X14913934Y-15540802D01*
X14913934Y-15540802D02*
X14913934Y-15588421D01*
X14913934Y-15588421D02*
X14904411Y-15607469D01*
X14904411Y-15607469D02*
X14894887Y-15616993D01*
X14894887Y-15616993D02*
X14875839Y-15626517D01*
X14875839Y-15626517D02*
X14828220Y-15626517D01*
X14828220Y-15626517D02*
X14809173Y-15616993D01*
X14809173Y-15616993D02*
X14799649Y-15607469D01*
X15085363Y-15493183D02*
X15085363Y-15626517D01*
X15037744Y-15416993D02*
X14990125Y-15559850D01*
X14990125Y-15559850D02*
X15113934Y-15559850D01*
X15180601Y-15426517D02*
X15180601Y-15464612D01*
X15256792Y-15426517D02*
X15256792Y-15464612D01*
X15552030Y-15702707D02*
X15542506Y-15693183D01*
X15542506Y-15693183D02*
X15523458Y-15664612D01*
X15523458Y-15664612D02*
X15513935Y-15645564D01*
X15513935Y-15645564D02*
X15504411Y-15616993D01*
X15504411Y-15616993D02*
X15494887Y-15569374D01*
X15494887Y-15569374D02*
X15494887Y-15531279D01*
X15494887Y-15531279D02*
X15504411Y-15483660D01*
X15504411Y-15483660D02*
X15513935Y-15455088D01*
X15513935Y-15455088D02*
X15523458Y-15436041D01*
X15523458Y-15436041D02*
X15542506Y-15407469D01*
X15542506Y-15407469D02*
X15552030Y-15397945D01*
X15713935Y-15426517D02*
X15675839Y-15426517D01*
X15675839Y-15426517D02*
X15656792Y-15436041D01*
X15656792Y-15436041D02*
X15647268Y-15445564D01*
X15647268Y-15445564D02*
X15628220Y-15474136D01*
X15628220Y-15474136D02*
X15618696Y-15512231D01*
X15618696Y-15512231D02*
X15618696Y-15588421D01*
X15618696Y-15588421D02*
X15628220Y-15607469D01*
X15628220Y-15607469D02*
X15637744Y-15616993D01*
X15637744Y-15616993D02*
X15656792Y-15626517D01*
X15656792Y-15626517D02*
X15694887Y-15626517D01*
X15694887Y-15626517D02*
X15713935Y-15616993D01*
X15713935Y-15616993D02*
X15723458Y-15607469D01*
X15723458Y-15607469D02*
X15732982Y-15588421D01*
X15732982Y-15588421D02*
X15732982Y-15540802D01*
X15732982Y-15540802D02*
X15723458Y-15521755D01*
X15723458Y-15521755D02*
X15713935Y-15512231D01*
X15713935Y-15512231D02*
X15694887Y-15502707D01*
X15694887Y-15502707D02*
X15656792Y-15502707D01*
X15656792Y-15502707D02*
X15637744Y-15512231D01*
X15637744Y-15512231D02*
X15628220Y-15521755D01*
X15628220Y-15521755D02*
X15618696Y-15540802D01*
X15971077Y-15626517D02*
X15971077Y-15426517D01*
X16056792Y-15626517D02*
X16056792Y-15521755D01*
X16056792Y-15521755D02*
X16047268Y-15502707D01*
X16047268Y-15502707D02*
X16028220Y-15493183D01*
X16028220Y-15493183D02*
X15999649Y-15493183D01*
X15999649Y-15493183D02*
X15980601Y-15502707D01*
X15980601Y-15502707D02*
X15971077Y-15512231D01*
X16180601Y-15626517D02*
X16161554Y-15616993D01*
X16161554Y-15616993D02*
X16152030Y-15607469D01*
X16152030Y-15607469D02*
X16142506Y-15588421D01*
X16142506Y-15588421D02*
X16142506Y-15531279D01*
X16142506Y-15531279D02*
X16152030Y-15512231D01*
X16152030Y-15512231D02*
X16161554Y-15502707D01*
X16161554Y-15502707D02*
X16180601Y-15493183D01*
X16180601Y-15493183D02*
X16209173Y-15493183D01*
X16209173Y-15493183D02*
X16228220Y-15502707D01*
X16228220Y-15502707D02*
X16237744Y-15512231D01*
X16237744Y-15512231D02*
X16247268Y-15531279D01*
X16247268Y-15531279D02*
X16247268Y-15588421D01*
X16247268Y-15588421D02*
X16237744Y-15607469D01*
X16237744Y-15607469D02*
X16228220Y-15616993D01*
X16228220Y-15616993D02*
X16209173Y-15626517D01*
X16209173Y-15626517D02*
X16180601Y-15626517D01*
X16361554Y-15626517D02*
X16342506Y-15616993D01*
X16342506Y-15616993D02*
X16332982Y-15597945D01*
X16332982Y-15597945D02*
X16332982Y-15426517D01*
X16513935Y-15616993D02*
X16494887Y-15626517D01*
X16494887Y-15626517D02*
X16456792Y-15626517D01*
X16456792Y-15626517D02*
X16437744Y-15616993D01*
X16437744Y-15616993D02*
X16428220Y-15597945D01*
X16428220Y-15597945D02*
X16428220Y-15521755D01*
X16428220Y-15521755D02*
X16437744Y-15502707D01*
X16437744Y-15502707D02*
X16456792Y-15493183D01*
X16456792Y-15493183D02*
X16494887Y-15493183D01*
X16494887Y-15493183D02*
X16513935Y-15502707D01*
X16513935Y-15502707D02*
X16523458Y-15521755D01*
X16523458Y-15521755D02*
X16523458Y-15540802D01*
X16523458Y-15540802D02*
X16428220Y-15559850D01*
X16599649Y-15616993D02*
X16618697Y-15626517D01*
X16618697Y-15626517D02*
X16656792Y-15626517D01*
X16656792Y-15626517D02*
X16675839Y-15616993D01*
X16675839Y-15616993D02*
X16685363Y-15597945D01*
X16685363Y-15597945D02*
X16685363Y-15588421D01*
X16685363Y-15588421D02*
X16675839Y-15569374D01*
X16675839Y-15569374D02*
X16656792Y-15559850D01*
X16656792Y-15559850D02*
X16628220Y-15559850D01*
X16628220Y-15559850D02*
X16609173Y-15550326D01*
X16609173Y-15550326D02*
X16599649Y-15531279D01*
X16599649Y-15531279D02*
X16599649Y-15521755D01*
X16599649Y-15521755D02*
X16609173Y-15502707D01*
X16609173Y-15502707D02*
X16628220Y-15493183D01*
X16628220Y-15493183D02*
X16656792Y-15493183D01*
X16656792Y-15493183D02*
X16675839Y-15502707D01*
X16752030Y-15702707D02*
X16761554Y-15693183D01*
X16761554Y-15693183D02*
X16780601Y-15664612D01*
X16780601Y-15664612D02*
X16790125Y-15645564D01*
X16790125Y-15645564D02*
X16799649Y-15616993D01*
X16799649Y-15616993D02*
X16809173Y-15569374D01*
X16809173Y-15569374D02*
X16809173Y-15531279D01*
X16809173Y-15531279D02*
X16799649Y-15483660D01*
X16799649Y-15483660D02*
X16790125Y-15455088D01*
X16790125Y-15455088D02*
X16780601Y-15436041D01*
X16780601Y-15436041D02*
X16761554Y-15407469D01*
X16761554Y-15407469D02*
X16752030Y-15397945D01*
D12*
X11962323Y-15834389D02*
X11962323Y-15763677D01*
X11891611Y-15763677D01*
X11891611Y-15834389D01*
X11962323Y-15834389D01*
D11*
X12342506Y-15890517D02*
X12228220Y-15890517D01*
X12285363Y-15890517D02*
X12285363Y-15690517D01*
X12285363Y-15690517D02*
X12266315Y-15719088D01*
X12266315Y-15719088D02*
X12247268Y-15738136D01*
X12247268Y-15738136D02*
X12228220Y-15747660D01*
X12428220Y-15871469D02*
X12437744Y-15880993D01*
X12437744Y-15880993D02*
X12428220Y-15890517D01*
X12428220Y-15890517D02*
X12418696Y-15880993D01*
X12418696Y-15880993D02*
X12428220Y-15871469D01*
X12428220Y-15871469D02*
X12428220Y-15890517D01*
X12561553Y-15690517D02*
X12580601Y-15690517D01*
X12580601Y-15690517D02*
X12599649Y-15700041D01*
X12599649Y-15700041D02*
X12609172Y-15709564D01*
X12609172Y-15709564D02*
X12618696Y-15728612D01*
X12618696Y-15728612D02*
X12628220Y-15766707D01*
X12628220Y-15766707D02*
X12628220Y-15814326D01*
X12628220Y-15814326D02*
X12618696Y-15852421D01*
X12618696Y-15852421D02*
X12609172Y-15871469D01*
X12609172Y-15871469D02*
X12599649Y-15880993D01*
X12599649Y-15880993D02*
X12580601Y-15890517D01*
X12580601Y-15890517D02*
X12561553Y-15890517D01*
X12561553Y-15890517D02*
X12542506Y-15880993D01*
X12542506Y-15880993D02*
X12532982Y-15871469D01*
X12532982Y-15871469D02*
X12523458Y-15852421D01*
X12523458Y-15852421D02*
X12513934Y-15814326D01*
X12513934Y-15814326D02*
X12513934Y-15766707D01*
X12513934Y-15766707D02*
X12523458Y-15728612D01*
X12523458Y-15728612D02*
X12532982Y-15709564D01*
X12532982Y-15709564D02*
X12542506Y-15700041D01*
X12542506Y-15700041D02*
X12561553Y-15690517D01*
X12752029Y-15690517D02*
X12771077Y-15690517D01*
X12771077Y-15690517D02*
X12790125Y-15700041D01*
X12790125Y-15700041D02*
X12799649Y-15709564D01*
X12799649Y-15709564D02*
X12809172Y-15728612D01*
X12809172Y-15728612D02*
X12818696Y-15766707D01*
X12818696Y-15766707D02*
X12818696Y-15814326D01*
X12818696Y-15814326D02*
X12809172Y-15852421D01*
X12809172Y-15852421D02*
X12799649Y-15871469D01*
X12799649Y-15871469D02*
X12790125Y-15880993D01*
X12790125Y-15880993D02*
X12771077Y-15890517D01*
X12771077Y-15890517D02*
X12752029Y-15890517D01*
X12752029Y-15890517D02*
X12732982Y-15880993D01*
X12732982Y-15880993D02*
X12723458Y-15871469D01*
X12723458Y-15871469D02*
X12713934Y-15852421D01*
X12713934Y-15852421D02*
X12704410Y-15814326D01*
X12704410Y-15814326D02*
X12704410Y-15766707D01*
X12704410Y-15766707D02*
X12713934Y-15728612D01*
X12713934Y-15728612D02*
X12723458Y-15709564D01*
X12723458Y-15709564D02*
X12732982Y-15700041D01*
X12732982Y-15700041D02*
X12752029Y-15690517D01*
X12942506Y-15690517D02*
X12961553Y-15690517D01*
X12961553Y-15690517D02*
X12980601Y-15700041D01*
X12980601Y-15700041D02*
X12990125Y-15709564D01*
X12990125Y-15709564D02*
X12999649Y-15728612D01*
X12999649Y-15728612D02*
X13009172Y-15766707D01*
X13009172Y-15766707D02*
X13009172Y-15814326D01*
X13009172Y-15814326D02*
X12999649Y-15852421D01*
X12999649Y-15852421D02*
X12990125Y-15871469D01*
X12990125Y-15871469D02*
X12980601Y-15880993D01*
X12980601Y-15880993D02*
X12961553Y-15890517D01*
X12961553Y-15890517D02*
X12942506Y-15890517D01*
X12942506Y-15890517D02*
X12923458Y-15880993D01*
X12923458Y-15880993D02*
X12913934Y-15871469D01*
X12913934Y-15871469D02*
X12904410Y-15852421D01*
X12904410Y-15852421D02*
X12894887Y-15814326D01*
X12894887Y-15814326D02*
X12894887Y-15766707D01*
X12894887Y-15766707D02*
X12904410Y-15728612D01*
X12904410Y-15728612D02*
X12913934Y-15709564D01*
X12913934Y-15709564D02*
X12923458Y-15700041D01*
X12923458Y-15700041D02*
X12942506Y-15690517D01*
X13094887Y-15890517D02*
X13094887Y-15757183D01*
X13094887Y-15776231D02*
X13104410Y-15766707D01*
X13104410Y-15766707D02*
X13123458Y-15757183D01*
X13123458Y-15757183D02*
X13152030Y-15757183D01*
X13152030Y-15757183D02*
X13171077Y-15766707D01*
X13171077Y-15766707D02*
X13180601Y-15785755D01*
X13180601Y-15785755D02*
X13180601Y-15890517D01*
X13180601Y-15785755D02*
X13190125Y-15766707D01*
X13190125Y-15766707D02*
X13209172Y-15757183D01*
X13209172Y-15757183D02*
X13237744Y-15757183D01*
X13237744Y-15757183D02*
X13256791Y-15766707D01*
X13256791Y-15766707D02*
X13266315Y-15785755D01*
X13266315Y-15785755D02*
X13266315Y-15890517D01*
X13361553Y-15890517D02*
X13361553Y-15757183D01*
X13361553Y-15776231D02*
X13371077Y-15766707D01*
X13371077Y-15766707D02*
X13390125Y-15757183D01*
X13390125Y-15757183D02*
X13418696Y-15757183D01*
X13418696Y-15757183D02*
X13437744Y-15766707D01*
X13437744Y-15766707D02*
X13447268Y-15785755D01*
X13447268Y-15785755D02*
X13447268Y-15890517D01*
X13447268Y-15785755D02*
X13456791Y-15766707D01*
X13456791Y-15766707D02*
X13475839Y-15757183D01*
X13475839Y-15757183D02*
X13504410Y-15757183D01*
X13504410Y-15757183D02*
X13523458Y-15766707D01*
X13523458Y-15766707D02*
X13532982Y-15785755D01*
X13532982Y-15785755D02*
X13532982Y-15890517D01*
X13923458Y-15680993D02*
X13752030Y-15938136D01*
X14180601Y-15690517D02*
X14199649Y-15690517D01*
X14199649Y-15690517D02*
X14218696Y-15700041D01*
X14218696Y-15700041D02*
X14228220Y-15709564D01*
X14228220Y-15709564D02*
X14237744Y-15728612D01*
X14237744Y-15728612D02*
X14247268Y-15766707D01*
X14247268Y-15766707D02*
X14247268Y-15814326D01*
X14247268Y-15814326D02*
X14237744Y-15852421D01*
X14237744Y-15852421D02*
X14228220Y-15871469D01*
X14228220Y-15871469D02*
X14218696Y-15880993D01*
X14218696Y-15880993D02*
X14199649Y-15890517D01*
X14199649Y-15890517D02*
X14180601Y-15890517D01*
X14180601Y-15890517D02*
X14161553Y-15880993D01*
X14161553Y-15880993D02*
X14152030Y-15871469D01*
X14152030Y-15871469D02*
X14142506Y-15852421D01*
X14142506Y-15852421D02*
X14132982Y-15814326D01*
X14132982Y-15814326D02*
X14132982Y-15766707D01*
X14132982Y-15766707D02*
X14142506Y-15728612D01*
X14142506Y-15728612D02*
X14152030Y-15709564D01*
X14152030Y-15709564D02*
X14161553Y-15700041D01*
X14161553Y-15700041D02*
X14180601Y-15690517D01*
X14332982Y-15871469D02*
X14342506Y-15880993D01*
X14342506Y-15880993D02*
X14332982Y-15890517D01*
X14332982Y-15890517D02*
X14323458Y-15880993D01*
X14323458Y-15880993D02*
X14332982Y-15871469D01*
X14332982Y-15871469D02*
X14332982Y-15890517D01*
X14466315Y-15690517D02*
X14485363Y-15690517D01*
X14485363Y-15690517D02*
X14504411Y-15700041D01*
X14504411Y-15700041D02*
X14513934Y-15709564D01*
X14513934Y-15709564D02*
X14523458Y-15728612D01*
X14523458Y-15728612D02*
X14532982Y-15766707D01*
X14532982Y-15766707D02*
X14532982Y-15814326D01*
X14532982Y-15814326D02*
X14523458Y-15852421D01*
X14523458Y-15852421D02*
X14513934Y-15871469D01*
X14513934Y-15871469D02*
X14504411Y-15880993D01*
X14504411Y-15880993D02*
X14485363Y-15890517D01*
X14485363Y-15890517D02*
X14466315Y-15890517D01*
X14466315Y-15890517D02*
X14447268Y-15880993D01*
X14447268Y-15880993D02*
X14437744Y-15871469D01*
X14437744Y-15871469D02*
X14428220Y-15852421D01*
X14428220Y-15852421D02*
X14418696Y-15814326D01*
X14418696Y-15814326D02*
X14418696Y-15766707D01*
X14418696Y-15766707D02*
X14428220Y-15728612D01*
X14428220Y-15728612D02*
X14437744Y-15709564D01*
X14437744Y-15709564D02*
X14447268Y-15700041D01*
X14447268Y-15700041D02*
X14466315Y-15690517D01*
X14599649Y-15690517D02*
X14723458Y-15690517D01*
X14723458Y-15690517D02*
X14656792Y-15766707D01*
X14656792Y-15766707D02*
X14685363Y-15766707D01*
X14685363Y-15766707D02*
X14704411Y-15776231D01*
X14704411Y-15776231D02*
X14713934Y-15785755D01*
X14713934Y-15785755D02*
X14723458Y-15804802D01*
X14723458Y-15804802D02*
X14723458Y-15852421D01*
X14723458Y-15852421D02*
X14713934Y-15871469D01*
X14713934Y-15871469D02*
X14704411Y-15880993D01*
X14704411Y-15880993D02*
X14685363Y-15890517D01*
X14685363Y-15890517D02*
X14628220Y-15890517D01*
X14628220Y-15890517D02*
X14609173Y-15880993D01*
X14609173Y-15880993D02*
X14599649Y-15871469D01*
X14818696Y-15890517D02*
X14856792Y-15890517D01*
X14856792Y-15890517D02*
X14875839Y-15880993D01*
X14875839Y-15880993D02*
X14885363Y-15871469D01*
X14885363Y-15871469D02*
X14904411Y-15842898D01*
X14904411Y-15842898D02*
X14913934Y-15804802D01*
X14913934Y-15804802D02*
X14913934Y-15728612D01*
X14913934Y-15728612D02*
X14904411Y-15709564D01*
X14904411Y-15709564D02*
X14894887Y-15700041D01*
X14894887Y-15700041D02*
X14875839Y-15690517D01*
X14875839Y-15690517D02*
X14837744Y-15690517D01*
X14837744Y-15690517D02*
X14818696Y-15700041D01*
X14818696Y-15700041D02*
X14809173Y-15709564D01*
X14809173Y-15709564D02*
X14799649Y-15728612D01*
X14799649Y-15728612D02*
X14799649Y-15776231D01*
X14799649Y-15776231D02*
X14809173Y-15795279D01*
X14809173Y-15795279D02*
X14818696Y-15804802D01*
X14818696Y-15804802D02*
X14837744Y-15814326D01*
X14837744Y-15814326D02*
X14875839Y-15814326D01*
X14875839Y-15814326D02*
X14894887Y-15804802D01*
X14894887Y-15804802D02*
X14904411Y-15795279D01*
X14904411Y-15795279D02*
X14913934Y-15776231D01*
X15085363Y-15757183D02*
X15085363Y-15890517D01*
X15037744Y-15680993D02*
X14990125Y-15823850D01*
X14990125Y-15823850D02*
X15113934Y-15823850D01*
X15180601Y-15690517D02*
X15180601Y-15728612D01*
X15256792Y-15690517D02*
X15256792Y-15728612D01*
X15552030Y-15966707D02*
X15542506Y-15957183D01*
X15542506Y-15957183D02*
X15523458Y-15928612D01*
X15523458Y-15928612D02*
X15513935Y-15909564D01*
X15513935Y-15909564D02*
X15504411Y-15880993D01*
X15504411Y-15880993D02*
X15494887Y-15833374D01*
X15494887Y-15833374D02*
X15494887Y-15795279D01*
X15494887Y-15795279D02*
X15504411Y-15747660D01*
X15504411Y-15747660D02*
X15513935Y-15719088D01*
X15513935Y-15719088D02*
X15523458Y-15700041D01*
X15523458Y-15700041D02*
X15542506Y-15671469D01*
X15542506Y-15671469D02*
X15552030Y-15661945D01*
X15609173Y-15690517D02*
X15732982Y-15690517D01*
X15732982Y-15690517D02*
X15666315Y-15766707D01*
X15666315Y-15766707D02*
X15694887Y-15766707D01*
X15694887Y-15766707D02*
X15713935Y-15776231D01*
X15713935Y-15776231D02*
X15723458Y-15785755D01*
X15723458Y-15785755D02*
X15732982Y-15804802D01*
X15732982Y-15804802D02*
X15732982Y-15852421D01*
X15732982Y-15852421D02*
X15723458Y-15871469D01*
X15723458Y-15871469D02*
X15713935Y-15880993D01*
X15713935Y-15880993D02*
X15694887Y-15890517D01*
X15694887Y-15890517D02*
X15637744Y-15890517D01*
X15637744Y-15890517D02*
X15618696Y-15880993D01*
X15618696Y-15880993D02*
X15609173Y-15871469D01*
X15904411Y-15757183D02*
X15904411Y-15890517D01*
X15856792Y-15680993D02*
X15809173Y-15823850D01*
X15809173Y-15823850D02*
X15932982Y-15823850D01*
X16161554Y-15890517D02*
X16161554Y-15690517D01*
X16247268Y-15890517D02*
X16247268Y-15785755D01*
X16247268Y-15785755D02*
X16237744Y-15766707D01*
X16237744Y-15766707D02*
X16218697Y-15757183D01*
X16218697Y-15757183D02*
X16190125Y-15757183D01*
X16190125Y-15757183D02*
X16171077Y-15766707D01*
X16171077Y-15766707D02*
X16161554Y-15776231D01*
X16371077Y-15890517D02*
X16352030Y-15880993D01*
X16352030Y-15880993D02*
X16342506Y-15871469D01*
X16342506Y-15871469D02*
X16332982Y-15852421D01*
X16332982Y-15852421D02*
X16332982Y-15795279D01*
X16332982Y-15795279D02*
X16342506Y-15776231D01*
X16342506Y-15776231D02*
X16352030Y-15766707D01*
X16352030Y-15766707D02*
X16371077Y-15757183D01*
X16371077Y-15757183D02*
X16399649Y-15757183D01*
X16399649Y-15757183D02*
X16418697Y-15766707D01*
X16418697Y-15766707D02*
X16428220Y-15776231D01*
X16428220Y-15776231D02*
X16437744Y-15795279D01*
X16437744Y-15795279D02*
X16437744Y-15852421D01*
X16437744Y-15852421D02*
X16428220Y-15871469D01*
X16428220Y-15871469D02*
X16418697Y-15880993D01*
X16418697Y-15880993D02*
X16399649Y-15890517D01*
X16399649Y-15890517D02*
X16371077Y-15890517D01*
X16552030Y-15890517D02*
X16532982Y-15880993D01*
X16532982Y-15880993D02*
X16523458Y-15861945D01*
X16523458Y-15861945D02*
X16523458Y-15690517D01*
X16704411Y-15880993D02*
X16685363Y-15890517D01*
X16685363Y-15890517D02*
X16647268Y-15890517D01*
X16647268Y-15890517D02*
X16628220Y-15880993D01*
X16628220Y-15880993D02*
X16618697Y-15861945D01*
X16618697Y-15861945D02*
X16618697Y-15785755D01*
X16618697Y-15785755D02*
X16628220Y-15766707D01*
X16628220Y-15766707D02*
X16647268Y-15757183D01*
X16647268Y-15757183D02*
X16685363Y-15757183D01*
X16685363Y-15757183D02*
X16704411Y-15766707D01*
X16704411Y-15766707D02*
X16713935Y-15785755D01*
X16713935Y-15785755D02*
X16713935Y-15804802D01*
X16713935Y-15804802D02*
X16618697Y-15823850D01*
X16790125Y-15880993D02*
X16809173Y-15890517D01*
X16809173Y-15890517D02*
X16847268Y-15890517D01*
X16847268Y-15890517D02*
X16866316Y-15880993D01*
X16866316Y-15880993D02*
X16875840Y-15861945D01*
X16875840Y-15861945D02*
X16875840Y-15852421D01*
X16875840Y-15852421D02*
X16866316Y-15833374D01*
X16866316Y-15833374D02*
X16847268Y-15823850D01*
X16847268Y-15823850D02*
X16818697Y-15823850D01*
X16818697Y-15823850D02*
X16799649Y-15814326D01*
X16799649Y-15814326D02*
X16790125Y-15795279D01*
X16790125Y-15795279D02*
X16790125Y-15785755D01*
X16790125Y-15785755D02*
X16799649Y-15766707D01*
X16799649Y-15766707D02*
X16818697Y-15757183D01*
X16818697Y-15757183D02*
X16847268Y-15757183D01*
X16847268Y-15757183D02*
X16866316Y-15766707D01*
X16942506Y-15966707D02*
X16952030Y-15957183D01*
X16952030Y-15957183D02*
X16971078Y-15928612D01*
X16971078Y-15928612D02*
X16980601Y-15909564D01*
X16980601Y-15909564D02*
X16990125Y-15880993D01*
X16990125Y-15880993D02*
X16999649Y-15833374D01*
X16999649Y-15833374D02*
X16999649Y-15795279D01*
X16999649Y-15795279D02*
X16990125Y-15747660D01*
X16990125Y-15747660D02*
X16980601Y-15719088D01*
X16980601Y-15719088D02*
X16971078Y-15700041D01*
X16971078Y-15700041D02*
X16952030Y-15671469D01*
X16952030Y-15671469D02*
X16942506Y-15661945D01*
D13*
X11911967Y-16128033D02*
X11976967Y-16063033D01*
X11911967Y-15998033D01*
X11846967Y-16063033D01*
X11911967Y-16128033D01*
D11*
X12342506Y-16154517D02*
X12228220Y-16154517D01*
X12285363Y-16154517D02*
X12285363Y-15954517D01*
X12285363Y-15954517D02*
X12266315Y-15983088D01*
X12266315Y-15983088D02*
X12247268Y-16002136D01*
X12247268Y-16002136D02*
X12228220Y-16011660D01*
X12428220Y-16135469D02*
X12437744Y-16144993D01*
X12437744Y-16144993D02*
X12428220Y-16154517D01*
X12428220Y-16154517D02*
X12418696Y-16144993D01*
X12418696Y-16144993D02*
X12428220Y-16135469D01*
X12428220Y-16135469D02*
X12428220Y-16154517D01*
X12504410Y-15954517D02*
X12628220Y-15954517D01*
X12628220Y-15954517D02*
X12561553Y-16030707D01*
X12561553Y-16030707D02*
X12590125Y-16030707D01*
X12590125Y-16030707D02*
X12609172Y-16040231D01*
X12609172Y-16040231D02*
X12618696Y-16049755D01*
X12618696Y-16049755D02*
X12628220Y-16068802D01*
X12628220Y-16068802D02*
X12628220Y-16116421D01*
X12628220Y-16116421D02*
X12618696Y-16135469D01*
X12618696Y-16135469D02*
X12609172Y-16144993D01*
X12609172Y-16144993D02*
X12590125Y-16154517D01*
X12590125Y-16154517D02*
X12532982Y-16154517D01*
X12532982Y-16154517D02*
X12513934Y-16144993D01*
X12513934Y-16144993D02*
X12504410Y-16135469D01*
X12752029Y-15954517D02*
X12771077Y-15954517D01*
X12771077Y-15954517D02*
X12790125Y-15964041D01*
X12790125Y-15964041D02*
X12799649Y-15973564D01*
X12799649Y-15973564D02*
X12809172Y-15992612D01*
X12809172Y-15992612D02*
X12818696Y-16030707D01*
X12818696Y-16030707D02*
X12818696Y-16078326D01*
X12818696Y-16078326D02*
X12809172Y-16116421D01*
X12809172Y-16116421D02*
X12799649Y-16135469D01*
X12799649Y-16135469D02*
X12790125Y-16144993D01*
X12790125Y-16144993D02*
X12771077Y-16154517D01*
X12771077Y-16154517D02*
X12752029Y-16154517D01*
X12752029Y-16154517D02*
X12732982Y-16144993D01*
X12732982Y-16144993D02*
X12723458Y-16135469D01*
X12723458Y-16135469D02*
X12713934Y-16116421D01*
X12713934Y-16116421D02*
X12704410Y-16078326D01*
X12704410Y-16078326D02*
X12704410Y-16030707D01*
X12704410Y-16030707D02*
X12713934Y-15992612D01*
X12713934Y-15992612D02*
X12723458Y-15973564D01*
X12723458Y-15973564D02*
X12732982Y-15964041D01*
X12732982Y-15964041D02*
X12752029Y-15954517D01*
X12942506Y-15954517D02*
X12961553Y-15954517D01*
X12961553Y-15954517D02*
X12980601Y-15964041D01*
X12980601Y-15964041D02*
X12990125Y-15973564D01*
X12990125Y-15973564D02*
X12999649Y-15992612D01*
X12999649Y-15992612D02*
X13009172Y-16030707D01*
X13009172Y-16030707D02*
X13009172Y-16078326D01*
X13009172Y-16078326D02*
X12999649Y-16116421D01*
X12999649Y-16116421D02*
X12990125Y-16135469D01*
X12990125Y-16135469D02*
X12980601Y-16144993D01*
X12980601Y-16144993D02*
X12961553Y-16154517D01*
X12961553Y-16154517D02*
X12942506Y-16154517D01*
X12942506Y-16154517D02*
X12923458Y-16144993D01*
X12923458Y-16144993D02*
X12913934Y-16135469D01*
X12913934Y-16135469D02*
X12904410Y-16116421D01*
X12904410Y-16116421D02*
X12894887Y-16078326D01*
X12894887Y-16078326D02*
X12894887Y-16030707D01*
X12894887Y-16030707D02*
X12904410Y-15992612D01*
X12904410Y-15992612D02*
X12913934Y-15973564D01*
X12913934Y-15973564D02*
X12923458Y-15964041D01*
X12923458Y-15964041D02*
X12942506Y-15954517D01*
X13094887Y-16154517D02*
X13094887Y-16021183D01*
X13094887Y-16040231D02*
X13104410Y-16030707D01*
X13104410Y-16030707D02*
X13123458Y-16021183D01*
X13123458Y-16021183D02*
X13152030Y-16021183D01*
X13152030Y-16021183D02*
X13171077Y-16030707D01*
X13171077Y-16030707D02*
X13180601Y-16049755D01*
X13180601Y-16049755D02*
X13180601Y-16154517D01*
X13180601Y-16049755D02*
X13190125Y-16030707D01*
X13190125Y-16030707D02*
X13209172Y-16021183D01*
X13209172Y-16021183D02*
X13237744Y-16021183D01*
X13237744Y-16021183D02*
X13256791Y-16030707D01*
X13256791Y-16030707D02*
X13266315Y-16049755D01*
X13266315Y-16049755D02*
X13266315Y-16154517D01*
X13361553Y-16154517D02*
X13361553Y-16021183D01*
X13361553Y-16040231D02*
X13371077Y-16030707D01*
X13371077Y-16030707D02*
X13390125Y-16021183D01*
X13390125Y-16021183D02*
X13418696Y-16021183D01*
X13418696Y-16021183D02*
X13437744Y-16030707D01*
X13437744Y-16030707D02*
X13447268Y-16049755D01*
X13447268Y-16049755D02*
X13447268Y-16154517D01*
X13447268Y-16049755D02*
X13456791Y-16030707D01*
X13456791Y-16030707D02*
X13475839Y-16021183D01*
X13475839Y-16021183D02*
X13504410Y-16021183D01*
X13504410Y-16021183D02*
X13523458Y-16030707D01*
X13523458Y-16030707D02*
X13532982Y-16049755D01*
X13532982Y-16049755D02*
X13532982Y-16154517D01*
X13923458Y-15944993D02*
X13752030Y-16202136D01*
X14180601Y-15954517D02*
X14199649Y-15954517D01*
X14199649Y-15954517D02*
X14218696Y-15964041D01*
X14218696Y-15964041D02*
X14228220Y-15973564D01*
X14228220Y-15973564D02*
X14237744Y-15992612D01*
X14237744Y-15992612D02*
X14247268Y-16030707D01*
X14247268Y-16030707D02*
X14247268Y-16078326D01*
X14247268Y-16078326D02*
X14237744Y-16116421D01*
X14237744Y-16116421D02*
X14228220Y-16135469D01*
X14228220Y-16135469D02*
X14218696Y-16144993D01*
X14218696Y-16144993D02*
X14199649Y-16154517D01*
X14199649Y-16154517D02*
X14180601Y-16154517D01*
X14180601Y-16154517D02*
X14161553Y-16144993D01*
X14161553Y-16144993D02*
X14152030Y-16135469D01*
X14152030Y-16135469D02*
X14142506Y-16116421D01*
X14142506Y-16116421D02*
X14132982Y-16078326D01*
X14132982Y-16078326D02*
X14132982Y-16030707D01*
X14132982Y-16030707D02*
X14142506Y-15992612D01*
X14142506Y-15992612D02*
X14152030Y-15973564D01*
X14152030Y-15973564D02*
X14161553Y-15964041D01*
X14161553Y-15964041D02*
X14180601Y-15954517D01*
X14332982Y-16135469D02*
X14342506Y-16144993D01*
X14342506Y-16144993D02*
X14332982Y-16154517D01*
X14332982Y-16154517D02*
X14323458Y-16144993D01*
X14323458Y-16144993D02*
X14332982Y-16135469D01*
X14332982Y-16135469D02*
X14332982Y-16154517D01*
X14466315Y-15954517D02*
X14485363Y-15954517D01*
X14485363Y-15954517D02*
X14504411Y-15964041D01*
X14504411Y-15964041D02*
X14513934Y-15973564D01*
X14513934Y-15973564D02*
X14523458Y-15992612D01*
X14523458Y-15992612D02*
X14532982Y-16030707D01*
X14532982Y-16030707D02*
X14532982Y-16078326D01*
X14532982Y-16078326D02*
X14523458Y-16116421D01*
X14523458Y-16116421D02*
X14513934Y-16135469D01*
X14513934Y-16135469D02*
X14504411Y-16144993D01*
X14504411Y-16144993D02*
X14485363Y-16154517D01*
X14485363Y-16154517D02*
X14466315Y-16154517D01*
X14466315Y-16154517D02*
X14447268Y-16144993D01*
X14447268Y-16144993D02*
X14437744Y-16135469D01*
X14437744Y-16135469D02*
X14428220Y-16116421D01*
X14428220Y-16116421D02*
X14418696Y-16078326D01*
X14418696Y-16078326D02*
X14418696Y-16030707D01*
X14418696Y-16030707D02*
X14428220Y-15992612D01*
X14428220Y-15992612D02*
X14437744Y-15973564D01*
X14437744Y-15973564D02*
X14447268Y-15964041D01*
X14447268Y-15964041D02*
X14466315Y-15954517D01*
X14713934Y-15954517D02*
X14618696Y-15954517D01*
X14618696Y-15954517D02*
X14609173Y-16049755D01*
X14609173Y-16049755D02*
X14618696Y-16040231D01*
X14618696Y-16040231D02*
X14637744Y-16030707D01*
X14637744Y-16030707D02*
X14685363Y-16030707D01*
X14685363Y-16030707D02*
X14704411Y-16040231D01*
X14704411Y-16040231D02*
X14713934Y-16049755D01*
X14713934Y-16049755D02*
X14723458Y-16068802D01*
X14723458Y-16068802D02*
X14723458Y-16116421D01*
X14723458Y-16116421D02*
X14713934Y-16135469D01*
X14713934Y-16135469D02*
X14704411Y-16144993D01*
X14704411Y-16144993D02*
X14685363Y-16154517D01*
X14685363Y-16154517D02*
X14637744Y-16154517D01*
X14637744Y-16154517D02*
X14618696Y-16144993D01*
X14618696Y-16144993D02*
X14609173Y-16135469D01*
X14913934Y-16154517D02*
X14799649Y-16154517D01*
X14856792Y-16154517D02*
X14856792Y-15954517D01*
X14856792Y-15954517D02*
X14837744Y-15983088D01*
X14837744Y-15983088D02*
X14818696Y-16002136D01*
X14818696Y-16002136D02*
X14799649Y-16011660D01*
X14990125Y-15973564D02*
X14999649Y-15964041D01*
X14999649Y-15964041D02*
X15018696Y-15954517D01*
X15018696Y-15954517D02*
X15066315Y-15954517D01*
X15066315Y-15954517D02*
X15085363Y-15964041D01*
X15085363Y-15964041D02*
X15094887Y-15973564D01*
X15094887Y-15973564D02*
X15104411Y-15992612D01*
X15104411Y-15992612D02*
X15104411Y-16011660D01*
X15104411Y-16011660D02*
X15094887Y-16040231D01*
X15094887Y-16040231D02*
X14980601Y-16154517D01*
X14980601Y-16154517D02*
X15104411Y-16154517D01*
X15180601Y-15954517D02*
X15180601Y-15992612D01*
X15256792Y-15954517D02*
X15256792Y-15992612D01*
X15552030Y-16230707D02*
X15542506Y-16221183D01*
X15542506Y-16221183D02*
X15523458Y-16192612D01*
X15523458Y-16192612D02*
X15513935Y-16173564D01*
X15513935Y-16173564D02*
X15504411Y-16144993D01*
X15504411Y-16144993D02*
X15494887Y-16097374D01*
X15494887Y-16097374D02*
X15494887Y-16059279D01*
X15494887Y-16059279D02*
X15504411Y-16011660D01*
X15504411Y-16011660D02*
X15513935Y-15983088D01*
X15513935Y-15983088D02*
X15523458Y-15964041D01*
X15523458Y-15964041D02*
X15542506Y-15935469D01*
X15542506Y-15935469D02*
X15552030Y-15925945D01*
X15618696Y-15973564D02*
X15628220Y-15964041D01*
X15628220Y-15964041D02*
X15647268Y-15954517D01*
X15647268Y-15954517D02*
X15694887Y-15954517D01*
X15694887Y-15954517D02*
X15713935Y-15964041D01*
X15713935Y-15964041D02*
X15723458Y-15973564D01*
X15723458Y-15973564D02*
X15732982Y-15992612D01*
X15732982Y-15992612D02*
X15732982Y-16011660D01*
X15732982Y-16011660D02*
X15723458Y-16040231D01*
X15723458Y-16040231D02*
X15609173Y-16154517D01*
X15609173Y-16154517D02*
X15732982Y-16154517D01*
X15971077Y-16154517D02*
X15971077Y-15954517D01*
X16056792Y-16154517D02*
X16056792Y-16049755D01*
X16056792Y-16049755D02*
X16047268Y-16030707D01*
X16047268Y-16030707D02*
X16028220Y-16021183D01*
X16028220Y-16021183D02*
X15999649Y-16021183D01*
X15999649Y-16021183D02*
X15980601Y-16030707D01*
X15980601Y-16030707D02*
X15971077Y-16040231D01*
X16180601Y-16154517D02*
X16161554Y-16144993D01*
X16161554Y-16144993D02*
X16152030Y-16135469D01*
X16152030Y-16135469D02*
X16142506Y-16116421D01*
X16142506Y-16116421D02*
X16142506Y-16059279D01*
X16142506Y-16059279D02*
X16152030Y-16040231D01*
X16152030Y-16040231D02*
X16161554Y-16030707D01*
X16161554Y-16030707D02*
X16180601Y-16021183D01*
X16180601Y-16021183D02*
X16209173Y-16021183D01*
X16209173Y-16021183D02*
X16228220Y-16030707D01*
X16228220Y-16030707D02*
X16237744Y-16040231D01*
X16237744Y-16040231D02*
X16247268Y-16059279D01*
X16247268Y-16059279D02*
X16247268Y-16116421D01*
X16247268Y-16116421D02*
X16237744Y-16135469D01*
X16237744Y-16135469D02*
X16228220Y-16144993D01*
X16228220Y-16144993D02*
X16209173Y-16154517D01*
X16209173Y-16154517D02*
X16180601Y-16154517D01*
X16361554Y-16154517D02*
X16342506Y-16144993D01*
X16342506Y-16144993D02*
X16332982Y-16125945D01*
X16332982Y-16125945D02*
X16332982Y-15954517D01*
X16513935Y-16144993D02*
X16494887Y-16154517D01*
X16494887Y-16154517D02*
X16456792Y-16154517D01*
X16456792Y-16154517D02*
X16437744Y-16144993D01*
X16437744Y-16144993D02*
X16428220Y-16125945D01*
X16428220Y-16125945D02*
X16428220Y-16049755D01*
X16428220Y-16049755D02*
X16437744Y-16030707D01*
X16437744Y-16030707D02*
X16456792Y-16021183D01*
X16456792Y-16021183D02*
X16494887Y-16021183D01*
X16494887Y-16021183D02*
X16513935Y-16030707D01*
X16513935Y-16030707D02*
X16523458Y-16049755D01*
X16523458Y-16049755D02*
X16523458Y-16068802D01*
X16523458Y-16068802D02*
X16428220Y-16087850D01*
X16599649Y-16144993D02*
X16618697Y-16154517D01*
X16618697Y-16154517D02*
X16656792Y-16154517D01*
X16656792Y-16154517D02*
X16675839Y-16144993D01*
X16675839Y-16144993D02*
X16685363Y-16125945D01*
X16685363Y-16125945D02*
X16685363Y-16116421D01*
X16685363Y-16116421D02*
X16675839Y-16097374D01*
X16675839Y-16097374D02*
X16656792Y-16087850D01*
X16656792Y-16087850D02*
X16628220Y-16087850D01*
X16628220Y-16087850D02*
X16609173Y-16078326D01*
X16609173Y-16078326D02*
X16599649Y-16059279D01*
X16599649Y-16059279D02*
X16599649Y-16049755D01*
X16599649Y-16049755D02*
X16609173Y-16030707D01*
X16609173Y-16030707D02*
X16628220Y-16021183D01*
X16628220Y-16021183D02*
X16656792Y-16021183D01*
X16656792Y-16021183D02*
X16675839Y-16030707D01*
X16752030Y-16230707D02*
X16761554Y-16221183D01*
X16761554Y-16221183D02*
X16780601Y-16192612D01*
X16780601Y-16192612D02*
X16790125Y-16173564D01*
X16790125Y-16173564D02*
X16799649Y-16144993D01*
X16799649Y-16144993D02*
X16809173Y-16097374D01*
X16809173Y-16097374D02*
X16809173Y-16059279D01*
X16809173Y-16059279D02*
X16799649Y-16011660D01*
X16799649Y-16011660D02*
X16790125Y-15983088D01*
X16790125Y-15983088D02*
X16780601Y-15964041D01*
X16780601Y-15964041D02*
X16761554Y-15935469D01*
X16761554Y-15935469D02*
X16752030Y-15925945D01*
M02*
