%TF.GenerationSoftware,KiCad,Pcbnew,8.0.6*%
%TF.CreationDate,2024-11-18T21:13:26-05:00*%
%TF.ProjectId,CBM-SD,43424d2d-5344-42e6-9b69-6361645f7063,1.0*%
%TF.SameCoordinates,Original*%
%TF.FileFunction,Drillmap*%
%TF.FilePolarity,Positive*%
%FSLAX45Y45*%
G04 Gerber Fmt 4.5, Leading zero omitted, Abs format (unit mm)*
G04 Created by KiCad (PCBNEW 8.0.6) date 2024-11-18 21:13:26*
%MOMM*%
%LPD*%
G01*
G04 APERTURE LIST*
%ADD10C,0.200660*%
%ADD11C,0.200000*%
G04 APERTURE END LIST*
D10*
X11987000Y-7923000D02*
X19187000Y-7923000D01*
X19187000Y-14357000D01*
X11987000Y-14357000D01*
X11987000Y-7923000D01*
X12468723Y-8225000D02*
G75*
G02*
X12131277Y-8225000I-168723J0D01*
G01*
X12131277Y-8225000D02*
G75*
G02*
X12468723Y-8225000I168723J0D01*
G01*
X12468723Y-14134000D02*
G75*
G02*
X12131277Y-14134000I-168723J0D01*
G01*
X12131277Y-14134000D02*
G75*
G02*
X12468723Y-14134000I168723J0D01*
G01*
X19050723Y-8263000D02*
G75*
G02*
X18713277Y-8263000I-168723J0D01*
G01*
X18713277Y-8263000D02*
G75*
G02*
X19050723Y-8263000I168723J0D01*
G01*
X19050723Y-14063000D02*
G75*
G02*
X18713277Y-14063000I-168723J0D01*
G01*
X18713277Y-14063000D02*
G75*
G02*
X19050723Y-14063000I168723J0D01*
G01*
D11*
X12237744Y-14678517D02*
X12237744Y-14478517D01*
X12237744Y-14478517D02*
X12285363Y-14478517D01*
X12285363Y-14478517D02*
X12313934Y-14488041D01*
X12313934Y-14488041D02*
X12332982Y-14507088D01*
X12332982Y-14507088D02*
X12342506Y-14526136D01*
X12342506Y-14526136D02*
X12352029Y-14564231D01*
X12352029Y-14564231D02*
X12352029Y-14592802D01*
X12352029Y-14592802D02*
X12342506Y-14630898D01*
X12342506Y-14630898D02*
X12332982Y-14649945D01*
X12332982Y-14649945D02*
X12313934Y-14668993D01*
X12313934Y-14668993D02*
X12285363Y-14678517D01*
X12285363Y-14678517D02*
X12237744Y-14678517D01*
X12437744Y-14678517D02*
X12437744Y-14545183D01*
X12437744Y-14583279D02*
X12447268Y-14564231D01*
X12447268Y-14564231D02*
X12456791Y-14554707D01*
X12456791Y-14554707D02*
X12475839Y-14545183D01*
X12475839Y-14545183D02*
X12494887Y-14545183D01*
X12561553Y-14678517D02*
X12561553Y-14545183D01*
X12561553Y-14478517D02*
X12552029Y-14488041D01*
X12552029Y-14488041D02*
X12561553Y-14497564D01*
X12561553Y-14497564D02*
X12571077Y-14488041D01*
X12571077Y-14488041D02*
X12561553Y-14478517D01*
X12561553Y-14478517D02*
X12561553Y-14497564D01*
X12685363Y-14678517D02*
X12666315Y-14668993D01*
X12666315Y-14668993D02*
X12656791Y-14649945D01*
X12656791Y-14649945D02*
X12656791Y-14478517D01*
X12790125Y-14678517D02*
X12771077Y-14668993D01*
X12771077Y-14668993D02*
X12761553Y-14649945D01*
X12761553Y-14649945D02*
X12761553Y-14478517D01*
X13018696Y-14678517D02*
X13018696Y-14478517D01*
X13018696Y-14478517D02*
X13085363Y-14621374D01*
X13085363Y-14621374D02*
X13152029Y-14478517D01*
X13152029Y-14478517D02*
X13152029Y-14678517D01*
X13332982Y-14678517D02*
X13332982Y-14573755D01*
X13332982Y-14573755D02*
X13323458Y-14554707D01*
X13323458Y-14554707D02*
X13304410Y-14545183D01*
X13304410Y-14545183D02*
X13266315Y-14545183D01*
X13266315Y-14545183D02*
X13247268Y-14554707D01*
X13332982Y-14668993D02*
X13313934Y-14678517D01*
X13313934Y-14678517D02*
X13266315Y-14678517D01*
X13266315Y-14678517D02*
X13247268Y-14668993D01*
X13247268Y-14668993D02*
X13237744Y-14649945D01*
X13237744Y-14649945D02*
X13237744Y-14630898D01*
X13237744Y-14630898D02*
X13247268Y-14611850D01*
X13247268Y-14611850D02*
X13266315Y-14602326D01*
X13266315Y-14602326D02*
X13313934Y-14602326D01*
X13313934Y-14602326D02*
X13332982Y-14592802D01*
X13428220Y-14545183D02*
X13428220Y-14745183D01*
X13428220Y-14554707D02*
X13447268Y-14545183D01*
X13447268Y-14545183D02*
X13485363Y-14545183D01*
X13485363Y-14545183D02*
X13504410Y-14554707D01*
X13504410Y-14554707D02*
X13513934Y-14564231D01*
X13513934Y-14564231D02*
X13523458Y-14583279D01*
X13523458Y-14583279D02*
X13523458Y-14640421D01*
X13523458Y-14640421D02*
X13513934Y-14659469D01*
X13513934Y-14659469D02*
X13504410Y-14668993D01*
X13504410Y-14668993D02*
X13485363Y-14678517D01*
X13485363Y-14678517D02*
X13447268Y-14678517D01*
X13447268Y-14678517D02*
X13428220Y-14668993D01*
X13609172Y-14659469D02*
X13618696Y-14668993D01*
X13618696Y-14668993D02*
X13609172Y-14678517D01*
X13609172Y-14678517D02*
X13599649Y-14668993D01*
X13599649Y-14668993D02*
X13609172Y-14659469D01*
X13609172Y-14659469D02*
X13609172Y-14678517D01*
X13609172Y-14554707D02*
X13618696Y-14564231D01*
X13618696Y-14564231D02*
X13609172Y-14573755D01*
X13609172Y-14573755D02*
X13599649Y-14564231D01*
X13599649Y-14564231D02*
X13609172Y-14554707D01*
X13609172Y-14554707D02*
X13609172Y-14573755D01*
M02*
