M48
; DRILL file {KiCad 8.0.6} date 2024-11-22T22:35:37-0500
; FORMAT={-:-/ absolute / inch / decimal}
; #@! TF.CreationDate,2024-11-22T22:35:37-05:00
; #@! TF.GenerationSoftware,Kicad,Pcbnew,8.0.6
; #@! TF.FileFunction,Plated,1,2,PTH
FMAT,2
INCH
; #@! TA.AperFunction,Plated,PTH,ViaDrill
T1C0.0157
; #@! TA.AperFunction,Plated,PTH,ComponentDrill
T2C0.0236
; #@! TA.AperFunction,Plated,PTH,ViaDrill
T3C0.0315
; #@! TA.AperFunction,Plated,PTH,ComponentDrill
T4C0.0315
; #@! TA.AperFunction,Plated,PTH,ComponentDrill
T5C0.0354
; #@! TA.AperFunction,Plated,PTH,ComponentDrill
T6C0.0394
; #@! TA.AperFunction,Plated,PTH,ComponentDrill
T7C0.1260
%
G90
G05
T1
X5.1972Y-3.0039
X5.3413Y-2.9941
X5.4024Y-3.372
X5.4278Y-2.9992
X5.537Y-3.376
X5.5661Y-2.9992
X5.6492Y-3.3709
X5.6675Y-3.0175
X5.9004Y-3.0677
X6.2063Y-3.0618
X6.9666Y-3.1417
X6.9705Y-3.4709
T2
X6.5535Y-3.0713
X6.5535Y-3.1303
T3
X6.1557Y-3.1709
T4
X5.5368Y-3.5701
X5.5368Y-3.7401
X5.6218Y-3.5701
X5.6218Y-3.7401
X5.7068Y-3.5701
X5.7068Y-3.7401
X5.7918Y-3.5701
X5.7918Y-3.7401
X5.8768Y-3.5701
X5.8768Y-3.7401
X5.9618Y-3.5701
X5.9618Y-3.7401
X6.0468Y-3.5701
X6.0468Y-3.7401
X6.1318Y-3.5701
X6.1318Y-3.7401
X6.1693Y-3.3756
X6.2168Y-3.5701
X6.2168Y-3.7401
X6.3018Y-3.5701
X6.3018Y-3.7401
X6.3868Y-3.5701
X6.3868Y-3.7401
X6.4718Y-3.5701
X6.4718Y-3.7401
X6.5693Y-3.3756
T5
X6.3059Y-3.085
X6.3059Y-3.185
T6
X4.9965Y-2.8894
X4.9965Y-2.9894
X5.1543Y-3.1665
X5.1543Y-3.2665
X5.2543Y-3.1665
X5.2543Y-3.2665
X5.3543Y-3.2665
X5.3543Y-3.1665
X5.4543Y-3.1665
X5.4543Y-3.2665
X5.5543Y-3.1665
X5.5543Y-3.2665
X5.6543Y-3.1665
X5.6543Y-3.2665
X5.7543Y-3.1665
X5.7543Y-3.2665
X5.8543Y-3.1665
X5.8543Y-3.2665
X5.9543Y-3.1665
X5.9543Y-3.2665
X6.0543Y-3.1665
X6.0543Y-3.2665
X7.0049Y-2.8968
X7.0049Y-2.9968
T7
X5.0833Y-3.6551
X6.9253Y-3.6551
T6
G00X6.7024Y-3.3071
M15
G01X6.7024Y-3.2283
M16
G05
G00X6.8598Y-3.0827
M15
G01X6.7811Y-3.0827
M16
G05
G00X6.9386Y-3.3071
M15
G01X6.9386Y-3.2283
M16
G05
M30
