G04 #@! TF.GenerationSoftware,KiCad,Pcbnew,8.0.6*
G04 #@! TF.CreationDate,2024-11-22T22:35:33-05:00*
G04 #@! TF.ProjectId,cbmSD-pass,63626d53-442d-4706-9173-732e6b696361,rev?*
G04 #@! TF.SameCoordinates,Original*
G04 #@! TF.FileFunction,Legend,Bot*
G04 #@! TF.FilePolarity,Positive*
%FSLAX46Y46*%
G04 Gerber Fmt 4.6, Leading zero omitted, Abs format (unit mm)*
G04 Created by KiCad (PCBNEW 8.0.6) date 2024-11-22 22:35:33*
%MOMM*%
%LPD*%
G01*
G04 APERTURE LIST*
G04 Aperture macros list*
%AMRoundRect*
0 Rectangle with rounded corners*
0 $1 Rounding radius*
0 $2 $3 $4 $5 $6 $7 $8 $9 X,Y pos of 4 corners*
0 Add a 4 corners polygon primitive as box body*
4,1,4,$2,$3,$4,$5,$6,$7,$8,$9,$2,$3,0*
0 Add four circle primitives for the rounded corners*
1,1,$1+$1,$2,$3*
1,1,$1+$1,$4,$5*
1,1,$1+$1,$6,$7*
1,1,$1+$1,$8,$9*
0 Add four rect primitives between the rounded corners*
20,1,$1+$1,$2,$3,$4,$5,0*
20,1,$1+$1,$4,$5,$6,$7,0*
20,1,$1+$1,$6,$7,$8,$9,0*
20,1,$1+$1,$8,$9,$2,$3,0*%
G04 Aperture macros list end*
%ADD10C,0.150000*%
%ADD11C,0.050800*%
%ADD12C,0.100000*%
%ADD13O,1.400000X2.400000*%
%ADD14C,5.199380*%
%ADD15C,1.600000*%
%ADD16O,1.600000X1.600000*%
%ADD17R,3.500000X3.500000*%
%ADD18RoundRect,0.750000X0.750000X1.000000X-0.750000X1.000000X-0.750000X-1.000000X0.750000X-1.000000X0*%
%ADD19RoundRect,0.875000X0.875000X0.875000X-0.875000X0.875000X-0.875000X-0.875000X0.875000X-0.875000X0*%
%ADD20R,1.800000X1.800000*%
%ADD21C,1.800000*%
%ADD22R,1.700000X1.700000*%
%ADD23O,1.700000X1.700000*%
%ADD24R,1.200000X1.200000*%
%ADD25C,1.200000*%
%ADD26O,2.410000X8.760000*%
G04 #@! TA.AperFunction,Profile*
%ADD27C,0.200660*%
G04 #@! TD*
G04 APERTURE END LIST*
D10*
X138051356Y-93293819D02*
X138051356Y-92293819D01*
X138051356Y-92293819D02*
X137670404Y-92293819D01*
X137670404Y-92293819D02*
X137575166Y-92341438D01*
X137575166Y-92341438D02*
X137527547Y-92389057D01*
X137527547Y-92389057D02*
X137479928Y-92484295D01*
X137479928Y-92484295D02*
X137479928Y-92627152D01*
X137479928Y-92627152D02*
X137527547Y-92722390D01*
X137527547Y-92722390D02*
X137575166Y-92770009D01*
X137575166Y-92770009D02*
X137670404Y-92817628D01*
X137670404Y-92817628D02*
X138051356Y-92817628D01*
X136575166Y-93293819D02*
X137051356Y-93293819D01*
X137051356Y-93293819D02*
X137051356Y-92293819D01*
X135718023Y-93293819D02*
X136289451Y-93293819D01*
X136003737Y-93293819D02*
X136003737Y-92293819D01*
X136003737Y-92293819D02*
X136098975Y-92436676D01*
X136098975Y-92436676D02*
X136194213Y-92531914D01*
X136194213Y-92531914D02*
X136289451Y-92579533D01*
D11*
X136627500Y-90253000D02*
X137008500Y-91269000D01*
X137389500Y-90253000D02*
X136627500Y-90253000D01*
X137008500Y-91269000D02*
X137389500Y-90253000D01*
%LPC*%
D12*
X176072800Y-65849500D02*
X176072800Y-75374500D01*
X128828800Y-75323700D01*
X128828800Y-65798700D01*
X128892300Y-65798700D01*
X176072800Y-65849500D01*
G36*
X176072800Y-65849500D02*
G01*
X176072800Y-75374500D01*
X128828800Y-75323700D01*
X128828800Y-65798700D01*
X128892300Y-65798700D01*
X176072800Y-65849500D01*
G37*
D13*
X140634000Y-90680000D03*
X142793000Y-90680000D03*
X144952000Y-90680000D03*
X147111000Y-90680000D03*
X149270000Y-90680000D03*
X151429000Y-90680000D03*
X153588000Y-90680000D03*
X155747000Y-90680000D03*
X157906000Y-90680000D03*
X160065000Y-90680000D03*
X162224000Y-90680000D03*
X164383000Y-90680000D03*
X140634000Y-94998000D03*
X142793000Y-94998000D03*
X144952000Y-94998000D03*
X147111000Y-94998000D03*
X149270000Y-94998000D03*
X151429000Y-94998000D03*
X153588000Y-94998000D03*
X155747000Y-94998000D03*
X157906000Y-94998000D03*
X160065000Y-94998000D03*
X162224000Y-94998000D03*
X164383000Y-94998000D03*
D14*
X129115100Y-92839000D03*
X175901900Y-92839000D03*
D15*
X166860000Y-85740000D03*
D16*
X156700000Y-85740000D03*
D17*
X170240000Y-83000000D03*
D18*
X176240000Y-83000000D03*
D19*
X173240000Y-78300000D03*
D20*
X160170000Y-78360000D03*
D21*
X160170000Y-80900000D03*
D22*
X177924199Y-76119692D03*
D23*
X177924199Y-73579692D03*
D24*
X166460000Y-79510000D03*
D25*
X166460000Y-78010000D03*
D22*
X130920000Y-82970000D03*
D23*
X130920000Y-80430000D03*
X133460000Y-82970000D03*
X133460000Y-80430000D03*
X135999999Y-82970000D03*
X136000000Y-80430000D03*
X138540000Y-82970000D03*
X138540000Y-80430000D03*
X141080000Y-82970000D03*
X141080000Y-80430000D03*
X143620000Y-82970000D03*
X143620000Y-80430000D03*
X146160000Y-82970000D03*
X146160000Y-80430000D03*
X148700001Y-82970000D03*
X148700000Y-80430000D03*
X151240000Y-82970000D03*
X151240000Y-80430000D03*
X153780000Y-82970000D03*
X153780000Y-80430000D03*
D26*
X130860799Y-70408800D03*
X134820799Y-70408800D03*
X138780799Y-70408800D03*
X142740799Y-70408800D03*
X146700799Y-70408800D03*
X150660799Y-70408800D03*
X154620799Y-70408800D03*
X158580799Y-70408800D03*
X162540799Y-70408800D03*
X166500799Y-70408800D03*
X170460799Y-70408800D03*
X174420799Y-70408800D03*
D22*
X126910000Y-75930000D03*
D23*
X126910000Y-73390000D03*
%LPD*%
D27*
X182120000Y-98510000D02*
X182140000Y-66540000D01*
X123240000Y-66560000D02*
X123220000Y-98530000D01*
X181560000Y-99280000D02*
X124010000Y-99310000D01*
X182120000Y-98510000D02*
X181560000Y-99280000D01*
X124010000Y-99310000D02*
X123220000Y-98530000D01*
X127827228Y-68620000D02*
G75*
G02*
X124452772Y-68620000I-1687228J0D01*
G01*
X124452772Y-68620000D02*
G75*
G02*
X127827228Y-68620000I1687228J0D01*
G01*
X181350000Y-65760000D02*
X182140000Y-66540000D01*
X123240000Y-66560000D02*
X123800000Y-65790000D01*
X123800000Y-65790000D02*
X181350000Y-65760000D01*
X180879528Y-68620800D02*
G75*
G02*
X177505072Y-68620800I-1687228J0D01*
G01*
X177505072Y-68620800D02*
G75*
G02*
X180879528Y-68620800I1687228J0D01*
G01*
M02*
