%TF.GenerationSoftware,KiCad,Pcbnew,8.0.6*%
%TF.CreationDate,2024-11-22T22:35:38-05:00*%
%TF.ProjectId,cbmSD-pass,63626d53-442d-4706-9173-732e6b696361,rev?*%
%TF.SameCoordinates,Original*%
%TF.FileFunction,Drillmap*%
%TF.FilePolarity,Positive*%
%FSLAX45Y45*%
G04 Gerber Fmt 4.5, Leading zero omitted, Abs format (unit mm)*
G04 Created by KiCad (PCBNEW 8.0.6) date 2024-11-22 22:35:38*
%MOMM*%
%LPD*%
G01*
G04 APERTURE LIST*
%ADD10C,0.200660*%
%ADD11C,0.200000*%
%ADD12C,0.100000*%
%ADD13C,0.320000*%
G04 APERTURE END LIST*
D10*
X18212000Y-9851000D02*
X18214000Y-6654000D01*
X12324000Y-6656000D02*
X12322000Y-9853000D01*
X18156000Y-9928000D02*
X12401000Y-9931000D01*
X18212000Y-9851000D02*
X18156000Y-9928000D01*
X12401000Y-9931000D02*
X12322000Y-9853000D01*
X12782723Y-6862000D02*
G75*
G02*
X12445277Y-6862000I-168723J0D01*
G01*
X12445277Y-6862000D02*
G75*
G02*
X12782723Y-6862000I168723J0D01*
G01*
X18135000Y-6576000D02*
X18214000Y-6654000D01*
X12324000Y-6656000D02*
X12380000Y-6579000D01*
X12380000Y-6579000D02*
X18135000Y-6576000D01*
X18087953Y-6862080D02*
G75*
G02*
X17750507Y-6862080I-168723J0D01*
G01*
X17750507Y-6862080D02*
G75*
G02*
X18087953Y-6862080I168723J0D01*
G01*
D11*
D12*
X13181000Y-7610000D02*
X13221000Y-7650000D01*
X13221000Y-7610000D02*
X13181000Y-7650000D01*
X13547000Y-7585000D02*
X13587000Y-7625000D01*
X13587000Y-7585000D02*
X13547000Y-7625000D01*
X13702000Y-8545000D02*
X13742000Y-8585000D01*
X13742000Y-8545000D02*
X13702000Y-8585000D01*
X13766640Y-7598000D02*
X13806640Y-7638000D01*
X13806640Y-7598000D02*
X13766640Y-7638000D01*
X14044000Y-8555000D02*
X14084000Y-8595000D01*
X14084000Y-8555000D02*
X14044000Y-8595000D01*
X14118000Y-7598000D02*
X14158000Y-7638000D01*
X14158000Y-7598000D02*
X14118000Y-7638000D01*
X14329000Y-8542000D02*
X14369000Y-8582000D01*
X14369000Y-8542000D02*
X14329000Y-8582000D01*
X14375342Y-7644342D02*
X14415342Y-7684342D01*
X14415342Y-7644342D02*
X14375342Y-7684342D01*
X14967000Y-7772000D02*
X15007000Y-7812000D01*
X15007000Y-7772000D02*
X14967000Y-7812000D01*
X15744000Y-7757000D02*
X15784000Y-7797000D01*
X15784000Y-7757000D02*
X15744000Y-7797000D01*
X17675280Y-7960000D02*
X17715280Y-8000000D01*
X17715280Y-7960000D02*
X17675280Y-8000000D01*
X17685000Y-8796000D02*
X17725000Y-8836000D01*
X17725000Y-8796000D02*
X17685000Y-8836000D01*
X16676000Y-7801000D02*
G75*
G02*
X16616000Y-7801000I-30000J0D01*
G01*
X16616000Y-7801000D02*
G75*
G02*
X16676000Y-7801000I30000J0D01*
G01*
X16676000Y-7951000D02*
G75*
G02*
X16616000Y-7951000I-30000J0D01*
G01*
X16616000Y-7951000D02*
G75*
G02*
X16676000Y-7951000I30000J0D01*
G01*
X15635600Y-8014000D02*
X15635600Y-8094000D01*
X15595600Y-8054000D02*
X15675600Y-8054000D01*
X14091684Y-9096285D02*
X14091684Y-9039716D01*
X14035115Y-9039716D01*
X14035115Y-9096285D01*
X14091684Y-9096285D01*
X14091684Y-9528085D02*
X14091684Y-9471516D01*
X14035115Y-9471516D01*
X14035115Y-9528085D01*
X14091684Y-9528085D01*
X14307584Y-9096285D02*
X14307584Y-9039716D01*
X14251015Y-9039716D01*
X14251015Y-9096285D01*
X14307584Y-9096285D01*
X14307584Y-9528085D02*
X14307584Y-9471516D01*
X14251015Y-9471516D01*
X14251015Y-9528085D01*
X14307584Y-9528085D01*
X14523484Y-9096285D02*
X14523484Y-9039716D01*
X14466915Y-9039716D01*
X14466915Y-9096285D01*
X14523484Y-9096285D01*
X14523484Y-9528085D02*
X14523484Y-9471516D01*
X14466915Y-9471516D01*
X14466915Y-9528085D01*
X14523484Y-9528085D01*
X14739384Y-9096285D02*
X14739384Y-9039716D01*
X14682815Y-9039716D01*
X14682815Y-9096285D01*
X14739384Y-9096285D01*
X14739384Y-9528085D02*
X14739384Y-9471516D01*
X14682815Y-9471516D01*
X14682815Y-9528085D01*
X14739384Y-9528085D01*
X14955284Y-9096285D02*
X14955284Y-9039716D01*
X14898715Y-9039716D01*
X14898715Y-9096285D01*
X14955284Y-9096285D01*
X14955284Y-9528085D02*
X14955284Y-9471516D01*
X14898715Y-9471516D01*
X14898715Y-9528085D01*
X14955284Y-9528085D01*
X15171184Y-9096285D02*
X15171184Y-9039716D01*
X15114615Y-9039716D01*
X15114615Y-9096285D01*
X15171184Y-9096285D01*
X15171184Y-9528085D02*
X15171184Y-9471516D01*
X15114615Y-9471516D01*
X15114615Y-9528085D01*
X15171184Y-9528085D01*
X15387084Y-9096285D02*
X15387084Y-9039716D01*
X15330515Y-9039716D01*
X15330515Y-9096285D01*
X15387084Y-9096285D01*
X15387084Y-9528085D02*
X15387084Y-9471516D01*
X15330515Y-9471516D01*
X15330515Y-9528085D01*
X15387084Y-9528085D01*
X15602984Y-9096285D02*
X15602984Y-9039716D01*
X15546415Y-9039716D01*
X15546415Y-9096285D01*
X15602984Y-9096285D01*
X15602984Y-9528085D02*
X15602984Y-9471516D01*
X15546415Y-9471516D01*
X15546415Y-9528085D01*
X15602984Y-9528085D01*
X15698284Y-8602285D02*
X15698284Y-8545716D01*
X15641715Y-8545716D01*
X15641715Y-8602285D01*
X15698284Y-8602285D01*
X15818884Y-9096285D02*
X15818884Y-9039716D01*
X15762315Y-9039716D01*
X15762315Y-9096285D01*
X15818884Y-9096285D01*
X15818884Y-9528085D02*
X15818884Y-9471516D01*
X15762315Y-9471516D01*
X15762315Y-9528085D01*
X15818884Y-9528085D01*
X16034784Y-9096285D02*
X16034784Y-9039716D01*
X15978215Y-9039716D01*
X15978215Y-9096285D01*
X16034784Y-9096285D01*
X16034784Y-9528085D02*
X16034784Y-9471516D01*
X15978215Y-9471516D01*
X15978215Y-9528085D01*
X16034784Y-9528085D01*
X16250684Y-9096285D02*
X16250684Y-9039716D01*
X16194115Y-9039716D01*
X16194115Y-9096285D01*
X16250684Y-9096285D01*
X16250684Y-9528085D02*
X16250684Y-9471516D01*
X16194115Y-9471516D01*
X16194115Y-9528085D01*
X16250684Y-9528085D01*
X16466584Y-9096285D02*
X16466584Y-9039716D01*
X16410015Y-9039716D01*
X16410015Y-9096285D01*
X16466584Y-9096285D01*
X16466584Y-9528085D02*
X16466584Y-9471516D01*
X16410015Y-9471516D01*
X16410015Y-9528085D01*
X16466584Y-9528085D01*
X16714284Y-8602285D02*
X16714284Y-8545716D01*
X16657715Y-8545716D01*
X16657715Y-8602285D01*
X16714284Y-8602285D01*
X16017000Y-7881000D02*
X16062000Y-7836000D01*
X16017000Y-7791000D01*
X15972000Y-7836000D01*
X16017000Y-7881000D01*
X16017000Y-8135000D02*
X16062000Y-8090000D01*
X16017000Y-8045000D01*
X15972000Y-8090000D01*
X16017000Y-8135000D01*
X12641000Y-7289000D02*
X12741000Y-7389000D01*
X12741000Y-7289000D02*
X12641000Y-7389000D01*
X12741000Y-7339000D02*
G75*
G02*
X12641000Y-7339000I-50000J0D01*
G01*
X12641000Y-7339000D02*
G75*
G02*
X12741000Y-7339000I50000J0D01*
G01*
X12641000Y-7543000D02*
X12741000Y-7643000D01*
X12741000Y-7543000D02*
X12641000Y-7643000D01*
X12741000Y-7593000D02*
G75*
G02*
X12641000Y-7593000I-50000J0D01*
G01*
X12641000Y-7593000D02*
G75*
G02*
X12741000Y-7593000I50000J0D01*
G01*
X13042000Y-7993000D02*
X13142000Y-8093000D01*
X13142000Y-7993000D02*
X13042000Y-8093000D01*
X13142000Y-8043000D02*
G75*
G02*
X13042000Y-8043000I-50000J0D01*
G01*
X13042000Y-8043000D02*
G75*
G02*
X13142000Y-8043000I50000J0D01*
G01*
X13042000Y-8247000D02*
X13142000Y-8347000D01*
X13142000Y-8247000D02*
X13042000Y-8347000D01*
X13142000Y-8297000D02*
G75*
G02*
X13042000Y-8297000I-50000J0D01*
G01*
X13042000Y-8297000D02*
G75*
G02*
X13142000Y-8297000I50000J0D01*
G01*
X13296000Y-7993000D02*
X13396000Y-8093000D01*
X13396000Y-7993000D02*
X13296000Y-8093000D01*
X13396000Y-8043000D02*
G75*
G02*
X13296000Y-8043000I-50000J0D01*
G01*
X13296000Y-8043000D02*
G75*
G02*
X13396000Y-8043000I50000J0D01*
G01*
X13296000Y-8247000D02*
X13396000Y-8347000D01*
X13396000Y-8247000D02*
X13296000Y-8347000D01*
X13396000Y-8297000D02*
G75*
G02*
X13296000Y-8297000I-50000J0D01*
G01*
X13296000Y-8297000D02*
G75*
G02*
X13396000Y-8297000I50000J0D01*
G01*
X13550000Y-8247000D02*
X13650000Y-8347000D01*
X13650000Y-8247000D02*
X13550000Y-8347000D01*
X13650000Y-8297000D02*
G75*
G02*
X13550000Y-8297000I-50000J0D01*
G01*
X13550000Y-8297000D02*
G75*
G02*
X13650000Y-8297000I50000J0D01*
G01*
X13550000Y-7993000D02*
X13650000Y-8093000D01*
X13650000Y-7993000D02*
X13550000Y-8093000D01*
X13650000Y-8043000D02*
G75*
G02*
X13550000Y-8043000I-50000J0D01*
G01*
X13550000Y-8043000D02*
G75*
G02*
X13650000Y-8043000I50000J0D01*
G01*
X13804000Y-7993000D02*
X13904000Y-8093000D01*
X13904000Y-7993000D02*
X13804000Y-8093000D01*
X13904000Y-8043000D02*
G75*
G02*
X13804000Y-8043000I-50000J0D01*
G01*
X13804000Y-8043000D02*
G75*
G02*
X13904000Y-8043000I50000J0D01*
G01*
X13804000Y-8247000D02*
X13904000Y-8347000D01*
X13904000Y-8247000D02*
X13804000Y-8347000D01*
X13904000Y-8297000D02*
G75*
G02*
X13804000Y-8297000I-50000J0D01*
G01*
X13804000Y-8297000D02*
G75*
G02*
X13904000Y-8297000I50000J0D01*
G01*
X14058000Y-7993000D02*
X14158000Y-8093000D01*
X14158000Y-7993000D02*
X14058000Y-8093000D01*
X14158000Y-8043000D02*
G75*
G02*
X14058000Y-8043000I-50000J0D01*
G01*
X14058000Y-8043000D02*
G75*
G02*
X14158000Y-8043000I50000J0D01*
G01*
X14058000Y-8247000D02*
X14158000Y-8347000D01*
X14158000Y-8247000D02*
X14058000Y-8347000D01*
X14158000Y-8297000D02*
G75*
G02*
X14058000Y-8297000I-50000J0D01*
G01*
X14058000Y-8297000D02*
G75*
G02*
X14158000Y-8297000I50000J0D01*
G01*
X14312000Y-7993000D02*
X14412000Y-8093000D01*
X14412000Y-7993000D02*
X14312000Y-8093000D01*
X14412000Y-8043000D02*
G75*
G02*
X14312000Y-8043000I-50000J0D01*
G01*
X14312000Y-8043000D02*
G75*
G02*
X14412000Y-8043000I50000J0D01*
G01*
X14312000Y-8247000D02*
X14412000Y-8347000D01*
X14412000Y-8247000D02*
X14312000Y-8347000D01*
X14412000Y-8297000D02*
G75*
G02*
X14312000Y-8297000I-50000J0D01*
G01*
X14312000Y-8297000D02*
G75*
G02*
X14412000Y-8297000I50000J0D01*
G01*
X14566000Y-7993000D02*
X14666000Y-8093000D01*
X14666000Y-7993000D02*
X14566000Y-8093000D01*
X14666000Y-8043000D02*
G75*
G02*
X14566000Y-8043000I-50000J0D01*
G01*
X14566000Y-8043000D02*
G75*
G02*
X14666000Y-8043000I50000J0D01*
G01*
X14566000Y-8247000D02*
X14666000Y-8347000D01*
X14666000Y-8247000D02*
X14566000Y-8347000D01*
X14666000Y-8297000D02*
G75*
G02*
X14566000Y-8297000I-50000J0D01*
G01*
X14566000Y-8297000D02*
G75*
G02*
X14666000Y-8297000I50000J0D01*
G01*
X14820000Y-7993000D02*
X14920000Y-8093000D01*
X14920000Y-7993000D02*
X14820000Y-8093000D01*
X14920000Y-8043000D02*
G75*
G02*
X14820000Y-8043000I-50000J0D01*
G01*
X14820000Y-8043000D02*
G75*
G02*
X14920000Y-8043000I50000J0D01*
G01*
X14820000Y-8247000D02*
X14920000Y-8347000D01*
X14920000Y-8247000D02*
X14820000Y-8347000D01*
X14920000Y-8297000D02*
G75*
G02*
X14820000Y-8297000I-50000J0D01*
G01*
X14820000Y-8297000D02*
G75*
G02*
X14920000Y-8297000I50000J0D01*
G01*
X15074000Y-7993000D02*
X15174000Y-8093000D01*
X15174000Y-7993000D02*
X15074000Y-8093000D01*
X15174000Y-8043000D02*
G75*
G02*
X15074000Y-8043000I-50000J0D01*
G01*
X15074000Y-8043000D02*
G75*
G02*
X15174000Y-8043000I50000J0D01*
G01*
X15074000Y-8247000D02*
X15174000Y-8347000D01*
X15174000Y-8247000D02*
X15074000Y-8347000D01*
X15174000Y-8297000D02*
G75*
G02*
X15074000Y-8297000I-50000J0D01*
G01*
X15074000Y-8297000D02*
G75*
G02*
X15174000Y-8297000I50000J0D01*
G01*
X15328000Y-7993000D02*
X15428000Y-8093000D01*
X15428000Y-7993000D02*
X15328000Y-8093000D01*
X15428000Y-8043000D02*
G75*
G02*
X15328000Y-8043000I-50000J0D01*
G01*
X15328000Y-8043000D02*
G75*
G02*
X15428000Y-8043000I50000J0D01*
G01*
X15328000Y-8247000D02*
X15428000Y-8347000D01*
X15428000Y-8247000D02*
X15328000Y-8347000D01*
X15428000Y-8297000D02*
G75*
G02*
X15328000Y-8297000I-50000J0D01*
G01*
X15328000Y-8297000D02*
G75*
G02*
X15428000Y-8297000I50000J0D01*
G01*
X16974000Y-8250000D02*
X17074000Y-8350000D01*
X17074000Y-8250000D02*
X16974000Y-8350000D01*
X17074000Y-8300000D02*
G75*
G02*
X16974000Y-8300000I-50000J0D01*
G01*
X16974000Y-8300000D02*
G75*
G02*
X17074000Y-8300000I50000J0D01*
G01*
X17074000Y-8400000D02*
X17074000Y-8200000D01*
X16974000Y-8200000D02*
G75*
G02*
X17074000Y-8200000I50000J0D01*
G01*
X16974000Y-8200000D02*
X16974000Y-8400000D01*
X16974000Y-8400000D02*
G75*
G03*
X17074000Y-8400000I50000J0D01*
G01*
X17274000Y-7780000D02*
X17374000Y-7880000D01*
X17374000Y-7780000D02*
X17274000Y-7880000D01*
X17374000Y-7830000D02*
G75*
G02*
X17274000Y-7830000I-50000J0D01*
G01*
X17274000Y-7830000D02*
G75*
G02*
X17374000Y-7830000I50000J0D01*
G01*
X17424000Y-7780000D02*
X17224000Y-7780000D01*
X17224000Y-7880000D02*
G75*
G02*
X17224000Y-7780000I0J50000D01*
G01*
X17224000Y-7880000D02*
X17424000Y-7880000D01*
X17424000Y-7880000D02*
G75*
G03*
X17424000Y-7780000I0J50000D01*
G01*
X17574000Y-8250000D02*
X17674000Y-8350000D01*
X17674000Y-8250000D02*
X17574000Y-8350000D01*
X17674000Y-8300000D02*
G75*
G02*
X17574000Y-8300000I-50000J0D01*
G01*
X17574000Y-8300000D02*
G75*
G02*
X17674000Y-8300000I50000J0D01*
G01*
X17674000Y-8400000D02*
X17674000Y-8200000D01*
X17574000Y-8200000D02*
G75*
G02*
X17674000Y-8200000I50000J0D01*
G01*
X17574000Y-8200000D02*
X17574000Y-8400000D01*
X17574000Y-8400000D02*
G75*
G03*
X17674000Y-8400000I50000J0D01*
G01*
X17742420Y-7307969D02*
X17842420Y-7407969D01*
X17842420Y-7307969D02*
X17742420Y-7407969D01*
X17842420Y-7357969D02*
G75*
G02*
X17742420Y-7357969I-50000J0D01*
G01*
X17742420Y-7357969D02*
G75*
G02*
X17842420Y-7357969I50000J0D01*
G01*
X17742420Y-7561969D02*
X17842420Y-7661969D01*
X17842420Y-7561969D02*
X17742420Y-7661969D01*
X17842420Y-7611969D02*
G75*
G02*
X17742420Y-7611969I-50000J0D01*
G01*
X17742420Y-7611969D02*
G75*
G02*
X17842420Y-7611969I50000J0D01*
G01*
D13*
X12751510Y-9123900D02*
X13071510Y-9443900D01*
X13071510Y-9123900D02*
X12751510Y-9443900D01*
X12911510Y-9123900D02*
X12911510Y-9443900D01*
X12751510Y-9283900D02*
X13071510Y-9283900D01*
X17430190Y-9123900D02*
X17750190Y-9443900D01*
X17750190Y-9123900D02*
X17430190Y-9443900D01*
X17590190Y-9123900D02*
X17590190Y-9443900D01*
X17430190Y-9283900D02*
X17750190Y-9283900D01*
D11*
X12572744Y-10252517D02*
X12572744Y-10052517D01*
X12572744Y-10052517D02*
X12620363Y-10052517D01*
X12620363Y-10052517D02*
X12648934Y-10062041D01*
X12648934Y-10062041D02*
X12667982Y-10081088D01*
X12667982Y-10081088D02*
X12677506Y-10100136D01*
X12677506Y-10100136D02*
X12687029Y-10138231D01*
X12687029Y-10138231D02*
X12687029Y-10166803D01*
X12687029Y-10166803D02*
X12677506Y-10204898D01*
X12677506Y-10204898D02*
X12667982Y-10223945D01*
X12667982Y-10223945D02*
X12648934Y-10242993D01*
X12648934Y-10242993D02*
X12620363Y-10252517D01*
X12620363Y-10252517D02*
X12572744Y-10252517D01*
X12772744Y-10252517D02*
X12772744Y-10119183D01*
X12772744Y-10157279D02*
X12782268Y-10138231D01*
X12782268Y-10138231D02*
X12791791Y-10128707D01*
X12791791Y-10128707D02*
X12810839Y-10119183D01*
X12810839Y-10119183D02*
X12829887Y-10119183D01*
X12896553Y-10252517D02*
X12896553Y-10119183D01*
X12896553Y-10052517D02*
X12887029Y-10062041D01*
X12887029Y-10062041D02*
X12896553Y-10071564D01*
X12896553Y-10071564D02*
X12906077Y-10062041D01*
X12906077Y-10062041D02*
X12896553Y-10052517D01*
X12896553Y-10052517D02*
X12896553Y-10071564D01*
X13020363Y-10252517D02*
X13001315Y-10242993D01*
X13001315Y-10242993D02*
X12991791Y-10223945D01*
X12991791Y-10223945D02*
X12991791Y-10052517D01*
X13125125Y-10252517D02*
X13106077Y-10242993D01*
X13106077Y-10242993D02*
X13096553Y-10223945D01*
X13096553Y-10223945D02*
X13096553Y-10052517D01*
X13353696Y-10252517D02*
X13353696Y-10052517D01*
X13353696Y-10052517D02*
X13420363Y-10195374D01*
X13420363Y-10195374D02*
X13487029Y-10052517D01*
X13487029Y-10052517D02*
X13487029Y-10252517D01*
X13667982Y-10252517D02*
X13667982Y-10147755D01*
X13667982Y-10147755D02*
X13658458Y-10128707D01*
X13658458Y-10128707D02*
X13639410Y-10119183D01*
X13639410Y-10119183D02*
X13601315Y-10119183D01*
X13601315Y-10119183D02*
X13582268Y-10128707D01*
X13667982Y-10242993D02*
X13648934Y-10252517D01*
X13648934Y-10252517D02*
X13601315Y-10252517D01*
X13601315Y-10252517D02*
X13582268Y-10242993D01*
X13582268Y-10242993D02*
X13572744Y-10223945D01*
X13572744Y-10223945D02*
X13572744Y-10204898D01*
X13572744Y-10204898D02*
X13582268Y-10185850D01*
X13582268Y-10185850D02*
X13601315Y-10176326D01*
X13601315Y-10176326D02*
X13648934Y-10176326D01*
X13648934Y-10176326D02*
X13667982Y-10166803D01*
X13763220Y-10119183D02*
X13763220Y-10319183D01*
X13763220Y-10128707D02*
X13782268Y-10119183D01*
X13782268Y-10119183D02*
X13820363Y-10119183D01*
X13820363Y-10119183D02*
X13839410Y-10128707D01*
X13839410Y-10128707D02*
X13848934Y-10138231D01*
X13848934Y-10138231D02*
X13858458Y-10157279D01*
X13858458Y-10157279D02*
X13858458Y-10214422D01*
X13858458Y-10214422D02*
X13848934Y-10233469D01*
X13848934Y-10233469D02*
X13839410Y-10242993D01*
X13839410Y-10242993D02*
X13820363Y-10252517D01*
X13820363Y-10252517D02*
X13782268Y-10252517D01*
X13782268Y-10252517D02*
X13763220Y-10242993D01*
X13944172Y-10233469D02*
X13953696Y-10242993D01*
X13953696Y-10242993D02*
X13944172Y-10252517D01*
X13944172Y-10252517D02*
X13934649Y-10242993D01*
X13934649Y-10242993D02*
X13944172Y-10233469D01*
X13944172Y-10233469D02*
X13944172Y-10252517D01*
X13944172Y-10128707D02*
X13953696Y-10138231D01*
X13953696Y-10138231D02*
X13944172Y-10147755D01*
X13944172Y-10147755D02*
X13934649Y-10138231D01*
X13934649Y-10138231D02*
X13944172Y-10128707D01*
X13944172Y-10128707D02*
X13944172Y-10147755D01*
D12*
X12271967Y-10561033D02*
X12311967Y-10601033D01*
X12311967Y-10561033D02*
X12271967Y-10601033D01*
D11*
X12610839Y-10472517D02*
X12629887Y-10472517D01*
X12629887Y-10472517D02*
X12648934Y-10482041D01*
X12648934Y-10482041D02*
X12658458Y-10491564D01*
X12658458Y-10491564D02*
X12667982Y-10510612D01*
X12667982Y-10510612D02*
X12677506Y-10548707D01*
X12677506Y-10548707D02*
X12677506Y-10596326D01*
X12677506Y-10596326D02*
X12667982Y-10634422D01*
X12667982Y-10634422D02*
X12658458Y-10653469D01*
X12658458Y-10653469D02*
X12648934Y-10662993D01*
X12648934Y-10662993D02*
X12629887Y-10672517D01*
X12629887Y-10672517D02*
X12610839Y-10672517D01*
X12610839Y-10672517D02*
X12591791Y-10662993D01*
X12591791Y-10662993D02*
X12582268Y-10653469D01*
X12582268Y-10653469D02*
X12572744Y-10634422D01*
X12572744Y-10634422D02*
X12563220Y-10596326D01*
X12563220Y-10596326D02*
X12563220Y-10548707D01*
X12563220Y-10548707D02*
X12572744Y-10510612D01*
X12572744Y-10510612D02*
X12582268Y-10491564D01*
X12582268Y-10491564D02*
X12591791Y-10482041D01*
X12591791Y-10482041D02*
X12610839Y-10472517D01*
X12763220Y-10653469D02*
X12772744Y-10662993D01*
X12772744Y-10662993D02*
X12763220Y-10672517D01*
X12763220Y-10672517D02*
X12753696Y-10662993D01*
X12753696Y-10662993D02*
X12763220Y-10653469D01*
X12763220Y-10653469D02*
X12763220Y-10672517D01*
X12944172Y-10539183D02*
X12944172Y-10672517D01*
X12896553Y-10462993D02*
X12848934Y-10605850D01*
X12848934Y-10605850D02*
X12972744Y-10605850D01*
X13087029Y-10472517D02*
X13106077Y-10472517D01*
X13106077Y-10472517D02*
X13125125Y-10482041D01*
X13125125Y-10482041D02*
X13134649Y-10491564D01*
X13134649Y-10491564D02*
X13144172Y-10510612D01*
X13144172Y-10510612D02*
X13153696Y-10548707D01*
X13153696Y-10548707D02*
X13153696Y-10596326D01*
X13153696Y-10596326D02*
X13144172Y-10634422D01*
X13144172Y-10634422D02*
X13134649Y-10653469D01*
X13134649Y-10653469D02*
X13125125Y-10662993D01*
X13125125Y-10662993D02*
X13106077Y-10672517D01*
X13106077Y-10672517D02*
X13087029Y-10672517D01*
X13087029Y-10672517D02*
X13067982Y-10662993D01*
X13067982Y-10662993D02*
X13058458Y-10653469D01*
X13058458Y-10653469D02*
X13048934Y-10634422D01*
X13048934Y-10634422D02*
X13039410Y-10596326D01*
X13039410Y-10596326D02*
X13039410Y-10548707D01*
X13039410Y-10548707D02*
X13048934Y-10510612D01*
X13048934Y-10510612D02*
X13058458Y-10491564D01*
X13058458Y-10491564D02*
X13067982Y-10482041D01*
X13067982Y-10482041D02*
X13087029Y-10472517D01*
X13277506Y-10472517D02*
X13296553Y-10472517D01*
X13296553Y-10472517D02*
X13315601Y-10482041D01*
X13315601Y-10482041D02*
X13325125Y-10491564D01*
X13325125Y-10491564D02*
X13334649Y-10510612D01*
X13334649Y-10510612D02*
X13344172Y-10548707D01*
X13344172Y-10548707D02*
X13344172Y-10596326D01*
X13344172Y-10596326D02*
X13334649Y-10634422D01*
X13334649Y-10634422D02*
X13325125Y-10653469D01*
X13325125Y-10653469D02*
X13315601Y-10662993D01*
X13315601Y-10662993D02*
X13296553Y-10672517D01*
X13296553Y-10672517D02*
X13277506Y-10672517D01*
X13277506Y-10672517D02*
X13258458Y-10662993D01*
X13258458Y-10662993D02*
X13248934Y-10653469D01*
X13248934Y-10653469D02*
X13239410Y-10634422D01*
X13239410Y-10634422D02*
X13229887Y-10596326D01*
X13229887Y-10596326D02*
X13229887Y-10548707D01*
X13229887Y-10548707D02*
X13239410Y-10510612D01*
X13239410Y-10510612D02*
X13248934Y-10491564D01*
X13248934Y-10491564D02*
X13258458Y-10482041D01*
X13258458Y-10482041D02*
X13277506Y-10472517D01*
X13429887Y-10672517D02*
X13429887Y-10539183D01*
X13429887Y-10558231D02*
X13439410Y-10548707D01*
X13439410Y-10548707D02*
X13458458Y-10539183D01*
X13458458Y-10539183D02*
X13487030Y-10539183D01*
X13487030Y-10539183D02*
X13506077Y-10548707D01*
X13506077Y-10548707D02*
X13515601Y-10567755D01*
X13515601Y-10567755D02*
X13515601Y-10672517D01*
X13515601Y-10567755D02*
X13525125Y-10548707D01*
X13525125Y-10548707D02*
X13544172Y-10539183D01*
X13544172Y-10539183D02*
X13572744Y-10539183D01*
X13572744Y-10539183D02*
X13591791Y-10548707D01*
X13591791Y-10548707D02*
X13601315Y-10567755D01*
X13601315Y-10567755D02*
X13601315Y-10672517D01*
X13696553Y-10672517D02*
X13696553Y-10539183D01*
X13696553Y-10558231D02*
X13706077Y-10548707D01*
X13706077Y-10548707D02*
X13725125Y-10539183D01*
X13725125Y-10539183D02*
X13753696Y-10539183D01*
X13753696Y-10539183D02*
X13772744Y-10548707D01*
X13772744Y-10548707D02*
X13782268Y-10567755D01*
X13782268Y-10567755D02*
X13782268Y-10672517D01*
X13782268Y-10567755D02*
X13791791Y-10548707D01*
X13791791Y-10548707D02*
X13810839Y-10539183D01*
X13810839Y-10539183D02*
X13839410Y-10539183D01*
X13839410Y-10539183D02*
X13858458Y-10548707D01*
X13858458Y-10548707D02*
X13867982Y-10567755D01*
X13867982Y-10567755D02*
X13867982Y-10672517D01*
X14258458Y-10462993D02*
X14087030Y-10720136D01*
X14515601Y-10472517D02*
X14534649Y-10472517D01*
X14534649Y-10472517D02*
X14553696Y-10482041D01*
X14553696Y-10482041D02*
X14563220Y-10491564D01*
X14563220Y-10491564D02*
X14572744Y-10510612D01*
X14572744Y-10510612D02*
X14582268Y-10548707D01*
X14582268Y-10548707D02*
X14582268Y-10596326D01*
X14582268Y-10596326D02*
X14572744Y-10634422D01*
X14572744Y-10634422D02*
X14563220Y-10653469D01*
X14563220Y-10653469D02*
X14553696Y-10662993D01*
X14553696Y-10662993D02*
X14534649Y-10672517D01*
X14534649Y-10672517D02*
X14515601Y-10672517D01*
X14515601Y-10672517D02*
X14496553Y-10662993D01*
X14496553Y-10662993D02*
X14487030Y-10653469D01*
X14487030Y-10653469D02*
X14477506Y-10634422D01*
X14477506Y-10634422D02*
X14467982Y-10596326D01*
X14467982Y-10596326D02*
X14467982Y-10548707D01*
X14467982Y-10548707D02*
X14477506Y-10510612D01*
X14477506Y-10510612D02*
X14487030Y-10491564D01*
X14487030Y-10491564D02*
X14496553Y-10482041D01*
X14496553Y-10482041D02*
X14515601Y-10472517D01*
X14667982Y-10653469D02*
X14677506Y-10662993D01*
X14677506Y-10662993D02*
X14667982Y-10672517D01*
X14667982Y-10672517D02*
X14658458Y-10662993D01*
X14658458Y-10662993D02*
X14667982Y-10653469D01*
X14667982Y-10653469D02*
X14667982Y-10672517D01*
X14801315Y-10472517D02*
X14820363Y-10472517D01*
X14820363Y-10472517D02*
X14839411Y-10482041D01*
X14839411Y-10482041D02*
X14848934Y-10491564D01*
X14848934Y-10491564D02*
X14858458Y-10510612D01*
X14858458Y-10510612D02*
X14867982Y-10548707D01*
X14867982Y-10548707D02*
X14867982Y-10596326D01*
X14867982Y-10596326D02*
X14858458Y-10634422D01*
X14858458Y-10634422D02*
X14848934Y-10653469D01*
X14848934Y-10653469D02*
X14839411Y-10662993D01*
X14839411Y-10662993D02*
X14820363Y-10672517D01*
X14820363Y-10672517D02*
X14801315Y-10672517D01*
X14801315Y-10672517D02*
X14782268Y-10662993D01*
X14782268Y-10662993D02*
X14772744Y-10653469D01*
X14772744Y-10653469D02*
X14763220Y-10634422D01*
X14763220Y-10634422D02*
X14753696Y-10596326D01*
X14753696Y-10596326D02*
X14753696Y-10548707D01*
X14753696Y-10548707D02*
X14763220Y-10510612D01*
X14763220Y-10510612D02*
X14772744Y-10491564D01*
X14772744Y-10491564D02*
X14782268Y-10482041D01*
X14782268Y-10482041D02*
X14801315Y-10472517D01*
X15058458Y-10672517D02*
X14944173Y-10672517D01*
X15001315Y-10672517D02*
X15001315Y-10472517D01*
X15001315Y-10472517D02*
X14982268Y-10501088D01*
X14982268Y-10501088D02*
X14963220Y-10520136D01*
X14963220Y-10520136D02*
X14944173Y-10529660D01*
X15239411Y-10472517D02*
X15144173Y-10472517D01*
X15144173Y-10472517D02*
X15134649Y-10567755D01*
X15134649Y-10567755D02*
X15144173Y-10558231D01*
X15144173Y-10558231D02*
X15163220Y-10548707D01*
X15163220Y-10548707D02*
X15210839Y-10548707D01*
X15210839Y-10548707D02*
X15229887Y-10558231D01*
X15229887Y-10558231D02*
X15239411Y-10567755D01*
X15239411Y-10567755D02*
X15248934Y-10586803D01*
X15248934Y-10586803D02*
X15248934Y-10634422D01*
X15248934Y-10634422D02*
X15239411Y-10653469D01*
X15239411Y-10653469D02*
X15229887Y-10662993D01*
X15229887Y-10662993D02*
X15210839Y-10672517D01*
X15210839Y-10672517D02*
X15163220Y-10672517D01*
X15163220Y-10672517D02*
X15144173Y-10662993D01*
X15144173Y-10662993D02*
X15134649Y-10653469D01*
X15315601Y-10472517D02*
X15448934Y-10472517D01*
X15448934Y-10472517D02*
X15363220Y-10672517D01*
X15515601Y-10472517D02*
X15515601Y-10510612D01*
X15591792Y-10472517D02*
X15591792Y-10510612D01*
X15887030Y-10748707D02*
X15877506Y-10739183D01*
X15877506Y-10739183D02*
X15858458Y-10710612D01*
X15858458Y-10710612D02*
X15848935Y-10691564D01*
X15848935Y-10691564D02*
X15839411Y-10662993D01*
X15839411Y-10662993D02*
X15829887Y-10615374D01*
X15829887Y-10615374D02*
X15829887Y-10577279D01*
X15829887Y-10577279D02*
X15839411Y-10529660D01*
X15839411Y-10529660D02*
X15848935Y-10501088D01*
X15848935Y-10501088D02*
X15858458Y-10482041D01*
X15858458Y-10482041D02*
X15877506Y-10453469D01*
X15877506Y-10453469D02*
X15887030Y-10443945D01*
X16067982Y-10672517D02*
X15953696Y-10672517D01*
X16010839Y-10672517D02*
X16010839Y-10472517D01*
X16010839Y-10472517D02*
X15991792Y-10501088D01*
X15991792Y-10501088D02*
X15972744Y-10520136D01*
X15972744Y-10520136D02*
X15953696Y-10529660D01*
X16144173Y-10491564D02*
X16153696Y-10482041D01*
X16153696Y-10482041D02*
X16172744Y-10472517D01*
X16172744Y-10472517D02*
X16220363Y-10472517D01*
X16220363Y-10472517D02*
X16239411Y-10482041D01*
X16239411Y-10482041D02*
X16248935Y-10491564D01*
X16248935Y-10491564D02*
X16258458Y-10510612D01*
X16258458Y-10510612D02*
X16258458Y-10529660D01*
X16258458Y-10529660D02*
X16248935Y-10558231D01*
X16248935Y-10558231D02*
X16134649Y-10672517D01*
X16134649Y-10672517D02*
X16258458Y-10672517D01*
X16496554Y-10672517D02*
X16496554Y-10472517D01*
X16582268Y-10672517D02*
X16582268Y-10567755D01*
X16582268Y-10567755D02*
X16572744Y-10548707D01*
X16572744Y-10548707D02*
X16553697Y-10539183D01*
X16553697Y-10539183D02*
X16525125Y-10539183D01*
X16525125Y-10539183D02*
X16506077Y-10548707D01*
X16506077Y-10548707D02*
X16496554Y-10558231D01*
X16706077Y-10672517D02*
X16687030Y-10662993D01*
X16687030Y-10662993D02*
X16677506Y-10653469D01*
X16677506Y-10653469D02*
X16667982Y-10634422D01*
X16667982Y-10634422D02*
X16667982Y-10577279D01*
X16667982Y-10577279D02*
X16677506Y-10558231D01*
X16677506Y-10558231D02*
X16687030Y-10548707D01*
X16687030Y-10548707D02*
X16706077Y-10539183D01*
X16706077Y-10539183D02*
X16734649Y-10539183D01*
X16734649Y-10539183D02*
X16753697Y-10548707D01*
X16753697Y-10548707D02*
X16763220Y-10558231D01*
X16763220Y-10558231D02*
X16772744Y-10577279D01*
X16772744Y-10577279D02*
X16772744Y-10634422D01*
X16772744Y-10634422D02*
X16763220Y-10653469D01*
X16763220Y-10653469D02*
X16753697Y-10662993D01*
X16753697Y-10662993D02*
X16734649Y-10672517D01*
X16734649Y-10672517D02*
X16706077Y-10672517D01*
X16887030Y-10672517D02*
X16867982Y-10662993D01*
X16867982Y-10662993D02*
X16858459Y-10643945D01*
X16858459Y-10643945D02*
X16858459Y-10472517D01*
X17039411Y-10662993D02*
X17020363Y-10672517D01*
X17020363Y-10672517D02*
X16982268Y-10672517D01*
X16982268Y-10672517D02*
X16963220Y-10662993D01*
X16963220Y-10662993D02*
X16953697Y-10643945D01*
X16953697Y-10643945D02*
X16953697Y-10567755D01*
X16953697Y-10567755D02*
X16963220Y-10548707D01*
X16963220Y-10548707D02*
X16982268Y-10539183D01*
X16982268Y-10539183D02*
X17020363Y-10539183D01*
X17020363Y-10539183D02*
X17039411Y-10548707D01*
X17039411Y-10548707D02*
X17048935Y-10567755D01*
X17048935Y-10567755D02*
X17048935Y-10586803D01*
X17048935Y-10586803D02*
X16953697Y-10605850D01*
X17125125Y-10662993D02*
X17144173Y-10672517D01*
X17144173Y-10672517D02*
X17182268Y-10672517D01*
X17182268Y-10672517D02*
X17201316Y-10662993D01*
X17201316Y-10662993D02*
X17210840Y-10643945D01*
X17210840Y-10643945D02*
X17210840Y-10634422D01*
X17210840Y-10634422D02*
X17201316Y-10615374D01*
X17201316Y-10615374D02*
X17182268Y-10605850D01*
X17182268Y-10605850D02*
X17153697Y-10605850D01*
X17153697Y-10605850D02*
X17134649Y-10596326D01*
X17134649Y-10596326D02*
X17125125Y-10577279D01*
X17125125Y-10577279D02*
X17125125Y-10567755D01*
X17125125Y-10567755D02*
X17134649Y-10548707D01*
X17134649Y-10548707D02*
X17153697Y-10539183D01*
X17153697Y-10539183D02*
X17182268Y-10539183D01*
X17182268Y-10539183D02*
X17201316Y-10548707D01*
X17277506Y-10748707D02*
X17287030Y-10739183D01*
X17287030Y-10739183D02*
X17306078Y-10710612D01*
X17306078Y-10710612D02*
X17315601Y-10691564D01*
X17315601Y-10691564D02*
X17325125Y-10662993D01*
X17325125Y-10662993D02*
X17334649Y-10615374D01*
X17334649Y-10615374D02*
X17334649Y-10577279D01*
X17334649Y-10577279D02*
X17325125Y-10529660D01*
X17325125Y-10529660D02*
X17315601Y-10501088D01*
X17315601Y-10501088D02*
X17306078Y-10482041D01*
X17306078Y-10482041D02*
X17287030Y-10453469D01*
X17287030Y-10453469D02*
X17277506Y-10443945D01*
D12*
X12311967Y-10845033D02*
G75*
G02*
X12251967Y-10845033I-30000J0D01*
G01*
X12251967Y-10845033D02*
G75*
G02*
X12311967Y-10845033I30000J0D01*
G01*
D11*
X12610839Y-10736517D02*
X12629887Y-10736517D01*
X12629887Y-10736517D02*
X12648934Y-10746041D01*
X12648934Y-10746041D02*
X12658458Y-10755564D01*
X12658458Y-10755564D02*
X12667982Y-10774612D01*
X12667982Y-10774612D02*
X12677506Y-10812707D01*
X12677506Y-10812707D02*
X12677506Y-10860326D01*
X12677506Y-10860326D02*
X12667982Y-10898422D01*
X12667982Y-10898422D02*
X12658458Y-10917469D01*
X12658458Y-10917469D02*
X12648934Y-10926993D01*
X12648934Y-10926993D02*
X12629887Y-10936517D01*
X12629887Y-10936517D02*
X12610839Y-10936517D01*
X12610839Y-10936517D02*
X12591791Y-10926993D01*
X12591791Y-10926993D02*
X12582268Y-10917469D01*
X12582268Y-10917469D02*
X12572744Y-10898422D01*
X12572744Y-10898422D02*
X12563220Y-10860326D01*
X12563220Y-10860326D02*
X12563220Y-10812707D01*
X12563220Y-10812707D02*
X12572744Y-10774612D01*
X12572744Y-10774612D02*
X12582268Y-10755564D01*
X12582268Y-10755564D02*
X12591791Y-10746041D01*
X12591791Y-10746041D02*
X12610839Y-10736517D01*
X12763220Y-10917469D02*
X12772744Y-10926993D01*
X12772744Y-10926993D02*
X12763220Y-10936517D01*
X12763220Y-10936517D02*
X12753696Y-10926993D01*
X12753696Y-10926993D02*
X12763220Y-10917469D01*
X12763220Y-10917469D02*
X12763220Y-10936517D01*
X12944172Y-10736517D02*
X12906077Y-10736517D01*
X12906077Y-10736517D02*
X12887029Y-10746041D01*
X12887029Y-10746041D02*
X12877506Y-10755564D01*
X12877506Y-10755564D02*
X12858458Y-10784136D01*
X12858458Y-10784136D02*
X12848934Y-10822231D01*
X12848934Y-10822231D02*
X12848934Y-10898422D01*
X12848934Y-10898422D02*
X12858458Y-10917469D01*
X12858458Y-10917469D02*
X12867982Y-10926993D01*
X12867982Y-10926993D02*
X12887029Y-10936517D01*
X12887029Y-10936517D02*
X12925125Y-10936517D01*
X12925125Y-10936517D02*
X12944172Y-10926993D01*
X12944172Y-10926993D02*
X12953696Y-10917469D01*
X12953696Y-10917469D02*
X12963220Y-10898422D01*
X12963220Y-10898422D02*
X12963220Y-10850803D01*
X12963220Y-10850803D02*
X12953696Y-10831755D01*
X12953696Y-10831755D02*
X12944172Y-10822231D01*
X12944172Y-10822231D02*
X12925125Y-10812707D01*
X12925125Y-10812707D02*
X12887029Y-10812707D01*
X12887029Y-10812707D02*
X12867982Y-10822231D01*
X12867982Y-10822231D02*
X12858458Y-10831755D01*
X12858458Y-10831755D02*
X12848934Y-10850803D01*
X13087029Y-10736517D02*
X13106077Y-10736517D01*
X13106077Y-10736517D02*
X13125125Y-10746041D01*
X13125125Y-10746041D02*
X13134649Y-10755564D01*
X13134649Y-10755564D02*
X13144172Y-10774612D01*
X13144172Y-10774612D02*
X13153696Y-10812707D01*
X13153696Y-10812707D02*
X13153696Y-10860326D01*
X13153696Y-10860326D02*
X13144172Y-10898422D01*
X13144172Y-10898422D02*
X13134649Y-10917469D01*
X13134649Y-10917469D02*
X13125125Y-10926993D01*
X13125125Y-10926993D02*
X13106077Y-10936517D01*
X13106077Y-10936517D02*
X13087029Y-10936517D01*
X13087029Y-10936517D02*
X13067982Y-10926993D01*
X13067982Y-10926993D02*
X13058458Y-10917469D01*
X13058458Y-10917469D02*
X13048934Y-10898422D01*
X13048934Y-10898422D02*
X13039410Y-10860326D01*
X13039410Y-10860326D02*
X13039410Y-10812707D01*
X13039410Y-10812707D02*
X13048934Y-10774612D01*
X13048934Y-10774612D02*
X13058458Y-10755564D01*
X13058458Y-10755564D02*
X13067982Y-10746041D01*
X13067982Y-10746041D02*
X13087029Y-10736517D01*
X13277506Y-10736517D02*
X13296553Y-10736517D01*
X13296553Y-10736517D02*
X13315601Y-10746041D01*
X13315601Y-10746041D02*
X13325125Y-10755564D01*
X13325125Y-10755564D02*
X13334649Y-10774612D01*
X13334649Y-10774612D02*
X13344172Y-10812707D01*
X13344172Y-10812707D02*
X13344172Y-10860326D01*
X13344172Y-10860326D02*
X13334649Y-10898422D01*
X13334649Y-10898422D02*
X13325125Y-10917469D01*
X13325125Y-10917469D02*
X13315601Y-10926993D01*
X13315601Y-10926993D02*
X13296553Y-10936517D01*
X13296553Y-10936517D02*
X13277506Y-10936517D01*
X13277506Y-10936517D02*
X13258458Y-10926993D01*
X13258458Y-10926993D02*
X13248934Y-10917469D01*
X13248934Y-10917469D02*
X13239410Y-10898422D01*
X13239410Y-10898422D02*
X13229887Y-10860326D01*
X13229887Y-10860326D02*
X13229887Y-10812707D01*
X13229887Y-10812707D02*
X13239410Y-10774612D01*
X13239410Y-10774612D02*
X13248934Y-10755564D01*
X13248934Y-10755564D02*
X13258458Y-10746041D01*
X13258458Y-10746041D02*
X13277506Y-10736517D01*
X13429887Y-10936517D02*
X13429887Y-10803183D01*
X13429887Y-10822231D02*
X13439410Y-10812707D01*
X13439410Y-10812707D02*
X13458458Y-10803183D01*
X13458458Y-10803183D02*
X13487030Y-10803183D01*
X13487030Y-10803183D02*
X13506077Y-10812707D01*
X13506077Y-10812707D02*
X13515601Y-10831755D01*
X13515601Y-10831755D02*
X13515601Y-10936517D01*
X13515601Y-10831755D02*
X13525125Y-10812707D01*
X13525125Y-10812707D02*
X13544172Y-10803183D01*
X13544172Y-10803183D02*
X13572744Y-10803183D01*
X13572744Y-10803183D02*
X13591791Y-10812707D01*
X13591791Y-10812707D02*
X13601315Y-10831755D01*
X13601315Y-10831755D02*
X13601315Y-10936517D01*
X13696553Y-10936517D02*
X13696553Y-10803183D01*
X13696553Y-10822231D02*
X13706077Y-10812707D01*
X13706077Y-10812707D02*
X13725125Y-10803183D01*
X13725125Y-10803183D02*
X13753696Y-10803183D01*
X13753696Y-10803183D02*
X13772744Y-10812707D01*
X13772744Y-10812707D02*
X13782268Y-10831755D01*
X13782268Y-10831755D02*
X13782268Y-10936517D01*
X13782268Y-10831755D02*
X13791791Y-10812707D01*
X13791791Y-10812707D02*
X13810839Y-10803183D01*
X13810839Y-10803183D02*
X13839410Y-10803183D01*
X13839410Y-10803183D02*
X13858458Y-10812707D01*
X13858458Y-10812707D02*
X13867982Y-10831755D01*
X13867982Y-10831755D02*
X13867982Y-10936517D01*
X14258458Y-10726993D02*
X14087030Y-10984136D01*
X14515601Y-10736517D02*
X14534649Y-10736517D01*
X14534649Y-10736517D02*
X14553696Y-10746041D01*
X14553696Y-10746041D02*
X14563220Y-10755564D01*
X14563220Y-10755564D02*
X14572744Y-10774612D01*
X14572744Y-10774612D02*
X14582268Y-10812707D01*
X14582268Y-10812707D02*
X14582268Y-10860326D01*
X14582268Y-10860326D02*
X14572744Y-10898422D01*
X14572744Y-10898422D02*
X14563220Y-10917469D01*
X14563220Y-10917469D02*
X14553696Y-10926993D01*
X14553696Y-10926993D02*
X14534649Y-10936517D01*
X14534649Y-10936517D02*
X14515601Y-10936517D01*
X14515601Y-10936517D02*
X14496553Y-10926993D01*
X14496553Y-10926993D02*
X14487030Y-10917469D01*
X14487030Y-10917469D02*
X14477506Y-10898422D01*
X14477506Y-10898422D02*
X14467982Y-10860326D01*
X14467982Y-10860326D02*
X14467982Y-10812707D01*
X14467982Y-10812707D02*
X14477506Y-10774612D01*
X14477506Y-10774612D02*
X14487030Y-10755564D01*
X14487030Y-10755564D02*
X14496553Y-10746041D01*
X14496553Y-10746041D02*
X14515601Y-10736517D01*
X14667982Y-10917469D02*
X14677506Y-10926993D01*
X14677506Y-10926993D02*
X14667982Y-10936517D01*
X14667982Y-10936517D02*
X14658458Y-10926993D01*
X14658458Y-10926993D02*
X14667982Y-10917469D01*
X14667982Y-10917469D02*
X14667982Y-10936517D01*
X14801315Y-10736517D02*
X14820363Y-10736517D01*
X14820363Y-10736517D02*
X14839411Y-10746041D01*
X14839411Y-10746041D02*
X14848934Y-10755564D01*
X14848934Y-10755564D02*
X14858458Y-10774612D01*
X14858458Y-10774612D02*
X14867982Y-10812707D01*
X14867982Y-10812707D02*
X14867982Y-10860326D01*
X14867982Y-10860326D02*
X14858458Y-10898422D01*
X14858458Y-10898422D02*
X14848934Y-10917469D01*
X14848934Y-10917469D02*
X14839411Y-10926993D01*
X14839411Y-10926993D02*
X14820363Y-10936517D01*
X14820363Y-10936517D02*
X14801315Y-10936517D01*
X14801315Y-10936517D02*
X14782268Y-10926993D01*
X14782268Y-10926993D02*
X14772744Y-10917469D01*
X14772744Y-10917469D02*
X14763220Y-10898422D01*
X14763220Y-10898422D02*
X14753696Y-10860326D01*
X14753696Y-10860326D02*
X14753696Y-10812707D01*
X14753696Y-10812707D02*
X14763220Y-10774612D01*
X14763220Y-10774612D02*
X14772744Y-10755564D01*
X14772744Y-10755564D02*
X14782268Y-10746041D01*
X14782268Y-10746041D02*
X14801315Y-10736517D01*
X14944173Y-10755564D02*
X14953696Y-10746041D01*
X14953696Y-10746041D02*
X14972744Y-10736517D01*
X14972744Y-10736517D02*
X15020363Y-10736517D01*
X15020363Y-10736517D02*
X15039411Y-10746041D01*
X15039411Y-10746041D02*
X15048934Y-10755564D01*
X15048934Y-10755564D02*
X15058458Y-10774612D01*
X15058458Y-10774612D02*
X15058458Y-10793660D01*
X15058458Y-10793660D02*
X15048934Y-10822231D01*
X15048934Y-10822231D02*
X14934649Y-10936517D01*
X14934649Y-10936517D02*
X15058458Y-10936517D01*
X15125125Y-10736517D02*
X15248934Y-10736517D01*
X15248934Y-10736517D02*
X15182268Y-10812707D01*
X15182268Y-10812707D02*
X15210839Y-10812707D01*
X15210839Y-10812707D02*
X15229887Y-10822231D01*
X15229887Y-10822231D02*
X15239411Y-10831755D01*
X15239411Y-10831755D02*
X15248934Y-10850803D01*
X15248934Y-10850803D02*
X15248934Y-10898422D01*
X15248934Y-10898422D02*
X15239411Y-10917469D01*
X15239411Y-10917469D02*
X15229887Y-10926993D01*
X15229887Y-10926993D02*
X15210839Y-10936517D01*
X15210839Y-10936517D02*
X15153696Y-10936517D01*
X15153696Y-10936517D02*
X15134649Y-10926993D01*
X15134649Y-10926993D02*
X15125125Y-10917469D01*
X15420363Y-10736517D02*
X15382268Y-10736517D01*
X15382268Y-10736517D02*
X15363220Y-10746041D01*
X15363220Y-10746041D02*
X15353696Y-10755564D01*
X15353696Y-10755564D02*
X15334649Y-10784136D01*
X15334649Y-10784136D02*
X15325125Y-10822231D01*
X15325125Y-10822231D02*
X15325125Y-10898422D01*
X15325125Y-10898422D02*
X15334649Y-10917469D01*
X15334649Y-10917469D02*
X15344173Y-10926993D01*
X15344173Y-10926993D02*
X15363220Y-10936517D01*
X15363220Y-10936517D02*
X15401315Y-10936517D01*
X15401315Y-10936517D02*
X15420363Y-10926993D01*
X15420363Y-10926993D02*
X15429887Y-10917469D01*
X15429887Y-10917469D02*
X15439411Y-10898422D01*
X15439411Y-10898422D02*
X15439411Y-10850803D01*
X15439411Y-10850803D02*
X15429887Y-10831755D01*
X15429887Y-10831755D02*
X15420363Y-10822231D01*
X15420363Y-10822231D02*
X15401315Y-10812707D01*
X15401315Y-10812707D02*
X15363220Y-10812707D01*
X15363220Y-10812707D02*
X15344173Y-10822231D01*
X15344173Y-10822231D02*
X15334649Y-10831755D01*
X15334649Y-10831755D02*
X15325125Y-10850803D01*
X15515601Y-10736517D02*
X15515601Y-10774612D01*
X15591792Y-10736517D02*
X15591792Y-10774612D01*
X15887030Y-11012707D02*
X15877506Y-11003183D01*
X15877506Y-11003183D02*
X15858458Y-10974612D01*
X15858458Y-10974612D02*
X15848935Y-10955564D01*
X15848935Y-10955564D02*
X15839411Y-10926993D01*
X15839411Y-10926993D02*
X15829887Y-10879374D01*
X15829887Y-10879374D02*
X15829887Y-10841279D01*
X15829887Y-10841279D02*
X15839411Y-10793660D01*
X15839411Y-10793660D02*
X15848935Y-10765088D01*
X15848935Y-10765088D02*
X15858458Y-10746041D01*
X15858458Y-10746041D02*
X15877506Y-10717469D01*
X15877506Y-10717469D02*
X15887030Y-10707945D01*
X15953696Y-10755564D02*
X15963220Y-10746041D01*
X15963220Y-10746041D02*
X15982268Y-10736517D01*
X15982268Y-10736517D02*
X16029887Y-10736517D01*
X16029887Y-10736517D02*
X16048935Y-10746041D01*
X16048935Y-10746041D02*
X16058458Y-10755564D01*
X16058458Y-10755564D02*
X16067982Y-10774612D01*
X16067982Y-10774612D02*
X16067982Y-10793660D01*
X16067982Y-10793660D02*
X16058458Y-10822231D01*
X16058458Y-10822231D02*
X15944173Y-10936517D01*
X15944173Y-10936517D02*
X16067982Y-10936517D01*
X16306077Y-10936517D02*
X16306077Y-10736517D01*
X16391792Y-10936517D02*
X16391792Y-10831755D01*
X16391792Y-10831755D02*
X16382268Y-10812707D01*
X16382268Y-10812707D02*
X16363220Y-10803183D01*
X16363220Y-10803183D02*
X16334649Y-10803183D01*
X16334649Y-10803183D02*
X16315601Y-10812707D01*
X16315601Y-10812707D02*
X16306077Y-10822231D01*
X16515601Y-10936517D02*
X16496554Y-10926993D01*
X16496554Y-10926993D02*
X16487030Y-10917469D01*
X16487030Y-10917469D02*
X16477506Y-10898422D01*
X16477506Y-10898422D02*
X16477506Y-10841279D01*
X16477506Y-10841279D02*
X16487030Y-10822231D01*
X16487030Y-10822231D02*
X16496554Y-10812707D01*
X16496554Y-10812707D02*
X16515601Y-10803183D01*
X16515601Y-10803183D02*
X16544173Y-10803183D01*
X16544173Y-10803183D02*
X16563220Y-10812707D01*
X16563220Y-10812707D02*
X16572744Y-10822231D01*
X16572744Y-10822231D02*
X16582268Y-10841279D01*
X16582268Y-10841279D02*
X16582268Y-10898422D01*
X16582268Y-10898422D02*
X16572744Y-10917469D01*
X16572744Y-10917469D02*
X16563220Y-10926993D01*
X16563220Y-10926993D02*
X16544173Y-10936517D01*
X16544173Y-10936517D02*
X16515601Y-10936517D01*
X16696554Y-10936517D02*
X16677506Y-10926993D01*
X16677506Y-10926993D02*
X16667982Y-10907945D01*
X16667982Y-10907945D02*
X16667982Y-10736517D01*
X16848935Y-10926993D02*
X16829887Y-10936517D01*
X16829887Y-10936517D02*
X16791792Y-10936517D01*
X16791792Y-10936517D02*
X16772744Y-10926993D01*
X16772744Y-10926993D02*
X16763220Y-10907945D01*
X16763220Y-10907945D02*
X16763220Y-10831755D01*
X16763220Y-10831755D02*
X16772744Y-10812707D01*
X16772744Y-10812707D02*
X16791792Y-10803183D01*
X16791792Y-10803183D02*
X16829887Y-10803183D01*
X16829887Y-10803183D02*
X16848935Y-10812707D01*
X16848935Y-10812707D02*
X16858459Y-10831755D01*
X16858459Y-10831755D02*
X16858459Y-10850803D01*
X16858459Y-10850803D02*
X16763220Y-10869850D01*
X16934649Y-10926993D02*
X16953697Y-10936517D01*
X16953697Y-10936517D02*
X16991792Y-10936517D01*
X16991792Y-10936517D02*
X17010840Y-10926993D01*
X17010840Y-10926993D02*
X17020363Y-10907945D01*
X17020363Y-10907945D02*
X17020363Y-10898422D01*
X17020363Y-10898422D02*
X17010840Y-10879374D01*
X17010840Y-10879374D02*
X16991792Y-10869850D01*
X16991792Y-10869850D02*
X16963220Y-10869850D01*
X16963220Y-10869850D02*
X16944173Y-10860326D01*
X16944173Y-10860326D02*
X16934649Y-10841279D01*
X16934649Y-10841279D02*
X16934649Y-10831755D01*
X16934649Y-10831755D02*
X16944173Y-10812707D01*
X16944173Y-10812707D02*
X16963220Y-10803183D01*
X16963220Y-10803183D02*
X16991792Y-10803183D01*
X16991792Y-10803183D02*
X17010840Y-10812707D01*
X17087030Y-11012707D02*
X17096554Y-11003183D01*
X17096554Y-11003183D02*
X17115601Y-10974612D01*
X17115601Y-10974612D02*
X17125125Y-10955564D01*
X17125125Y-10955564D02*
X17134649Y-10926993D01*
X17134649Y-10926993D02*
X17144173Y-10879374D01*
X17144173Y-10879374D02*
X17144173Y-10841279D01*
X17144173Y-10841279D02*
X17134649Y-10793660D01*
X17134649Y-10793660D02*
X17125125Y-10765088D01*
X17125125Y-10765088D02*
X17115601Y-10746041D01*
X17115601Y-10746041D02*
X17096554Y-10717469D01*
X17096554Y-10717469D02*
X17087030Y-10707945D01*
D12*
X12271967Y-11069033D02*
X12271967Y-11149033D01*
X12231967Y-11109033D02*
X12311967Y-11109033D01*
D11*
X12610839Y-11000517D02*
X12629887Y-11000517D01*
X12629887Y-11000517D02*
X12648934Y-11010041D01*
X12648934Y-11010041D02*
X12658458Y-11019564D01*
X12658458Y-11019564D02*
X12667982Y-11038612D01*
X12667982Y-11038612D02*
X12677506Y-11076707D01*
X12677506Y-11076707D02*
X12677506Y-11124326D01*
X12677506Y-11124326D02*
X12667982Y-11162422D01*
X12667982Y-11162422D02*
X12658458Y-11181469D01*
X12658458Y-11181469D02*
X12648934Y-11190993D01*
X12648934Y-11190993D02*
X12629887Y-11200517D01*
X12629887Y-11200517D02*
X12610839Y-11200517D01*
X12610839Y-11200517D02*
X12591791Y-11190993D01*
X12591791Y-11190993D02*
X12582268Y-11181469D01*
X12582268Y-11181469D02*
X12572744Y-11162422D01*
X12572744Y-11162422D02*
X12563220Y-11124326D01*
X12563220Y-11124326D02*
X12563220Y-11076707D01*
X12563220Y-11076707D02*
X12572744Y-11038612D01*
X12572744Y-11038612D02*
X12582268Y-11019564D01*
X12582268Y-11019564D02*
X12591791Y-11010041D01*
X12591791Y-11010041D02*
X12610839Y-11000517D01*
X12763220Y-11181469D02*
X12772744Y-11190993D01*
X12772744Y-11190993D02*
X12763220Y-11200517D01*
X12763220Y-11200517D02*
X12753696Y-11190993D01*
X12753696Y-11190993D02*
X12763220Y-11181469D01*
X12763220Y-11181469D02*
X12763220Y-11200517D01*
X12887029Y-11086231D02*
X12867982Y-11076707D01*
X12867982Y-11076707D02*
X12858458Y-11067183D01*
X12858458Y-11067183D02*
X12848934Y-11048136D01*
X12848934Y-11048136D02*
X12848934Y-11038612D01*
X12848934Y-11038612D02*
X12858458Y-11019564D01*
X12858458Y-11019564D02*
X12867982Y-11010041D01*
X12867982Y-11010041D02*
X12887029Y-11000517D01*
X12887029Y-11000517D02*
X12925125Y-11000517D01*
X12925125Y-11000517D02*
X12944172Y-11010041D01*
X12944172Y-11010041D02*
X12953696Y-11019564D01*
X12953696Y-11019564D02*
X12963220Y-11038612D01*
X12963220Y-11038612D02*
X12963220Y-11048136D01*
X12963220Y-11048136D02*
X12953696Y-11067183D01*
X12953696Y-11067183D02*
X12944172Y-11076707D01*
X12944172Y-11076707D02*
X12925125Y-11086231D01*
X12925125Y-11086231D02*
X12887029Y-11086231D01*
X12887029Y-11086231D02*
X12867982Y-11095755D01*
X12867982Y-11095755D02*
X12858458Y-11105279D01*
X12858458Y-11105279D02*
X12848934Y-11124326D01*
X12848934Y-11124326D02*
X12848934Y-11162422D01*
X12848934Y-11162422D02*
X12858458Y-11181469D01*
X12858458Y-11181469D02*
X12867982Y-11190993D01*
X12867982Y-11190993D02*
X12887029Y-11200517D01*
X12887029Y-11200517D02*
X12925125Y-11200517D01*
X12925125Y-11200517D02*
X12944172Y-11190993D01*
X12944172Y-11190993D02*
X12953696Y-11181469D01*
X12953696Y-11181469D02*
X12963220Y-11162422D01*
X12963220Y-11162422D02*
X12963220Y-11124326D01*
X12963220Y-11124326D02*
X12953696Y-11105279D01*
X12953696Y-11105279D02*
X12944172Y-11095755D01*
X12944172Y-11095755D02*
X12925125Y-11086231D01*
X13087029Y-11000517D02*
X13106077Y-11000517D01*
X13106077Y-11000517D02*
X13125125Y-11010041D01*
X13125125Y-11010041D02*
X13134649Y-11019564D01*
X13134649Y-11019564D02*
X13144172Y-11038612D01*
X13144172Y-11038612D02*
X13153696Y-11076707D01*
X13153696Y-11076707D02*
X13153696Y-11124326D01*
X13153696Y-11124326D02*
X13144172Y-11162422D01*
X13144172Y-11162422D02*
X13134649Y-11181469D01*
X13134649Y-11181469D02*
X13125125Y-11190993D01*
X13125125Y-11190993D02*
X13106077Y-11200517D01*
X13106077Y-11200517D02*
X13087029Y-11200517D01*
X13087029Y-11200517D02*
X13067982Y-11190993D01*
X13067982Y-11190993D02*
X13058458Y-11181469D01*
X13058458Y-11181469D02*
X13048934Y-11162422D01*
X13048934Y-11162422D02*
X13039410Y-11124326D01*
X13039410Y-11124326D02*
X13039410Y-11076707D01*
X13039410Y-11076707D02*
X13048934Y-11038612D01*
X13048934Y-11038612D02*
X13058458Y-11019564D01*
X13058458Y-11019564D02*
X13067982Y-11010041D01*
X13067982Y-11010041D02*
X13087029Y-11000517D01*
X13277506Y-11000517D02*
X13296553Y-11000517D01*
X13296553Y-11000517D02*
X13315601Y-11010041D01*
X13315601Y-11010041D02*
X13325125Y-11019564D01*
X13325125Y-11019564D02*
X13334649Y-11038612D01*
X13334649Y-11038612D02*
X13344172Y-11076707D01*
X13344172Y-11076707D02*
X13344172Y-11124326D01*
X13344172Y-11124326D02*
X13334649Y-11162422D01*
X13334649Y-11162422D02*
X13325125Y-11181469D01*
X13325125Y-11181469D02*
X13315601Y-11190993D01*
X13315601Y-11190993D02*
X13296553Y-11200517D01*
X13296553Y-11200517D02*
X13277506Y-11200517D01*
X13277506Y-11200517D02*
X13258458Y-11190993D01*
X13258458Y-11190993D02*
X13248934Y-11181469D01*
X13248934Y-11181469D02*
X13239410Y-11162422D01*
X13239410Y-11162422D02*
X13229887Y-11124326D01*
X13229887Y-11124326D02*
X13229887Y-11076707D01*
X13229887Y-11076707D02*
X13239410Y-11038612D01*
X13239410Y-11038612D02*
X13248934Y-11019564D01*
X13248934Y-11019564D02*
X13258458Y-11010041D01*
X13258458Y-11010041D02*
X13277506Y-11000517D01*
X13429887Y-11200517D02*
X13429887Y-11067183D01*
X13429887Y-11086231D02*
X13439410Y-11076707D01*
X13439410Y-11076707D02*
X13458458Y-11067183D01*
X13458458Y-11067183D02*
X13487030Y-11067183D01*
X13487030Y-11067183D02*
X13506077Y-11076707D01*
X13506077Y-11076707D02*
X13515601Y-11095755D01*
X13515601Y-11095755D02*
X13515601Y-11200517D01*
X13515601Y-11095755D02*
X13525125Y-11076707D01*
X13525125Y-11076707D02*
X13544172Y-11067183D01*
X13544172Y-11067183D02*
X13572744Y-11067183D01*
X13572744Y-11067183D02*
X13591791Y-11076707D01*
X13591791Y-11076707D02*
X13601315Y-11095755D01*
X13601315Y-11095755D02*
X13601315Y-11200517D01*
X13696553Y-11200517D02*
X13696553Y-11067183D01*
X13696553Y-11086231D02*
X13706077Y-11076707D01*
X13706077Y-11076707D02*
X13725125Y-11067183D01*
X13725125Y-11067183D02*
X13753696Y-11067183D01*
X13753696Y-11067183D02*
X13772744Y-11076707D01*
X13772744Y-11076707D02*
X13782268Y-11095755D01*
X13782268Y-11095755D02*
X13782268Y-11200517D01*
X13782268Y-11095755D02*
X13791791Y-11076707D01*
X13791791Y-11076707D02*
X13810839Y-11067183D01*
X13810839Y-11067183D02*
X13839410Y-11067183D01*
X13839410Y-11067183D02*
X13858458Y-11076707D01*
X13858458Y-11076707D02*
X13867982Y-11095755D01*
X13867982Y-11095755D02*
X13867982Y-11200517D01*
X14258458Y-10990993D02*
X14087030Y-11248136D01*
X14515601Y-11000517D02*
X14534649Y-11000517D01*
X14534649Y-11000517D02*
X14553696Y-11010041D01*
X14553696Y-11010041D02*
X14563220Y-11019564D01*
X14563220Y-11019564D02*
X14572744Y-11038612D01*
X14572744Y-11038612D02*
X14582268Y-11076707D01*
X14582268Y-11076707D02*
X14582268Y-11124326D01*
X14582268Y-11124326D02*
X14572744Y-11162422D01*
X14572744Y-11162422D02*
X14563220Y-11181469D01*
X14563220Y-11181469D02*
X14553696Y-11190993D01*
X14553696Y-11190993D02*
X14534649Y-11200517D01*
X14534649Y-11200517D02*
X14515601Y-11200517D01*
X14515601Y-11200517D02*
X14496553Y-11190993D01*
X14496553Y-11190993D02*
X14487030Y-11181469D01*
X14487030Y-11181469D02*
X14477506Y-11162422D01*
X14477506Y-11162422D02*
X14467982Y-11124326D01*
X14467982Y-11124326D02*
X14467982Y-11076707D01*
X14467982Y-11076707D02*
X14477506Y-11038612D01*
X14477506Y-11038612D02*
X14487030Y-11019564D01*
X14487030Y-11019564D02*
X14496553Y-11010041D01*
X14496553Y-11010041D02*
X14515601Y-11000517D01*
X14667982Y-11181469D02*
X14677506Y-11190993D01*
X14677506Y-11190993D02*
X14667982Y-11200517D01*
X14667982Y-11200517D02*
X14658458Y-11190993D01*
X14658458Y-11190993D02*
X14667982Y-11181469D01*
X14667982Y-11181469D02*
X14667982Y-11200517D01*
X14801315Y-11000517D02*
X14820363Y-11000517D01*
X14820363Y-11000517D02*
X14839411Y-11010041D01*
X14839411Y-11010041D02*
X14848934Y-11019564D01*
X14848934Y-11019564D02*
X14858458Y-11038612D01*
X14858458Y-11038612D02*
X14867982Y-11076707D01*
X14867982Y-11076707D02*
X14867982Y-11124326D01*
X14867982Y-11124326D02*
X14858458Y-11162422D01*
X14858458Y-11162422D02*
X14848934Y-11181469D01*
X14848934Y-11181469D02*
X14839411Y-11190993D01*
X14839411Y-11190993D02*
X14820363Y-11200517D01*
X14820363Y-11200517D02*
X14801315Y-11200517D01*
X14801315Y-11200517D02*
X14782268Y-11190993D01*
X14782268Y-11190993D02*
X14772744Y-11181469D01*
X14772744Y-11181469D02*
X14763220Y-11162422D01*
X14763220Y-11162422D02*
X14753696Y-11124326D01*
X14753696Y-11124326D02*
X14753696Y-11076707D01*
X14753696Y-11076707D02*
X14763220Y-11038612D01*
X14763220Y-11038612D02*
X14772744Y-11019564D01*
X14772744Y-11019564D02*
X14782268Y-11010041D01*
X14782268Y-11010041D02*
X14801315Y-11000517D01*
X14934649Y-11000517D02*
X15058458Y-11000517D01*
X15058458Y-11000517D02*
X14991792Y-11076707D01*
X14991792Y-11076707D02*
X15020363Y-11076707D01*
X15020363Y-11076707D02*
X15039411Y-11086231D01*
X15039411Y-11086231D02*
X15048934Y-11095755D01*
X15048934Y-11095755D02*
X15058458Y-11114803D01*
X15058458Y-11114803D02*
X15058458Y-11162422D01*
X15058458Y-11162422D02*
X15048934Y-11181469D01*
X15048934Y-11181469D02*
X15039411Y-11190993D01*
X15039411Y-11190993D02*
X15020363Y-11200517D01*
X15020363Y-11200517D02*
X14963220Y-11200517D01*
X14963220Y-11200517D02*
X14944173Y-11190993D01*
X14944173Y-11190993D02*
X14934649Y-11181469D01*
X15248934Y-11200517D02*
X15134649Y-11200517D01*
X15191792Y-11200517D02*
X15191792Y-11000517D01*
X15191792Y-11000517D02*
X15172744Y-11029088D01*
X15172744Y-11029088D02*
X15153696Y-11048136D01*
X15153696Y-11048136D02*
X15134649Y-11057660D01*
X15429887Y-11000517D02*
X15334649Y-11000517D01*
X15334649Y-11000517D02*
X15325125Y-11095755D01*
X15325125Y-11095755D02*
X15334649Y-11086231D01*
X15334649Y-11086231D02*
X15353696Y-11076707D01*
X15353696Y-11076707D02*
X15401315Y-11076707D01*
X15401315Y-11076707D02*
X15420363Y-11086231D01*
X15420363Y-11086231D02*
X15429887Y-11095755D01*
X15429887Y-11095755D02*
X15439411Y-11114803D01*
X15439411Y-11114803D02*
X15439411Y-11162422D01*
X15439411Y-11162422D02*
X15429887Y-11181469D01*
X15429887Y-11181469D02*
X15420363Y-11190993D01*
X15420363Y-11190993D02*
X15401315Y-11200517D01*
X15401315Y-11200517D02*
X15353696Y-11200517D01*
X15353696Y-11200517D02*
X15334649Y-11190993D01*
X15334649Y-11190993D02*
X15325125Y-11181469D01*
X15515601Y-11000517D02*
X15515601Y-11038612D01*
X15591792Y-11000517D02*
X15591792Y-11038612D01*
X15887030Y-11276707D02*
X15877506Y-11267183D01*
X15877506Y-11267183D02*
X15858458Y-11238612D01*
X15858458Y-11238612D02*
X15848935Y-11219564D01*
X15848935Y-11219564D02*
X15839411Y-11190993D01*
X15839411Y-11190993D02*
X15829887Y-11143374D01*
X15829887Y-11143374D02*
X15829887Y-11105279D01*
X15829887Y-11105279D02*
X15839411Y-11057660D01*
X15839411Y-11057660D02*
X15848935Y-11029088D01*
X15848935Y-11029088D02*
X15858458Y-11010041D01*
X15858458Y-11010041D02*
X15877506Y-10981469D01*
X15877506Y-10981469D02*
X15887030Y-10971945D01*
X16067982Y-11200517D02*
X15953696Y-11200517D01*
X16010839Y-11200517D02*
X16010839Y-11000517D01*
X16010839Y-11000517D02*
X15991792Y-11029088D01*
X15991792Y-11029088D02*
X15972744Y-11048136D01*
X15972744Y-11048136D02*
X15953696Y-11057660D01*
X16306077Y-11200517D02*
X16306077Y-11000517D01*
X16391792Y-11200517D02*
X16391792Y-11095755D01*
X16391792Y-11095755D02*
X16382268Y-11076707D01*
X16382268Y-11076707D02*
X16363220Y-11067183D01*
X16363220Y-11067183D02*
X16334649Y-11067183D01*
X16334649Y-11067183D02*
X16315601Y-11076707D01*
X16315601Y-11076707D02*
X16306077Y-11086231D01*
X16515601Y-11200517D02*
X16496554Y-11190993D01*
X16496554Y-11190993D02*
X16487030Y-11181469D01*
X16487030Y-11181469D02*
X16477506Y-11162422D01*
X16477506Y-11162422D02*
X16477506Y-11105279D01*
X16477506Y-11105279D02*
X16487030Y-11086231D01*
X16487030Y-11086231D02*
X16496554Y-11076707D01*
X16496554Y-11076707D02*
X16515601Y-11067183D01*
X16515601Y-11067183D02*
X16544173Y-11067183D01*
X16544173Y-11067183D02*
X16563220Y-11076707D01*
X16563220Y-11076707D02*
X16572744Y-11086231D01*
X16572744Y-11086231D02*
X16582268Y-11105279D01*
X16582268Y-11105279D02*
X16582268Y-11162422D01*
X16582268Y-11162422D02*
X16572744Y-11181469D01*
X16572744Y-11181469D02*
X16563220Y-11190993D01*
X16563220Y-11190993D02*
X16544173Y-11200517D01*
X16544173Y-11200517D02*
X16515601Y-11200517D01*
X16696554Y-11200517D02*
X16677506Y-11190993D01*
X16677506Y-11190993D02*
X16667982Y-11171945D01*
X16667982Y-11171945D02*
X16667982Y-11000517D01*
X16848935Y-11190993D02*
X16829887Y-11200517D01*
X16829887Y-11200517D02*
X16791792Y-11200517D01*
X16791792Y-11200517D02*
X16772744Y-11190993D01*
X16772744Y-11190993D02*
X16763220Y-11171945D01*
X16763220Y-11171945D02*
X16763220Y-11095755D01*
X16763220Y-11095755D02*
X16772744Y-11076707D01*
X16772744Y-11076707D02*
X16791792Y-11067183D01*
X16791792Y-11067183D02*
X16829887Y-11067183D01*
X16829887Y-11067183D02*
X16848935Y-11076707D01*
X16848935Y-11076707D02*
X16858459Y-11095755D01*
X16858459Y-11095755D02*
X16858459Y-11114803D01*
X16858459Y-11114803D02*
X16763220Y-11133850D01*
X16925125Y-11276707D02*
X16934649Y-11267183D01*
X16934649Y-11267183D02*
X16953697Y-11238612D01*
X16953697Y-11238612D02*
X16963220Y-11219564D01*
X16963220Y-11219564D02*
X16972744Y-11190993D01*
X16972744Y-11190993D02*
X16982268Y-11143374D01*
X16982268Y-11143374D02*
X16982268Y-11105279D01*
X16982268Y-11105279D02*
X16972744Y-11057660D01*
X16972744Y-11057660D02*
X16963220Y-11029088D01*
X16963220Y-11029088D02*
X16953697Y-11010041D01*
X16953697Y-11010041D02*
X16934649Y-10981469D01*
X16934649Y-10981469D02*
X16925125Y-10971945D01*
D12*
X12300251Y-11401317D02*
X12300251Y-11344748D01*
X12243682Y-11344748D01*
X12243682Y-11401317D01*
X12300251Y-11401317D01*
D11*
X12610839Y-11264517D02*
X12629887Y-11264517D01*
X12629887Y-11264517D02*
X12648934Y-11274041D01*
X12648934Y-11274041D02*
X12658458Y-11283564D01*
X12658458Y-11283564D02*
X12667982Y-11302612D01*
X12667982Y-11302612D02*
X12677506Y-11340707D01*
X12677506Y-11340707D02*
X12677506Y-11388326D01*
X12677506Y-11388326D02*
X12667982Y-11426421D01*
X12667982Y-11426421D02*
X12658458Y-11445469D01*
X12658458Y-11445469D02*
X12648934Y-11454993D01*
X12648934Y-11454993D02*
X12629887Y-11464517D01*
X12629887Y-11464517D02*
X12610839Y-11464517D01*
X12610839Y-11464517D02*
X12591791Y-11454993D01*
X12591791Y-11454993D02*
X12582268Y-11445469D01*
X12582268Y-11445469D02*
X12572744Y-11426421D01*
X12572744Y-11426421D02*
X12563220Y-11388326D01*
X12563220Y-11388326D02*
X12563220Y-11340707D01*
X12563220Y-11340707D02*
X12572744Y-11302612D01*
X12572744Y-11302612D02*
X12582268Y-11283564D01*
X12582268Y-11283564D02*
X12591791Y-11274041D01*
X12591791Y-11274041D02*
X12610839Y-11264517D01*
X12763220Y-11445469D02*
X12772744Y-11454993D01*
X12772744Y-11454993D02*
X12763220Y-11464517D01*
X12763220Y-11464517D02*
X12753696Y-11454993D01*
X12753696Y-11454993D02*
X12763220Y-11445469D01*
X12763220Y-11445469D02*
X12763220Y-11464517D01*
X12887029Y-11350231D02*
X12867982Y-11340707D01*
X12867982Y-11340707D02*
X12858458Y-11331183D01*
X12858458Y-11331183D02*
X12848934Y-11312136D01*
X12848934Y-11312136D02*
X12848934Y-11302612D01*
X12848934Y-11302612D02*
X12858458Y-11283564D01*
X12858458Y-11283564D02*
X12867982Y-11274041D01*
X12867982Y-11274041D02*
X12887029Y-11264517D01*
X12887029Y-11264517D02*
X12925125Y-11264517D01*
X12925125Y-11264517D02*
X12944172Y-11274041D01*
X12944172Y-11274041D02*
X12953696Y-11283564D01*
X12953696Y-11283564D02*
X12963220Y-11302612D01*
X12963220Y-11302612D02*
X12963220Y-11312136D01*
X12963220Y-11312136D02*
X12953696Y-11331183D01*
X12953696Y-11331183D02*
X12944172Y-11340707D01*
X12944172Y-11340707D02*
X12925125Y-11350231D01*
X12925125Y-11350231D02*
X12887029Y-11350231D01*
X12887029Y-11350231D02*
X12867982Y-11359755D01*
X12867982Y-11359755D02*
X12858458Y-11369279D01*
X12858458Y-11369279D02*
X12848934Y-11388326D01*
X12848934Y-11388326D02*
X12848934Y-11426421D01*
X12848934Y-11426421D02*
X12858458Y-11445469D01*
X12858458Y-11445469D02*
X12867982Y-11454993D01*
X12867982Y-11454993D02*
X12887029Y-11464517D01*
X12887029Y-11464517D02*
X12925125Y-11464517D01*
X12925125Y-11464517D02*
X12944172Y-11454993D01*
X12944172Y-11454993D02*
X12953696Y-11445469D01*
X12953696Y-11445469D02*
X12963220Y-11426421D01*
X12963220Y-11426421D02*
X12963220Y-11388326D01*
X12963220Y-11388326D02*
X12953696Y-11369279D01*
X12953696Y-11369279D02*
X12944172Y-11359755D01*
X12944172Y-11359755D02*
X12925125Y-11350231D01*
X13087029Y-11264517D02*
X13106077Y-11264517D01*
X13106077Y-11264517D02*
X13125125Y-11274041D01*
X13125125Y-11274041D02*
X13134649Y-11283564D01*
X13134649Y-11283564D02*
X13144172Y-11302612D01*
X13144172Y-11302612D02*
X13153696Y-11340707D01*
X13153696Y-11340707D02*
X13153696Y-11388326D01*
X13153696Y-11388326D02*
X13144172Y-11426421D01*
X13144172Y-11426421D02*
X13134649Y-11445469D01*
X13134649Y-11445469D02*
X13125125Y-11454993D01*
X13125125Y-11454993D02*
X13106077Y-11464517D01*
X13106077Y-11464517D02*
X13087029Y-11464517D01*
X13087029Y-11464517D02*
X13067982Y-11454993D01*
X13067982Y-11454993D02*
X13058458Y-11445469D01*
X13058458Y-11445469D02*
X13048934Y-11426421D01*
X13048934Y-11426421D02*
X13039410Y-11388326D01*
X13039410Y-11388326D02*
X13039410Y-11340707D01*
X13039410Y-11340707D02*
X13048934Y-11302612D01*
X13048934Y-11302612D02*
X13058458Y-11283564D01*
X13058458Y-11283564D02*
X13067982Y-11274041D01*
X13067982Y-11274041D02*
X13087029Y-11264517D01*
X13277506Y-11264517D02*
X13296553Y-11264517D01*
X13296553Y-11264517D02*
X13315601Y-11274041D01*
X13315601Y-11274041D02*
X13325125Y-11283564D01*
X13325125Y-11283564D02*
X13334649Y-11302612D01*
X13334649Y-11302612D02*
X13344172Y-11340707D01*
X13344172Y-11340707D02*
X13344172Y-11388326D01*
X13344172Y-11388326D02*
X13334649Y-11426421D01*
X13334649Y-11426421D02*
X13325125Y-11445469D01*
X13325125Y-11445469D02*
X13315601Y-11454993D01*
X13315601Y-11454993D02*
X13296553Y-11464517D01*
X13296553Y-11464517D02*
X13277506Y-11464517D01*
X13277506Y-11464517D02*
X13258458Y-11454993D01*
X13258458Y-11454993D02*
X13248934Y-11445469D01*
X13248934Y-11445469D02*
X13239410Y-11426421D01*
X13239410Y-11426421D02*
X13229887Y-11388326D01*
X13229887Y-11388326D02*
X13229887Y-11340707D01*
X13229887Y-11340707D02*
X13239410Y-11302612D01*
X13239410Y-11302612D02*
X13248934Y-11283564D01*
X13248934Y-11283564D02*
X13258458Y-11274041D01*
X13258458Y-11274041D02*
X13277506Y-11264517D01*
X13429887Y-11464517D02*
X13429887Y-11331183D01*
X13429887Y-11350231D02*
X13439410Y-11340707D01*
X13439410Y-11340707D02*
X13458458Y-11331183D01*
X13458458Y-11331183D02*
X13487030Y-11331183D01*
X13487030Y-11331183D02*
X13506077Y-11340707D01*
X13506077Y-11340707D02*
X13515601Y-11359755D01*
X13515601Y-11359755D02*
X13515601Y-11464517D01*
X13515601Y-11359755D02*
X13525125Y-11340707D01*
X13525125Y-11340707D02*
X13544172Y-11331183D01*
X13544172Y-11331183D02*
X13572744Y-11331183D01*
X13572744Y-11331183D02*
X13591791Y-11340707D01*
X13591791Y-11340707D02*
X13601315Y-11359755D01*
X13601315Y-11359755D02*
X13601315Y-11464517D01*
X13696553Y-11464517D02*
X13696553Y-11331183D01*
X13696553Y-11350231D02*
X13706077Y-11340707D01*
X13706077Y-11340707D02*
X13725125Y-11331183D01*
X13725125Y-11331183D02*
X13753696Y-11331183D01*
X13753696Y-11331183D02*
X13772744Y-11340707D01*
X13772744Y-11340707D02*
X13782268Y-11359755D01*
X13782268Y-11359755D02*
X13782268Y-11464517D01*
X13782268Y-11359755D02*
X13791791Y-11340707D01*
X13791791Y-11340707D02*
X13810839Y-11331183D01*
X13810839Y-11331183D02*
X13839410Y-11331183D01*
X13839410Y-11331183D02*
X13858458Y-11340707D01*
X13858458Y-11340707D02*
X13867982Y-11359755D01*
X13867982Y-11359755D02*
X13867982Y-11464517D01*
X14258458Y-11254993D02*
X14087030Y-11512136D01*
X14515601Y-11264517D02*
X14534649Y-11264517D01*
X14534649Y-11264517D02*
X14553696Y-11274041D01*
X14553696Y-11274041D02*
X14563220Y-11283564D01*
X14563220Y-11283564D02*
X14572744Y-11302612D01*
X14572744Y-11302612D02*
X14582268Y-11340707D01*
X14582268Y-11340707D02*
X14582268Y-11388326D01*
X14582268Y-11388326D02*
X14572744Y-11426421D01*
X14572744Y-11426421D02*
X14563220Y-11445469D01*
X14563220Y-11445469D02*
X14553696Y-11454993D01*
X14553696Y-11454993D02*
X14534649Y-11464517D01*
X14534649Y-11464517D02*
X14515601Y-11464517D01*
X14515601Y-11464517D02*
X14496553Y-11454993D01*
X14496553Y-11454993D02*
X14487030Y-11445469D01*
X14487030Y-11445469D02*
X14477506Y-11426421D01*
X14477506Y-11426421D02*
X14467982Y-11388326D01*
X14467982Y-11388326D02*
X14467982Y-11340707D01*
X14467982Y-11340707D02*
X14477506Y-11302612D01*
X14477506Y-11302612D02*
X14487030Y-11283564D01*
X14487030Y-11283564D02*
X14496553Y-11274041D01*
X14496553Y-11274041D02*
X14515601Y-11264517D01*
X14667982Y-11445469D02*
X14677506Y-11454993D01*
X14677506Y-11454993D02*
X14667982Y-11464517D01*
X14667982Y-11464517D02*
X14658458Y-11454993D01*
X14658458Y-11454993D02*
X14667982Y-11445469D01*
X14667982Y-11445469D02*
X14667982Y-11464517D01*
X14801315Y-11264517D02*
X14820363Y-11264517D01*
X14820363Y-11264517D02*
X14839411Y-11274041D01*
X14839411Y-11274041D02*
X14848934Y-11283564D01*
X14848934Y-11283564D02*
X14858458Y-11302612D01*
X14858458Y-11302612D02*
X14867982Y-11340707D01*
X14867982Y-11340707D02*
X14867982Y-11388326D01*
X14867982Y-11388326D02*
X14858458Y-11426421D01*
X14858458Y-11426421D02*
X14848934Y-11445469D01*
X14848934Y-11445469D02*
X14839411Y-11454993D01*
X14839411Y-11454993D02*
X14820363Y-11464517D01*
X14820363Y-11464517D02*
X14801315Y-11464517D01*
X14801315Y-11464517D02*
X14782268Y-11454993D01*
X14782268Y-11454993D02*
X14772744Y-11445469D01*
X14772744Y-11445469D02*
X14763220Y-11426421D01*
X14763220Y-11426421D02*
X14753696Y-11388326D01*
X14753696Y-11388326D02*
X14753696Y-11340707D01*
X14753696Y-11340707D02*
X14763220Y-11302612D01*
X14763220Y-11302612D02*
X14772744Y-11283564D01*
X14772744Y-11283564D02*
X14782268Y-11274041D01*
X14782268Y-11274041D02*
X14801315Y-11264517D01*
X14934649Y-11264517D02*
X15058458Y-11264517D01*
X15058458Y-11264517D02*
X14991792Y-11340707D01*
X14991792Y-11340707D02*
X15020363Y-11340707D01*
X15020363Y-11340707D02*
X15039411Y-11350231D01*
X15039411Y-11350231D02*
X15048934Y-11359755D01*
X15048934Y-11359755D02*
X15058458Y-11378802D01*
X15058458Y-11378802D02*
X15058458Y-11426421D01*
X15058458Y-11426421D02*
X15048934Y-11445469D01*
X15048934Y-11445469D02*
X15039411Y-11454993D01*
X15039411Y-11454993D02*
X15020363Y-11464517D01*
X15020363Y-11464517D02*
X14963220Y-11464517D01*
X14963220Y-11464517D02*
X14944173Y-11454993D01*
X14944173Y-11454993D02*
X14934649Y-11445469D01*
X15248934Y-11464517D02*
X15134649Y-11464517D01*
X15191792Y-11464517D02*
X15191792Y-11264517D01*
X15191792Y-11264517D02*
X15172744Y-11293088D01*
X15172744Y-11293088D02*
X15153696Y-11312136D01*
X15153696Y-11312136D02*
X15134649Y-11321660D01*
X15429887Y-11264517D02*
X15334649Y-11264517D01*
X15334649Y-11264517D02*
X15325125Y-11359755D01*
X15325125Y-11359755D02*
X15334649Y-11350231D01*
X15334649Y-11350231D02*
X15353696Y-11340707D01*
X15353696Y-11340707D02*
X15401315Y-11340707D01*
X15401315Y-11340707D02*
X15420363Y-11350231D01*
X15420363Y-11350231D02*
X15429887Y-11359755D01*
X15429887Y-11359755D02*
X15439411Y-11378802D01*
X15439411Y-11378802D02*
X15439411Y-11426421D01*
X15439411Y-11426421D02*
X15429887Y-11445469D01*
X15429887Y-11445469D02*
X15420363Y-11454993D01*
X15420363Y-11454993D02*
X15401315Y-11464517D01*
X15401315Y-11464517D02*
X15353696Y-11464517D01*
X15353696Y-11464517D02*
X15334649Y-11454993D01*
X15334649Y-11454993D02*
X15325125Y-11445469D01*
X15515601Y-11264517D02*
X15515601Y-11302612D01*
X15591792Y-11264517D02*
X15591792Y-11302612D01*
X15887030Y-11540707D02*
X15877506Y-11531183D01*
X15877506Y-11531183D02*
X15858458Y-11502612D01*
X15858458Y-11502612D02*
X15848935Y-11483564D01*
X15848935Y-11483564D02*
X15839411Y-11454993D01*
X15839411Y-11454993D02*
X15829887Y-11407374D01*
X15829887Y-11407374D02*
X15829887Y-11369279D01*
X15829887Y-11369279D02*
X15839411Y-11321660D01*
X15839411Y-11321660D02*
X15848935Y-11293088D01*
X15848935Y-11293088D02*
X15858458Y-11274041D01*
X15858458Y-11274041D02*
X15877506Y-11245469D01*
X15877506Y-11245469D02*
X15887030Y-11235945D01*
X15953696Y-11283564D02*
X15963220Y-11274041D01*
X15963220Y-11274041D02*
X15982268Y-11264517D01*
X15982268Y-11264517D02*
X16029887Y-11264517D01*
X16029887Y-11264517D02*
X16048935Y-11274041D01*
X16048935Y-11274041D02*
X16058458Y-11283564D01*
X16058458Y-11283564D02*
X16067982Y-11302612D01*
X16067982Y-11302612D02*
X16067982Y-11321660D01*
X16067982Y-11321660D02*
X16058458Y-11350231D01*
X16058458Y-11350231D02*
X15944173Y-11464517D01*
X15944173Y-11464517D02*
X16067982Y-11464517D01*
X16239411Y-11264517D02*
X16201315Y-11264517D01*
X16201315Y-11264517D02*
X16182268Y-11274041D01*
X16182268Y-11274041D02*
X16172744Y-11283564D01*
X16172744Y-11283564D02*
X16153696Y-11312136D01*
X16153696Y-11312136D02*
X16144173Y-11350231D01*
X16144173Y-11350231D02*
X16144173Y-11426421D01*
X16144173Y-11426421D02*
X16153696Y-11445469D01*
X16153696Y-11445469D02*
X16163220Y-11454993D01*
X16163220Y-11454993D02*
X16182268Y-11464517D01*
X16182268Y-11464517D02*
X16220363Y-11464517D01*
X16220363Y-11464517D02*
X16239411Y-11454993D01*
X16239411Y-11454993D02*
X16248935Y-11445469D01*
X16248935Y-11445469D02*
X16258458Y-11426421D01*
X16258458Y-11426421D02*
X16258458Y-11378802D01*
X16258458Y-11378802D02*
X16248935Y-11359755D01*
X16248935Y-11359755D02*
X16239411Y-11350231D01*
X16239411Y-11350231D02*
X16220363Y-11340707D01*
X16220363Y-11340707D02*
X16182268Y-11340707D01*
X16182268Y-11340707D02*
X16163220Y-11350231D01*
X16163220Y-11350231D02*
X16153696Y-11359755D01*
X16153696Y-11359755D02*
X16144173Y-11378802D01*
X16496554Y-11464517D02*
X16496554Y-11264517D01*
X16582268Y-11464517D02*
X16582268Y-11359755D01*
X16582268Y-11359755D02*
X16572744Y-11340707D01*
X16572744Y-11340707D02*
X16553697Y-11331183D01*
X16553697Y-11331183D02*
X16525125Y-11331183D01*
X16525125Y-11331183D02*
X16506077Y-11340707D01*
X16506077Y-11340707D02*
X16496554Y-11350231D01*
X16706077Y-11464517D02*
X16687030Y-11454993D01*
X16687030Y-11454993D02*
X16677506Y-11445469D01*
X16677506Y-11445469D02*
X16667982Y-11426421D01*
X16667982Y-11426421D02*
X16667982Y-11369279D01*
X16667982Y-11369279D02*
X16677506Y-11350231D01*
X16677506Y-11350231D02*
X16687030Y-11340707D01*
X16687030Y-11340707D02*
X16706077Y-11331183D01*
X16706077Y-11331183D02*
X16734649Y-11331183D01*
X16734649Y-11331183D02*
X16753697Y-11340707D01*
X16753697Y-11340707D02*
X16763220Y-11350231D01*
X16763220Y-11350231D02*
X16772744Y-11369279D01*
X16772744Y-11369279D02*
X16772744Y-11426421D01*
X16772744Y-11426421D02*
X16763220Y-11445469D01*
X16763220Y-11445469D02*
X16753697Y-11454993D01*
X16753697Y-11454993D02*
X16734649Y-11464517D01*
X16734649Y-11464517D02*
X16706077Y-11464517D01*
X16887030Y-11464517D02*
X16867982Y-11454993D01*
X16867982Y-11454993D02*
X16858459Y-11435945D01*
X16858459Y-11435945D02*
X16858459Y-11264517D01*
X17039411Y-11454993D02*
X17020363Y-11464517D01*
X17020363Y-11464517D02*
X16982268Y-11464517D01*
X16982268Y-11464517D02*
X16963220Y-11454993D01*
X16963220Y-11454993D02*
X16953697Y-11435945D01*
X16953697Y-11435945D02*
X16953697Y-11359755D01*
X16953697Y-11359755D02*
X16963220Y-11340707D01*
X16963220Y-11340707D02*
X16982268Y-11331183D01*
X16982268Y-11331183D02*
X17020363Y-11331183D01*
X17020363Y-11331183D02*
X17039411Y-11340707D01*
X17039411Y-11340707D02*
X17048935Y-11359755D01*
X17048935Y-11359755D02*
X17048935Y-11378802D01*
X17048935Y-11378802D02*
X16953697Y-11397850D01*
X17125125Y-11454993D02*
X17144173Y-11464517D01*
X17144173Y-11464517D02*
X17182268Y-11464517D01*
X17182268Y-11464517D02*
X17201316Y-11454993D01*
X17201316Y-11454993D02*
X17210840Y-11435945D01*
X17210840Y-11435945D02*
X17210840Y-11426421D01*
X17210840Y-11426421D02*
X17201316Y-11407374D01*
X17201316Y-11407374D02*
X17182268Y-11397850D01*
X17182268Y-11397850D02*
X17153697Y-11397850D01*
X17153697Y-11397850D02*
X17134649Y-11388326D01*
X17134649Y-11388326D02*
X17125125Y-11369279D01*
X17125125Y-11369279D02*
X17125125Y-11359755D01*
X17125125Y-11359755D02*
X17134649Y-11340707D01*
X17134649Y-11340707D02*
X17153697Y-11331183D01*
X17153697Y-11331183D02*
X17182268Y-11331183D01*
X17182268Y-11331183D02*
X17201316Y-11340707D01*
X17277506Y-11540707D02*
X17287030Y-11531183D01*
X17287030Y-11531183D02*
X17306078Y-11502612D01*
X17306078Y-11502612D02*
X17315601Y-11483564D01*
X17315601Y-11483564D02*
X17325125Y-11454993D01*
X17325125Y-11454993D02*
X17334649Y-11407374D01*
X17334649Y-11407374D02*
X17334649Y-11369279D01*
X17334649Y-11369279D02*
X17325125Y-11321660D01*
X17325125Y-11321660D02*
X17315601Y-11293088D01*
X17315601Y-11293088D02*
X17306078Y-11274041D01*
X17306078Y-11274041D02*
X17287030Y-11245469D01*
X17287030Y-11245469D02*
X17277506Y-11235945D01*
D12*
X12266967Y-11682033D02*
X12311967Y-11637033D01*
X12266967Y-11592033D01*
X12221967Y-11637033D01*
X12266967Y-11682033D01*
D11*
X12610839Y-11528517D02*
X12629887Y-11528517D01*
X12629887Y-11528517D02*
X12648934Y-11538041D01*
X12648934Y-11538041D02*
X12658458Y-11547564D01*
X12658458Y-11547564D02*
X12667982Y-11566612D01*
X12667982Y-11566612D02*
X12677506Y-11604707D01*
X12677506Y-11604707D02*
X12677506Y-11652326D01*
X12677506Y-11652326D02*
X12667982Y-11690421D01*
X12667982Y-11690421D02*
X12658458Y-11709469D01*
X12658458Y-11709469D02*
X12648934Y-11718993D01*
X12648934Y-11718993D02*
X12629887Y-11728517D01*
X12629887Y-11728517D02*
X12610839Y-11728517D01*
X12610839Y-11728517D02*
X12591791Y-11718993D01*
X12591791Y-11718993D02*
X12582268Y-11709469D01*
X12582268Y-11709469D02*
X12572744Y-11690421D01*
X12572744Y-11690421D02*
X12563220Y-11652326D01*
X12563220Y-11652326D02*
X12563220Y-11604707D01*
X12563220Y-11604707D02*
X12572744Y-11566612D01*
X12572744Y-11566612D02*
X12582268Y-11547564D01*
X12582268Y-11547564D02*
X12591791Y-11538041D01*
X12591791Y-11538041D02*
X12610839Y-11528517D01*
X12763220Y-11709469D02*
X12772744Y-11718993D01*
X12772744Y-11718993D02*
X12763220Y-11728517D01*
X12763220Y-11728517D02*
X12753696Y-11718993D01*
X12753696Y-11718993D02*
X12763220Y-11709469D01*
X12763220Y-11709469D02*
X12763220Y-11728517D01*
X12867982Y-11728517D02*
X12906077Y-11728517D01*
X12906077Y-11728517D02*
X12925125Y-11718993D01*
X12925125Y-11718993D02*
X12934649Y-11709469D01*
X12934649Y-11709469D02*
X12953696Y-11680898D01*
X12953696Y-11680898D02*
X12963220Y-11642802D01*
X12963220Y-11642802D02*
X12963220Y-11566612D01*
X12963220Y-11566612D02*
X12953696Y-11547564D01*
X12953696Y-11547564D02*
X12944172Y-11538041D01*
X12944172Y-11538041D02*
X12925125Y-11528517D01*
X12925125Y-11528517D02*
X12887029Y-11528517D01*
X12887029Y-11528517D02*
X12867982Y-11538041D01*
X12867982Y-11538041D02*
X12858458Y-11547564D01*
X12858458Y-11547564D02*
X12848934Y-11566612D01*
X12848934Y-11566612D02*
X12848934Y-11614231D01*
X12848934Y-11614231D02*
X12858458Y-11633279D01*
X12858458Y-11633279D02*
X12867982Y-11642802D01*
X12867982Y-11642802D02*
X12887029Y-11652326D01*
X12887029Y-11652326D02*
X12925125Y-11652326D01*
X12925125Y-11652326D02*
X12944172Y-11642802D01*
X12944172Y-11642802D02*
X12953696Y-11633279D01*
X12953696Y-11633279D02*
X12963220Y-11614231D01*
X13087029Y-11528517D02*
X13106077Y-11528517D01*
X13106077Y-11528517D02*
X13125125Y-11538041D01*
X13125125Y-11538041D02*
X13134649Y-11547564D01*
X13134649Y-11547564D02*
X13144172Y-11566612D01*
X13144172Y-11566612D02*
X13153696Y-11604707D01*
X13153696Y-11604707D02*
X13153696Y-11652326D01*
X13153696Y-11652326D02*
X13144172Y-11690421D01*
X13144172Y-11690421D02*
X13134649Y-11709469D01*
X13134649Y-11709469D02*
X13125125Y-11718993D01*
X13125125Y-11718993D02*
X13106077Y-11728517D01*
X13106077Y-11728517D02*
X13087029Y-11728517D01*
X13087029Y-11728517D02*
X13067982Y-11718993D01*
X13067982Y-11718993D02*
X13058458Y-11709469D01*
X13058458Y-11709469D02*
X13048934Y-11690421D01*
X13048934Y-11690421D02*
X13039410Y-11652326D01*
X13039410Y-11652326D02*
X13039410Y-11604707D01*
X13039410Y-11604707D02*
X13048934Y-11566612D01*
X13048934Y-11566612D02*
X13058458Y-11547564D01*
X13058458Y-11547564D02*
X13067982Y-11538041D01*
X13067982Y-11538041D02*
X13087029Y-11528517D01*
X13277506Y-11528517D02*
X13296553Y-11528517D01*
X13296553Y-11528517D02*
X13315601Y-11538041D01*
X13315601Y-11538041D02*
X13325125Y-11547564D01*
X13325125Y-11547564D02*
X13334649Y-11566612D01*
X13334649Y-11566612D02*
X13344172Y-11604707D01*
X13344172Y-11604707D02*
X13344172Y-11652326D01*
X13344172Y-11652326D02*
X13334649Y-11690421D01*
X13334649Y-11690421D02*
X13325125Y-11709469D01*
X13325125Y-11709469D02*
X13315601Y-11718993D01*
X13315601Y-11718993D02*
X13296553Y-11728517D01*
X13296553Y-11728517D02*
X13277506Y-11728517D01*
X13277506Y-11728517D02*
X13258458Y-11718993D01*
X13258458Y-11718993D02*
X13248934Y-11709469D01*
X13248934Y-11709469D02*
X13239410Y-11690421D01*
X13239410Y-11690421D02*
X13229887Y-11652326D01*
X13229887Y-11652326D02*
X13229887Y-11604707D01*
X13229887Y-11604707D02*
X13239410Y-11566612D01*
X13239410Y-11566612D02*
X13248934Y-11547564D01*
X13248934Y-11547564D02*
X13258458Y-11538041D01*
X13258458Y-11538041D02*
X13277506Y-11528517D01*
X13429887Y-11728517D02*
X13429887Y-11595183D01*
X13429887Y-11614231D02*
X13439410Y-11604707D01*
X13439410Y-11604707D02*
X13458458Y-11595183D01*
X13458458Y-11595183D02*
X13487030Y-11595183D01*
X13487030Y-11595183D02*
X13506077Y-11604707D01*
X13506077Y-11604707D02*
X13515601Y-11623755D01*
X13515601Y-11623755D02*
X13515601Y-11728517D01*
X13515601Y-11623755D02*
X13525125Y-11604707D01*
X13525125Y-11604707D02*
X13544172Y-11595183D01*
X13544172Y-11595183D02*
X13572744Y-11595183D01*
X13572744Y-11595183D02*
X13591791Y-11604707D01*
X13591791Y-11604707D02*
X13601315Y-11623755D01*
X13601315Y-11623755D02*
X13601315Y-11728517D01*
X13696553Y-11728517D02*
X13696553Y-11595183D01*
X13696553Y-11614231D02*
X13706077Y-11604707D01*
X13706077Y-11604707D02*
X13725125Y-11595183D01*
X13725125Y-11595183D02*
X13753696Y-11595183D01*
X13753696Y-11595183D02*
X13772744Y-11604707D01*
X13772744Y-11604707D02*
X13782268Y-11623755D01*
X13782268Y-11623755D02*
X13782268Y-11728517D01*
X13782268Y-11623755D02*
X13791791Y-11604707D01*
X13791791Y-11604707D02*
X13810839Y-11595183D01*
X13810839Y-11595183D02*
X13839410Y-11595183D01*
X13839410Y-11595183D02*
X13858458Y-11604707D01*
X13858458Y-11604707D02*
X13867982Y-11623755D01*
X13867982Y-11623755D02*
X13867982Y-11728517D01*
X14258458Y-11518993D02*
X14087030Y-11776136D01*
X14515601Y-11528517D02*
X14534649Y-11528517D01*
X14534649Y-11528517D02*
X14553696Y-11538041D01*
X14553696Y-11538041D02*
X14563220Y-11547564D01*
X14563220Y-11547564D02*
X14572744Y-11566612D01*
X14572744Y-11566612D02*
X14582268Y-11604707D01*
X14582268Y-11604707D02*
X14582268Y-11652326D01*
X14582268Y-11652326D02*
X14572744Y-11690421D01*
X14572744Y-11690421D02*
X14563220Y-11709469D01*
X14563220Y-11709469D02*
X14553696Y-11718993D01*
X14553696Y-11718993D02*
X14534649Y-11728517D01*
X14534649Y-11728517D02*
X14515601Y-11728517D01*
X14515601Y-11728517D02*
X14496553Y-11718993D01*
X14496553Y-11718993D02*
X14487030Y-11709469D01*
X14487030Y-11709469D02*
X14477506Y-11690421D01*
X14477506Y-11690421D02*
X14467982Y-11652326D01*
X14467982Y-11652326D02*
X14467982Y-11604707D01*
X14467982Y-11604707D02*
X14477506Y-11566612D01*
X14477506Y-11566612D02*
X14487030Y-11547564D01*
X14487030Y-11547564D02*
X14496553Y-11538041D01*
X14496553Y-11538041D02*
X14515601Y-11528517D01*
X14667982Y-11709469D02*
X14677506Y-11718993D01*
X14677506Y-11718993D02*
X14667982Y-11728517D01*
X14667982Y-11728517D02*
X14658458Y-11718993D01*
X14658458Y-11718993D02*
X14667982Y-11709469D01*
X14667982Y-11709469D02*
X14667982Y-11728517D01*
X14801315Y-11528517D02*
X14820363Y-11528517D01*
X14820363Y-11528517D02*
X14839411Y-11538041D01*
X14839411Y-11538041D02*
X14848934Y-11547564D01*
X14848934Y-11547564D02*
X14858458Y-11566612D01*
X14858458Y-11566612D02*
X14867982Y-11604707D01*
X14867982Y-11604707D02*
X14867982Y-11652326D01*
X14867982Y-11652326D02*
X14858458Y-11690421D01*
X14858458Y-11690421D02*
X14848934Y-11709469D01*
X14848934Y-11709469D02*
X14839411Y-11718993D01*
X14839411Y-11718993D02*
X14820363Y-11728517D01*
X14820363Y-11728517D02*
X14801315Y-11728517D01*
X14801315Y-11728517D02*
X14782268Y-11718993D01*
X14782268Y-11718993D02*
X14772744Y-11709469D01*
X14772744Y-11709469D02*
X14763220Y-11690421D01*
X14763220Y-11690421D02*
X14753696Y-11652326D01*
X14753696Y-11652326D02*
X14753696Y-11604707D01*
X14753696Y-11604707D02*
X14763220Y-11566612D01*
X14763220Y-11566612D02*
X14772744Y-11547564D01*
X14772744Y-11547564D02*
X14782268Y-11538041D01*
X14782268Y-11538041D02*
X14801315Y-11528517D01*
X14934649Y-11528517D02*
X15058458Y-11528517D01*
X15058458Y-11528517D02*
X14991792Y-11604707D01*
X14991792Y-11604707D02*
X15020363Y-11604707D01*
X15020363Y-11604707D02*
X15039411Y-11614231D01*
X15039411Y-11614231D02*
X15048934Y-11623755D01*
X15048934Y-11623755D02*
X15058458Y-11642802D01*
X15058458Y-11642802D02*
X15058458Y-11690421D01*
X15058458Y-11690421D02*
X15048934Y-11709469D01*
X15048934Y-11709469D02*
X15039411Y-11718993D01*
X15039411Y-11718993D02*
X15020363Y-11728517D01*
X15020363Y-11728517D02*
X14963220Y-11728517D01*
X14963220Y-11728517D02*
X14944173Y-11718993D01*
X14944173Y-11718993D02*
X14934649Y-11709469D01*
X15239411Y-11528517D02*
X15144173Y-11528517D01*
X15144173Y-11528517D02*
X15134649Y-11623755D01*
X15134649Y-11623755D02*
X15144173Y-11614231D01*
X15144173Y-11614231D02*
X15163220Y-11604707D01*
X15163220Y-11604707D02*
X15210839Y-11604707D01*
X15210839Y-11604707D02*
X15229887Y-11614231D01*
X15229887Y-11614231D02*
X15239411Y-11623755D01*
X15239411Y-11623755D02*
X15248934Y-11642802D01*
X15248934Y-11642802D02*
X15248934Y-11690421D01*
X15248934Y-11690421D02*
X15239411Y-11709469D01*
X15239411Y-11709469D02*
X15229887Y-11718993D01*
X15229887Y-11718993D02*
X15210839Y-11728517D01*
X15210839Y-11728517D02*
X15163220Y-11728517D01*
X15163220Y-11728517D02*
X15144173Y-11718993D01*
X15144173Y-11718993D02*
X15134649Y-11709469D01*
X15420363Y-11595183D02*
X15420363Y-11728517D01*
X15372744Y-11518993D02*
X15325125Y-11661850D01*
X15325125Y-11661850D02*
X15448934Y-11661850D01*
X15515601Y-11528517D02*
X15515601Y-11566612D01*
X15591792Y-11528517D02*
X15591792Y-11566612D01*
X15887030Y-11804707D02*
X15877506Y-11795183D01*
X15877506Y-11795183D02*
X15858458Y-11766612D01*
X15858458Y-11766612D02*
X15848935Y-11747564D01*
X15848935Y-11747564D02*
X15839411Y-11718993D01*
X15839411Y-11718993D02*
X15829887Y-11671374D01*
X15829887Y-11671374D02*
X15829887Y-11633279D01*
X15829887Y-11633279D02*
X15839411Y-11585660D01*
X15839411Y-11585660D02*
X15848935Y-11557088D01*
X15848935Y-11557088D02*
X15858458Y-11538041D01*
X15858458Y-11538041D02*
X15877506Y-11509469D01*
X15877506Y-11509469D02*
X15887030Y-11499945D01*
X15953696Y-11547564D02*
X15963220Y-11538041D01*
X15963220Y-11538041D02*
X15982268Y-11528517D01*
X15982268Y-11528517D02*
X16029887Y-11528517D01*
X16029887Y-11528517D02*
X16048935Y-11538041D01*
X16048935Y-11538041D02*
X16058458Y-11547564D01*
X16058458Y-11547564D02*
X16067982Y-11566612D01*
X16067982Y-11566612D02*
X16067982Y-11585660D01*
X16067982Y-11585660D02*
X16058458Y-11614231D01*
X16058458Y-11614231D02*
X15944173Y-11728517D01*
X15944173Y-11728517D02*
X16067982Y-11728517D01*
X16306077Y-11728517D02*
X16306077Y-11528517D01*
X16391792Y-11728517D02*
X16391792Y-11623755D01*
X16391792Y-11623755D02*
X16382268Y-11604707D01*
X16382268Y-11604707D02*
X16363220Y-11595183D01*
X16363220Y-11595183D02*
X16334649Y-11595183D01*
X16334649Y-11595183D02*
X16315601Y-11604707D01*
X16315601Y-11604707D02*
X16306077Y-11614231D01*
X16515601Y-11728517D02*
X16496554Y-11718993D01*
X16496554Y-11718993D02*
X16487030Y-11709469D01*
X16487030Y-11709469D02*
X16477506Y-11690421D01*
X16477506Y-11690421D02*
X16477506Y-11633279D01*
X16477506Y-11633279D02*
X16487030Y-11614231D01*
X16487030Y-11614231D02*
X16496554Y-11604707D01*
X16496554Y-11604707D02*
X16515601Y-11595183D01*
X16515601Y-11595183D02*
X16544173Y-11595183D01*
X16544173Y-11595183D02*
X16563220Y-11604707D01*
X16563220Y-11604707D02*
X16572744Y-11614231D01*
X16572744Y-11614231D02*
X16582268Y-11633279D01*
X16582268Y-11633279D02*
X16582268Y-11690421D01*
X16582268Y-11690421D02*
X16572744Y-11709469D01*
X16572744Y-11709469D02*
X16563220Y-11718993D01*
X16563220Y-11718993D02*
X16544173Y-11728517D01*
X16544173Y-11728517D02*
X16515601Y-11728517D01*
X16696554Y-11728517D02*
X16677506Y-11718993D01*
X16677506Y-11718993D02*
X16667982Y-11699945D01*
X16667982Y-11699945D02*
X16667982Y-11528517D01*
X16848935Y-11718993D02*
X16829887Y-11728517D01*
X16829887Y-11728517D02*
X16791792Y-11728517D01*
X16791792Y-11728517D02*
X16772744Y-11718993D01*
X16772744Y-11718993D02*
X16763220Y-11699945D01*
X16763220Y-11699945D02*
X16763220Y-11623755D01*
X16763220Y-11623755D02*
X16772744Y-11604707D01*
X16772744Y-11604707D02*
X16791792Y-11595183D01*
X16791792Y-11595183D02*
X16829887Y-11595183D01*
X16829887Y-11595183D02*
X16848935Y-11604707D01*
X16848935Y-11604707D02*
X16858459Y-11623755D01*
X16858459Y-11623755D02*
X16858459Y-11642802D01*
X16858459Y-11642802D02*
X16763220Y-11661850D01*
X16934649Y-11718993D02*
X16953697Y-11728517D01*
X16953697Y-11728517D02*
X16991792Y-11728517D01*
X16991792Y-11728517D02*
X17010840Y-11718993D01*
X17010840Y-11718993D02*
X17020363Y-11699945D01*
X17020363Y-11699945D02*
X17020363Y-11690421D01*
X17020363Y-11690421D02*
X17010840Y-11671374D01*
X17010840Y-11671374D02*
X16991792Y-11661850D01*
X16991792Y-11661850D02*
X16963220Y-11661850D01*
X16963220Y-11661850D02*
X16944173Y-11652326D01*
X16944173Y-11652326D02*
X16934649Y-11633279D01*
X16934649Y-11633279D02*
X16934649Y-11623755D01*
X16934649Y-11623755D02*
X16944173Y-11604707D01*
X16944173Y-11604707D02*
X16963220Y-11595183D01*
X16963220Y-11595183D02*
X16991792Y-11595183D01*
X16991792Y-11595183D02*
X17010840Y-11604707D01*
X17087030Y-11804707D02*
X17096554Y-11795183D01*
X17096554Y-11795183D02*
X17115601Y-11766612D01*
X17115601Y-11766612D02*
X17125125Y-11747564D01*
X17125125Y-11747564D02*
X17134649Y-11718993D01*
X17134649Y-11718993D02*
X17144173Y-11671374D01*
X17144173Y-11671374D02*
X17144173Y-11633279D01*
X17144173Y-11633279D02*
X17134649Y-11585660D01*
X17134649Y-11585660D02*
X17125125Y-11557088D01*
X17125125Y-11557088D02*
X17115601Y-11538041D01*
X17115601Y-11538041D02*
X17096554Y-11509469D01*
X17096554Y-11509469D02*
X17087030Y-11499945D01*
D12*
X12211967Y-11851033D02*
X12311967Y-11951033D01*
X12311967Y-11851033D02*
X12211967Y-11951033D01*
X12311967Y-11901033D02*
G75*
G02*
X12211967Y-11901033I-50000J0D01*
G01*
X12211967Y-11901033D02*
G75*
G02*
X12311967Y-11901033I50000J0D01*
G01*
D11*
X12677506Y-11992517D02*
X12563220Y-11992517D01*
X12620363Y-11992517D02*
X12620363Y-11792517D01*
X12620363Y-11792517D02*
X12601315Y-11821088D01*
X12601315Y-11821088D02*
X12582268Y-11840136D01*
X12582268Y-11840136D02*
X12563220Y-11849660D01*
X12763220Y-11973469D02*
X12772744Y-11982993D01*
X12772744Y-11982993D02*
X12763220Y-11992517D01*
X12763220Y-11992517D02*
X12753696Y-11982993D01*
X12753696Y-11982993D02*
X12763220Y-11973469D01*
X12763220Y-11973469D02*
X12763220Y-11992517D01*
X12896553Y-11792517D02*
X12915601Y-11792517D01*
X12915601Y-11792517D02*
X12934649Y-11802041D01*
X12934649Y-11802041D02*
X12944172Y-11811564D01*
X12944172Y-11811564D02*
X12953696Y-11830612D01*
X12953696Y-11830612D02*
X12963220Y-11868707D01*
X12963220Y-11868707D02*
X12963220Y-11916326D01*
X12963220Y-11916326D02*
X12953696Y-11954421D01*
X12953696Y-11954421D02*
X12944172Y-11973469D01*
X12944172Y-11973469D02*
X12934649Y-11982993D01*
X12934649Y-11982993D02*
X12915601Y-11992517D01*
X12915601Y-11992517D02*
X12896553Y-11992517D01*
X12896553Y-11992517D02*
X12877506Y-11982993D01*
X12877506Y-11982993D02*
X12867982Y-11973469D01*
X12867982Y-11973469D02*
X12858458Y-11954421D01*
X12858458Y-11954421D02*
X12848934Y-11916326D01*
X12848934Y-11916326D02*
X12848934Y-11868707D01*
X12848934Y-11868707D02*
X12858458Y-11830612D01*
X12858458Y-11830612D02*
X12867982Y-11811564D01*
X12867982Y-11811564D02*
X12877506Y-11802041D01*
X12877506Y-11802041D02*
X12896553Y-11792517D01*
X13087029Y-11792517D02*
X13106077Y-11792517D01*
X13106077Y-11792517D02*
X13125125Y-11802041D01*
X13125125Y-11802041D02*
X13134649Y-11811564D01*
X13134649Y-11811564D02*
X13144172Y-11830612D01*
X13144172Y-11830612D02*
X13153696Y-11868707D01*
X13153696Y-11868707D02*
X13153696Y-11916326D01*
X13153696Y-11916326D02*
X13144172Y-11954421D01*
X13144172Y-11954421D02*
X13134649Y-11973469D01*
X13134649Y-11973469D02*
X13125125Y-11982993D01*
X13125125Y-11982993D02*
X13106077Y-11992517D01*
X13106077Y-11992517D02*
X13087029Y-11992517D01*
X13087029Y-11992517D02*
X13067982Y-11982993D01*
X13067982Y-11982993D02*
X13058458Y-11973469D01*
X13058458Y-11973469D02*
X13048934Y-11954421D01*
X13048934Y-11954421D02*
X13039410Y-11916326D01*
X13039410Y-11916326D02*
X13039410Y-11868707D01*
X13039410Y-11868707D02*
X13048934Y-11830612D01*
X13048934Y-11830612D02*
X13058458Y-11811564D01*
X13058458Y-11811564D02*
X13067982Y-11802041D01*
X13067982Y-11802041D02*
X13087029Y-11792517D01*
X13277506Y-11792517D02*
X13296553Y-11792517D01*
X13296553Y-11792517D02*
X13315601Y-11802041D01*
X13315601Y-11802041D02*
X13325125Y-11811564D01*
X13325125Y-11811564D02*
X13334649Y-11830612D01*
X13334649Y-11830612D02*
X13344172Y-11868707D01*
X13344172Y-11868707D02*
X13344172Y-11916326D01*
X13344172Y-11916326D02*
X13334649Y-11954421D01*
X13334649Y-11954421D02*
X13325125Y-11973469D01*
X13325125Y-11973469D02*
X13315601Y-11982993D01*
X13315601Y-11982993D02*
X13296553Y-11992517D01*
X13296553Y-11992517D02*
X13277506Y-11992517D01*
X13277506Y-11992517D02*
X13258458Y-11982993D01*
X13258458Y-11982993D02*
X13248934Y-11973469D01*
X13248934Y-11973469D02*
X13239410Y-11954421D01*
X13239410Y-11954421D02*
X13229887Y-11916326D01*
X13229887Y-11916326D02*
X13229887Y-11868707D01*
X13229887Y-11868707D02*
X13239410Y-11830612D01*
X13239410Y-11830612D02*
X13248934Y-11811564D01*
X13248934Y-11811564D02*
X13258458Y-11802041D01*
X13258458Y-11802041D02*
X13277506Y-11792517D01*
X13429887Y-11992517D02*
X13429887Y-11859183D01*
X13429887Y-11878231D02*
X13439410Y-11868707D01*
X13439410Y-11868707D02*
X13458458Y-11859183D01*
X13458458Y-11859183D02*
X13487030Y-11859183D01*
X13487030Y-11859183D02*
X13506077Y-11868707D01*
X13506077Y-11868707D02*
X13515601Y-11887755D01*
X13515601Y-11887755D02*
X13515601Y-11992517D01*
X13515601Y-11887755D02*
X13525125Y-11868707D01*
X13525125Y-11868707D02*
X13544172Y-11859183D01*
X13544172Y-11859183D02*
X13572744Y-11859183D01*
X13572744Y-11859183D02*
X13591791Y-11868707D01*
X13591791Y-11868707D02*
X13601315Y-11887755D01*
X13601315Y-11887755D02*
X13601315Y-11992517D01*
X13696553Y-11992517D02*
X13696553Y-11859183D01*
X13696553Y-11878231D02*
X13706077Y-11868707D01*
X13706077Y-11868707D02*
X13725125Y-11859183D01*
X13725125Y-11859183D02*
X13753696Y-11859183D01*
X13753696Y-11859183D02*
X13772744Y-11868707D01*
X13772744Y-11868707D02*
X13782268Y-11887755D01*
X13782268Y-11887755D02*
X13782268Y-11992517D01*
X13782268Y-11887755D02*
X13791791Y-11868707D01*
X13791791Y-11868707D02*
X13810839Y-11859183D01*
X13810839Y-11859183D02*
X13839410Y-11859183D01*
X13839410Y-11859183D02*
X13858458Y-11868707D01*
X13858458Y-11868707D02*
X13867982Y-11887755D01*
X13867982Y-11887755D02*
X13867982Y-11992517D01*
X14258458Y-11782993D02*
X14087030Y-12040136D01*
X14515601Y-11792517D02*
X14534649Y-11792517D01*
X14534649Y-11792517D02*
X14553696Y-11802041D01*
X14553696Y-11802041D02*
X14563220Y-11811564D01*
X14563220Y-11811564D02*
X14572744Y-11830612D01*
X14572744Y-11830612D02*
X14582268Y-11868707D01*
X14582268Y-11868707D02*
X14582268Y-11916326D01*
X14582268Y-11916326D02*
X14572744Y-11954421D01*
X14572744Y-11954421D02*
X14563220Y-11973469D01*
X14563220Y-11973469D02*
X14553696Y-11982993D01*
X14553696Y-11982993D02*
X14534649Y-11992517D01*
X14534649Y-11992517D02*
X14515601Y-11992517D01*
X14515601Y-11992517D02*
X14496553Y-11982993D01*
X14496553Y-11982993D02*
X14487030Y-11973469D01*
X14487030Y-11973469D02*
X14477506Y-11954421D01*
X14477506Y-11954421D02*
X14467982Y-11916326D01*
X14467982Y-11916326D02*
X14467982Y-11868707D01*
X14467982Y-11868707D02*
X14477506Y-11830612D01*
X14477506Y-11830612D02*
X14487030Y-11811564D01*
X14487030Y-11811564D02*
X14496553Y-11802041D01*
X14496553Y-11802041D02*
X14515601Y-11792517D01*
X14667982Y-11973469D02*
X14677506Y-11982993D01*
X14677506Y-11982993D02*
X14667982Y-11992517D01*
X14667982Y-11992517D02*
X14658458Y-11982993D01*
X14658458Y-11982993D02*
X14667982Y-11973469D01*
X14667982Y-11973469D02*
X14667982Y-11992517D01*
X14801315Y-11792517D02*
X14820363Y-11792517D01*
X14820363Y-11792517D02*
X14839411Y-11802041D01*
X14839411Y-11802041D02*
X14848934Y-11811564D01*
X14848934Y-11811564D02*
X14858458Y-11830612D01*
X14858458Y-11830612D02*
X14867982Y-11868707D01*
X14867982Y-11868707D02*
X14867982Y-11916326D01*
X14867982Y-11916326D02*
X14858458Y-11954421D01*
X14858458Y-11954421D02*
X14848934Y-11973469D01*
X14848934Y-11973469D02*
X14839411Y-11982993D01*
X14839411Y-11982993D02*
X14820363Y-11992517D01*
X14820363Y-11992517D02*
X14801315Y-11992517D01*
X14801315Y-11992517D02*
X14782268Y-11982993D01*
X14782268Y-11982993D02*
X14772744Y-11973469D01*
X14772744Y-11973469D02*
X14763220Y-11954421D01*
X14763220Y-11954421D02*
X14753696Y-11916326D01*
X14753696Y-11916326D02*
X14753696Y-11868707D01*
X14753696Y-11868707D02*
X14763220Y-11830612D01*
X14763220Y-11830612D02*
X14772744Y-11811564D01*
X14772744Y-11811564D02*
X14782268Y-11802041D01*
X14782268Y-11802041D02*
X14801315Y-11792517D01*
X14934649Y-11792517D02*
X15058458Y-11792517D01*
X15058458Y-11792517D02*
X14991792Y-11868707D01*
X14991792Y-11868707D02*
X15020363Y-11868707D01*
X15020363Y-11868707D02*
X15039411Y-11878231D01*
X15039411Y-11878231D02*
X15048934Y-11887755D01*
X15048934Y-11887755D02*
X15058458Y-11906802D01*
X15058458Y-11906802D02*
X15058458Y-11954421D01*
X15058458Y-11954421D02*
X15048934Y-11973469D01*
X15048934Y-11973469D02*
X15039411Y-11982993D01*
X15039411Y-11982993D02*
X15020363Y-11992517D01*
X15020363Y-11992517D02*
X14963220Y-11992517D01*
X14963220Y-11992517D02*
X14944173Y-11982993D01*
X14944173Y-11982993D02*
X14934649Y-11973469D01*
X15153696Y-11992517D02*
X15191792Y-11992517D01*
X15191792Y-11992517D02*
X15210839Y-11982993D01*
X15210839Y-11982993D02*
X15220363Y-11973469D01*
X15220363Y-11973469D02*
X15239411Y-11944898D01*
X15239411Y-11944898D02*
X15248934Y-11906802D01*
X15248934Y-11906802D02*
X15248934Y-11830612D01*
X15248934Y-11830612D02*
X15239411Y-11811564D01*
X15239411Y-11811564D02*
X15229887Y-11802041D01*
X15229887Y-11802041D02*
X15210839Y-11792517D01*
X15210839Y-11792517D02*
X15172744Y-11792517D01*
X15172744Y-11792517D02*
X15153696Y-11802041D01*
X15153696Y-11802041D02*
X15144173Y-11811564D01*
X15144173Y-11811564D02*
X15134649Y-11830612D01*
X15134649Y-11830612D02*
X15134649Y-11878231D01*
X15134649Y-11878231D02*
X15144173Y-11897279D01*
X15144173Y-11897279D02*
X15153696Y-11906802D01*
X15153696Y-11906802D02*
X15172744Y-11916326D01*
X15172744Y-11916326D02*
X15210839Y-11916326D01*
X15210839Y-11916326D02*
X15229887Y-11906802D01*
X15229887Y-11906802D02*
X15239411Y-11897279D01*
X15239411Y-11897279D02*
X15248934Y-11878231D01*
X15420363Y-11859183D02*
X15420363Y-11992517D01*
X15372744Y-11782993D02*
X15325125Y-11925850D01*
X15325125Y-11925850D02*
X15448934Y-11925850D01*
X15515601Y-11792517D02*
X15515601Y-11830612D01*
X15591792Y-11792517D02*
X15591792Y-11830612D01*
X15887030Y-12068707D02*
X15877506Y-12059183D01*
X15877506Y-12059183D02*
X15858458Y-12030612D01*
X15858458Y-12030612D02*
X15848935Y-12011564D01*
X15848935Y-12011564D02*
X15839411Y-11982993D01*
X15839411Y-11982993D02*
X15829887Y-11935374D01*
X15829887Y-11935374D02*
X15829887Y-11897279D01*
X15829887Y-11897279D02*
X15839411Y-11849660D01*
X15839411Y-11849660D02*
X15848935Y-11821088D01*
X15848935Y-11821088D02*
X15858458Y-11802041D01*
X15858458Y-11802041D02*
X15877506Y-11773469D01*
X15877506Y-11773469D02*
X15887030Y-11763945D01*
X15953696Y-11811564D02*
X15963220Y-11802041D01*
X15963220Y-11802041D02*
X15982268Y-11792517D01*
X15982268Y-11792517D02*
X16029887Y-11792517D01*
X16029887Y-11792517D02*
X16048935Y-11802041D01*
X16048935Y-11802041D02*
X16058458Y-11811564D01*
X16058458Y-11811564D02*
X16067982Y-11830612D01*
X16067982Y-11830612D02*
X16067982Y-11849660D01*
X16067982Y-11849660D02*
X16058458Y-11878231D01*
X16058458Y-11878231D02*
X15944173Y-11992517D01*
X15944173Y-11992517D02*
X16067982Y-11992517D01*
X16239411Y-11859183D02*
X16239411Y-11992517D01*
X16191792Y-11782993D02*
X16144173Y-11925850D01*
X16144173Y-11925850D02*
X16267982Y-11925850D01*
X16496554Y-11992517D02*
X16496554Y-11792517D01*
X16582268Y-11992517D02*
X16582268Y-11887755D01*
X16582268Y-11887755D02*
X16572744Y-11868707D01*
X16572744Y-11868707D02*
X16553697Y-11859183D01*
X16553697Y-11859183D02*
X16525125Y-11859183D01*
X16525125Y-11859183D02*
X16506077Y-11868707D01*
X16506077Y-11868707D02*
X16496554Y-11878231D01*
X16706077Y-11992517D02*
X16687030Y-11982993D01*
X16687030Y-11982993D02*
X16677506Y-11973469D01*
X16677506Y-11973469D02*
X16667982Y-11954421D01*
X16667982Y-11954421D02*
X16667982Y-11897279D01*
X16667982Y-11897279D02*
X16677506Y-11878231D01*
X16677506Y-11878231D02*
X16687030Y-11868707D01*
X16687030Y-11868707D02*
X16706077Y-11859183D01*
X16706077Y-11859183D02*
X16734649Y-11859183D01*
X16734649Y-11859183D02*
X16753697Y-11868707D01*
X16753697Y-11868707D02*
X16763220Y-11878231D01*
X16763220Y-11878231D02*
X16772744Y-11897279D01*
X16772744Y-11897279D02*
X16772744Y-11954421D01*
X16772744Y-11954421D02*
X16763220Y-11973469D01*
X16763220Y-11973469D02*
X16753697Y-11982993D01*
X16753697Y-11982993D02*
X16734649Y-11992517D01*
X16734649Y-11992517D02*
X16706077Y-11992517D01*
X16887030Y-11992517D02*
X16867982Y-11982993D01*
X16867982Y-11982993D02*
X16858459Y-11963945D01*
X16858459Y-11963945D02*
X16858459Y-11792517D01*
X17039411Y-11982993D02*
X17020363Y-11992517D01*
X17020363Y-11992517D02*
X16982268Y-11992517D01*
X16982268Y-11992517D02*
X16963220Y-11982993D01*
X16963220Y-11982993D02*
X16953697Y-11963945D01*
X16953697Y-11963945D02*
X16953697Y-11887755D01*
X16953697Y-11887755D02*
X16963220Y-11868707D01*
X16963220Y-11868707D02*
X16982268Y-11859183D01*
X16982268Y-11859183D02*
X17020363Y-11859183D01*
X17020363Y-11859183D02*
X17039411Y-11868707D01*
X17039411Y-11868707D02*
X17048935Y-11887755D01*
X17048935Y-11887755D02*
X17048935Y-11906802D01*
X17048935Y-11906802D02*
X16953697Y-11925850D01*
X17125125Y-11982993D02*
X17144173Y-11992517D01*
X17144173Y-11992517D02*
X17182268Y-11992517D01*
X17182268Y-11992517D02*
X17201316Y-11982993D01*
X17201316Y-11982993D02*
X17210840Y-11963945D01*
X17210840Y-11963945D02*
X17210840Y-11954421D01*
X17210840Y-11954421D02*
X17201316Y-11935374D01*
X17201316Y-11935374D02*
X17182268Y-11925850D01*
X17182268Y-11925850D02*
X17153697Y-11925850D01*
X17153697Y-11925850D02*
X17134649Y-11916326D01*
X17134649Y-11916326D02*
X17125125Y-11897279D01*
X17125125Y-11897279D02*
X17125125Y-11887755D01*
X17125125Y-11887755D02*
X17134649Y-11868707D01*
X17134649Y-11868707D02*
X17153697Y-11859183D01*
X17153697Y-11859183D02*
X17182268Y-11859183D01*
X17182268Y-11859183D02*
X17201316Y-11868707D01*
X17448935Y-11916326D02*
X17601316Y-11916326D01*
X17525125Y-11992517D02*
X17525125Y-11840136D01*
X17829887Y-11792517D02*
X17953697Y-11792517D01*
X17953697Y-11792517D02*
X17887030Y-11868707D01*
X17887030Y-11868707D02*
X17915602Y-11868707D01*
X17915602Y-11868707D02*
X17934649Y-11878231D01*
X17934649Y-11878231D02*
X17944173Y-11887755D01*
X17944173Y-11887755D02*
X17953697Y-11906802D01*
X17953697Y-11906802D02*
X17953697Y-11954421D01*
X17953697Y-11954421D02*
X17944173Y-11973469D01*
X17944173Y-11973469D02*
X17934649Y-11982993D01*
X17934649Y-11982993D02*
X17915602Y-11992517D01*
X17915602Y-11992517D02*
X17858459Y-11992517D01*
X17858459Y-11992517D02*
X17839411Y-11982993D01*
X17839411Y-11982993D02*
X17829887Y-11973469D01*
X18182268Y-11982993D02*
X18201316Y-11992517D01*
X18201316Y-11992517D02*
X18239411Y-11992517D01*
X18239411Y-11992517D02*
X18258459Y-11982993D01*
X18258459Y-11982993D02*
X18267983Y-11963945D01*
X18267983Y-11963945D02*
X18267983Y-11954421D01*
X18267983Y-11954421D02*
X18258459Y-11935374D01*
X18258459Y-11935374D02*
X18239411Y-11925850D01*
X18239411Y-11925850D02*
X18210840Y-11925850D01*
X18210840Y-11925850D02*
X18191792Y-11916326D01*
X18191792Y-11916326D02*
X18182268Y-11897279D01*
X18182268Y-11897279D02*
X18182268Y-11887755D01*
X18182268Y-11887755D02*
X18191792Y-11868707D01*
X18191792Y-11868707D02*
X18210840Y-11859183D01*
X18210840Y-11859183D02*
X18239411Y-11859183D01*
X18239411Y-11859183D02*
X18258459Y-11868707D01*
X18382268Y-11992517D02*
X18363221Y-11982993D01*
X18363221Y-11982993D02*
X18353697Y-11963945D01*
X18353697Y-11963945D02*
X18353697Y-11792517D01*
X18487030Y-11992517D02*
X18467983Y-11982993D01*
X18467983Y-11982993D02*
X18458459Y-11973469D01*
X18458459Y-11973469D02*
X18448935Y-11954421D01*
X18448935Y-11954421D02*
X18448935Y-11897279D01*
X18448935Y-11897279D02*
X18458459Y-11878231D01*
X18458459Y-11878231D02*
X18467983Y-11868707D01*
X18467983Y-11868707D02*
X18487030Y-11859183D01*
X18487030Y-11859183D02*
X18515602Y-11859183D01*
X18515602Y-11859183D02*
X18534649Y-11868707D01*
X18534649Y-11868707D02*
X18544173Y-11878231D01*
X18544173Y-11878231D02*
X18553697Y-11897279D01*
X18553697Y-11897279D02*
X18553697Y-11954421D01*
X18553697Y-11954421D02*
X18544173Y-11973469D01*
X18544173Y-11973469D02*
X18534649Y-11982993D01*
X18534649Y-11982993D02*
X18515602Y-11992517D01*
X18515602Y-11992517D02*
X18487030Y-11992517D01*
X18610840Y-11859183D02*
X18687030Y-11859183D01*
X18639411Y-11792517D02*
X18639411Y-11963945D01*
X18639411Y-11963945D02*
X18648935Y-11982993D01*
X18648935Y-11982993D02*
X18667983Y-11992517D01*
X18667983Y-11992517D02*
X18687030Y-11992517D01*
X18744173Y-11982993D02*
X18763221Y-11992517D01*
X18763221Y-11992517D02*
X18801316Y-11992517D01*
X18801316Y-11992517D02*
X18820364Y-11982993D01*
X18820364Y-11982993D02*
X18829887Y-11963945D01*
X18829887Y-11963945D02*
X18829887Y-11954421D01*
X18829887Y-11954421D02*
X18820364Y-11935374D01*
X18820364Y-11935374D02*
X18801316Y-11925850D01*
X18801316Y-11925850D02*
X18772744Y-11925850D01*
X18772744Y-11925850D02*
X18753697Y-11916326D01*
X18753697Y-11916326D02*
X18744173Y-11897279D01*
X18744173Y-11897279D02*
X18744173Y-11887755D01*
X18744173Y-11887755D02*
X18753697Y-11868707D01*
X18753697Y-11868707D02*
X18772744Y-11859183D01*
X18772744Y-11859183D02*
X18801316Y-11859183D01*
X18801316Y-11859183D02*
X18820364Y-11868707D01*
X18896554Y-12068707D02*
X18906078Y-12059183D01*
X18906078Y-12059183D02*
X18925125Y-12030612D01*
X18925125Y-12030612D02*
X18934649Y-12011564D01*
X18934649Y-12011564D02*
X18944173Y-11982993D01*
X18944173Y-11982993D02*
X18953697Y-11935374D01*
X18953697Y-11935374D02*
X18953697Y-11897279D01*
X18953697Y-11897279D02*
X18944173Y-11849660D01*
X18944173Y-11849660D02*
X18934649Y-11821088D01*
X18934649Y-11821088D02*
X18925125Y-11802041D01*
X18925125Y-11802041D02*
X18906078Y-11773469D01*
X18906078Y-11773469D02*
X18896554Y-11763945D01*
X12111967Y-12065033D02*
X12311967Y-12265033D01*
X12311967Y-12065033D02*
X12111967Y-12265033D01*
X12211967Y-12065033D02*
X12211967Y-12265033D01*
X12111967Y-12165033D02*
X12311967Y-12165033D01*
X12553696Y-12056517D02*
X12677506Y-12056517D01*
X12677506Y-12056517D02*
X12610839Y-12132707D01*
X12610839Y-12132707D02*
X12639410Y-12132707D01*
X12639410Y-12132707D02*
X12658458Y-12142231D01*
X12658458Y-12142231D02*
X12667982Y-12151755D01*
X12667982Y-12151755D02*
X12677506Y-12170802D01*
X12677506Y-12170802D02*
X12677506Y-12218421D01*
X12677506Y-12218421D02*
X12667982Y-12237469D01*
X12667982Y-12237469D02*
X12658458Y-12246993D01*
X12658458Y-12246993D02*
X12639410Y-12256517D01*
X12639410Y-12256517D02*
X12582268Y-12256517D01*
X12582268Y-12256517D02*
X12563220Y-12246993D01*
X12563220Y-12246993D02*
X12553696Y-12237469D01*
X12763220Y-12237469D02*
X12772744Y-12246993D01*
X12772744Y-12246993D02*
X12763220Y-12256517D01*
X12763220Y-12256517D02*
X12753696Y-12246993D01*
X12753696Y-12246993D02*
X12763220Y-12237469D01*
X12763220Y-12237469D02*
X12763220Y-12256517D01*
X12848934Y-12075564D02*
X12858458Y-12066041D01*
X12858458Y-12066041D02*
X12877506Y-12056517D01*
X12877506Y-12056517D02*
X12925125Y-12056517D01*
X12925125Y-12056517D02*
X12944172Y-12066041D01*
X12944172Y-12066041D02*
X12953696Y-12075564D01*
X12953696Y-12075564D02*
X12963220Y-12094612D01*
X12963220Y-12094612D02*
X12963220Y-12113660D01*
X12963220Y-12113660D02*
X12953696Y-12142231D01*
X12953696Y-12142231D02*
X12839410Y-12256517D01*
X12839410Y-12256517D02*
X12963220Y-12256517D01*
X13087029Y-12056517D02*
X13106077Y-12056517D01*
X13106077Y-12056517D02*
X13125125Y-12066041D01*
X13125125Y-12066041D02*
X13134649Y-12075564D01*
X13134649Y-12075564D02*
X13144172Y-12094612D01*
X13144172Y-12094612D02*
X13153696Y-12132707D01*
X13153696Y-12132707D02*
X13153696Y-12180326D01*
X13153696Y-12180326D02*
X13144172Y-12218421D01*
X13144172Y-12218421D02*
X13134649Y-12237469D01*
X13134649Y-12237469D02*
X13125125Y-12246993D01*
X13125125Y-12246993D02*
X13106077Y-12256517D01*
X13106077Y-12256517D02*
X13087029Y-12256517D01*
X13087029Y-12256517D02*
X13067982Y-12246993D01*
X13067982Y-12246993D02*
X13058458Y-12237469D01*
X13058458Y-12237469D02*
X13048934Y-12218421D01*
X13048934Y-12218421D02*
X13039410Y-12180326D01*
X13039410Y-12180326D02*
X13039410Y-12132707D01*
X13039410Y-12132707D02*
X13048934Y-12094612D01*
X13048934Y-12094612D02*
X13058458Y-12075564D01*
X13058458Y-12075564D02*
X13067982Y-12066041D01*
X13067982Y-12066041D02*
X13087029Y-12056517D01*
X13277506Y-12056517D02*
X13296553Y-12056517D01*
X13296553Y-12056517D02*
X13315601Y-12066041D01*
X13315601Y-12066041D02*
X13325125Y-12075564D01*
X13325125Y-12075564D02*
X13334649Y-12094612D01*
X13334649Y-12094612D02*
X13344172Y-12132707D01*
X13344172Y-12132707D02*
X13344172Y-12180326D01*
X13344172Y-12180326D02*
X13334649Y-12218421D01*
X13334649Y-12218421D02*
X13325125Y-12237469D01*
X13325125Y-12237469D02*
X13315601Y-12246993D01*
X13315601Y-12246993D02*
X13296553Y-12256517D01*
X13296553Y-12256517D02*
X13277506Y-12256517D01*
X13277506Y-12256517D02*
X13258458Y-12246993D01*
X13258458Y-12246993D02*
X13248934Y-12237469D01*
X13248934Y-12237469D02*
X13239410Y-12218421D01*
X13239410Y-12218421D02*
X13229887Y-12180326D01*
X13229887Y-12180326D02*
X13229887Y-12132707D01*
X13229887Y-12132707D02*
X13239410Y-12094612D01*
X13239410Y-12094612D02*
X13248934Y-12075564D01*
X13248934Y-12075564D02*
X13258458Y-12066041D01*
X13258458Y-12066041D02*
X13277506Y-12056517D01*
X13429887Y-12256517D02*
X13429887Y-12123183D01*
X13429887Y-12142231D02*
X13439410Y-12132707D01*
X13439410Y-12132707D02*
X13458458Y-12123183D01*
X13458458Y-12123183D02*
X13487030Y-12123183D01*
X13487030Y-12123183D02*
X13506077Y-12132707D01*
X13506077Y-12132707D02*
X13515601Y-12151755D01*
X13515601Y-12151755D02*
X13515601Y-12256517D01*
X13515601Y-12151755D02*
X13525125Y-12132707D01*
X13525125Y-12132707D02*
X13544172Y-12123183D01*
X13544172Y-12123183D02*
X13572744Y-12123183D01*
X13572744Y-12123183D02*
X13591791Y-12132707D01*
X13591791Y-12132707D02*
X13601315Y-12151755D01*
X13601315Y-12151755D02*
X13601315Y-12256517D01*
X13696553Y-12256517D02*
X13696553Y-12123183D01*
X13696553Y-12142231D02*
X13706077Y-12132707D01*
X13706077Y-12132707D02*
X13725125Y-12123183D01*
X13725125Y-12123183D02*
X13753696Y-12123183D01*
X13753696Y-12123183D02*
X13772744Y-12132707D01*
X13772744Y-12132707D02*
X13782268Y-12151755D01*
X13782268Y-12151755D02*
X13782268Y-12256517D01*
X13782268Y-12151755D02*
X13791791Y-12132707D01*
X13791791Y-12132707D02*
X13810839Y-12123183D01*
X13810839Y-12123183D02*
X13839410Y-12123183D01*
X13839410Y-12123183D02*
X13858458Y-12132707D01*
X13858458Y-12132707D02*
X13867982Y-12151755D01*
X13867982Y-12151755D02*
X13867982Y-12256517D01*
X14258458Y-12046993D02*
X14087030Y-12304136D01*
X14515601Y-12056517D02*
X14534649Y-12056517D01*
X14534649Y-12056517D02*
X14553696Y-12066041D01*
X14553696Y-12066041D02*
X14563220Y-12075564D01*
X14563220Y-12075564D02*
X14572744Y-12094612D01*
X14572744Y-12094612D02*
X14582268Y-12132707D01*
X14582268Y-12132707D02*
X14582268Y-12180326D01*
X14582268Y-12180326D02*
X14572744Y-12218421D01*
X14572744Y-12218421D02*
X14563220Y-12237469D01*
X14563220Y-12237469D02*
X14553696Y-12246993D01*
X14553696Y-12246993D02*
X14534649Y-12256517D01*
X14534649Y-12256517D02*
X14515601Y-12256517D01*
X14515601Y-12256517D02*
X14496553Y-12246993D01*
X14496553Y-12246993D02*
X14487030Y-12237469D01*
X14487030Y-12237469D02*
X14477506Y-12218421D01*
X14477506Y-12218421D02*
X14467982Y-12180326D01*
X14467982Y-12180326D02*
X14467982Y-12132707D01*
X14467982Y-12132707D02*
X14477506Y-12094612D01*
X14477506Y-12094612D02*
X14487030Y-12075564D01*
X14487030Y-12075564D02*
X14496553Y-12066041D01*
X14496553Y-12066041D02*
X14515601Y-12056517D01*
X14667982Y-12237469D02*
X14677506Y-12246993D01*
X14677506Y-12246993D02*
X14667982Y-12256517D01*
X14667982Y-12256517D02*
X14658458Y-12246993D01*
X14658458Y-12246993D02*
X14667982Y-12237469D01*
X14667982Y-12237469D02*
X14667982Y-12256517D01*
X14867982Y-12256517D02*
X14753696Y-12256517D01*
X14810839Y-12256517D02*
X14810839Y-12056517D01*
X14810839Y-12056517D02*
X14791792Y-12085088D01*
X14791792Y-12085088D02*
X14772744Y-12104136D01*
X14772744Y-12104136D02*
X14753696Y-12113660D01*
X14944173Y-12075564D02*
X14953696Y-12066041D01*
X14953696Y-12066041D02*
X14972744Y-12056517D01*
X14972744Y-12056517D02*
X15020363Y-12056517D01*
X15020363Y-12056517D02*
X15039411Y-12066041D01*
X15039411Y-12066041D02*
X15048934Y-12075564D01*
X15048934Y-12075564D02*
X15058458Y-12094612D01*
X15058458Y-12094612D02*
X15058458Y-12113660D01*
X15058458Y-12113660D02*
X15048934Y-12142231D01*
X15048934Y-12142231D02*
X14934649Y-12256517D01*
X14934649Y-12256517D02*
X15058458Y-12256517D01*
X15229887Y-12056517D02*
X15191792Y-12056517D01*
X15191792Y-12056517D02*
X15172744Y-12066041D01*
X15172744Y-12066041D02*
X15163220Y-12075564D01*
X15163220Y-12075564D02*
X15144173Y-12104136D01*
X15144173Y-12104136D02*
X15134649Y-12142231D01*
X15134649Y-12142231D02*
X15134649Y-12218421D01*
X15134649Y-12218421D02*
X15144173Y-12237469D01*
X15144173Y-12237469D02*
X15153696Y-12246993D01*
X15153696Y-12246993D02*
X15172744Y-12256517D01*
X15172744Y-12256517D02*
X15210839Y-12256517D01*
X15210839Y-12256517D02*
X15229887Y-12246993D01*
X15229887Y-12246993D02*
X15239411Y-12237469D01*
X15239411Y-12237469D02*
X15248934Y-12218421D01*
X15248934Y-12218421D02*
X15248934Y-12170802D01*
X15248934Y-12170802D02*
X15239411Y-12151755D01*
X15239411Y-12151755D02*
X15229887Y-12142231D01*
X15229887Y-12142231D02*
X15210839Y-12132707D01*
X15210839Y-12132707D02*
X15172744Y-12132707D01*
X15172744Y-12132707D02*
X15153696Y-12142231D01*
X15153696Y-12142231D02*
X15144173Y-12151755D01*
X15144173Y-12151755D02*
X15134649Y-12170802D01*
X15372744Y-12056517D02*
X15391792Y-12056517D01*
X15391792Y-12056517D02*
X15410839Y-12066041D01*
X15410839Y-12066041D02*
X15420363Y-12075564D01*
X15420363Y-12075564D02*
X15429887Y-12094612D01*
X15429887Y-12094612D02*
X15439411Y-12132707D01*
X15439411Y-12132707D02*
X15439411Y-12180326D01*
X15439411Y-12180326D02*
X15429887Y-12218421D01*
X15429887Y-12218421D02*
X15420363Y-12237469D01*
X15420363Y-12237469D02*
X15410839Y-12246993D01*
X15410839Y-12246993D02*
X15391792Y-12256517D01*
X15391792Y-12256517D02*
X15372744Y-12256517D01*
X15372744Y-12256517D02*
X15353696Y-12246993D01*
X15353696Y-12246993D02*
X15344173Y-12237469D01*
X15344173Y-12237469D02*
X15334649Y-12218421D01*
X15334649Y-12218421D02*
X15325125Y-12180326D01*
X15325125Y-12180326D02*
X15325125Y-12132707D01*
X15325125Y-12132707D02*
X15334649Y-12094612D01*
X15334649Y-12094612D02*
X15344173Y-12075564D01*
X15344173Y-12075564D02*
X15353696Y-12066041D01*
X15353696Y-12066041D02*
X15372744Y-12056517D01*
X15515601Y-12056517D02*
X15515601Y-12094612D01*
X15591792Y-12056517D02*
X15591792Y-12094612D01*
X15887030Y-12332707D02*
X15877506Y-12323183D01*
X15877506Y-12323183D02*
X15858458Y-12294612D01*
X15858458Y-12294612D02*
X15848935Y-12275564D01*
X15848935Y-12275564D02*
X15839411Y-12246993D01*
X15839411Y-12246993D02*
X15829887Y-12199374D01*
X15829887Y-12199374D02*
X15829887Y-12161279D01*
X15829887Y-12161279D02*
X15839411Y-12113660D01*
X15839411Y-12113660D02*
X15848935Y-12085088D01*
X15848935Y-12085088D02*
X15858458Y-12066041D01*
X15858458Y-12066041D02*
X15877506Y-12037469D01*
X15877506Y-12037469D02*
X15887030Y-12027945D01*
X15953696Y-12075564D02*
X15963220Y-12066041D01*
X15963220Y-12066041D02*
X15982268Y-12056517D01*
X15982268Y-12056517D02*
X16029887Y-12056517D01*
X16029887Y-12056517D02*
X16048935Y-12066041D01*
X16048935Y-12066041D02*
X16058458Y-12075564D01*
X16058458Y-12075564D02*
X16067982Y-12094612D01*
X16067982Y-12094612D02*
X16067982Y-12113660D01*
X16067982Y-12113660D02*
X16058458Y-12142231D01*
X16058458Y-12142231D02*
X15944173Y-12256517D01*
X15944173Y-12256517D02*
X16067982Y-12256517D01*
X16306077Y-12256517D02*
X16306077Y-12056517D01*
X16391792Y-12256517D02*
X16391792Y-12151755D01*
X16391792Y-12151755D02*
X16382268Y-12132707D01*
X16382268Y-12132707D02*
X16363220Y-12123183D01*
X16363220Y-12123183D02*
X16334649Y-12123183D01*
X16334649Y-12123183D02*
X16315601Y-12132707D01*
X16315601Y-12132707D02*
X16306077Y-12142231D01*
X16515601Y-12256517D02*
X16496554Y-12246993D01*
X16496554Y-12246993D02*
X16487030Y-12237469D01*
X16487030Y-12237469D02*
X16477506Y-12218421D01*
X16477506Y-12218421D02*
X16477506Y-12161279D01*
X16477506Y-12161279D02*
X16487030Y-12142231D01*
X16487030Y-12142231D02*
X16496554Y-12132707D01*
X16496554Y-12132707D02*
X16515601Y-12123183D01*
X16515601Y-12123183D02*
X16544173Y-12123183D01*
X16544173Y-12123183D02*
X16563220Y-12132707D01*
X16563220Y-12132707D02*
X16572744Y-12142231D01*
X16572744Y-12142231D02*
X16582268Y-12161279D01*
X16582268Y-12161279D02*
X16582268Y-12218421D01*
X16582268Y-12218421D02*
X16572744Y-12237469D01*
X16572744Y-12237469D02*
X16563220Y-12246993D01*
X16563220Y-12246993D02*
X16544173Y-12256517D01*
X16544173Y-12256517D02*
X16515601Y-12256517D01*
X16696554Y-12256517D02*
X16677506Y-12246993D01*
X16677506Y-12246993D02*
X16667982Y-12227945D01*
X16667982Y-12227945D02*
X16667982Y-12056517D01*
X16848935Y-12246993D02*
X16829887Y-12256517D01*
X16829887Y-12256517D02*
X16791792Y-12256517D01*
X16791792Y-12256517D02*
X16772744Y-12246993D01*
X16772744Y-12246993D02*
X16763220Y-12227945D01*
X16763220Y-12227945D02*
X16763220Y-12151755D01*
X16763220Y-12151755D02*
X16772744Y-12132707D01*
X16772744Y-12132707D02*
X16791792Y-12123183D01*
X16791792Y-12123183D02*
X16829887Y-12123183D01*
X16829887Y-12123183D02*
X16848935Y-12132707D01*
X16848935Y-12132707D02*
X16858459Y-12151755D01*
X16858459Y-12151755D02*
X16858459Y-12170802D01*
X16858459Y-12170802D02*
X16763220Y-12189850D01*
X16934649Y-12246993D02*
X16953697Y-12256517D01*
X16953697Y-12256517D02*
X16991792Y-12256517D01*
X16991792Y-12256517D02*
X17010840Y-12246993D01*
X17010840Y-12246993D02*
X17020363Y-12227945D01*
X17020363Y-12227945D02*
X17020363Y-12218421D01*
X17020363Y-12218421D02*
X17010840Y-12199374D01*
X17010840Y-12199374D02*
X16991792Y-12189850D01*
X16991792Y-12189850D02*
X16963220Y-12189850D01*
X16963220Y-12189850D02*
X16944173Y-12180326D01*
X16944173Y-12180326D02*
X16934649Y-12161279D01*
X16934649Y-12161279D02*
X16934649Y-12151755D01*
X16934649Y-12151755D02*
X16944173Y-12132707D01*
X16944173Y-12132707D02*
X16963220Y-12123183D01*
X16963220Y-12123183D02*
X16991792Y-12123183D01*
X16991792Y-12123183D02*
X17010840Y-12132707D01*
X17087030Y-12332707D02*
X17096554Y-12323183D01*
X17096554Y-12323183D02*
X17115601Y-12294612D01*
X17115601Y-12294612D02*
X17125125Y-12275564D01*
X17125125Y-12275564D02*
X17134649Y-12246993D01*
X17134649Y-12246993D02*
X17144173Y-12199374D01*
X17144173Y-12199374D02*
X17144173Y-12161279D01*
X17144173Y-12161279D02*
X17134649Y-12113660D01*
X17134649Y-12113660D02*
X17125125Y-12085088D01*
X17125125Y-12085088D02*
X17115601Y-12066041D01*
X17115601Y-12066041D02*
X17096554Y-12037469D01*
X17096554Y-12037469D02*
X17087030Y-12027945D01*
M02*
