%TF.GenerationSoftware,KiCad,Pcbnew,8.0.6*%
%TF.CreationDate,2024-11-18T08:45:56-05:00*%
%TF.ProjectId,cbmSD-pass,63626d53-442d-4706-9173-732e6b696361,rev?*%
%TF.SameCoordinates,Original*%
%TF.FileFunction,Drillmap*%
%TF.FilePolarity,Positive*%
%FSLAX45Y45*%
G04 Gerber Fmt 4.5, Leading zero omitted, Abs format (unit mm)*
G04 Created by KiCad (PCBNEW 8.0.6) date 2024-11-18 08:45:56*
%MOMM*%
%LPD*%
G01*
G04 APERTURE LIST*
%ADD10C,0.200660*%
%ADD11C,0.200000*%
%ADD12C,0.100000*%
%ADD13C,0.110000*%
G04 APERTURE END LIST*
D10*
X18214000Y-6654000D02*
X18213000Y-9451000D01*
X18135000Y-6576000D02*
X18214000Y-6654000D01*
X12324000Y-6656000D02*
X12380000Y-6579000D01*
X12324000Y-9455000D02*
X12324000Y-6656000D01*
X12799100Y-9454710D02*
X12324000Y-9455000D01*
X17714000Y-9450900D02*
X18213000Y-9451000D01*
X12380000Y-6579000D02*
X18135000Y-6576000D01*
X13643650Y-9673150D02*
X13751600Y-9673150D01*
X16526550Y-9666800D02*
X16418600Y-9666800D01*
X12938800Y-10574850D02*
X13503950Y-10574850D01*
X17714000Y-10435150D02*
X17714000Y-9450900D01*
X13891300Y-10574850D02*
X16278900Y-10574850D01*
X16666250Y-10574850D02*
X17574300Y-10574850D01*
X16526550Y-10435150D02*
X16526550Y-9666800D01*
X13643650Y-9673150D02*
X13643650Y-10435150D01*
X13891300Y-10574850D02*
G75*
G02*
X13751600Y-10435150I0J139700D01*
G01*
X13643650Y-10435150D02*
G75*
G02*
X13503950Y-10574850I-139700J0D01*
G01*
X16418600Y-9666800D02*
X16418600Y-10435150D01*
X17714000Y-10435150D02*
G75*
G02*
X17574300Y-10574850I-139700J0D01*
G01*
X16418600Y-10435150D02*
G75*
G02*
X16278900Y-10574850I-139700J0D01*
G01*
X13751600Y-10435150D02*
X13751600Y-9673150D01*
X16666250Y-10574850D02*
G75*
G02*
X16526550Y-10435150I0J139700D01*
G01*
X12938800Y-10574850D02*
G75*
G02*
X12799100Y-10435150I0J139700D01*
G01*
X12782723Y-6862000D02*
G75*
G02*
X12445277Y-6862000I-168723J0D01*
G01*
X12445277Y-6862000D02*
G75*
G02*
X12782723Y-6862000I168723J0D01*
G01*
X12782723Y-9151000D02*
G75*
G02*
X12445277Y-9151000I-168723J0D01*
G01*
X12445277Y-9151000D02*
G75*
G02*
X12782723Y-9151000I168723J0D01*
G01*
X12799100Y-10435150D02*
X12799100Y-9454710D01*
X18087953Y-6862080D02*
G75*
G02*
X17750507Y-6862080I-168723J0D01*
G01*
X17750507Y-6862080D02*
G75*
G02*
X18087953Y-6862080I168723J0D01*
G01*
X18094723Y-9168000D02*
G75*
G02*
X17757277Y-9168000I-168723J0D01*
G01*
X17757277Y-9168000D02*
G75*
G02*
X18094723Y-9168000I168723J0D01*
G01*
D11*
D12*
X13181000Y-7610000D02*
X13221000Y-7650000D01*
X13221000Y-7610000D02*
X13181000Y-7650000D01*
X13547000Y-7585000D02*
X13587000Y-7625000D01*
X13587000Y-7585000D02*
X13547000Y-7625000D01*
X13713000Y-8476000D02*
X13753000Y-8516000D01*
X13753000Y-8476000D02*
X13713000Y-8516000D01*
X13766640Y-7598000D02*
X13806640Y-7638000D01*
X13806640Y-7598000D02*
X13766640Y-7638000D01*
X13963000Y-8420000D02*
X14003000Y-8460000D01*
X14003000Y-8420000D02*
X13963000Y-8460000D01*
X14118000Y-7598000D02*
X14158000Y-7638000D01*
X14158000Y-7598000D02*
X14118000Y-7638000D01*
X14218842Y-8537158D02*
X14258842Y-8577158D01*
X14258842Y-8537158D02*
X14218842Y-8577158D01*
X14375342Y-7644342D02*
X14415342Y-7684342D01*
X14415342Y-7644342D02*
X14375342Y-7684342D01*
X14967000Y-7772000D02*
X15007000Y-7812000D01*
X15007000Y-7772000D02*
X14967000Y-7812000D01*
X15744000Y-7757000D02*
X15784000Y-7797000D01*
X15784000Y-7757000D02*
X15744000Y-7797000D01*
X17675280Y-7960000D02*
X17715280Y-8000000D01*
X17715280Y-7960000D02*
X17675280Y-8000000D01*
X16676000Y-7801000D02*
G75*
G02*
X16616000Y-7801000I-30000J0D01*
G01*
X16616000Y-7801000D02*
G75*
G02*
X16676000Y-7801000I30000J0D01*
G01*
X16676000Y-7951000D02*
G75*
G02*
X16616000Y-7951000I-30000J0D01*
G01*
X16616000Y-7951000D02*
G75*
G02*
X16676000Y-7951000I30000J0D01*
G01*
X15635600Y-8014000D02*
X15635600Y-8094000D01*
X15595600Y-8054000D02*
X15675600Y-8054000D01*
X15698284Y-8602285D02*
X15698284Y-8545716D01*
X15641715Y-8545716D01*
X15641715Y-8602285D01*
X15698284Y-8602285D01*
X16714284Y-8602285D02*
X16714284Y-8545716D01*
X16657715Y-8545716D01*
X16657715Y-8602285D01*
X16714284Y-8602285D01*
X16017000Y-7881000D02*
X16062000Y-7836000D01*
X16017000Y-7791000D01*
X15972000Y-7836000D01*
X16017000Y-7881000D01*
X16017000Y-8135000D02*
X16062000Y-8090000D01*
X16017000Y-8045000D01*
X15972000Y-8090000D01*
X16017000Y-8135000D01*
X12641000Y-7289000D02*
X12741000Y-7389000D01*
X12741000Y-7289000D02*
X12641000Y-7389000D01*
X12741000Y-7339000D02*
G75*
G02*
X12641000Y-7339000I-50000J0D01*
G01*
X12641000Y-7339000D02*
G75*
G02*
X12741000Y-7339000I50000J0D01*
G01*
X12641000Y-7543000D02*
X12741000Y-7643000D01*
X12741000Y-7543000D02*
X12641000Y-7643000D01*
X12741000Y-7593000D02*
G75*
G02*
X12641000Y-7593000I-50000J0D01*
G01*
X12641000Y-7593000D02*
G75*
G02*
X12741000Y-7593000I50000J0D01*
G01*
X13042000Y-7993000D02*
X13142000Y-8093000D01*
X13142000Y-7993000D02*
X13042000Y-8093000D01*
X13142000Y-8043000D02*
G75*
G02*
X13042000Y-8043000I-50000J0D01*
G01*
X13042000Y-8043000D02*
G75*
G02*
X13142000Y-8043000I50000J0D01*
G01*
X13042000Y-8247000D02*
X13142000Y-8347000D01*
X13142000Y-8247000D02*
X13042000Y-8347000D01*
X13142000Y-8297000D02*
G75*
G02*
X13042000Y-8297000I-50000J0D01*
G01*
X13042000Y-8297000D02*
G75*
G02*
X13142000Y-8297000I50000J0D01*
G01*
X13296000Y-7993000D02*
X13396000Y-8093000D01*
X13396000Y-7993000D02*
X13296000Y-8093000D01*
X13396000Y-8043000D02*
G75*
G02*
X13296000Y-8043000I-50000J0D01*
G01*
X13296000Y-8043000D02*
G75*
G02*
X13396000Y-8043000I50000J0D01*
G01*
X13296000Y-8247000D02*
X13396000Y-8347000D01*
X13396000Y-8247000D02*
X13296000Y-8347000D01*
X13396000Y-8297000D02*
G75*
G02*
X13296000Y-8297000I-50000J0D01*
G01*
X13296000Y-8297000D02*
G75*
G02*
X13396000Y-8297000I50000J0D01*
G01*
X13550000Y-8247000D02*
X13650000Y-8347000D01*
X13650000Y-8247000D02*
X13550000Y-8347000D01*
X13650000Y-8297000D02*
G75*
G02*
X13550000Y-8297000I-50000J0D01*
G01*
X13550000Y-8297000D02*
G75*
G02*
X13650000Y-8297000I50000J0D01*
G01*
X13550000Y-7993000D02*
X13650000Y-8093000D01*
X13650000Y-7993000D02*
X13550000Y-8093000D01*
X13650000Y-8043000D02*
G75*
G02*
X13550000Y-8043000I-50000J0D01*
G01*
X13550000Y-8043000D02*
G75*
G02*
X13650000Y-8043000I50000J0D01*
G01*
X13804000Y-7993000D02*
X13904000Y-8093000D01*
X13904000Y-7993000D02*
X13804000Y-8093000D01*
X13904000Y-8043000D02*
G75*
G02*
X13804000Y-8043000I-50000J0D01*
G01*
X13804000Y-8043000D02*
G75*
G02*
X13904000Y-8043000I50000J0D01*
G01*
X13804000Y-8247000D02*
X13904000Y-8347000D01*
X13904000Y-8247000D02*
X13804000Y-8347000D01*
X13904000Y-8297000D02*
G75*
G02*
X13804000Y-8297000I-50000J0D01*
G01*
X13804000Y-8297000D02*
G75*
G02*
X13904000Y-8297000I50000J0D01*
G01*
X14058000Y-7993000D02*
X14158000Y-8093000D01*
X14158000Y-7993000D02*
X14058000Y-8093000D01*
X14158000Y-8043000D02*
G75*
G02*
X14058000Y-8043000I-50000J0D01*
G01*
X14058000Y-8043000D02*
G75*
G02*
X14158000Y-8043000I50000J0D01*
G01*
X14058000Y-8247000D02*
X14158000Y-8347000D01*
X14158000Y-8247000D02*
X14058000Y-8347000D01*
X14158000Y-8297000D02*
G75*
G02*
X14058000Y-8297000I-50000J0D01*
G01*
X14058000Y-8297000D02*
G75*
G02*
X14158000Y-8297000I50000J0D01*
G01*
X14312000Y-7993000D02*
X14412000Y-8093000D01*
X14412000Y-7993000D02*
X14312000Y-8093000D01*
X14412000Y-8043000D02*
G75*
G02*
X14312000Y-8043000I-50000J0D01*
G01*
X14312000Y-8043000D02*
G75*
G02*
X14412000Y-8043000I50000J0D01*
G01*
X14312000Y-8247000D02*
X14412000Y-8347000D01*
X14412000Y-8247000D02*
X14312000Y-8347000D01*
X14412000Y-8297000D02*
G75*
G02*
X14312000Y-8297000I-50000J0D01*
G01*
X14312000Y-8297000D02*
G75*
G02*
X14412000Y-8297000I50000J0D01*
G01*
X14566000Y-7993000D02*
X14666000Y-8093000D01*
X14666000Y-7993000D02*
X14566000Y-8093000D01*
X14666000Y-8043000D02*
G75*
G02*
X14566000Y-8043000I-50000J0D01*
G01*
X14566000Y-8043000D02*
G75*
G02*
X14666000Y-8043000I50000J0D01*
G01*
X14566000Y-8247000D02*
X14666000Y-8347000D01*
X14666000Y-8247000D02*
X14566000Y-8347000D01*
X14666000Y-8297000D02*
G75*
G02*
X14566000Y-8297000I-50000J0D01*
G01*
X14566000Y-8297000D02*
G75*
G02*
X14666000Y-8297000I50000J0D01*
G01*
X14820000Y-7993000D02*
X14920000Y-8093000D01*
X14920000Y-7993000D02*
X14820000Y-8093000D01*
X14920000Y-8043000D02*
G75*
G02*
X14820000Y-8043000I-50000J0D01*
G01*
X14820000Y-8043000D02*
G75*
G02*
X14920000Y-8043000I50000J0D01*
G01*
X14820000Y-8247000D02*
X14920000Y-8347000D01*
X14920000Y-8247000D02*
X14820000Y-8347000D01*
X14920000Y-8297000D02*
G75*
G02*
X14820000Y-8297000I-50000J0D01*
G01*
X14820000Y-8297000D02*
G75*
G02*
X14920000Y-8297000I50000J0D01*
G01*
X15074000Y-7993000D02*
X15174000Y-8093000D01*
X15174000Y-7993000D02*
X15074000Y-8093000D01*
X15174000Y-8043000D02*
G75*
G02*
X15074000Y-8043000I-50000J0D01*
G01*
X15074000Y-8043000D02*
G75*
G02*
X15174000Y-8043000I50000J0D01*
G01*
X15074000Y-8247000D02*
X15174000Y-8347000D01*
X15174000Y-8247000D02*
X15074000Y-8347000D01*
X15174000Y-8297000D02*
G75*
G02*
X15074000Y-8297000I-50000J0D01*
G01*
X15074000Y-8297000D02*
G75*
G02*
X15174000Y-8297000I50000J0D01*
G01*
X15328000Y-7993000D02*
X15428000Y-8093000D01*
X15428000Y-7993000D02*
X15328000Y-8093000D01*
X15428000Y-8043000D02*
G75*
G02*
X15328000Y-8043000I-50000J0D01*
G01*
X15328000Y-8043000D02*
G75*
G02*
X15428000Y-8043000I50000J0D01*
G01*
X15328000Y-8247000D02*
X15428000Y-8347000D01*
X15428000Y-8247000D02*
X15328000Y-8347000D01*
X15428000Y-8297000D02*
G75*
G02*
X15328000Y-8297000I-50000J0D01*
G01*
X15328000Y-8297000D02*
G75*
G02*
X15428000Y-8297000I50000J0D01*
G01*
X16974000Y-8250000D02*
X17074000Y-8350000D01*
X17074000Y-8250000D02*
X16974000Y-8350000D01*
X17074000Y-8300000D02*
G75*
G02*
X16974000Y-8300000I-50000J0D01*
G01*
X16974000Y-8300000D02*
G75*
G02*
X17074000Y-8300000I50000J0D01*
G01*
X17074000Y-8400000D02*
X17074000Y-8200000D01*
X16974000Y-8200000D02*
G75*
G02*
X17074000Y-8200000I50000J0D01*
G01*
X16974000Y-8200000D02*
X16974000Y-8400000D01*
X16974000Y-8400000D02*
G75*
G03*
X17074000Y-8400000I50000J0D01*
G01*
X17274000Y-7780000D02*
X17374000Y-7880000D01*
X17374000Y-7780000D02*
X17274000Y-7880000D01*
X17374000Y-7830000D02*
G75*
G02*
X17274000Y-7830000I-50000J0D01*
G01*
X17274000Y-7830000D02*
G75*
G02*
X17374000Y-7830000I50000J0D01*
G01*
X17424000Y-7780000D02*
X17224000Y-7780000D01*
X17224000Y-7880000D02*
G75*
G02*
X17224000Y-7780000I0J50000D01*
G01*
X17224000Y-7880000D02*
X17424000Y-7880000D01*
X17424000Y-7880000D02*
G75*
G03*
X17424000Y-7780000I0J50000D01*
G01*
X17574000Y-8250000D02*
X17674000Y-8350000D01*
X17674000Y-8250000D02*
X17574000Y-8350000D01*
X17674000Y-8300000D02*
G75*
G02*
X17574000Y-8300000I-50000J0D01*
G01*
X17574000Y-8300000D02*
G75*
G02*
X17674000Y-8300000I50000J0D01*
G01*
X17674000Y-8400000D02*
X17674000Y-8200000D01*
X17574000Y-8200000D02*
G75*
G02*
X17674000Y-8200000I50000J0D01*
G01*
X17574000Y-8200000D02*
X17574000Y-8400000D01*
X17574000Y-8400000D02*
G75*
G03*
X17674000Y-8400000I50000J0D01*
G01*
X17742420Y-7307969D02*
X17842420Y-7407969D01*
X17842420Y-7307969D02*
X17742420Y-7407969D01*
X17842420Y-7357969D02*
G75*
G02*
X17742420Y-7357969I-50000J0D01*
G01*
X17742420Y-7357969D02*
G75*
G02*
X17842420Y-7357969I50000J0D01*
G01*
X17742420Y-7561969D02*
X17842420Y-7661969D01*
X17842420Y-7561969D02*
X17742420Y-7661969D01*
X17842420Y-7611969D02*
G75*
G02*
X17742420Y-7611969I-50000J0D01*
G01*
X17742420Y-7611969D02*
G75*
G02*
X17842420Y-7611969I50000J0D01*
G01*
D13*
X13037000Y-8884000D02*
X13147000Y-8994000D01*
X13147000Y-8884000D02*
X13037000Y-8994000D01*
X13092000Y-8884000D02*
X13092000Y-8994000D01*
X13037000Y-8939000D02*
X13147000Y-8939000D01*
X13037000Y-9224000D02*
X13147000Y-9334000D01*
X13147000Y-9224000D02*
X13037000Y-9334000D01*
X13092000Y-9224000D02*
X13092000Y-9334000D01*
X13037000Y-9279000D02*
X13147000Y-9279000D01*
X13433009Y-8884000D02*
X13543009Y-8994000D01*
X13543009Y-8884000D02*
X13433009Y-8994000D01*
X13488009Y-8884000D02*
X13488009Y-8994000D01*
X13433009Y-8939000D02*
X13543009Y-8939000D01*
X13433009Y-9224000D02*
X13543009Y-9334000D01*
X13543009Y-9224000D02*
X13433009Y-9334000D01*
X13488009Y-9224000D02*
X13488009Y-9334000D01*
X13433009Y-9279000D02*
X13543009Y-9279000D01*
X13829018Y-8884000D02*
X13939018Y-8994000D01*
X13939018Y-8884000D02*
X13829018Y-8994000D01*
X13884018Y-8884000D02*
X13884018Y-8994000D01*
X13829018Y-8939000D02*
X13939018Y-8939000D01*
X13829018Y-9224000D02*
X13939018Y-9334000D01*
X13939018Y-9224000D02*
X13829018Y-9334000D01*
X13884018Y-9224000D02*
X13884018Y-9334000D01*
X13829018Y-9279000D02*
X13939018Y-9279000D01*
X14225027Y-8884000D02*
X14335027Y-8994000D01*
X14335027Y-8884000D02*
X14225027Y-8994000D01*
X14280027Y-8884000D02*
X14280027Y-8994000D01*
X14225027Y-8939000D02*
X14335027Y-8939000D01*
X14225027Y-9224000D02*
X14335027Y-9334000D01*
X14335027Y-9224000D02*
X14225027Y-9334000D01*
X14280027Y-9224000D02*
X14280027Y-9334000D01*
X14225027Y-9279000D02*
X14335027Y-9279000D01*
X14621036Y-8884000D02*
X14731036Y-8994000D01*
X14731036Y-8884000D02*
X14621036Y-8994000D01*
X14676036Y-8884000D02*
X14676036Y-8994000D01*
X14621036Y-8939000D02*
X14731036Y-8939000D01*
X14621036Y-9224000D02*
X14731036Y-9334000D01*
X14731036Y-9224000D02*
X14621036Y-9334000D01*
X14676036Y-9224000D02*
X14676036Y-9334000D01*
X14621036Y-9279000D02*
X14731036Y-9279000D01*
X15017045Y-8884000D02*
X15127045Y-8994000D01*
X15127045Y-8884000D02*
X15017045Y-8994000D01*
X15072045Y-8884000D02*
X15072045Y-8994000D01*
X15017045Y-8939000D02*
X15127045Y-8939000D01*
X15017045Y-9224000D02*
X15127045Y-9334000D01*
X15127045Y-9224000D02*
X15017045Y-9334000D01*
X15072045Y-9224000D02*
X15072045Y-9334000D01*
X15017045Y-9279000D02*
X15127045Y-9279000D01*
X15413054Y-8884000D02*
X15523054Y-8994000D01*
X15523054Y-8884000D02*
X15413054Y-8994000D01*
X15468054Y-8884000D02*
X15468054Y-8994000D01*
X15413054Y-8939000D02*
X15523054Y-8939000D01*
X15413054Y-9224000D02*
X15523054Y-9334000D01*
X15523054Y-9224000D02*
X15413054Y-9334000D01*
X15468054Y-9224000D02*
X15468054Y-9334000D01*
X15413054Y-9279000D02*
X15523054Y-9279000D01*
X15809063Y-8884000D02*
X15919063Y-8994000D01*
X15919063Y-8884000D02*
X15809063Y-8994000D01*
X15864063Y-8884000D02*
X15864063Y-8994000D01*
X15809063Y-8939000D02*
X15919063Y-8939000D01*
X15809063Y-9224000D02*
X15919063Y-9334000D01*
X15919063Y-9224000D02*
X15809063Y-9334000D01*
X15864063Y-9224000D02*
X15864063Y-9334000D01*
X15809063Y-9279000D02*
X15919063Y-9279000D01*
X16205072Y-8884000D02*
X16315072Y-8994000D01*
X16315072Y-8884000D02*
X16205072Y-8994000D01*
X16260072Y-8884000D02*
X16260072Y-8994000D01*
X16205072Y-8939000D02*
X16315072Y-8939000D01*
X16205072Y-9224000D02*
X16315072Y-9334000D01*
X16315072Y-9224000D02*
X16205072Y-9334000D01*
X16260072Y-9224000D02*
X16260072Y-9334000D01*
X16205072Y-9279000D02*
X16315072Y-9279000D01*
X16601081Y-8884000D02*
X16711081Y-8994000D01*
X16711081Y-8884000D02*
X16601081Y-8994000D01*
X16656081Y-8884000D02*
X16656081Y-8994000D01*
X16601081Y-8939000D02*
X16711081Y-8939000D01*
X16601081Y-9224000D02*
X16711081Y-9334000D01*
X16711081Y-9224000D02*
X16601081Y-9334000D01*
X16656081Y-9224000D02*
X16656081Y-9334000D01*
X16601081Y-9279000D02*
X16711081Y-9279000D01*
X16997090Y-8884000D02*
X17107090Y-8994000D01*
X17107090Y-8884000D02*
X16997090Y-8994000D01*
X17052090Y-8884000D02*
X17052090Y-8994000D01*
X16997090Y-8939000D02*
X17107090Y-8939000D01*
X16997090Y-9224000D02*
X17107090Y-9334000D01*
X17107090Y-9224000D02*
X16997090Y-9334000D01*
X17052090Y-9224000D02*
X17052090Y-9334000D01*
X16997090Y-9279000D02*
X17107090Y-9279000D01*
X17393100Y-8884000D02*
X17503100Y-8994000D01*
X17503100Y-8884000D02*
X17393100Y-8994000D01*
X17448100Y-8884000D02*
X17448100Y-8994000D01*
X17393100Y-8939000D02*
X17503100Y-8939000D01*
X17393100Y-9224000D02*
X17503100Y-9334000D01*
X17503100Y-9224000D02*
X17393100Y-9334000D01*
X17448100Y-9224000D02*
X17448100Y-9334000D01*
X17393100Y-9279000D02*
X17503100Y-9279000D01*
D11*
X12574744Y-10896367D02*
X12574744Y-10696367D01*
X12574744Y-10696367D02*
X12622363Y-10696367D01*
X12622363Y-10696367D02*
X12650934Y-10705891D01*
X12650934Y-10705891D02*
X12669982Y-10724938D01*
X12669982Y-10724938D02*
X12679506Y-10743986D01*
X12679506Y-10743986D02*
X12689029Y-10782081D01*
X12689029Y-10782081D02*
X12689029Y-10810653D01*
X12689029Y-10810653D02*
X12679506Y-10848748D01*
X12679506Y-10848748D02*
X12669982Y-10867795D01*
X12669982Y-10867795D02*
X12650934Y-10886843D01*
X12650934Y-10886843D02*
X12622363Y-10896367D01*
X12622363Y-10896367D02*
X12574744Y-10896367D01*
X12774744Y-10896367D02*
X12774744Y-10763033D01*
X12774744Y-10801129D02*
X12784268Y-10782081D01*
X12784268Y-10782081D02*
X12793791Y-10772557D01*
X12793791Y-10772557D02*
X12812839Y-10763033D01*
X12812839Y-10763033D02*
X12831887Y-10763033D01*
X12898553Y-10896367D02*
X12898553Y-10763033D01*
X12898553Y-10696367D02*
X12889029Y-10705891D01*
X12889029Y-10705891D02*
X12898553Y-10715414D01*
X12898553Y-10715414D02*
X12908077Y-10705891D01*
X12908077Y-10705891D02*
X12898553Y-10696367D01*
X12898553Y-10696367D02*
X12898553Y-10715414D01*
X13022363Y-10896367D02*
X13003315Y-10886843D01*
X13003315Y-10886843D02*
X12993791Y-10867795D01*
X12993791Y-10867795D02*
X12993791Y-10696367D01*
X13127125Y-10896367D02*
X13108077Y-10886843D01*
X13108077Y-10886843D02*
X13098553Y-10867795D01*
X13098553Y-10867795D02*
X13098553Y-10696367D01*
X13355696Y-10896367D02*
X13355696Y-10696367D01*
X13355696Y-10696367D02*
X13422363Y-10839224D01*
X13422363Y-10839224D02*
X13489029Y-10696367D01*
X13489029Y-10696367D02*
X13489029Y-10896367D01*
X13669982Y-10896367D02*
X13669982Y-10791605D01*
X13669982Y-10791605D02*
X13660458Y-10772557D01*
X13660458Y-10772557D02*
X13641410Y-10763033D01*
X13641410Y-10763033D02*
X13603315Y-10763033D01*
X13603315Y-10763033D02*
X13584268Y-10772557D01*
X13669982Y-10886843D02*
X13650934Y-10896367D01*
X13650934Y-10896367D02*
X13603315Y-10896367D01*
X13603315Y-10896367D02*
X13584268Y-10886843D01*
X13584268Y-10886843D02*
X13574744Y-10867795D01*
X13574744Y-10867795D02*
X13574744Y-10848748D01*
X13574744Y-10848748D02*
X13584268Y-10829700D01*
X13584268Y-10829700D02*
X13603315Y-10820176D01*
X13603315Y-10820176D02*
X13650934Y-10820176D01*
X13650934Y-10820176D02*
X13669982Y-10810653D01*
X13765220Y-10763033D02*
X13765220Y-10963033D01*
X13765220Y-10772557D02*
X13784268Y-10763033D01*
X13784268Y-10763033D02*
X13822363Y-10763033D01*
X13822363Y-10763033D02*
X13841410Y-10772557D01*
X13841410Y-10772557D02*
X13850934Y-10782081D01*
X13850934Y-10782081D02*
X13860458Y-10801129D01*
X13860458Y-10801129D02*
X13860458Y-10858272D01*
X13860458Y-10858272D02*
X13850934Y-10877319D01*
X13850934Y-10877319D02*
X13841410Y-10886843D01*
X13841410Y-10886843D02*
X13822363Y-10896367D01*
X13822363Y-10896367D02*
X13784268Y-10896367D01*
X13784268Y-10896367D02*
X13765220Y-10886843D01*
X13946172Y-10877319D02*
X13955696Y-10886843D01*
X13955696Y-10886843D02*
X13946172Y-10896367D01*
X13946172Y-10896367D02*
X13936649Y-10886843D01*
X13936649Y-10886843D02*
X13946172Y-10877319D01*
X13946172Y-10877319D02*
X13946172Y-10896367D01*
X13946172Y-10772557D02*
X13955696Y-10782081D01*
X13955696Y-10782081D02*
X13946172Y-10791605D01*
X13946172Y-10791605D02*
X13936649Y-10782081D01*
X13936649Y-10782081D02*
X13946172Y-10772557D01*
X13946172Y-10772557D02*
X13946172Y-10791605D01*
D12*
X12273967Y-11204883D02*
X12313967Y-11244883D01*
X12313967Y-11204883D02*
X12273967Y-11244883D01*
D11*
X12612839Y-11116367D02*
X12631887Y-11116367D01*
X12631887Y-11116367D02*
X12650934Y-11125891D01*
X12650934Y-11125891D02*
X12660458Y-11135414D01*
X12660458Y-11135414D02*
X12669982Y-11154462D01*
X12669982Y-11154462D02*
X12679506Y-11192557D01*
X12679506Y-11192557D02*
X12679506Y-11240176D01*
X12679506Y-11240176D02*
X12669982Y-11278271D01*
X12669982Y-11278271D02*
X12660458Y-11297319D01*
X12660458Y-11297319D02*
X12650934Y-11306843D01*
X12650934Y-11306843D02*
X12631887Y-11316367D01*
X12631887Y-11316367D02*
X12612839Y-11316367D01*
X12612839Y-11316367D02*
X12593791Y-11306843D01*
X12593791Y-11306843D02*
X12584268Y-11297319D01*
X12584268Y-11297319D02*
X12574744Y-11278271D01*
X12574744Y-11278271D02*
X12565220Y-11240176D01*
X12565220Y-11240176D02*
X12565220Y-11192557D01*
X12565220Y-11192557D02*
X12574744Y-11154462D01*
X12574744Y-11154462D02*
X12584268Y-11135414D01*
X12584268Y-11135414D02*
X12593791Y-11125891D01*
X12593791Y-11125891D02*
X12612839Y-11116367D01*
X12765220Y-11297319D02*
X12774744Y-11306843D01*
X12774744Y-11306843D02*
X12765220Y-11316367D01*
X12765220Y-11316367D02*
X12755696Y-11306843D01*
X12755696Y-11306843D02*
X12765220Y-11297319D01*
X12765220Y-11297319D02*
X12765220Y-11316367D01*
X12946172Y-11183033D02*
X12946172Y-11316367D01*
X12898553Y-11106843D02*
X12850934Y-11249700D01*
X12850934Y-11249700D02*
X12974744Y-11249700D01*
X13089029Y-11116367D02*
X13108077Y-11116367D01*
X13108077Y-11116367D02*
X13127125Y-11125891D01*
X13127125Y-11125891D02*
X13136649Y-11135414D01*
X13136649Y-11135414D02*
X13146172Y-11154462D01*
X13146172Y-11154462D02*
X13155696Y-11192557D01*
X13155696Y-11192557D02*
X13155696Y-11240176D01*
X13155696Y-11240176D02*
X13146172Y-11278271D01*
X13146172Y-11278271D02*
X13136649Y-11297319D01*
X13136649Y-11297319D02*
X13127125Y-11306843D01*
X13127125Y-11306843D02*
X13108077Y-11316367D01*
X13108077Y-11316367D02*
X13089029Y-11316367D01*
X13089029Y-11316367D02*
X13069982Y-11306843D01*
X13069982Y-11306843D02*
X13060458Y-11297319D01*
X13060458Y-11297319D02*
X13050934Y-11278271D01*
X13050934Y-11278271D02*
X13041410Y-11240176D01*
X13041410Y-11240176D02*
X13041410Y-11192557D01*
X13041410Y-11192557D02*
X13050934Y-11154462D01*
X13050934Y-11154462D02*
X13060458Y-11135414D01*
X13060458Y-11135414D02*
X13069982Y-11125891D01*
X13069982Y-11125891D02*
X13089029Y-11116367D01*
X13279506Y-11116367D02*
X13298553Y-11116367D01*
X13298553Y-11116367D02*
X13317601Y-11125891D01*
X13317601Y-11125891D02*
X13327125Y-11135414D01*
X13327125Y-11135414D02*
X13336649Y-11154462D01*
X13336649Y-11154462D02*
X13346172Y-11192557D01*
X13346172Y-11192557D02*
X13346172Y-11240176D01*
X13346172Y-11240176D02*
X13336649Y-11278271D01*
X13336649Y-11278271D02*
X13327125Y-11297319D01*
X13327125Y-11297319D02*
X13317601Y-11306843D01*
X13317601Y-11306843D02*
X13298553Y-11316367D01*
X13298553Y-11316367D02*
X13279506Y-11316367D01*
X13279506Y-11316367D02*
X13260458Y-11306843D01*
X13260458Y-11306843D02*
X13250934Y-11297319D01*
X13250934Y-11297319D02*
X13241410Y-11278271D01*
X13241410Y-11278271D02*
X13231887Y-11240176D01*
X13231887Y-11240176D02*
X13231887Y-11192557D01*
X13231887Y-11192557D02*
X13241410Y-11154462D01*
X13241410Y-11154462D02*
X13250934Y-11135414D01*
X13250934Y-11135414D02*
X13260458Y-11125891D01*
X13260458Y-11125891D02*
X13279506Y-11116367D01*
X13431887Y-11316367D02*
X13431887Y-11183033D01*
X13431887Y-11202081D02*
X13441410Y-11192557D01*
X13441410Y-11192557D02*
X13460458Y-11183033D01*
X13460458Y-11183033D02*
X13489030Y-11183033D01*
X13489030Y-11183033D02*
X13508077Y-11192557D01*
X13508077Y-11192557D02*
X13517601Y-11211605D01*
X13517601Y-11211605D02*
X13517601Y-11316367D01*
X13517601Y-11211605D02*
X13527125Y-11192557D01*
X13527125Y-11192557D02*
X13546172Y-11183033D01*
X13546172Y-11183033D02*
X13574744Y-11183033D01*
X13574744Y-11183033D02*
X13593791Y-11192557D01*
X13593791Y-11192557D02*
X13603315Y-11211605D01*
X13603315Y-11211605D02*
X13603315Y-11316367D01*
X13698553Y-11316367D02*
X13698553Y-11183033D01*
X13698553Y-11202081D02*
X13708077Y-11192557D01*
X13708077Y-11192557D02*
X13727125Y-11183033D01*
X13727125Y-11183033D02*
X13755696Y-11183033D01*
X13755696Y-11183033D02*
X13774744Y-11192557D01*
X13774744Y-11192557D02*
X13784268Y-11211605D01*
X13784268Y-11211605D02*
X13784268Y-11316367D01*
X13784268Y-11211605D02*
X13793791Y-11192557D01*
X13793791Y-11192557D02*
X13812839Y-11183033D01*
X13812839Y-11183033D02*
X13841410Y-11183033D01*
X13841410Y-11183033D02*
X13860458Y-11192557D01*
X13860458Y-11192557D02*
X13869982Y-11211605D01*
X13869982Y-11211605D02*
X13869982Y-11316367D01*
X14260458Y-11106843D02*
X14089030Y-11363986D01*
X14517601Y-11116367D02*
X14536649Y-11116367D01*
X14536649Y-11116367D02*
X14555696Y-11125891D01*
X14555696Y-11125891D02*
X14565220Y-11135414D01*
X14565220Y-11135414D02*
X14574744Y-11154462D01*
X14574744Y-11154462D02*
X14584268Y-11192557D01*
X14584268Y-11192557D02*
X14584268Y-11240176D01*
X14584268Y-11240176D02*
X14574744Y-11278271D01*
X14574744Y-11278271D02*
X14565220Y-11297319D01*
X14565220Y-11297319D02*
X14555696Y-11306843D01*
X14555696Y-11306843D02*
X14536649Y-11316367D01*
X14536649Y-11316367D02*
X14517601Y-11316367D01*
X14517601Y-11316367D02*
X14498553Y-11306843D01*
X14498553Y-11306843D02*
X14489030Y-11297319D01*
X14489030Y-11297319D02*
X14479506Y-11278271D01*
X14479506Y-11278271D02*
X14469982Y-11240176D01*
X14469982Y-11240176D02*
X14469982Y-11192557D01*
X14469982Y-11192557D02*
X14479506Y-11154462D01*
X14479506Y-11154462D02*
X14489030Y-11135414D01*
X14489030Y-11135414D02*
X14498553Y-11125891D01*
X14498553Y-11125891D02*
X14517601Y-11116367D01*
X14669982Y-11297319D02*
X14679506Y-11306843D01*
X14679506Y-11306843D02*
X14669982Y-11316367D01*
X14669982Y-11316367D02*
X14660458Y-11306843D01*
X14660458Y-11306843D02*
X14669982Y-11297319D01*
X14669982Y-11297319D02*
X14669982Y-11316367D01*
X14803315Y-11116367D02*
X14822363Y-11116367D01*
X14822363Y-11116367D02*
X14841411Y-11125891D01*
X14841411Y-11125891D02*
X14850934Y-11135414D01*
X14850934Y-11135414D02*
X14860458Y-11154462D01*
X14860458Y-11154462D02*
X14869982Y-11192557D01*
X14869982Y-11192557D02*
X14869982Y-11240176D01*
X14869982Y-11240176D02*
X14860458Y-11278271D01*
X14860458Y-11278271D02*
X14850934Y-11297319D01*
X14850934Y-11297319D02*
X14841411Y-11306843D01*
X14841411Y-11306843D02*
X14822363Y-11316367D01*
X14822363Y-11316367D02*
X14803315Y-11316367D01*
X14803315Y-11316367D02*
X14784268Y-11306843D01*
X14784268Y-11306843D02*
X14774744Y-11297319D01*
X14774744Y-11297319D02*
X14765220Y-11278271D01*
X14765220Y-11278271D02*
X14755696Y-11240176D01*
X14755696Y-11240176D02*
X14755696Y-11192557D01*
X14755696Y-11192557D02*
X14765220Y-11154462D01*
X14765220Y-11154462D02*
X14774744Y-11135414D01*
X14774744Y-11135414D02*
X14784268Y-11125891D01*
X14784268Y-11125891D02*
X14803315Y-11116367D01*
X15060458Y-11316367D02*
X14946173Y-11316367D01*
X15003315Y-11316367D02*
X15003315Y-11116367D01*
X15003315Y-11116367D02*
X14984268Y-11144938D01*
X14984268Y-11144938D02*
X14965220Y-11163986D01*
X14965220Y-11163986D02*
X14946173Y-11173510D01*
X15241411Y-11116367D02*
X15146173Y-11116367D01*
X15146173Y-11116367D02*
X15136649Y-11211605D01*
X15136649Y-11211605D02*
X15146173Y-11202081D01*
X15146173Y-11202081D02*
X15165220Y-11192557D01*
X15165220Y-11192557D02*
X15212839Y-11192557D01*
X15212839Y-11192557D02*
X15231887Y-11202081D01*
X15231887Y-11202081D02*
X15241411Y-11211605D01*
X15241411Y-11211605D02*
X15250934Y-11230652D01*
X15250934Y-11230652D02*
X15250934Y-11278271D01*
X15250934Y-11278271D02*
X15241411Y-11297319D01*
X15241411Y-11297319D02*
X15231887Y-11306843D01*
X15231887Y-11306843D02*
X15212839Y-11316367D01*
X15212839Y-11316367D02*
X15165220Y-11316367D01*
X15165220Y-11316367D02*
X15146173Y-11306843D01*
X15146173Y-11306843D02*
X15136649Y-11297319D01*
X15317601Y-11116367D02*
X15450934Y-11116367D01*
X15450934Y-11116367D02*
X15365220Y-11316367D01*
X15517601Y-11116367D02*
X15517601Y-11154462D01*
X15593792Y-11116367D02*
X15593792Y-11154462D01*
X15889030Y-11392557D02*
X15879506Y-11383033D01*
X15879506Y-11383033D02*
X15860458Y-11354462D01*
X15860458Y-11354462D02*
X15850935Y-11335414D01*
X15850935Y-11335414D02*
X15841411Y-11306843D01*
X15841411Y-11306843D02*
X15831887Y-11259224D01*
X15831887Y-11259224D02*
X15831887Y-11221129D01*
X15831887Y-11221129D02*
X15841411Y-11173510D01*
X15841411Y-11173510D02*
X15850935Y-11144938D01*
X15850935Y-11144938D02*
X15860458Y-11125891D01*
X15860458Y-11125891D02*
X15879506Y-11097319D01*
X15879506Y-11097319D02*
X15889030Y-11087795D01*
X16069982Y-11316367D02*
X15955696Y-11316367D01*
X16012839Y-11316367D02*
X16012839Y-11116367D01*
X16012839Y-11116367D02*
X15993792Y-11144938D01*
X15993792Y-11144938D02*
X15974744Y-11163986D01*
X15974744Y-11163986D02*
X15955696Y-11173510D01*
X16260458Y-11316367D02*
X16146173Y-11316367D01*
X16203315Y-11316367D02*
X16203315Y-11116367D01*
X16203315Y-11116367D02*
X16184268Y-11144938D01*
X16184268Y-11144938D02*
X16165220Y-11163986D01*
X16165220Y-11163986D02*
X16146173Y-11173510D01*
X16498554Y-11316367D02*
X16498554Y-11116367D01*
X16584268Y-11316367D02*
X16584268Y-11211605D01*
X16584268Y-11211605D02*
X16574744Y-11192557D01*
X16574744Y-11192557D02*
X16555697Y-11183033D01*
X16555697Y-11183033D02*
X16527125Y-11183033D01*
X16527125Y-11183033D02*
X16508077Y-11192557D01*
X16508077Y-11192557D02*
X16498554Y-11202081D01*
X16708077Y-11316367D02*
X16689030Y-11306843D01*
X16689030Y-11306843D02*
X16679506Y-11297319D01*
X16679506Y-11297319D02*
X16669982Y-11278271D01*
X16669982Y-11278271D02*
X16669982Y-11221129D01*
X16669982Y-11221129D02*
X16679506Y-11202081D01*
X16679506Y-11202081D02*
X16689030Y-11192557D01*
X16689030Y-11192557D02*
X16708077Y-11183033D01*
X16708077Y-11183033D02*
X16736649Y-11183033D01*
X16736649Y-11183033D02*
X16755697Y-11192557D01*
X16755697Y-11192557D02*
X16765220Y-11202081D01*
X16765220Y-11202081D02*
X16774744Y-11221129D01*
X16774744Y-11221129D02*
X16774744Y-11278271D01*
X16774744Y-11278271D02*
X16765220Y-11297319D01*
X16765220Y-11297319D02*
X16755697Y-11306843D01*
X16755697Y-11306843D02*
X16736649Y-11316367D01*
X16736649Y-11316367D02*
X16708077Y-11316367D01*
X16889030Y-11316367D02*
X16869982Y-11306843D01*
X16869982Y-11306843D02*
X16860459Y-11287795D01*
X16860459Y-11287795D02*
X16860459Y-11116367D01*
X17041411Y-11306843D02*
X17022363Y-11316367D01*
X17022363Y-11316367D02*
X16984268Y-11316367D01*
X16984268Y-11316367D02*
X16965220Y-11306843D01*
X16965220Y-11306843D02*
X16955697Y-11287795D01*
X16955697Y-11287795D02*
X16955697Y-11211605D01*
X16955697Y-11211605D02*
X16965220Y-11192557D01*
X16965220Y-11192557D02*
X16984268Y-11183033D01*
X16984268Y-11183033D02*
X17022363Y-11183033D01*
X17022363Y-11183033D02*
X17041411Y-11192557D01*
X17041411Y-11192557D02*
X17050935Y-11211605D01*
X17050935Y-11211605D02*
X17050935Y-11230652D01*
X17050935Y-11230652D02*
X16955697Y-11249700D01*
X17127125Y-11306843D02*
X17146173Y-11316367D01*
X17146173Y-11316367D02*
X17184268Y-11316367D01*
X17184268Y-11316367D02*
X17203316Y-11306843D01*
X17203316Y-11306843D02*
X17212840Y-11287795D01*
X17212840Y-11287795D02*
X17212840Y-11278271D01*
X17212840Y-11278271D02*
X17203316Y-11259224D01*
X17203316Y-11259224D02*
X17184268Y-11249700D01*
X17184268Y-11249700D02*
X17155697Y-11249700D01*
X17155697Y-11249700D02*
X17136649Y-11240176D01*
X17136649Y-11240176D02*
X17127125Y-11221129D01*
X17127125Y-11221129D02*
X17127125Y-11211605D01*
X17127125Y-11211605D02*
X17136649Y-11192557D01*
X17136649Y-11192557D02*
X17155697Y-11183033D01*
X17155697Y-11183033D02*
X17184268Y-11183033D01*
X17184268Y-11183033D02*
X17203316Y-11192557D01*
X17279506Y-11392557D02*
X17289030Y-11383033D01*
X17289030Y-11383033D02*
X17308078Y-11354462D01*
X17308078Y-11354462D02*
X17317601Y-11335414D01*
X17317601Y-11335414D02*
X17327125Y-11306843D01*
X17327125Y-11306843D02*
X17336649Y-11259224D01*
X17336649Y-11259224D02*
X17336649Y-11221129D01*
X17336649Y-11221129D02*
X17327125Y-11173510D01*
X17327125Y-11173510D02*
X17317601Y-11144938D01*
X17317601Y-11144938D02*
X17308078Y-11125891D01*
X17308078Y-11125891D02*
X17289030Y-11097319D01*
X17289030Y-11097319D02*
X17279506Y-11087795D01*
D12*
X12313967Y-11488883D02*
G75*
G02*
X12253967Y-11488883I-30000J0D01*
G01*
X12253967Y-11488883D02*
G75*
G02*
X12313967Y-11488883I30000J0D01*
G01*
D11*
X12612839Y-11380367D02*
X12631887Y-11380367D01*
X12631887Y-11380367D02*
X12650934Y-11389891D01*
X12650934Y-11389891D02*
X12660458Y-11399414D01*
X12660458Y-11399414D02*
X12669982Y-11418462D01*
X12669982Y-11418462D02*
X12679506Y-11456557D01*
X12679506Y-11456557D02*
X12679506Y-11504176D01*
X12679506Y-11504176D02*
X12669982Y-11542271D01*
X12669982Y-11542271D02*
X12660458Y-11561319D01*
X12660458Y-11561319D02*
X12650934Y-11570843D01*
X12650934Y-11570843D02*
X12631887Y-11580367D01*
X12631887Y-11580367D02*
X12612839Y-11580367D01*
X12612839Y-11580367D02*
X12593791Y-11570843D01*
X12593791Y-11570843D02*
X12584268Y-11561319D01*
X12584268Y-11561319D02*
X12574744Y-11542271D01*
X12574744Y-11542271D02*
X12565220Y-11504176D01*
X12565220Y-11504176D02*
X12565220Y-11456557D01*
X12565220Y-11456557D02*
X12574744Y-11418462D01*
X12574744Y-11418462D02*
X12584268Y-11399414D01*
X12584268Y-11399414D02*
X12593791Y-11389891D01*
X12593791Y-11389891D02*
X12612839Y-11380367D01*
X12765220Y-11561319D02*
X12774744Y-11570843D01*
X12774744Y-11570843D02*
X12765220Y-11580367D01*
X12765220Y-11580367D02*
X12755696Y-11570843D01*
X12755696Y-11570843D02*
X12765220Y-11561319D01*
X12765220Y-11561319D02*
X12765220Y-11580367D01*
X12946172Y-11380367D02*
X12908077Y-11380367D01*
X12908077Y-11380367D02*
X12889029Y-11389891D01*
X12889029Y-11389891D02*
X12879506Y-11399414D01*
X12879506Y-11399414D02*
X12860458Y-11427986D01*
X12860458Y-11427986D02*
X12850934Y-11466081D01*
X12850934Y-11466081D02*
X12850934Y-11542271D01*
X12850934Y-11542271D02*
X12860458Y-11561319D01*
X12860458Y-11561319D02*
X12869982Y-11570843D01*
X12869982Y-11570843D02*
X12889029Y-11580367D01*
X12889029Y-11580367D02*
X12927125Y-11580367D01*
X12927125Y-11580367D02*
X12946172Y-11570843D01*
X12946172Y-11570843D02*
X12955696Y-11561319D01*
X12955696Y-11561319D02*
X12965220Y-11542271D01*
X12965220Y-11542271D02*
X12965220Y-11494652D01*
X12965220Y-11494652D02*
X12955696Y-11475605D01*
X12955696Y-11475605D02*
X12946172Y-11466081D01*
X12946172Y-11466081D02*
X12927125Y-11456557D01*
X12927125Y-11456557D02*
X12889029Y-11456557D01*
X12889029Y-11456557D02*
X12869982Y-11466081D01*
X12869982Y-11466081D02*
X12860458Y-11475605D01*
X12860458Y-11475605D02*
X12850934Y-11494652D01*
X13089029Y-11380367D02*
X13108077Y-11380367D01*
X13108077Y-11380367D02*
X13127125Y-11389891D01*
X13127125Y-11389891D02*
X13136649Y-11399414D01*
X13136649Y-11399414D02*
X13146172Y-11418462D01*
X13146172Y-11418462D02*
X13155696Y-11456557D01*
X13155696Y-11456557D02*
X13155696Y-11504176D01*
X13155696Y-11504176D02*
X13146172Y-11542271D01*
X13146172Y-11542271D02*
X13136649Y-11561319D01*
X13136649Y-11561319D02*
X13127125Y-11570843D01*
X13127125Y-11570843D02*
X13108077Y-11580367D01*
X13108077Y-11580367D02*
X13089029Y-11580367D01*
X13089029Y-11580367D02*
X13069982Y-11570843D01*
X13069982Y-11570843D02*
X13060458Y-11561319D01*
X13060458Y-11561319D02*
X13050934Y-11542271D01*
X13050934Y-11542271D02*
X13041410Y-11504176D01*
X13041410Y-11504176D02*
X13041410Y-11456557D01*
X13041410Y-11456557D02*
X13050934Y-11418462D01*
X13050934Y-11418462D02*
X13060458Y-11399414D01*
X13060458Y-11399414D02*
X13069982Y-11389891D01*
X13069982Y-11389891D02*
X13089029Y-11380367D01*
X13279506Y-11380367D02*
X13298553Y-11380367D01*
X13298553Y-11380367D02*
X13317601Y-11389891D01*
X13317601Y-11389891D02*
X13327125Y-11399414D01*
X13327125Y-11399414D02*
X13336649Y-11418462D01*
X13336649Y-11418462D02*
X13346172Y-11456557D01*
X13346172Y-11456557D02*
X13346172Y-11504176D01*
X13346172Y-11504176D02*
X13336649Y-11542271D01*
X13336649Y-11542271D02*
X13327125Y-11561319D01*
X13327125Y-11561319D02*
X13317601Y-11570843D01*
X13317601Y-11570843D02*
X13298553Y-11580367D01*
X13298553Y-11580367D02*
X13279506Y-11580367D01*
X13279506Y-11580367D02*
X13260458Y-11570843D01*
X13260458Y-11570843D02*
X13250934Y-11561319D01*
X13250934Y-11561319D02*
X13241410Y-11542271D01*
X13241410Y-11542271D02*
X13231887Y-11504176D01*
X13231887Y-11504176D02*
X13231887Y-11456557D01*
X13231887Y-11456557D02*
X13241410Y-11418462D01*
X13241410Y-11418462D02*
X13250934Y-11399414D01*
X13250934Y-11399414D02*
X13260458Y-11389891D01*
X13260458Y-11389891D02*
X13279506Y-11380367D01*
X13431887Y-11580367D02*
X13431887Y-11447033D01*
X13431887Y-11466081D02*
X13441410Y-11456557D01*
X13441410Y-11456557D02*
X13460458Y-11447033D01*
X13460458Y-11447033D02*
X13489030Y-11447033D01*
X13489030Y-11447033D02*
X13508077Y-11456557D01*
X13508077Y-11456557D02*
X13517601Y-11475605D01*
X13517601Y-11475605D02*
X13517601Y-11580367D01*
X13517601Y-11475605D02*
X13527125Y-11456557D01*
X13527125Y-11456557D02*
X13546172Y-11447033D01*
X13546172Y-11447033D02*
X13574744Y-11447033D01*
X13574744Y-11447033D02*
X13593791Y-11456557D01*
X13593791Y-11456557D02*
X13603315Y-11475605D01*
X13603315Y-11475605D02*
X13603315Y-11580367D01*
X13698553Y-11580367D02*
X13698553Y-11447033D01*
X13698553Y-11466081D02*
X13708077Y-11456557D01*
X13708077Y-11456557D02*
X13727125Y-11447033D01*
X13727125Y-11447033D02*
X13755696Y-11447033D01*
X13755696Y-11447033D02*
X13774744Y-11456557D01*
X13774744Y-11456557D02*
X13784268Y-11475605D01*
X13784268Y-11475605D02*
X13784268Y-11580367D01*
X13784268Y-11475605D02*
X13793791Y-11456557D01*
X13793791Y-11456557D02*
X13812839Y-11447033D01*
X13812839Y-11447033D02*
X13841410Y-11447033D01*
X13841410Y-11447033D02*
X13860458Y-11456557D01*
X13860458Y-11456557D02*
X13869982Y-11475605D01*
X13869982Y-11475605D02*
X13869982Y-11580367D01*
X14260458Y-11370843D02*
X14089030Y-11627986D01*
X14517601Y-11380367D02*
X14536649Y-11380367D01*
X14536649Y-11380367D02*
X14555696Y-11389891D01*
X14555696Y-11389891D02*
X14565220Y-11399414D01*
X14565220Y-11399414D02*
X14574744Y-11418462D01*
X14574744Y-11418462D02*
X14584268Y-11456557D01*
X14584268Y-11456557D02*
X14584268Y-11504176D01*
X14584268Y-11504176D02*
X14574744Y-11542271D01*
X14574744Y-11542271D02*
X14565220Y-11561319D01*
X14565220Y-11561319D02*
X14555696Y-11570843D01*
X14555696Y-11570843D02*
X14536649Y-11580367D01*
X14536649Y-11580367D02*
X14517601Y-11580367D01*
X14517601Y-11580367D02*
X14498553Y-11570843D01*
X14498553Y-11570843D02*
X14489030Y-11561319D01*
X14489030Y-11561319D02*
X14479506Y-11542271D01*
X14479506Y-11542271D02*
X14469982Y-11504176D01*
X14469982Y-11504176D02*
X14469982Y-11456557D01*
X14469982Y-11456557D02*
X14479506Y-11418462D01*
X14479506Y-11418462D02*
X14489030Y-11399414D01*
X14489030Y-11399414D02*
X14498553Y-11389891D01*
X14498553Y-11389891D02*
X14517601Y-11380367D01*
X14669982Y-11561319D02*
X14679506Y-11570843D01*
X14679506Y-11570843D02*
X14669982Y-11580367D01*
X14669982Y-11580367D02*
X14660458Y-11570843D01*
X14660458Y-11570843D02*
X14669982Y-11561319D01*
X14669982Y-11561319D02*
X14669982Y-11580367D01*
X14803315Y-11380367D02*
X14822363Y-11380367D01*
X14822363Y-11380367D02*
X14841411Y-11389891D01*
X14841411Y-11389891D02*
X14850934Y-11399414D01*
X14850934Y-11399414D02*
X14860458Y-11418462D01*
X14860458Y-11418462D02*
X14869982Y-11456557D01*
X14869982Y-11456557D02*
X14869982Y-11504176D01*
X14869982Y-11504176D02*
X14860458Y-11542271D01*
X14860458Y-11542271D02*
X14850934Y-11561319D01*
X14850934Y-11561319D02*
X14841411Y-11570843D01*
X14841411Y-11570843D02*
X14822363Y-11580367D01*
X14822363Y-11580367D02*
X14803315Y-11580367D01*
X14803315Y-11580367D02*
X14784268Y-11570843D01*
X14784268Y-11570843D02*
X14774744Y-11561319D01*
X14774744Y-11561319D02*
X14765220Y-11542271D01*
X14765220Y-11542271D02*
X14755696Y-11504176D01*
X14755696Y-11504176D02*
X14755696Y-11456557D01*
X14755696Y-11456557D02*
X14765220Y-11418462D01*
X14765220Y-11418462D02*
X14774744Y-11399414D01*
X14774744Y-11399414D02*
X14784268Y-11389891D01*
X14784268Y-11389891D02*
X14803315Y-11380367D01*
X14946173Y-11399414D02*
X14955696Y-11389891D01*
X14955696Y-11389891D02*
X14974744Y-11380367D01*
X14974744Y-11380367D02*
X15022363Y-11380367D01*
X15022363Y-11380367D02*
X15041411Y-11389891D01*
X15041411Y-11389891D02*
X15050934Y-11399414D01*
X15050934Y-11399414D02*
X15060458Y-11418462D01*
X15060458Y-11418462D02*
X15060458Y-11437510D01*
X15060458Y-11437510D02*
X15050934Y-11466081D01*
X15050934Y-11466081D02*
X14936649Y-11580367D01*
X14936649Y-11580367D02*
X15060458Y-11580367D01*
X15127125Y-11380367D02*
X15250934Y-11380367D01*
X15250934Y-11380367D02*
X15184268Y-11456557D01*
X15184268Y-11456557D02*
X15212839Y-11456557D01*
X15212839Y-11456557D02*
X15231887Y-11466081D01*
X15231887Y-11466081D02*
X15241411Y-11475605D01*
X15241411Y-11475605D02*
X15250934Y-11494652D01*
X15250934Y-11494652D02*
X15250934Y-11542271D01*
X15250934Y-11542271D02*
X15241411Y-11561319D01*
X15241411Y-11561319D02*
X15231887Y-11570843D01*
X15231887Y-11570843D02*
X15212839Y-11580367D01*
X15212839Y-11580367D02*
X15155696Y-11580367D01*
X15155696Y-11580367D02*
X15136649Y-11570843D01*
X15136649Y-11570843D02*
X15127125Y-11561319D01*
X15422363Y-11380367D02*
X15384268Y-11380367D01*
X15384268Y-11380367D02*
X15365220Y-11389891D01*
X15365220Y-11389891D02*
X15355696Y-11399414D01*
X15355696Y-11399414D02*
X15336649Y-11427986D01*
X15336649Y-11427986D02*
X15327125Y-11466081D01*
X15327125Y-11466081D02*
X15327125Y-11542271D01*
X15327125Y-11542271D02*
X15336649Y-11561319D01*
X15336649Y-11561319D02*
X15346173Y-11570843D01*
X15346173Y-11570843D02*
X15365220Y-11580367D01*
X15365220Y-11580367D02*
X15403315Y-11580367D01*
X15403315Y-11580367D02*
X15422363Y-11570843D01*
X15422363Y-11570843D02*
X15431887Y-11561319D01*
X15431887Y-11561319D02*
X15441411Y-11542271D01*
X15441411Y-11542271D02*
X15441411Y-11494652D01*
X15441411Y-11494652D02*
X15431887Y-11475605D01*
X15431887Y-11475605D02*
X15422363Y-11466081D01*
X15422363Y-11466081D02*
X15403315Y-11456557D01*
X15403315Y-11456557D02*
X15365220Y-11456557D01*
X15365220Y-11456557D02*
X15346173Y-11466081D01*
X15346173Y-11466081D02*
X15336649Y-11475605D01*
X15336649Y-11475605D02*
X15327125Y-11494652D01*
X15517601Y-11380367D02*
X15517601Y-11418462D01*
X15593792Y-11380367D02*
X15593792Y-11418462D01*
X15889030Y-11656557D02*
X15879506Y-11647033D01*
X15879506Y-11647033D02*
X15860458Y-11618462D01*
X15860458Y-11618462D02*
X15850935Y-11599414D01*
X15850935Y-11599414D02*
X15841411Y-11570843D01*
X15841411Y-11570843D02*
X15831887Y-11523224D01*
X15831887Y-11523224D02*
X15831887Y-11485129D01*
X15831887Y-11485129D02*
X15841411Y-11437510D01*
X15841411Y-11437510D02*
X15850935Y-11408938D01*
X15850935Y-11408938D02*
X15860458Y-11389891D01*
X15860458Y-11389891D02*
X15879506Y-11361319D01*
X15879506Y-11361319D02*
X15889030Y-11351795D01*
X15955696Y-11399414D02*
X15965220Y-11389891D01*
X15965220Y-11389891D02*
X15984268Y-11380367D01*
X15984268Y-11380367D02*
X16031887Y-11380367D01*
X16031887Y-11380367D02*
X16050935Y-11389891D01*
X16050935Y-11389891D02*
X16060458Y-11399414D01*
X16060458Y-11399414D02*
X16069982Y-11418462D01*
X16069982Y-11418462D02*
X16069982Y-11437510D01*
X16069982Y-11437510D02*
X16060458Y-11466081D01*
X16060458Y-11466081D02*
X15946173Y-11580367D01*
X15946173Y-11580367D02*
X16069982Y-11580367D01*
X16308077Y-11580367D02*
X16308077Y-11380367D01*
X16393792Y-11580367D02*
X16393792Y-11475605D01*
X16393792Y-11475605D02*
X16384268Y-11456557D01*
X16384268Y-11456557D02*
X16365220Y-11447033D01*
X16365220Y-11447033D02*
X16336649Y-11447033D01*
X16336649Y-11447033D02*
X16317601Y-11456557D01*
X16317601Y-11456557D02*
X16308077Y-11466081D01*
X16517601Y-11580367D02*
X16498554Y-11570843D01*
X16498554Y-11570843D02*
X16489030Y-11561319D01*
X16489030Y-11561319D02*
X16479506Y-11542271D01*
X16479506Y-11542271D02*
X16479506Y-11485129D01*
X16479506Y-11485129D02*
X16489030Y-11466081D01*
X16489030Y-11466081D02*
X16498554Y-11456557D01*
X16498554Y-11456557D02*
X16517601Y-11447033D01*
X16517601Y-11447033D02*
X16546173Y-11447033D01*
X16546173Y-11447033D02*
X16565220Y-11456557D01*
X16565220Y-11456557D02*
X16574744Y-11466081D01*
X16574744Y-11466081D02*
X16584268Y-11485129D01*
X16584268Y-11485129D02*
X16584268Y-11542271D01*
X16584268Y-11542271D02*
X16574744Y-11561319D01*
X16574744Y-11561319D02*
X16565220Y-11570843D01*
X16565220Y-11570843D02*
X16546173Y-11580367D01*
X16546173Y-11580367D02*
X16517601Y-11580367D01*
X16698554Y-11580367D02*
X16679506Y-11570843D01*
X16679506Y-11570843D02*
X16669982Y-11551795D01*
X16669982Y-11551795D02*
X16669982Y-11380367D01*
X16850935Y-11570843D02*
X16831887Y-11580367D01*
X16831887Y-11580367D02*
X16793792Y-11580367D01*
X16793792Y-11580367D02*
X16774744Y-11570843D01*
X16774744Y-11570843D02*
X16765220Y-11551795D01*
X16765220Y-11551795D02*
X16765220Y-11475605D01*
X16765220Y-11475605D02*
X16774744Y-11456557D01*
X16774744Y-11456557D02*
X16793792Y-11447033D01*
X16793792Y-11447033D02*
X16831887Y-11447033D01*
X16831887Y-11447033D02*
X16850935Y-11456557D01*
X16850935Y-11456557D02*
X16860459Y-11475605D01*
X16860459Y-11475605D02*
X16860459Y-11494652D01*
X16860459Y-11494652D02*
X16765220Y-11513700D01*
X16936649Y-11570843D02*
X16955697Y-11580367D01*
X16955697Y-11580367D02*
X16993792Y-11580367D01*
X16993792Y-11580367D02*
X17012840Y-11570843D01*
X17012840Y-11570843D02*
X17022363Y-11551795D01*
X17022363Y-11551795D02*
X17022363Y-11542271D01*
X17022363Y-11542271D02*
X17012840Y-11523224D01*
X17012840Y-11523224D02*
X16993792Y-11513700D01*
X16993792Y-11513700D02*
X16965220Y-11513700D01*
X16965220Y-11513700D02*
X16946173Y-11504176D01*
X16946173Y-11504176D02*
X16936649Y-11485129D01*
X16936649Y-11485129D02*
X16936649Y-11475605D01*
X16936649Y-11475605D02*
X16946173Y-11456557D01*
X16946173Y-11456557D02*
X16965220Y-11447033D01*
X16965220Y-11447033D02*
X16993792Y-11447033D01*
X16993792Y-11447033D02*
X17012840Y-11456557D01*
X17089030Y-11656557D02*
X17098554Y-11647033D01*
X17098554Y-11647033D02*
X17117601Y-11618462D01*
X17117601Y-11618462D02*
X17127125Y-11599414D01*
X17127125Y-11599414D02*
X17136649Y-11570843D01*
X17136649Y-11570843D02*
X17146173Y-11523224D01*
X17146173Y-11523224D02*
X17146173Y-11485129D01*
X17146173Y-11485129D02*
X17136649Y-11437510D01*
X17136649Y-11437510D02*
X17127125Y-11408938D01*
X17127125Y-11408938D02*
X17117601Y-11389891D01*
X17117601Y-11389891D02*
X17098554Y-11361319D01*
X17098554Y-11361319D02*
X17089030Y-11351795D01*
D12*
X12273967Y-11712883D02*
X12273967Y-11792883D01*
X12233967Y-11752883D02*
X12313967Y-11752883D01*
D11*
X12612839Y-11644367D02*
X12631887Y-11644367D01*
X12631887Y-11644367D02*
X12650934Y-11653891D01*
X12650934Y-11653891D02*
X12660458Y-11663414D01*
X12660458Y-11663414D02*
X12669982Y-11682462D01*
X12669982Y-11682462D02*
X12679506Y-11720557D01*
X12679506Y-11720557D02*
X12679506Y-11768176D01*
X12679506Y-11768176D02*
X12669982Y-11806271D01*
X12669982Y-11806271D02*
X12660458Y-11825319D01*
X12660458Y-11825319D02*
X12650934Y-11834843D01*
X12650934Y-11834843D02*
X12631887Y-11844367D01*
X12631887Y-11844367D02*
X12612839Y-11844367D01*
X12612839Y-11844367D02*
X12593791Y-11834843D01*
X12593791Y-11834843D02*
X12584268Y-11825319D01*
X12584268Y-11825319D02*
X12574744Y-11806271D01*
X12574744Y-11806271D02*
X12565220Y-11768176D01*
X12565220Y-11768176D02*
X12565220Y-11720557D01*
X12565220Y-11720557D02*
X12574744Y-11682462D01*
X12574744Y-11682462D02*
X12584268Y-11663414D01*
X12584268Y-11663414D02*
X12593791Y-11653891D01*
X12593791Y-11653891D02*
X12612839Y-11644367D01*
X12765220Y-11825319D02*
X12774744Y-11834843D01*
X12774744Y-11834843D02*
X12765220Y-11844367D01*
X12765220Y-11844367D02*
X12755696Y-11834843D01*
X12755696Y-11834843D02*
X12765220Y-11825319D01*
X12765220Y-11825319D02*
X12765220Y-11844367D01*
X12889029Y-11730081D02*
X12869982Y-11720557D01*
X12869982Y-11720557D02*
X12860458Y-11711033D01*
X12860458Y-11711033D02*
X12850934Y-11691986D01*
X12850934Y-11691986D02*
X12850934Y-11682462D01*
X12850934Y-11682462D02*
X12860458Y-11663414D01*
X12860458Y-11663414D02*
X12869982Y-11653891D01*
X12869982Y-11653891D02*
X12889029Y-11644367D01*
X12889029Y-11644367D02*
X12927125Y-11644367D01*
X12927125Y-11644367D02*
X12946172Y-11653891D01*
X12946172Y-11653891D02*
X12955696Y-11663414D01*
X12955696Y-11663414D02*
X12965220Y-11682462D01*
X12965220Y-11682462D02*
X12965220Y-11691986D01*
X12965220Y-11691986D02*
X12955696Y-11711033D01*
X12955696Y-11711033D02*
X12946172Y-11720557D01*
X12946172Y-11720557D02*
X12927125Y-11730081D01*
X12927125Y-11730081D02*
X12889029Y-11730081D01*
X12889029Y-11730081D02*
X12869982Y-11739605D01*
X12869982Y-11739605D02*
X12860458Y-11749129D01*
X12860458Y-11749129D02*
X12850934Y-11768176D01*
X12850934Y-11768176D02*
X12850934Y-11806271D01*
X12850934Y-11806271D02*
X12860458Y-11825319D01*
X12860458Y-11825319D02*
X12869982Y-11834843D01*
X12869982Y-11834843D02*
X12889029Y-11844367D01*
X12889029Y-11844367D02*
X12927125Y-11844367D01*
X12927125Y-11844367D02*
X12946172Y-11834843D01*
X12946172Y-11834843D02*
X12955696Y-11825319D01*
X12955696Y-11825319D02*
X12965220Y-11806271D01*
X12965220Y-11806271D02*
X12965220Y-11768176D01*
X12965220Y-11768176D02*
X12955696Y-11749129D01*
X12955696Y-11749129D02*
X12946172Y-11739605D01*
X12946172Y-11739605D02*
X12927125Y-11730081D01*
X13089029Y-11644367D02*
X13108077Y-11644367D01*
X13108077Y-11644367D02*
X13127125Y-11653891D01*
X13127125Y-11653891D02*
X13136649Y-11663414D01*
X13136649Y-11663414D02*
X13146172Y-11682462D01*
X13146172Y-11682462D02*
X13155696Y-11720557D01*
X13155696Y-11720557D02*
X13155696Y-11768176D01*
X13155696Y-11768176D02*
X13146172Y-11806271D01*
X13146172Y-11806271D02*
X13136649Y-11825319D01*
X13136649Y-11825319D02*
X13127125Y-11834843D01*
X13127125Y-11834843D02*
X13108077Y-11844367D01*
X13108077Y-11844367D02*
X13089029Y-11844367D01*
X13089029Y-11844367D02*
X13069982Y-11834843D01*
X13069982Y-11834843D02*
X13060458Y-11825319D01*
X13060458Y-11825319D02*
X13050934Y-11806271D01*
X13050934Y-11806271D02*
X13041410Y-11768176D01*
X13041410Y-11768176D02*
X13041410Y-11720557D01*
X13041410Y-11720557D02*
X13050934Y-11682462D01*
X13050934Y-11682462D02*
X13060458Y-11663414D01*
X13060458Y-11663414D02*
X13069982Y-11653891D01*
X13069982Y-11653891D02*
X13089029Y-11644367D01*
X13279506Y-11644367D02*
X13298553Y-11644367D01*
X13298553Y-11644367D02*
X13317601Y-11653891D01*
X13317601Y-11653891D02*
X13327125Y-11663414D01*
X13327125Y-11663414D02*
X13336649Y-11682462D01*
X13336649Y-11682462D02*
X13346172Y-11720557D01*
X13346172Y-11720557D02*
X13346172Y-11768176D01*
X13346172Y-11768176D02*
X13336649Y-11806271D01*
X13336649Y-11806271D02*
X13327125Y-11825319D01*
X13327125Y-11825319D02*
X13317601Y-11834843D01*
X13317601Y-11834843D02*
X13298553Y-11844367D01*
X13298553Y-11844367D02*
X13279506Y-11844367D01*
X13279506Y-11844367D02*
X13260458Y-11834843D01*
X13260458Y-11834843D02*
X13250934Y-11825319D01*
X13250934Y-11825319D02*
X13241410Y-11806271D01*
X13241410Y-11806271D02*
X13231887Y-11768176D01*
X13231887Y-11768176D02*
X13231887Y-11720557D01*
X13231887Y-11720557D02*
X13241410Y-11682462D01*
X13241410Y-11682462D02*
X13250934Y-11663414D01*
X13250934Y-11663414D02*
X13260458Y-11653891D01*
X13260458Y-11653891D02*
X13279506Y-11644367D01*
X13431887Y-11844367D02*
X13431887Y-11711033D01*
X13431887Y-11730081D02*
X13441410Y-11720557D01*
X13441410Y-11720557D02*
X13460458Y-11711033D01*
X13460458Y-11711033D02*
X13489030Y-11711033D01*
X13489030Y-11711033D02*
X13508077Y-11720557D01*
X13508077Y-11720557D02*
X13517601Y-11739605D01*
X13517601Y-11739605D02*
X13517601Y-11844367D01*
X13517601Y-11739605D02*
X13527125Y-11720557D01*
X13527125Y-11720557D02*
X13546172Y-11711033D01*
X13546172Y-11711033D02*
X13574744Y-11711033D01*
X13574744Y-11711033D02*
X13593791Y-11720557D01*
X13593791Y-11720557D02*
X13603315Y-11739605D01*
X13603315Y-11739605D02*
X13603315Y-11844367D01*
X13698553Y-11844367D02*
X13698553Y-11711033D01*
X13698553Y-11730081D02*
X13708077Y-11720557D01*
X13708077Y-11720557D02*
X13727125Y-11711033D01*
X13727125Y-11711033D02*
X13755696Y-11711033D01*
X13755696Y-11711033D02*
X13774744Y-11720557D01*
X13774744Y-11720557D02*
X13784268Y-11739605D01*
X13784268Y-11739605D02*
X13784268Y-11844367D01*
X13784268Y-11739605D02*
X13793791Y-11720557D01*
X13793791Y-11720557D02*
X13812839Y-11711033D01*
X13812839Y-11711033D02*
X13841410Y-11711033D01*
X13841410Y-11711033D02*
X13860458Y-11720557D01*
X13860458Y-11720557D02*
X13869982Y-11739605D01*
X13869982Y-11739605D02*
X13869982Y-11844367D01*
X14260458Y-11634843D02*
X14089030Y-11891986D01*
X14517601Y-11644367D02*
X14536649Y-11644367D01*
X14536649Y-11644367D02*
X14555696Y-11653891D01*
X14555696Y-11653891D02*
X14565220Y-11663414D01*
X14565220Y-11663414D02*
X14574744Y-11682462D01*
X14574744Y-11682462D02*
X14584268Y-11720557D01*
X14584268Y-11720557D02*
X14584268Y-11768176D01*
X14584268Y-11768176D02*
X14574744Y-11806271D01*
X14574744Y-11806271D02*
X14565220Y-11825319D01*
X14565220Y-11825319D02*
X14555696Y-11834843D01*
X14555696Y-11834843D02*
X14536649Y-11844367D01*
X14536649Y-11844367D02*
X14517601Y-11844367D01*
X14517601Y-11844367D02*
X14498553Y-11834843D01*
X14498553Y-11834843D02*
X14489030Y-11825319D01*
X14489030Y-11825319D02*
X14479506Y-11806271D01*
X14479506Y-11806271D02*
X14469982Y-11768176D01*
X14469982Y-11768176D02*
X14469982Y-11720557D01*
X14469982Y-11720557D02*
X14479506Y-11682462D01*
X14479506Y-11682462D02*
X14489030Y-11663414D01*
X14489030Y-11663414D02*
X14498553Y-11653891D01*
X14498553Y-11653891D02*
X14517601Y-11644367D01*
X14669982Y-11825319D02*
X14679506Y-11834843D01*
X14679506Y-11834843D02*
X14669982Y-11844367D01*
X14669982Y-11844367D02*
X14660458Y-11834843D01*
X14660458Y-11834843D02*
X14669982Y-11825319D01*
X14669982Y-11825319D02*
X14669982Y-11844367D01*
X14803315Y-11644367D02*
X14822363Y-11644367D01*
X14822363Y-11644367D02*
X14841411Y-11653891D01*
X14841411Y-11653891D02*
X14850934Y-11663414D01*
X14850934Y-11663414D02*
X14860458Y-11682462D01*
X14860458Y-11682462D02*
X14869982Y-11720557D01*
X14869982Y-11720557D02*
X14869982Y-11768176D01*
X14869982Y-11768176D02*
X14860458Y-11806271D01*
X14860458Y-11806271D02*
X14850934Y-11825319D01*
X14850934Y-11825319D02*
X14841411Y-11834843D01*
X14841411Y-11834843D02*
X14822363Y-11844367D01*
X14822363Y-11844367D02*
X14803315Y-11844367D01*
X14803315Y-11844367D02*
X14784268Y-11834843D01*
X14784268Y-11834843D02*
X14774744Y-11825319D01*
X14774744Y-11825319D02*
X14765220Y-11806271D01*
X14765220Y-11806271D02*
X14755696Y-11768176D01*
X14755696Y-11768176D02*
X14755696Y-11720557D01*
X14755696Y-11720557D02*
X14765220Y-11682462D01*
X14765220Y-11682462D02*
X14774744Y-11663414D01*
X14774744Y-11663414D02*
X14784268Y-11653891D01*
X14784268Y-11653891D02*
X14803315Y-11644367D01*
X14936649Y-11644367D02*
X15060458Y-11644367D01*
X15060458Y-11644367D02*
X14993792Y-11720557D01*
X14993792Y-11720557D02*
X15022363Y-11720557D01*
X15022363Y-11720557D02*
X15041411Y-11730081D01*
X15041411Y-11730081D02*
X15050934Y-11739605D01*
X15050934Y-11739605D02*
X15060458Y-11758652D01*
X15060458Y-11758652D02*
X15060458Y-11806271D01*
X15060458Y-11806271D02*
X15050934Y-11825319D01*
X15050934Y-11825319D02*
X15041411Y-11834843D01*
X15041411Y-11834843D02*
X15022363Y-11844367D01*
X15022363Y-11844367D02*
X14965220Y-11844367D01*
X14965220Y-11844367D02*
X14946173Y-11834843D01*
X14946173Y-11834843D02*
X14936649Y-11825319D01*
X15250934Y-11844367D02*
X15136649Y-11844367D01*
X15193792Y-11844367D02*
X15193792Y-11644367D01*
X15193792Y-11644367D02*
X15174744Y-11672938D01*
X15174744Y-11672938D02*
X15155696Y-11691986D01*
X15155696Y-11691986D02*
X15136649Y-11701510D01*
X15431887Y-11644367D02*
X15336649Y-11644367D01*
X15336649Y-11644367D02*
X15327125Y-11739605D01*
X15327125Y-11739605D02*
X15336649Y-11730081D01*
X15336649Y-11730081D02*
X15355696Y-11720557D01*
X15355696Y-11720557D02*
X15403315Y-11720557D01*
X15403315Y-11720557D02*
X15422363Y-11730081D01*
X15422363Y-11730081D02*
X15431887Y-11739605D01*
X15431887Y-11739605D02*
X15441411Y-11758652D01*
X15441411Y-11758652D02*
X15441411Y-11806271D01*
X15441411Y-11806271D02*
X15431887Y-11825319D01*
X15431887Y-11825319D02*
X15422363Y-11834843D01*
X15422363Y-11834843D02*
X15403315Y-11844367D01*
X15403315Y-11844367D02*
X15355696Y-11844367D01*
X15355696Y-11844367D02*
X15336649Y-11834843D01*
X15336649Y-11834843D02*
X15327125Y-11825319D01*
X15517601Y-11644367D02*
X15517601Y-11682462D01*
X15593792Y-11644367D02*
X15593792Y-11682462D01*
X15889030Y-11920557D02*
X15879506Y-11911033D01*
X15879506Y-11911033D02*
X15860458Y-11882462D01*
X15860458Y-11882462D02*
X15850935Y-11863414D01*
X15850935Y-11863414D02*
X15841411Y-11834843D01*
X15841411Y-11834843D02*
X15831887Y-11787224D01*
X15831887Y-11787224D02*
X15831887Y-11749129D01*
X15831887Y-11749129D02*
X15841411Y-11701510D01*
X15841411Y-11701510D02*
X15850935Y-11672938D01*
X15850935Y-11672938D02*
X15860458Y-11653891D01*
X15860458Y-11653891D02*
X15879506Y-11625319D01*
X15879506Y-11625319D02*
X15889030Y-11615795D01*
X16069982Y-11844367D02*
X15955696Y-11844367D01*
X16012839Y-11844367D02*
X16012839Y-11644367D01*
X16012839Y-11644367D02*
X15993792Y-11672938D01*
X15993792Y-11672938D02*
X15974744Y-11691986D01*
X15974744Y-11691986D02*
X15955696Y-11701510D01*
X16308077Y-11844367D02*
X16308077Y-11644367D01*
X16393792Y-11844367D02*
X16393792Y-11739605D01*
X16393792Y-11739605D02*
X16384268Y-11720557D01*
X16384268Y-11720557D02*
X16365220Y-11711033D01*
X16365220Y-11711033D02*
X16336649Y-11711033D01*
X16336649Y-11711033D02*
X16317601Y-11720557D01*
X16317601Y-11720557D02*
X16308077Y-11730081D01*
X16517601Y-11844367D02*
X16498554Y-11834843D01*
X16498554Y-11834843D02*
X16489030Y-11825319D01*
X16489030Y-11825319D02*
X16479506Y-11806271D01*
X16479506Y-11806271D02*
X16479506Y-11749129D01*
X16479506Y-11749129D02*
X16489030Y-11730081D01*
X16489030Y-11730081D02*
X16498554Y-11720557D01*
X16498554Y-11720557D02*
X16517601Y-11711033D01*
X16517601Y-11711033D02*
X16546173Y-11711033D01*
X16546173Y-11711033D02*
X16565220Y-11720557D01*
X16565220Y-11720557D02*
X16574744Y-11730081D01*
X16574744Y-11730081D02*
X16584268Y-11749129D01*
X16584268Y-11749129D02*
X16584268Y-11806271D01*
X16584268Y-11806271D02*
X16574744Y-11825319D01*
X16574744Y-11825319D02*
X16565220Y-11834843D01*
X16565220Y-11834843D02*
X16546173Y-11844367D01*
X16546173Y-11844367D02*
X16517601Y-11844367D01*
X16698554Y-11844367D02*
X16679506Y-11834843D01*
X16679506Y-11834843D02*
X16669982Y-11815795D01*
X16669982Y-11815795D02*
X16669982Y-11644367D01*
X16850935Y-11834843D02*
X16831887Y-11844367D01*
X16831887Y-11844367D02*
X16793792Y-11844367D01*
X16793792Y-11844367D02*
X16774744Y-11834843D01*
X16774744Y-11834843D02*
X16765220Y-11815795D01*
X16765220Y-11815795D02*
X16765220Y-11739605D01*
X16765220Y-11739605D02*
X16774744Y-11720557D01*
X16774744Y-11720557D02*
X16793792Y-11711033D01*
X16793792Y-11711033D02*
X16831887Y-11711033D01*
X16831887Y-11711033D02*
X16850935Y-11720557D01*
X16850935Y-11720557D02*
X16860459Y-11739605D01*
X16860459Y-11739605D02*
X16860459Y-11758652D01*
X16860459Y-11758652D02*
X16765220Y-11777700D01*
X16927125Y-11920557D02*
X16936649Y-11911033D01*
X16936649Y-11911033D02*
X16955697Y-11882462D01*
X16955697Y-11882462D02*
X16965220Y-11863414D01*
X16965220Y-11863414D02*
X16974744Y-11834843D01*
X16974744Y-11834843D02*
X16984268Y-11787224D01*
X16984268Y-11787224D02*
X16984268Y-11749129D01*
X16984268Y-11749129D02*
X16974744Y-11701510D01*
X16974744Y-11701510D02*
X16965220Y-11672938D01*
X16965220Y-11672938D02*
X16955697Y-11653891D01*
X16955697Y-11653891D02*
X16936649Y-11625319D01*
X16936649Y-11625319D02*
X16927125Y-11615795D01*
D12*
X12302251Y-12045167D02*
X12302251Y-11988598D01*
X12245682Y-11988598D01*
X12245682Y-12045167D01*
X12302251Y-12045167D01*
D11*
X12612839Y-11908367D02*
X12631887Y-11908367D01*
X12631887Y-11908367D02*
X12650934Y-11917891D01*
X12650934Y-11917891D02*
X12660458Y-11927414D01*
X12660458Y-11927414D02*
X12669982Y-11946462D01*
X12669982Y-11946462D02*
X12679506Y-11984557D01*
X12679506Y-11984557D02*
X12679506Y-12032176D01*
X12679506Y-12032176D02*
X12669982Y-12070271D01*
X12669982Y-12070271D02*
X12660458Y-12089319D01*
X12660458Y-12089319D02*
X12650934Y-12098843D01*
X12650934Y-12098843D02*
X12631887Y-12108367D01*
X12631887Y-12108367D02*
X12612839Y-12108367D01*
X12612839Y-12108367D02*
X12593791Y-12098843D01*
X12593791Y-12098843D02*
X12584268Y-12089319D01*
X12584268Y-12089319D02*
X12574744Y-12070271D01*
X12574744Y-12070271D02*
X12565220Y-12032176D01*
X12565220Y-12032176D02*
X12565220Y-11984557D01*
X12565220Y-11984557D02*
X12574744Y-11946462D01*
X12574744Y-11946462D02*
X12584268Y-11927414D01*
X12584268Y-11927414D02*
X12593791Y-11917891D01*
X12593791Y-11917891D02*
X12612839Y-11908367D01*
X12765220Y-12089319D02*
X12774744Y-12098843D01*
X12774744Y-12098843D02*
X12765220Y-12108367D01*
X12765220Y-12108367D02*
X12755696Y-12098843D01*
X12755696Y-12098843D02*
X12765220Y-12089319D01*
X12765220Y-12089319D02*
X12765220Y-12108367D01*
X12889029Y-11994081D02*
X12869982Y-11984557D01*
X12869982Y-11984557D02*
X12860458Y-11975033D01*
X12860458Y-11975033D02*
X12850934Y-11955986D01*
X12850934Y-11955986D02*
X12850934Y-11946462D01*
X12850934Y-11946462D02*
X12860458Y-11927414D01*
X12860458Y-11927414D02*
X12869982Y-11917891D01*
X12869982Y-11917891D02*
X12889029Y-11908367D01*
X12889029Y-11908367D02*
X12927125Y-11908367D01*
X12927125Y-11908367D02*
X12946172Y-11917891D01*
X12946172Y-11917891D02*
X12955696Y-11927414D01*
X12955696Y-11927414D02*
X12965220Y-11946462D01*
X12965220Y-11946462D02*
X12965220Y-11955986D01*
X12965220Y-11955986D02*
X12955696Y-11975033D01*
X12955696Y-11975033D02*
X12946172Y-11984557D01*
X12946172Y-11984557D02*
X12927125Y-11994081D01*
X12927125Y-11994081D02*
X12889029Y-11994081D01*
X12889029Y-11994081D02*
X12869982Y-12003605D01*
X12869982Y-12003605D02*
X12860458Y-12013129D01*
X12860458Y-12013129D02*
X12850934Y-12032176D01*
X12850934Y-12032176D02*
X12850934Y-12070271D01*
X12850934Y-12070271D02*
X12860458Y-12089319D01*
X12860458Y-12089319D02*
X12869982Y-12098843D01*
X12869982Y-12098843D02*
X12889029Y-12108367D01*
X12889029Y-12108367D02*
X12927125Y-12108367D01*
X12927125Y-12108367D02*
X12946172Y-12098843D01*
X12946172Y-12098843D02*
X12955696Y-12089319D01*
X12955696Y-12089319D02*
X12965220Y-12070271D01*
X12965220Y-12070271D02*
X12965220Y-12032176D01*
X12965220Y-12032176D02*
X12955696Y-12013129D01*
X12955696Y-12013129D02*
X12946172Y-12003605D01*
X12946172Y-12003605D02*
X12927125Y-11994081D01*
X13089029Y-11908367D02*
X13108077Y-11908367D01*
X13108077Y-11908367D02*
X13127125Y-11917891D01*
X13127125Y-11917891D02*
X13136649Y-11927414D01*
X13136649Y-11927414D02*
X13146172Y-11946462D01*
X13146172Y-11946462D02*
X13155696Y-11984557D01*
X13155696Y-11984557D02*
X13155696Y-12032176D01*
X13155696Y-12032176D02*
X13146172Y-12070271D01*
X13146172Y-12070271D02*
X13136649Y-12089319D01*
X13136649Y-12089319D02*
X13127125Y-12098843D01*
X13127125Y-12098843D02*
X13108077Y-12108367D01*
X13108077Y-12108367D02*
X13089029Y-12108367D01*
X13089029Y-12108367D02*
X13069982Y-12098843D01*
X13069982Y-12098843D02*
X13060458Y-12089319D01*
X13060458Y-12089319D02*
X13050934Y-12070271D01*
X13050934Y-12070271D02*
X13041410Y-12032176D01*
X13041410Y-12032176D02*
X13041410Y-11984557D01*
X13041410Y-11984557D02*
X13050934Y-11946462D01*
X13050934Y-11946462D02*
X13060458Y-11927414D01*
X13060458Y-11927414D02*
X13069982Y-11917891D01*
X13069982Y-11917891D02*
X13089029Y-11908367D01*
X13279506Y-11908367D02*
X13298553Y-11908367D01*
X13298553Y-11908367D02*
X13317601Y-11917891D01*
X13317601Y-11917891D02*
X13327125Y-11927414D01*
X13327125Y-11927414D02*
X13336649Y-11946462D01*
X13336649Y-11946462D02*
X13346172Y-11984557D01*
X13346172Y-11984557D02*
X13346172Y-12032176D01*
X13346172Y-12032176D02*
X13336649Y-12070271D01*
X13336649Y-12070271D02*
X13327125Y-12089319D01*
X13327125Y-12089319D02*
X13317601Y-12098843D01*
X13317601Y-12098843D02*
X13298553Y-12108367D01*
X13298553Y-12108367D02*
X13279506Y-12108367D01*
X13279506Y-12108367D02*
X13260458Y-12098843D01*
X13260458Y-12098843D02*
X13250934Y-12089319D01*
X13250934Y-12089319D02*
X13241410Y-12070271D01*
X13241410Y-12070271D02*
X13231887Y-12032176D01*
X13231887Y-12032176D02*
X13231887Y-11984557D01*
X13231887Y-11984557D02*
X13241410Y-11946462D01*
X13241410Y-11946462D02*
X13250934Y-11927414D01*
X13250934Y-11927414D02*
X13260458Y-11917891D01*
X13260458Y-11917891D02*
X13279506Y-11908367D01*
X13431887Y-12108367D02*
X13431887Y-11975033D01*
X13431887Y-11994081D02*
X13441410Y-11984557D01*
X13441410Y-11984557D02*
X13460458Y-11975033D01*
X13460458Y-11975033D02*
X13489030Y-11975033D01*
X13489030Y-11975033D02*
X13508077Y-11984557D01*
X13508077Y-11984557D02*
X13517601Y-12003605D01*
X13517601Y-12003605D02*
X13517601Y-12108367D01*
X13517601Y-12003605D02*
X13527125Y-11984557D01*
X13527125Y-11984557D02*
X13546172Y-11975033D01*
X13546172Y-11975033D02*
X13574744Y-11975033D01*
X13574744Y-11975033D02*
X13593791Y-11984557D01*
X13593791Y-11984557D02*
X13603315Y-12003605D01*
X13603315Y-12003605D02*
X13603315Y-12108367D01*
X13698553Y-12108367D02*
X13698553Y-11975033D01*
X13698553Y-11994081D02*
X13708077Y-11984557D01*
X13708077Y-11984557D02*
X13727125Y-11975033D01*
X13727125Y-11975033D02*
X13755696Y-11975033D01*
X13755696Y-11975033D02*
X13774744Y-11984557D01*
X13774744Y-11984557D02*
X13784268Y-12003605D01*
X13784268Y-12003605D02*
X13784268Y-12108367D01*
X13784268Y-12003605D02*
X13793791Y-11984557D01*
X13793791Y-11984557D02*
X13812839Y-11975033D01*
X13812839Y-11975033D02*
X13841410Y-11975033D01*
X13841410Y-11975033D02*
X13860458Y-11984557D01*
X13860458Y-11984557D02*
X13869982Y-12003605D01*
X13869982Y-12003605D02*
X13869982Y-12108367D01*
X14260458Y-11898843D02*
X14089030Y-12155986D01*
X14517601Y-11908367D02*
X14536649Y-11908367D01*
X14536649Y-11908367D02*
X14555696Y-11917891D01*
X14555696Y-11917891D02*
X14565220Y-11927414D01*
X14565220Y-11927414D02*
X14574744Y-11946462D01*
X14574744Y-11946462D02*
X14584268Y-11984557D01*
X14584268Y-11984557D02*
X14584268Y-12032176D01*
X14584268Y-12032176D02*
X14574744Y-12070271D01*
X14574744Y-12070271D02*
X14565220Y-12089319D01*
X14565220Y-12089319D02*
X14555696Y-12098843D01*
X14555696Y-12098843D02*
X14536649Y-12108367D01*
X14536649Y-12108367D02*
X14517601Y-12108367D01*
X14517601Y-12108367D02*
X14498553Y-12098843D01*
X14498553Y-12098843D02*
X14489030Y-12089319D01*
X14489030Y-12089319D02*
X14479506Y-12070271D01*
X14479506Y-12070271D02*
X14469982Y-12032176D01*
X14469982Y-12032176D02*
X14469982Y-11984557D01*
X14469982Y-11984557D02*
X14479506Y-11946462D01*
X14479506Y-11946462D02*
X14489030Y-11927414D01*
X14489030Y-11927414D02*
X14498553Y-11917891D01*
X14498553Y-11917891D02*
X14517601Y-11908367D01*
X14669982Y-12089319D02*
X14679506Y-12098843D01*
X14679506Y-12098843D02*
X14669982Y-12108367D01*
X14669982Y-12108367D02*
X14660458Y-12098843D01*
X14660458Y-12098843D02*
X14669982Y-12089319D01*
X14669982Y-12089319D02*
X14669982Y-12108367D01*
X14803315Y-11908367D02*
X14822363Y-11908367D01*
X14822363Y-11908367D02*
X14841411Y-11917891D01*
X14841411Y-11917891D02*
X14850934Y-11927414D01*
X14850934Y-11927414D02*
X14860458Y-11946462D01*
X14860458Y-11946462D02*
X14869982Y-11984557D01*
X14869982Y-11984557D02*
X14869982Y-12032176D01*
X14869982Y-12032176D02*
X14860458Y-12070271D01*
X14860458Y-12070271D02*
X14850934Y-12089319D01*
X14850934Y-12089319D02*
X14841411Y-12098843D01*
X14841411Y-12098843D02*
X14822363Y-12108367D01*
X14822363Y-12108367D02*
X14803315Y-12108367D01*
X14803315Y-12108367D02*
X14784268Y-12098843D01*
X14784268Y-12098843D02*
X14774744Y-12089319D01*
X14774744Y-12089319D02*
X14765220Y-12070271D01*
X14765220Y-12070271D02*
X14755696Y-12032176D01*
X14755696Y-12032176D02*
X14755696Y-11984557D01*
X14755696Y-11984557D02*
X14765220Y-11946462D01*
X14765220Y-11946462D02*
X14774744Y-11927414D01*
X14774744Y-11927414D02*
X14784268Y-11917891D01*
X14784268Y-11917891D02*
X14803315Y-11908367D01*
X14936649Y-11908367D02*
X15060458Y-11908367D01*
X15060458Y-11908367D02*
X14993792Y-11984557D01*
X14993792Y-11984557D02*
X15022363Y-11984557D01*
X15022363Y-11984557D02*
X15041411Y-11994081D01*
X15041411Y-11994081D02*
X15050934Y-12003605D01*
X15050934Y-12003605D02*
X15060458Y-12022652D01*
X15060458Y-12022652D02*
X15060458Y-12070271D01*
X15060458Y-12070271D02*
X15050934Y-12089319D01*
X15050934Y-12089319D02*
X15041411Y-12098843D01*
X15041411Y-12098843D02*
X15022363Y-12108367D01*
X15022363Y-12108367D02*
X14965220Y-12108367D01*
X14965220Y-12108367D02*
X14946173Y-12098843D01*
X14946173Y-12098843D02*
X14936649Y-12089319D01*
X15250934Y-12108367D02*
X15136649Y-12108367D01*
X15193792Y-12108367D02*
X15193792Y-11908367D01*
X15193792Y-11908367D02*
X15174744Y-11936938D01*
X15174744Y-11936938D02*
X15155696Y-11955986D01*
X15155696Y-11955986D02*
X15136649Y-11965510D01*
X15431887Y-11908367D02*
X15336649Y-11908367D01*
X15336649Y-11908367D02*
X15327125Y-12003605D01*
X15327125Y-12003605D02*
X15336649Y-11994081D01*
X15336649Y-11994081D02*
X15355696Y-11984557D01*
X15355696Y-11984557D02*
X15403315Y-11984557D01*
X15403315Y-11984557D02*
X15422363Y-11994081D01*
X15422363Y-11994081D02*
X15431887Y-12003605D01*
X15431887Y-12003605D02*
X15441411Y-12022652D01*
X15441411Y-12022652D02*
X15441411Y-12070271D01*
X15441411Y-12070271D02*
X15431887Y-12089319D01*
X15431887Y-12089319D02*
X15422363Y-12098843D01*
X15422363Y-12098843D02*
X15403315Y-12108367D01*
X15403315Y-12108367D02*
X15355696Y-12108367D01*
X15355696Y-12108367D02*
X15336649Y-12098843D01*
X15336649Y-12098843D02*
X15327125Y-12089319D01*
X15517601Y-11908367D02*
X15517601Y-11946462D01*
X15593792Y-11908367D02*
X15593792Y-11946462D01*
X15889030Y-12184557D02*
X15879506Y-12175033D01*
X15879506Y-12175033D02*
X15860458Y-12146462D01*
X15860458Y-12146462D02*
X15850935Y-12127414D01*
X15850935Y-12127414D02*
X15841411Y-12098843D01*
X15841411Y-12098843D02*
X15831887Y-12051224D01*
X15831887Y-12051224D02*
X15831887Y-12013129D01*
X15831887Y-12013129D02*
X15841411Y-11965510D01*
X15841411Y-11965510D02*
X15850935Y-11936938D01*
X15850935Y-11936938D02*
X15860458Y-11917891D01*
X15860458Y-11917891D02*
X15879506Y-11889319D01*
X15879506Y-11889319D02*
X15889030Y-11879795D01*
X15955696Y-11927414D02*
X15965220Y-11917891D01*
X15965220Y-11917891D02*
X15984268Y-11908367D01*
X15984268Y-11908367D02*
X16031887Y-11908367D01*
X16031887Y-11908367D02*
X16050935Y-11917891D01*
X16050935Y-11917891D02*
X16060458Y-11927414D01*
X16060458Y-11927414D02*
X16069982Y-11946462D01*
X16069982Y-11946462D02*
X16069982Y-11965510D01*
X16069982Y-11965510D02*
X16060458Y-11994081D01*
X16060458Y-11994081D02*
X15946173Y-12108367D01*
X15946173Y-12108367D02*
X16069982Y-12108367D01*
X16308077Y-12108367D02*
X16308077Y-11908367D01*
X16393792Y-12108367D02*
X16393792Y-12003605D01*
X16393792Y-12003605D02*
X16384268Y-11984557D01*
X16384268Y-11984557D02*
X16365220Y-11975033D01*
X16365220Y-11975033D02*
X16336649Y-11975033D01*
X16336649Y-11975033D02*
X16317601Y-11984557D01*
X16317601Y-11984557D02*
X16308077Y-11994081D01*
X16517601Y-12108367D02*
X16498554Y-12098843D01*
X16498554Y-12098843D02*
X16489030Y-12089319D01*
X16489030Y-12089319D02*
X16479506Y-12070271D01*
X16479506Y-12070271D02*
X16479506Y-12013129D01*
X16479506Y-12013129D02*
X16489030Y-11994081D01*
X16489030Y-11994081D02*
X16498554Y-11984557D01*
X16498554Y-11984557D02*
X16517601Y-11975033D01*
X16517601Y-11975033D02*
X16546173Y-11975033D01*
X16546173Y-11975033D02*
X16565220Y-11984557D01*
X16565220Y-11984557D02*
X16574744Y-11994081D01*
X16574744Y-11994081D02*
X16584268Y-12013129D01*
X16584268Y-12013129D02*
X16584268Y-12070271D01*
X16584268Y-12070271D02*
X16574744Y-12089319D01*
X16574744Y-12089319D02*
X16565220Y-12098843D01*
X16565220Y-12098843D02*
X16546173Y-12108367D01*
X16546173Y-12108367D02*
X16517601Y-12108367D01*
X16698554Y-12108367D02*
X16679506Y-12098843D01*
X16679506Y-12098843D02*
X16669982Y-12079795D01*
X16669982Y-12079795D02*
X16669982Y-11908367D01*
X16850935Y-12098843D02*
X16831887Y-12108367D01*
X16831887Y-12108367D02*
X16793792Y-12108367D01*
X16793792Y-12108367D02*
X16774744Y-12098843D01*
X16774744Y-12098843D02*
X16765220Y-12079795D01*
X16765220Y-12079795D02*
X16765220Y-12003605D01*
X16765220Y-12003605D02*
X16774744Y-11984557D01*
X16774744Y-11984557D02*
X16793792Y-11975033D01*
X16793792Y-11975033D02*
X16831887Y-11975033D01*
X16831887Y-11975033D02*
X16850935Y-11984557D01*
X16850935Y-11984557D02*
X16860459Y-12003605D01*
X16860459Y-12003605D02*
X16860459Y-12022652D01*
X16860459Y-12022652D02*
X16765220Y-12041700D01*
X16936649Y-12098843D02*
X16955697Y-12108367D01*
X16955697Y-12108367D02*
X16993792Y-12108367D01*
X16993792Y-12108367D02*
X17012840Y-12098843D01*
X17012840Y-12098843D02*
X17022363Y-12079795D01*
X17022363Y-12079795D02*
X17022363Y-12070271D01*
X17022363Y-12070271D02*
X17012840Y-12051224D01*
X17012840Y-12051224D02*
X16993792Y-12041700D01*
X16993792Y-12041700D02*
X16965220Y-12041700D01*
X16965220Y-12041700D02*
X16946173Y-12032176D01*
X16946173Y-12032176D02*
X16936649Y-12013129D01*
X16936649Y-12013129D02*
X16936649Y-12003605D01*
X16936649Y-12003605D02*
X16946173Y-11984557D01*
X16946173Y-11984557D02*
X16965220Y-11975033D01*
X16965220Y-11975033D02*
X16993792Y-11975033D01*
X16993792Y-11975033D02*
X17012840Y-11984557D01*
X17089030Y-12184557D02*
X17098554Y-12175033D01*
X17098554Y-12175033D02*
X17117601Y-12146462D01*
X17117601Y-12146462D02*
X17127125Y-12127414D01*
X17127125Y-12127414D02*
X17136649Y-12098843D01*
X17136649Y-12098843D02*
X17146173Y-12051224D01*
X17146173Y-12051224D02*
X17146173Y-12013129D01*
X17146173Y-12013129D02*
X17136649Y-11965510D01*
X17136649Y-11965510D02*
X17127125Y-11936938D01*
X17127125Y-11936938D02*
X17117601Y-11917891D01*
X17117601Y-11917891D02*
X17098554Y-11889319D01*
X17098554Y-11889319D02*
X17089030Y-11879795D01*
D12*
X12268967Y-12325883D02*
X12313967Y-12280883D01*
X12268967Y-12235883D01*
X12223967Y-12280883D01*
X12268967Y-12325883D01*
D11*
X12612839Y-12172367D02*
X12631887Y-12172367D01*
X12631887Y-12172367D02*
X12650934Y-12181891D01*
X12650934Y-12181891D02*
X12660458Y-12191414D01*
X12660458Y-12191414D02*
X12669982Y-12210462D01*
X12669982Y-12210462D02*
X12679506Y-12248557D01*
X12679506Y-12248557D02*
X12679506Y-12296176D01*
X12679506Y-12296176D02*
X12669982Y-12334271D01*
X12669982Y-12334271D02*
X12660458Y-12353319D01*
X12660458Y-12353319D02*
X12650934Y-12362843D01*
X12650934Y-12362843D02*
X12631887Y-12372367D01*
X12631887Y-12372367D02*
X12612839Y-12372367D01*
X12612839Y-12372367D02*
X12593791Y-12362843D01*
X12593791Y-12362843D02*
X12584268Y-12353319D01*
X12584268Y-12353319D02*
X12574744Y-12334271D01*
X12574744Y-12334271D02*
X12565220Y-12296176D01*
X12565220Y-12296176D02*
X12565220Y-12248557D01*
X12565220Y-12248557D02*
X12574744Y-12210462D01*
X12574744Y-12210462D02*
X12584268Y-12191414D01*
X12584268Y-12191414D02*
X12593791Y-12181891D01*
X12593791Y-12181891D02*
X12612839Y-12172367D01*
X12765220Y-12353319D02*
X12774744Y-12362843D01*
X12774744Y-12362843D02*
X12765220Y-12372367D01*
X12765220Y-12372367D02*
X12755696Y-12362843D01*
X12755696Y-12362843D02*
X12765220Y-12353319D01*
X12765220Y-12353319D02*
X12765220Y-12372367D01*
X12869982Y-12372367D02*
X12908077Y-12372367D01*
X12908077Y-12372367D02*
X12927125Y-12362843D01*
X12927125Y-12362843D02*
X12936649Y-12353319D01*
X12936649Y-12353319D02*
X12955696Y-12324748D01*
X12955696Y-12324748D02*
X12965220Y-12286652D01*
X12965220Y-12286652D02*
X12965220Y-12210462D01*
X12965220Y-12210462D02*
X12955696Y-12191414D01*
X12955696Y-12191414D02*
X12946172Y-12181891D01*
X12946172Y-12181891D02*
X12927125Y-12172367D01*
X12927125Y-12172367D02*
X12889029Y-12172367D01*
X12889029Y-12172367D02*
X12869982Y-12181891D01*
X12869982Y-12181891D02*
X12860458Y-12191414D01*
X12860458Y-12191414D02*
X12850934Y-12210462D01*
X12850934Y-12210462D02*
X12850934Y-12258081D01*
X12850934Y-12258081D02*
X12860458Y-12277129D01*
X12860458Y-12277129D02*
X12869982Y-12286652D01*
X12869982Y-12286652D02*
X12889029Y-12296176D01*
X12889029Y-12296176D02*
X12927125Y-12296176D01*
X12927125Y-12296176D02*
X12946172Y-12286652D01*
X12946172Y-12286652D02*
X12955696Y-12277129D01*
X12955696Y-12277129D02*
X12965220Y-12258081D01*
X13089029Y-12172367D02*
X13108077Y-12172367D01*
X13108077Y-12172367D02*
X13127125Y-12181891D01*
X13127125Y-12181891D02*
X13136649Y-12191414D01*
X13136649Y-12191414D02*
X13146172Y-12210462D01*
X13146172Y-12210462D02*
X13155696Y-12248557D01*
X13155696Y-12248557D02*
X13155696Y-12296176D01*
X13155696Y-12296176D02*
X13146172Y-12334271D01*
X13146172Y-12334271D02*
X13136649Y-12353319D01*
X13136649Y-12353319D02*
X13127125Y-12362843D01*
X13127125Y-12362843D02*
X13108077Y-12372367D01*
X13108077Y-12372367D02*
X13089029Y-12372367D01*
X13089029Y-12372367D02*
X13069982Y-12362843D01*
X13069982Y-12362843D02*
X13060458Y-12353319D01*
X13060458Y-12353319D02*
X13050934Y-12334271D01*
X13050934Y-12334271D02*
X13041410Y-12296176D01*
X13041410Y-12296176D02*
X13041410Y-12248557D01*
X13041410Y-12248557D02*
X13050934Y-12210462D01*
X13050934Y-12210462D02*
X13060458Y-12191414D01*
X13060458Y-12191414D02*
X13069982Y-12181891D01*
X13069982Y-12181891D02*
X13089029Y-12172367D01*
X13279506Y-12172367D02*
X13298553Y-12172367D01*
X13298553Y-12172367D02*
X13317601Y-12181891D01*
X13317601Y-12181891D02*
X13327125Y-12191414D01*
X13327125Y-12191414D02*
X13336649Y-12210462D01*
X13336649Y-12210462D02*
X13346172Y-12248557D01*
X13346172Y-12248557D02*
X13346172Y-12296176D01*
X13346172Y-12296176D02*
X13336649Y-12334271D01*
X13336649Y-12334271D02*
X13327125Y-12353319D01*
X13327125Y-12353319D02*
X13317601Y-12362843D01*
X13317601Y-12362843D02*
X13298553Y-12372367D01*
X13298553Y-12372367D02*
X13279506Y-12372367D01*
X13279506Y-12372367D02*
X13260458Y-12362843D01*
X13260458Y-12362843D02*
X13250934Y-12353319D01*
X13250934Y-12353319D02*
X13241410Y-12334271D01*
X13241410Y-12334271D02*
X13231887Y-12296176D01*
X13231887Y-12296176D02*
X13231887Y-12248557D01*
X13231887Y-12248557D02*
X13241410Y-12210462D01*
X13241410Y-12210462D02*
X13250934Y-12191414D01*
X13250934Y-12191414D02*
X13260458Y-12181891D01*
X13260458Y-12181891D02*
X13279506Y-12172367D01*
X13431887Y-12372367D02*
X13431887Y-12239033D01*
X13431887Y-12258081D02*
X13441410Y-12248557D01*
X13441410Y-12248557D02*
X13460458Y-12239033D01*
X13460458Y-12239033D02*
X13489030Y-12239033D01*
X13489030Y-12239033D02*
X13508077Y-12248557D01*
X13508077Y-12248557D02*
X13517601Y-12267605D01*
X13517601Y-12267605D02*
X13517601Y-12372367D01*
X13517601Y-12267605D02*
X13527125Y-12248557D01*
X13527125Y-12248557D02*
X13546172Y-12239033D01*
X13546172Y-12239033D02*
X13574744Y-12239033D01*
X13574744Y-12239033D02*
X13593791Y-12248557D01*
X13593791Y-12248557D02*
X13603315Y-12267605D01*
X13603315Y-12267605D02*
X13603315Y-12372367D01*
X13698553Y-12372367D02*
X13698553Y-12239033D01*
X13698553Y-12258081D02*
X13708077Y-12248557D01*
X13708077Y-12248557D02*
X13727125Y-12239033D01*
X13727125Y-12239033D02*
X13755696Y-12239033D01*
X13755696Y-12239033D02*
X13774744Y-12248557D01*
X13774744Y-12248557D02*
X13784268Y-12267605D01*
X13784268Y-12267605D02*
X13784268Y-12372367D01*
X13784268Y-12267605D02*
X13793791Y-12248557D01*
X13793791Y-12248557D02*
X13812839Y-12239033D01*
X13812839Y-12239033D02*
X13841410Y-12239033D01*
X13841410Y-12239033D02*
X13860458Y-12248557D01*
X13860458Y-12248557D02*
X13869982Y-12267605D01*
X13869982Y-12267605D02*
X13869982Y-12372367D01*
X14260458Y-12162843D02*
X14089030Y-12419986D01*
X14517601Y-12172367D02*
X14536649Y-12172367D01*
X14536649Y-12172367D02*
X14555696Y-12181891D01*
X14555696Y-12181891D02*
X14565220Y-12191414D01*
X14565220Y-12191414D02*
X14574744Y-12210462D01*
X14574744Y-12210462D02*
X14584268Y-12248557D01*
X14584268Y-12248557D02*
X14584268Y-12296176D01*
X14584268Y-12296176D02*
X14574744Y-12334271D01*
X14574744Y-12334271D02*
X14565220Y-12353319D01*
X14565220Y-12353319D02*
X14555696Y-12362843D01*
X14555696Y-12362843D02*
X14536649Y-12372367D01*
X14536649Y-12372367D02*
X14517601Y-12372367D01*
X14517601Y-12372367D02*
X14498553Y-12362843D01*
X14498553Y-12362843D02*
X14489030Y-12353319D01*
X14489030Y-12353319D02*
X14479506Y-12334271D01*
X14479506Y-12334271D02*
X14469982Y-12296176D01*
X14469982Y-12296176D02*
X14469982Y-12248557D01*
X14469982Y-12248557D02*
X14479506Y-12210462D01*
X14479506Y-12210462D02*
X14489030Y-12191414D01*
X14489030Y-12191414D02*
X14498553Y-12181891D01*
X14498553Y-12181891D02*
X14517601Y-12172367D01*
X14669982Y-12353319D02*
X14679506Y-12362843D01*
X14679506Y-12362843D02*
X14669982Y-12372367D01*
X14669982Y-12372367D02*
X14660458Y-12362843D01*
X14660458Y-12362843D02*
X14669982Y-12353319D01*
X14669982Y-12353319D02*
X14669982Y-12372367D01*
X14803315Y-12172367D02*
X14822363Y-12172367D01*
X14822363Y-12172367D02*
X14841411Y-12181891D01*
X14841411Y-12181891D02*
X14850934Y-12191414D01*
X14850934Y-12191414D02*
X14860458Y-12210462D01*
X14860458Y-12210462D02*
X14869982Y-12248557D01*
X14869982Y-12248557D02*
X14869982Y-12296176D01*
X14869982Y-12296176D02*
X14860458Y-12334271D01*
X14860458Y-12334271D02*
X14850934Y-12353319D01*
X14850934Y-12353319D02*
X14841411Y-12362843D01*
X14841411Y-12362843D02*
X14822363Y-12372367D01*
X14822363Y-12372367D02*
X14803315Y-12372367D01*
X14803315Y-12372367D02*
X14784268Y-12362843D01*
X14784268Y-12362843D02*
X14774744Y-12353319D01*
X14774744Y-12353319D02*
X14765220Y-12334271D01*
X14765220Y-12334271D02*
X14755696Y-12296176D01*
X14755696Y-12296176D02*
X14755696Y-12248557D01*
X14755696Y-12248557D02*
X14765220Y-12210462D01*
X14765220Y-12210462D02*
X14774744Y-12191414D01*
X14774744Y-12191414D02*
X14784268Y-12181891D01*
X14784268Y-12181891D02*
X14803315Y-12172367D01*
X14936649Y-12172367D02*
X15060458Y-12172367D01*
X15060458Y-12172367D02*
X14993792Y-12248557D01*
X14993792Y-12248557D02*
X15022363Y-12248557D01*
X15022363Y-12248557D02*
X15041411Y-12258081D01*
X15041411Y-12258081D02*
X15050934Y-12267605D01*
X15050934Y-12267605D02*
X15060458Y-12286652D01*
X15060458Y-12286652D02*
X15060458Y-12334271D01*
X15060458Y-12334271D02*
X15050934Y-12353319D01*
X15050934Y-12353319D02*
X15041411Y-12362843D01*
X15041411Y-12362843D02*
X15022363Y-12372367D01*
X15022363Y-12372367D02*
X14965220Y-12372367D01*
X14965220Y-12372367D02*
X14946173Y-12362843D01*
X14946173Y-12362843D02*
X14936649Y-12353319D01*
X15241411Y-12172367D02*
X15146173Y-12172367D01*
X15146173Y-12172367D02*
X15136649Y-12267605D01*
X15136649Y-12267605D02*
X15146173Y-12258081D01*
X15146173Y-12258081D02*
X15165220Y-12248557D01*
X15165220Y-12248557D02*
X15212839Y-12248557D01*
X15212839Y-12248557D02*
X15231887Y-12258081D01*
X15231887Y-12258081D02*
X15241411Y-12267605D01*
X15241411Y-12267605D02*
X15250934Y-12286652D01*
X15250934Y-12286652D02*
X15250934Y-12334271D01*
X15250934Y-12334271D02*
X15241411Y-12353319D01*
X15241411Y-12353319D02*
X15231887Y-12362843D01*
X15231887Y-12362843D02*
X15212839Y-12372367D01*
X15212839Y-12372367D02*
X15165220Y-12372367D01*
X15165220Y-12372367D02*
X15146173Y-12362843D01*
X15146173Y-12362843D02*
X15136649Y-12353319D01*
X15422363Y-12239033D02*
X15422363Y-12372367D01*
X15374744Y-12162843D02*
X15327125Y-12305700D01*
X15327125Y-12305700D02*
X15450934Y-12305700D01*
X15517601Y-12172367D02*
X15517601Y-12210462D01*
X15593792Y-12172367D02*
X15593792Y-12210462D01*
X15889030Y-12448557D02*
X15879506Y-12439033D01*
X15879506Y-12439033D02*
X15860458Y-12410462D01*
X15860458Y-12410462D02*
X15850935Y-12391414D01*
X15850935Y-12391414D02*
X15841411Y-12362843D01*
X15841411Y-12362843D02*
X15831887Y-12315224D01*
X15831887Y-12315224D02*
X15831887Y-12277129D01*
X15831887Y-12277129D02*
X15841411Y-12229510D01*
X15841411Y-12229510D02*
X15850935Y-12200938D01*
X15850935Y-12200938D02*
X15860458Y-12181891D01*
X15860458Y-12181891D02*
X15879506Y-12153319D01*
X15879506Y-12153319D02*
X15889030Y-12143795D01*
X15955696Y-12191414D02*
X15965220Y-12181891D01*
X15965220Y-12181891D02*
X15984268Y-12172367D01*
X15984268Y-12172367D02*
X16031887Y-12172367D01*
X16031887Y-12172367D02*
X16050935Y-12181891D01*
X16050935Y-12181891D02*
X16060458Y-12191414D01*
X16060458Y-12191414D02*
X16069982Y-12210462D01*
X16069982Y-12210462D02*
X16069982Y-12229510D01*
X16069982Y-12229510D02*
X16060458Y-12258081D01*
X16060458Y-12258081D02*
X15946173Y-12372367D01*
X15946173Y-12372367D02*
X16069982Y-12372367D01*
X16308077Y-12372367D02*
X16308077Y-12172367D01*
X16393792Y-12372367D02*
X16393792Y-12267605D01*
X16393792Y-12267605D02*
X16384268Y-12248557D01*
X16384268Y-12248557D02*
X16365220Y-12239033D01*
X16365220Y-12239033D02*
X16336649Y-12239033D01*
X16336649Y-12239033D02*
X16317601Y-12248557D01*
X16317601Y-12248557D02*
X16308077Y-12258081D01*
X16517601Y-12372367D02*
X16498554Y-12362843D01*
X16498554Y-12362843D02*
X16489030Y-12353319D01*
X16489030Y-12353319D02*
X16479506Y-12334271D01*
X16479506Y-12334271D02*
X16479506Y-12277129D01*
X16479506Y-12277129D02*
X16489030Y-12258081D01*
X16489030Y-12258081D02*
X16498554Y-12248557D01*
X16498554Y-12248557D02*
X16517601Y-12239033D01*
X16517601Y-12239033D02*
X16546173Y-12239033D01*
X16546173Y-12239033D02*
X16565220Y-12248557D01*
X16565220Y-12248557D02*
X16574744Y-12258081D01*
X16574744Y-12258081D02*
X16584268Y-12277129D01*
X16584268Y-12277129D02*
X16584268Y-12334271D01*
X16584268Y-12334271D02*
X16574744Y-12353319D01*
X16574744Y-12353319D02*
X16565220Y-12362843D01*
X16565220Y-12362843D02*
X16546173Y-12372367D01*
X16546173Y-12372367D02*
X16517601Y-12372367D01*
X16698554Y-12372367D02*
X16679506Y-12362843D01*
X16679506Y-12362843D02*
X16669982Y-12343795D01*
X16669982Y-12343795D02*
X16669982Y-12172367D01*
X16850935Y-12362843D02*
X16831887Y-12372367D01*
X16831887Y-12372367D02*
X16793792Y-12372367D01*
X16793792Y-12372367D02*
X16774744Y-12362843D01*
X16774744Y-12362843D02*
X16765220Y-12343795D01*
X16765220Y-12343795D02*
X16765220Y-12267605D01*
X16765220Y-12267605D02*
X16774744Y-12248557D01*
X16774744Y-12248557D02*
X16793792Y-12239033D01*
X16793792Y-12239033D02*
X16831887Y-12239033D01*
X16831887Y-12239033D02*
X16850935Y-12248557D01*
X16850935Y-12248557D02*
X16860459Y-12267605D01*
X16860459Y-12267605D02*
X16860459Y-12286652D01*
X16860459Y-12286652D02*
X16765220Y-12305700D01*
X16936649Y-12362843D02*
X16955697Y-12372367D01*
X16955697Y-12372367D02*
X16993792Y-12372367D01*
X16993792Y-12372367D02*
X17012840Y-12362843D01*
X17012840Y-12362843D02*
X17022363Y-12343795D01*
X17022363Y-12343795D02*
X17022363Y-12334271D01*
X17022363Y-12334271D02*
X17012840Y-12315224D01*
X17012840Y-12315224D02*
X16993792Y-12305700D01*
X16993792Y-12305700D02*
X16965220Y-12305700D01*
X16965220Y-12305700D02*
X16946173Y-12296176D01*
X16946173Y-12296176D02*
X16936649Y-12277129D01*
X16936649Y-12277129D02*
X16936649Y-12267605D01*
X16936649Y-12267605D02*
X16946173Y-12248557D01*
X16946173Y-12248557D02*
X16965220Y-12239033D01*
X16965220Y-12239033D02*
X16993792Y-12239033D01*
X16993792Y-12239033D02*
X17012840Y-12248557D01*
X17089030Y-12448557D02*
X17098554Y-12439033D01*
X17098554Y-12439033D02*
X17117601Y-12410462D01*
X17117601Y-12410462D02*
X17127125Y-12391414D01*
X17127125Y-12391414D02*
X17136649Y-12362843D01*
X17136649Y-12362843D02*
X17146173Y-12315224D01*
X17146173Y-12315224D02*
X17146173Y-12277129D01*
X17146173Y-12277129D02*
X17136649Y-12229510D01*
X17136649Y-12229510D02*
X17127125Y-12200938D01*
X17127125Y-12200938D02*
X17117601Y-12181891D01*
X17117601Y-12181891D02*
X17098554Y-12153319D01*
X17098554Y-12153319D02*
X17089030Y-12143795D01*
D12*
X12213967Y-12494883D02*
X12313967Y-12594883D01*
X12313967Y-12494883D02*
X12213967Y-12594883D01*
X12313967Y-12544883D02*
G75*
G02*
X12213967Y-12544883I-50000J0D01*
G01*
X12213967Y-12544883D02*
G75*
G02*
X12313967Y-12544883I50000J0D01*
G01*
D11*
X12679506Y-12636367D02*
X12565220Y-12636367D01*
X12622363Y-12636367D02*
X12622363Y-12436367D01*
X12622363Y-12436367D02*
X12603315Y-12464938D01*
X12603315Y-12464938D02*
X12584268Y-12483986D01*
X12584268Y-12483986D02*
X12565220Y-12493510D01*
X12765220Y-12617319D02*
X12774744Y-12626843D01*
X12774744Y-12626843D02*
X12765220Y-12636367D01*
X12765220Y-12636367D02*
X12755696Y-12626843D01*
X12755696Y-12626843D02*
X12765220Y-12617319D01*
X12765220Y-12617319D02*
X12765220Y-12636367D01*
X12898553Y-12436367D02*
X12917601Y-12436367D01*
X12917601Y-12436367D02*
X12936649Y-12445891D01*
X12936649Y-12445891D02*
X12946172Y-12455414D01*
X12946172Y-12455414D02*
X12955696Y-12474462D01*
X12955696Y-12474462D02*
X12965220Y-12512557D01*
X12965220Y-12512557D02*
X12965220Y-12560176D01*
X12965220Y-12560176D02*
X12955696Y-12598271D01*
X12955696Y-12598271D02*
X12946172Y-12617319D01*
X12946172Y-12617319D02*
X12936649Y-12626843D01*
X12936649Y-12626843D02*
X12917601Y-12636367D01*
X12917601Y-12636367D02*
X12898553Y-12636367D01*
X12898553Y-12636367D02*
X12879506Y-12626843D01*
X12879506Y-12626843D02*
X12869982Y-12617319D01*
X12869982Y-12617319D02*
X12860458Y-12598271D01*
X12860458Y-12598271D02*
X12850934Y-12560176D01*
X12850934Y-12560176D02*
X12850934Y-12512557D01*
X12850934Y-12512557D02*
X12860458Y-12474462D01*
X12860458Y-12474462D02*
X12869982Y-12455414D01*
X12869982Y-12455414D02*
X12879506Y-12445891D01*
X12879506Y-12445891D02*
X12898553Y-12436367D01*
X13089029Y-12436367D02*
X13108077Y-12436367D01*
X13108077Y-12436367D02*
X13127125Y-12445891D01*
X13127125Y-12445891D02*
X13136649Y-12455414D01*
X13136649Y-12455414D02*
X13146172Y-12474462D01*
X13146172Y-12474462D02*
X13155696Y-12512557D01*
X13155696Y-12512557D02*
X13155696Y-12560176D01*
X13155696Y-12560176D02*
X13146172Y-12598271D01*
X13146172Y-12598271D02*
X13136649Y-12617319D01*
X13136649Y-12617319D02*
X13127125Y-12626843D01*
X13127125Y-12626843D02*
X13108077Y-12636367D01*
X13108077Y-12636367D02*
X13089029Y-12636367D01*
X13089029Y-12636367D02*
X13069982Y-12626843D01*
X13069982Y-12626843D02*
X13060458Y-12617319D01*
X13060458Y-12617319D02*
X13050934Y-12598271D01*
X13050934Y-12598271D02*
X13041410Y-12560176D01*
X13041410Y-12560176D02*
X13041410Y-12512557D01*
X13041410Y-12512557D02*
X13050934Y-12474462D01*
X13050934Y-12474462D02*
X13060458Y-12455414D01*
X13060458Y-12455414D02*
X13069982Y-12445891D01*
X13069982Y-12445891D02*
X13089029Y-12436367D01*
X13279506Y-12436367D02*
X13298553Y-12436367D01*
X13298553Y-12436367D02*
X13317601Y-12445891D01*
X13317601Y-12445891D02*
X13327125Y-12455414D01*
X13327125Y-12455414D02*
X13336649Y-12474462D01*
X13336649Y-12474462D02*
X13346172Y-12512557D01*
X13346172Y-12512557D02*
X13346172Y-12560176D01*
X13346172Y-12560176D02*
X13336649Y-12598271D01*
X13336649Y-12598271D02*
X13327125Y-12617319D01*
X13327125Y-12617319D02*
X13317601Y-12626843D01*
X13317601Y-12626843D02*
X13298553Y-12636367D01*
X13298553Y-12636367D02*
X13279506Y-12636367D01*
X13279506Y-12636367D02*
X13260458Y-12626843D01*
X13260458Y-12626843D02*
X13250934Y-12617319D01*
X13250934Y-12617319D02*
X13241410Y-12598271D01*
X13241410Y-12598271D02*
X13231887Y-12560176D01*
X13231887Y-12560176D02*
X13231887Y-12512557D01*
X13231887Y-12512557D02*
X13241410Y-12474462D01*
X13241410Y-12474462D02*
X13250934Y-12455414D01*
X13250934Y-12455414D02*
X13260458Y-12445891D01*
X13260458Y-12445891D02*
X13279506Y-12436367D01*
X13431887Y-12636367D02*
X13431887Y-12503033D01*
X13431887Y-12522081D02*
X13441410Y-12512557D01*
X13441410Y-12512557D02*
X13460458Y-12503033D01*
X13460458Y-12503033D02*
X13489030Y-12503033D01*
X13489030Y-12503033D02*
X13508077Y-12512557D01*
X13508077Y-12512557D02*
X13517601Y-12531605D01*
X13517601Y-12531605D02*
X13517601Y-12636367D01*
X13517601Y-12531605D02*
X13527125Y-12512557D01*
X13527125Y-12512557D02*
X13546172Y-12503033D01*
X13546172Y-12503033D02*
X13574744Y-12503033D01*
X13574744Y-12503033D02*
X13593791Y-12512557D01*
X13593791Y-12512557D02*
X13603315Y-12531605D01*
X13603315Y-12531605D02*
X13603315Y-12636367D01*
X13698553Y-12636367D02*
X13698553Y-12503033D01*
X13698553Y-12522081D02*
X13708077Y-12512557D01*
X13708077Y-12512557D02*
X13727125Y-12503033D01*
X13727125Y-12503033D02*
X13755696Y-12503033D01*
X13755696Y-12503033D02*
X13774744Y-12512557D01*
X13774744Y-12512557D02*
X13784268Y-12531605D01*
X13784268Y-12531605D02*
X13784268Y-12636367D01*
X13784268Y-12531605D02*
X13793791Y-12512557D01*
X13793791Y-12512557D02*
X13812839Y-12503033D01*
X13812839Y-12503033D02*
X13841410Y-12503033D01*
X13841410Y-12503033D02*
X13860458Y-12512557D01*
X13860458Y-12512557D02*
X13869982Y-12531605D01*
X13869982Y-12531605D02*
X13869982Y-12636367D01*
X14260458Y-12426843D02*
X14089030Y-12683986D01*
X14517601Y-12436367D02*
X14536649Y-12436367D01*
X14536649Y-12436367D02*
X14555696Y-12445891D01*
X14555696Y-12445891D02*
X14565220Y-12455414D01*
X14565220Y-12455414D02*
X14574744Y-12474462D01*
X14574744Y-12474462D02*
X14584268Y-12512557D01*
X14584268Y-12512557D02*
X14584268Y-12560176D01*
X14584268Y-12560176D02*
X14574744Y-12598271D01*
X14574744Y-12598271D02*
X14565220Y-12617319D01*
X14565220Y-12617319D02*
X14555696Y-12626843D01*
X14555696Y-12626843D02*
X14536649Y-12636367D01*
X14536649Y-12636367D02*
X14517601Y-12636367D01*
X14517601Y-12636367D02*
X14498553Y-12626843D01*
X14498553Y-12626843D02*
X14489030Y-12617319D01*
X14489030Y-12617319D02*
X14479506Y-12598271D01*
X14479506Y-12598271D02*
X14469982Y-12560176D01*
X14469982Y-12560176D02*
X14469982Y-12512557D01*
X14469982Y-12512557D02*
X14479506Y-12474462D01*
X14479506Y-12474462D02*
X14489030Y-12455414D01*
X14489030Y-12455414D02*
X14498553Y-12445891D01*
X14498553Y-12445891D02*
X14517601Y-12436367D01*
X14669982Y-12617319D02*
X14679506Y-12626843D01*
X14679506Y-12626843D02*
X14669982Y-12636367D01*
X14669982Y-12636367D02*
X14660458Y-12626843D01*
X14660458Y-12626843D02*
X14669982Y-12617319D01*
X14669982Y-12617319D02*
X14669982Y-12636367D01*
X14803315Y-12436367D02*
X14822363Y-12436367D01*
X14822363Y-12436367D02*
X14841411Y-12445891D01*
X14841411Y-12445891D02*
X14850934Y-12455414D01*
X14850934Y-12455414D02*
X14860458Y-12474462D01*
X14860458Y-12474462D02*
X14869982Y-12512557D01*
X14869982Y-12512557D02*
X14869982Y-12560176D01*
X14869982Y-12560176D02*
X14860458Y-12598271D01*
X14860458Y-12598271D02*
X14850934Y-12617319D01*
X14850934Y-12617319D02*
X14841411Y-12626843D01*
X14841411Y-12626843D02*
X14822363Y-12636367D01*
X14822363Y-12636367D02*
X14803315Y-12636367D01*
X14803315Y-12636367D02*
X14784268Y-12626843D01*
X14784268Y-12626843D02*
X14774744Y-12617319D01*
X14774744Y-12617319D02*
X14765220Y-12598271D01*
X14765220Y-12598271D02*
X14755696Y-12560176D01*
X14755696Y-12560176D02*
X14755696Y-12512557D01*
X14755696Y-12512557D02*
X14765220Y-12474462D01*
X14765220Y-12474462D02*
X14774744Y-12455414D01*
X14774744Y-12455414D02*
X14784268Y-12445891D01*
X14784268Y-12445891D02*
X14803315Y-12436367D01*
X14936649Y-12436367D02*
X15060458Y-12436367D01*
X15060458Y-12436367D02*
X14993792Y-12512557D01*
X14993792Y-12512557D02*
X15022363Y-12512557D01*
X15022363Y-12512557D02*
X15041411Y-12522081D01*
X15041411Y-12522081D02*
X15050934Y-12531605D01*
X15050934Y-12531605D02*
X15060458Y-12550652D01*
X15060458Y-12550652D02*
X15060458Y-12598271D01*
X15060458Y-12598271D02*
X15050934Y-12617319D01*
X15050934Y-12617319D02*
X15041411Y-12626843D01*
X15041411Y-12626843D02*
X15022363Y-12636367D01*
X15022363Y-12636367D02*
X14965220Y-12636367D01*
X14965220Y-12636367D02*
X14946173Y-12626843D01*
X14946173Y-12626843D02*
X14936649Y-12617319D01*
X15155696Y-12636367D02*
X15193792Y-12636367D01*
X15193792Y-12636367D02*
X15212839Y-12626843D01*
X15212839Y-12626843D02*
X15222363Y-12617319D01*
X15222363Y-12617319D02*
X15241411Y-12588748D01*
X15241411Y-12588748D02*
X15250934Y-12550652D01*
X15250934Y-12550652D02*
X15250934Y-12474462D01*
X15250934Y-12474462D02*
X15241411Y-12455414D01*
X15241411Y-12455414D02*
X15231887Y-12445891D01*
X15231887Y-12445891D02*
X15212839Y-12436367D01*
X15212839Y-12436367D02*
X15174744Y-12436367D01*
X15174744Y-12436367D02*
X15155696Y-12445891D01*
X15155696Y-12445891D02*
X15146173Y-12455414D01*
X15146173Y-12455414D02*
X15136649Y-12474462D01*
X15136649Y-12474462D02*
X15136649Y-12522081D01*
X15136649Y-12522081D02*
X15146173Y-12541129D01*
X15146173Y-12541129D02*
X15155696Y-12550652D01*
X15155696Y-12550652D02*
X15174744Y-12560176D01*
X15174744Y-12560176D02*
X15212839Y-12560176D01*
X15212839Y-12560176D02*
X15231887Y-12550652D01*
X15231887Y-12550652D02*
X15241411Y-12541129D01*
X15241411Y-12541129D02*
X15250934Y-12522081D01*
X15422363Y-12503033D02*
X15422363Y-12636367D01*
X15374744Y-12426843D02*
X15327125Y-12569700D01*
X15327125Y-12569700D02*
X15450934Y-12569700D01*
X15517601Y-12436367D02*
X15517601Y-12474462D01*
X15593792Y-12436367D02*
X15593792Y-12474462D01*
X15889030Y-12712557D02*
X15879506Y-12703033D01*
X15879506Y-12703033D02*
X15860458Y-12674462D01*
X15860458Y-12674462D02*
X15850935Y-12655414D01*
X15850935Y-12655414D02*
X15841411Y-12626843D01*
X15841411Y-12626843D02*
X15831887Y-12579224D01*
X15831887Y-12579224D02*
X15831887Y-12541129D01*
X15831887Y-12541129D02*
X15841411Y-12493510D01*
X15841411Y-12493510D02*
X15850935Y-12464938D01*
X15850935Y-12464938D02*
X15860458Y-12445891D01*
X15860458Y-12445891D02*
X15879506Y-12417319D01*
X15879506Y-12417319D02*
X15889030Y-12407795D01*
X15955696Y-12455414D02*
X15965220Y-12445891D01*
X15965220Y-12445891D02*
X15984268Y-12436367D01*
X15984268Y-12436367D02*
X16031887Y-12436367D01*
X16031887Y-12436367D02*
X16050935Y-12445891D01*
X16050935Y-12445891D02*
X16060458Y-12455414D01*
X16060458Y-12455414D02*
X16069982Y-12474462D01*
X16069982Y-12474462D02*
X16069982Y-12493510D01*
X16069982Y-12493510D02*
X16060458Y-12522081D01*
X16060458Y-12522081D02*
X15946173Y-12636367D01*
X15946173Y-12636367D02*
X16069982Y-12636367D01*
X16241411Y-12503033D02*
X16241411Y-12636367D01*
X16193792Y-12426843D02*
X16146173Y-12569700D01*
X16146173Y-12569700D02*
X16269982Y-12569700D01*
X16498554Y-12636367D02*
X16498554Y-12436367D01*
X16584268Y-12636367D02*
X16584268Y-12531605D01*
X16584268Y-12531605D02*
X16574744Y-12512557D01*
X16574744Y-12512557D02*
X16555697Y-12503033D01*
X16555697Y-12503033D02*
X16527125Y-12503033D01*
X16527125Y-12503033D02*
X16508077Y-12512557D01*
X16508077Y-12512557D02*
X16498554Y-12522081D01*
X16708077Y-12636367D02*
X16689030Y-12626843D01*
X16689030Y-12626843D02*
X16679506Y-12617319D01*
X16679506Y-12617319D02*
X16669982Y-12598271D01*
X16669982Y-12598271D02*
X16669982Y-12541129D01*
X16669982Y-12541129D02*
X16679506Y-12522081D01*
X16679506Y-12522081D02*
X16689030Y-12512557D01*
X16689030Y-12512557D02*
X16708077Y-12503033D01*
X16708077Y-12503033D02*
X16736649Y-12503033D01*
X16736649Y-12503033D02*
X16755697Y-12512557D01*
X16755697Y-12512557D02*
X16765220Y-12522081D01*
X16765220Y-12522081D02*
X16774744Y-12541129D01*
X16774744Y-12541129D02*
X16774744Y-12598271D01*
X16774744Y-12598271D02*
X16765220Y-12617319D01*
X16765220Y-12617319D02*
X16755697Y-12626843D01*
X16755697Y-12626843D02*
X16736649Y-12636367D01*
X16736649Y-12636367D02*
X16708077Y-12636367D01*
X16889030Y-12636367D02*
X16869982Y-12626843D01*
X16869982Y-12626843D02*
X16860459Y-12607795D01*
X16860459Y-12607795D02*
X16860459Y-12436367D01*
X17041411Y-12626843D02*
X17022363Y-12636367D01*
X17022363Y-12636367D02*
X16984268Y-12636367D01*
X16984268Y-12636367D02*
X16965220Y-12626843D01*
X16965220Y-12626843D02*
X16955697Y-12607795D01*
X16955697Y-12607795D02*
X16955697Y-12531605D01*
X16955697Y-12531605D02*
X16965220Y-12512557D01*
X16965220Y-12512557D02*
X16984268Y-12503033D01*
X16984268Y-12503033D02*
X17022363Y-12503033D01*
X17022363Y-12503033D02*
X17041411Y-12512557D01*
X17041411Y-12512557D02*
X17050935Y-12531605D01*
X17050935Y-12531605D02*
X17050935Y-12550652D01*
X17050935Y-12550652D02*
X16955697Y-12569700D01*
X17127125Y-12626843D02*
X17146173Y-12636367D01*
X17146173Y-12636367D02*
X17184268Y-12636367D01*
X17184268Y-12636367D02*
X17203316Y-12626843D01*
X17203316Y-12626843D02*
X17212840Y-12607795D01*
X17212840Y-12607795D02*
X17212840Y-12598271D01*
X17212840Y-12598271D02*
X17203316Y-12579224D01*
X17203316Y-12579224D02*
X17184268Y-12569700D01*
X17184268Y-12569700D02*
X17155697Y-12569700D01*
X17155697Y-12569700D02*
X17136649Y-12560176D01*
X17136649Y-12560176D02*
X17127125Y-12541129D01*
X17127125Y-12541129D02*
X17127125Y-12531605D01*
X17127125Y-12531605D02*
X17136649Y-12512557D01*
X17136649Y-12512557D02*
X17155697Y-12503033D01*
X17155697Y-12503033D02*
X17184268Y-12503033D01*
X17184268Y-12503033D02*
X17203316Y-12512557D01*
X17450935Y-12560176D02*
X17603316Y-12560176D01*
X17527125Y-12636367D02*
X17527125Y-12483986D01*
X17831887Y-12436367D02*
X17955697Y-12436367D01*
X17955697Y-12436367D02*
X17889030Y-12512557D01*
X17889030Y-12512557D02*
X17917602Y-12512557D01*
X17917602Y-12512557D02*
X17936649Y-12522081D01*
X17936649Y-12522081D02*
X17946173Y-12531605D01*
X17946173Y-12531605D02*
X17955697Y-12550652D01*
X17955697Y-12550652D02*
X17955697Y-12598271D01*
X17955697Y-12598271D02*
X17946173Y-12617319D01*
X17946173Y-12617319D02*
X17936649Y-12626843D01*
X17936649Y-12626843D02*
X17917602Y-12636367D01*
X17917602Y-12636367D02*
X17860459Y-12636367D01*
X17860459Y-12636367D02*
X17841411Y-12626843D01*
X17841411Y-12626843D02*
X17831887Y-12617319D01*
X18184268Y-12626843D02*
X18203316Y-12636367D01*
X18203316Y-12636367D02*
X18241411Y-12636367D01*
X18241411Y-12636367D02*
X18260459Y-12626843D01*
X18260459Y-12626843D02*
X18269983Y-12607795D01*
X18269983Y-12607795D02*
X18269983Y-12598271D01*
X18269983Y-12598271D02*
X18260459Y-12579224D01*
X18260459Y-12579224D02*
X18241411Y-12569700D01*
X18241411Y-12569700D02*
X18212840Y-12569700D01*
X18212840Y-12569700D02*
X18193792Y-12560176D01*
X18193792Y-12560176D02*
X18184268Y-12541129D01*
X18184268Y-12541129D02*
X18184268Y-12531605D01*
X18184268Y-12531605D02*
X18193792Y-12512557D01*
X18193792Y-12512557D02*
X18212840Y-12503033D01*
X18212840Y-12503033D02*
X18241411Y-12503033D01*
X18241411Y-12503033D02*
X18260459Y-12512557D01*
X18384268Y-12636367D02*
X18365221Y-12626843D01*
X18365221Y-12626843D02*
X18355697Y-12607795D01*
X18355697Y-12607795D02*
X18355697Y-12436367D01*
X18489030Y-12636367D02*
X18469983Y-12626843D01*
X18469983Y-12626843D02*
X18460459Y-12617319D01*
X18460459Y-12617319D02*
X18450935Y-12598271D01*
X18450935Y-12598271D02*
X18450935Y-12541129D01*
X18450935Y-12541129D02*
X18460459Y-12522081D01*
X18460459Y-12522081D02*
X18469983Y-12512557D01*
X18469983Y-12512557D02*
X18489030Y-12503033D01*
X18489030Y-12503033D02*
X18517602Y-12503033D01*
X18517602Y-12503033D02*
X18536649Y-12512557D01*
X18536649Y-12512557D02*
X18546173Y-12522081D01*
X18546173Y-12522081D02*
X18555697Y-12541129D01*
X18555697Y-12541129D02*
X18555697Y-12598271D01*
X18555697Y-12598271D02*
X18546173Y-12617319D01*
X18546173Y-12617319D02*
X18536649Y-12626843D01*
X18536649Y-12626843D02*
X18517602Y-12636367D01*
X18517602Y-12636367D02*
X18489030Y-12636367D01*
X18612840Y-12503033D02*
X18689030Y-12503033D01*
X18641411Y-12436367D02*
X18641411Y-12607795D01*
X18641411Y-12607795D02*
X18650935Y-12626843D01*
X18650935Y-12626843D02*
X18669983Y-12636367D01*
X18669983Y-12636367D02*
X18689030Y-12636367D01*
X18746173Y-12626843D02*
X18765221Y-12636367D01*
X18765221Y-12636367D02*
X18803316Y-12636367D01*
X18803316Y-12636367D02*
X18822364Y-12626843D01*
X18822364Y-12626843D02*
X18831887Y-12607795D01*
X18831887Y-12607795D02*
X18831887Y-12598271D01*
X18831887Y-12598271D02*
X18822364Y-12579224D01*
X18822364Y-12579224D02*
X18803316Y-12569700D01*
X18803316Y-12569700D02*
X18774744Y-12569700D01*
X18774744Y-12569700D02*
X18755697Y-12560176D01*
X18755697Y-12560176D02*
X18746173Y-12541129D01*
X18746173Y-12541129D02*
X18746173Y-12531605D01*
X18746173Y-12531605D02*
X18755697Y-12512557D01*
X18755697Y-12512557D02*
X18774744Y-12503033D01*
X18774744Y-12503033D02*
X18803316Y-12503033D01*
X18803316Y-12503033D02*
X18822364Y-12512557D01*
X18898554Y-12712557D02*
X18908078Y-12703033D01*
X18908078Y-12703033D02*
X18927125Y-12674462D01*
X18927125Y-12674462D02*
X18936649Y-12655414D01*
X18936649Y-12655414D02*
X18946173Y-12626843D01*
X18946173Y-12626843D02*
X18955697Y-12579224D01*
X18955697Y-12579224D02*
X18955697Y-12541129D01*
X18955697Y-12541129D02*
X18946173Y-12493510D01*
X18946173Y-12493510D02*
X18936649Y-12464938D01*
X18936649Y-12464938D02*
X18927125Y-12445891D01*
X18927125Y-12445891D02*
X18908078Y-12417319D01*
X18908078Y-12417319D02*
X18898554Y-12407795D01*
D13*
X12203967Y-12753883D02*
X12313967Y-12863883D01*
X12313967Y-12753883D02*
X12203967Y-12863883D01*
X12258967Y-12753883D02*
X12258967Y-12863883D01*
X12203967Y-12808883D02*
X12313967Y-12808883D01*
D11*
X12679506Y-12900367D02*
X12565220Y-12900367D01*
X12622363Y-12900367D02*
X12622363Y-12700367D01*
X12622363Y-12700367D02*
X12603315Y-12728938D01*
X12603315Y-12728938D02*
X12584268Y-12747986D01*
X12584268Y-12747986D02*
X12565220Y-12757510D01*
X12765220Y-12881319D02*
X12774744Y-12890843D01*
X12774744Y-12890843D02*
X12765220Y-12900367D01*
X12765220Y-12900367D02*
X12755696Y-12890843D01*
X12755696Y-12890843D02*
X12765220Y-12881319D01*
X12765220Y-12881319D02*
X12765220Y-12900367D01*
X12965220Y-12900367D02*
X12850934Y-12900367D01*
X12908077Y-12900367D02*
X12908077Y-12700367D01*
X12908077Y-12700367D02*
X12889029Y-12728938D01*
X12889029Y-12728938D02*
X12869982Y-12747986D01*
X12869982Y-12747986D02*
X12850934Y-12757510D01*
X13089029Y-12700367D02*
X13108077Y-12700367D01*
X13108077Y-12700367D02*
X13127125Y-12709891D01*
X13127125Y-12709891D02*
X13136649Y-12719414D01*
X13136649Y-12719414D02*
X13146172Y-12738462D01*
X13146172Y-12738462D02*
X13155696Y-12776557D01*
X13155696Y-12776557D02*
X13155696Y-12824176D01*
X13155696Y-12824176D02*
X13146172Y-12862271D01*
X13146172Y-12862271D02*
X13136649Y-12881319D01*
X13136649Y-12881319D02*
X13127125Y-12890843D01*
X13127125Y-12890843D02*
X13108077Y-12900367D01*
X13108077Y-12900367D02*
X13089029Y-12900367D01*
X13089029Y-12900367D02*
X13069982Y-12890843D01*
X13069982Y-12890843D02*
X13060458Y-12881319D01*
X13060458Y-12881319D02*
X13050934Y-12862271D01*
X13050934Y-12862271D02*
X13041410Y-12824176D01*
X13041410Y-12824176D02*
X13041410Y-12776557D01*
X13041410Y-12776557D02*
X13050934Y-12738462D01*
X13050934Y-12738462D02*
X13060458Y-12719414D01*
X13060458Y-12719414D02*
X13069982Y-12709891D01*
X13069982Y-12709891D02*
X13089029Y-12700367D01*
X13279506Y-12700367D02*
X13298553Y-12700367D01*
X13298553Y-12700367D02*
X13317601Y-12709891D01*
X13317601Y-12709891D02*
X13327125Y-12719414D01*
X13327125Y-12719414D02*
X13336649Y-12738462D01*
X13336649Y-12738462D02*
X13346172Y-12776557D01*
X13346172Y-12776557D02*
X13346172Y-12824176D01*
X13346172Y-12824176D02*
X13336649Y-12862271D01*
X13336649Y-12862271D02*
X13327125Y-12881319D01*
X13327125Y-12881319D02*
X13317601Y-12890843D01*
X13317601Y-12890843D02*
X13298553Y-12900367D01*
X13298553Y-12900367D02*
X13279506Y-12900367D01*
X13279506Y-12900367D02*
X13260458Y-12890843D01*
X13260458Y-12890843D02*
X13250934Y-12881319D01*
X13250934Y-12881319D02*
X13241410Y-12862271D01*
X13241410Y-12862271D02*
X13231887Y-12824176D01*
X13231887Y-12824176D02*
X13231887Y-12776557D01*
X13231887Y-12776557D02*
X13241410Y-12738462D01*
X13241410Y-12738462D02*
X13250934Y-12719414D01*
X13250934Y-12719414D02*
X13260458Y-12709891D01*
X13260458Y-12709891D02*
X13279506Y-12700367D01*
X13431887Y-12900367D02*
X13431887Y-12767033D01*
X13431887Y-12786081D02*
X13441410Y-12776557D01*
X13441410Y-12776557D02*
X13460458Y-12767033D01*
X13460458Y-12767033D02*
X13489030Y-12767033D01*
X13489030Y-12767033D02*
X13508077Y-12776557D01*
X13508077Y-12776557D02*
X13517601Y-12795605D01*
X13517601Y-12795605D02*
X13517601Y-12900367D01*
X13517601Y-12795605D02*
X13527125Y-12776557D01*
X13527125Y-12776557D02*
X13546172Y-12767033D01*
X13546172Y-12767033D02*
X13574744Y-12767033D01*
X13574744Y-12767033D02*
X13593791Y-12776557D01*
X13593791Y-12776557D02*
X13603315Y-12795605D01*
X13603315Y-12795605D02*
X13603315Y-12900367D01*
X13698553Y-12900367D02*
X13698553Y-12767033D01*
X13698553Y-12786081D02*
X13708077Y-12776557D01*
X13708077Y-12776557D02*
X13727125Y-12767033D01*
X13727125Y-12767033D02*
X13755696Y-12767033D01*
X13755696Y-12767033D02*
X13774744Y-12776557D01*
X13774744Y-12776557D02*
X13784268Y-12795605D01*
X13784268Y-12795605D02*
X13784268Y-12900367D01*
X13784268Y-12795605D02*
X13793791Y-12776557D01*
X13793791Y-12776557D02*
X13812839Y-12767033D01*
X13812839Y-12767033D02*
X13841410Y-12767033D01*
X13841410Y-12767033D02*
X13860458Y-12776557D01*
X13860458Y-12776557D02*
X13869982Y-12795605D01*
X13869982Y-12795605D02*
X13869982Y-12900367D01*
X14260458Y-12690843D02*
X14089030Y-12947986D01*
X14517601Y-12700367D02*
X14536649Y-12700367D01*
X14536649Y-12700367D02*
X14555696Y-12709891D01*
X14555696Y-12709891D02*
X14565220Y-12719414D01*
X14565220Y-12719414D02*
X14574744Y-12738462D01*
X14574744Y-12738462D02*
X14584268Y-12776557D01*
X14584268Y-12776557D02*
X14584268Y-12824176D01*
X14584268Y-12824176D02*
X14574744Y-12862271D01*
X14574744Y-12862271D02*
X14565220Y-12881319D01*
X14565220Y-12881319D02*
X14555696Y-12890843D01*
X14555696Y-12890843D02*
X14536649Y-12900367D01*
X14536649Y-12900367D02*
X14517601Y-12900367D01*
X14517601Y-12900367D02*
X14498553Y-12890843D01*
X14498553Y-12890843D02*
X14489030Y-12881319D01*
X14489030Y-12881319D02*
X14479506Y-12862271D01*
X14479506Y-12862271D02*
X14469982Y-12824176D01*
X14469982Y-12824176D02*
X14469982Y-12776557D01*
X14469982Y-12776557D02*
X14479506Y-12738462D01*
X14479506Y-12738462D02*
X14489030Y-12719414D01*
X14489030Y-12719414D02*
X14498553Y-12709891D01*
X14498553Y-12709891D02*
X14517601Y-12700367D01*
X14669982Y-12881319D02*
X14679506Y-12890843D01*
X14679506Y-12890843D02*
X14669982Y-12900367D01*
X14669982Y-12900367D02*
X14660458Y-12890843D01*
X14660458Y-12890843D02*
X14669982Y-12881319D01*
X14669982Y-12881319D02*
X14669982Y-12900367D01*
X14803315Y-12700367D02*
X14822363Y-12700367D01*
X14822363Y-12700367D02*
X14841411Y-12709891D01*
X14841411Y-12709891D02*
X14850934Y-12719414D01*
X14850934Y-12719414D02*
X14860458Y-12738462D01*
X14860458Y-12738462D02*
X14869982Y-12776557D01*
X14869982Y-12776557D02*
X14869982Y-12824176D01*
X14869982Y-12824176D02*
X14860458Y-12862271D01*
X14860458Y-12862271D02*
X14850934Y-12881319D01*
X14850934Y-12881319D02*
X14841411Y-12890843D01*
X14841411Y-12890843D02*
X14822363Y-12900367D01*
X14822363Y-12900367D02*
X14803315Y-12900367D01*
X14803315Y-12900367D02*
X14784268Y-12890843D01*
X14784268Y-12890843D02*
X14774744Y-12881319D01*
X14774744Y-12881319D02*
X14765220Y-12862271D01*
X14765220Y-12862271D02*
X14755696Y-12824176D01*
X14755696Y-12824176D02*
X14755696Y-12776557D01*
X14755696Y-12776557D02*
X14765220Y-12738462D01*
X14765220Y-12738462D02*
X14774744Y-12719414D01*
X14774744Y-12719414D02*
X14784268Y-12709891D01*
X14784268Y-12709891D02*
X14803315Y-12700367D01*
X15041411Y-12767033D02*
X15041411Y-12900367D01*
X14993792Y-12690843D02*
X14946173Y-12833700D01*
X14946173Y-12833700D02*
X15069982Y-12833700D01*
X15127125Y-12700367D02*
X15250934Y-12700367D01*
X15250934Y-12700367D02*
X15184268Y-12776557D01*
X15184268Y-12776557D02*
X15212839Y-12776557D01*
X15212839Y-12776557D02*
X15231887Y-12786081D01*
X15231887Y-12786081D02*
X15241411Y-12795605D01*
X15241411Y-12795605D02*
X15250934Y-12814652D01*
X15250934Y-12814652D02*
X15250934Y-12862271D01*
X15250934Y-12862271D02*
X15241411Y-12881319D01*
X15241411Y-12881319D02*
X15231887Y-12890843D01*
X15231887Y-12890843D02*
X15212839Y-12900367D01*
X15212839Y-12900367D02*
X15155696Y-12900367D01*
X15155696Y-12900367D02*
X15136649Y-12890843D01*
X15136649Y-12890843D02*
X15127125Y-12881319D01*
X15317601Y-12700367D02*
X15441411Y-12700367D01*
X15441411Y-12700367D02*
X15374744Y-12776557D01*
X15374744Y-12776557D02*
X15403315Y-12776557D01*
X15403315Y-12776557D02*
X15422363Y-12786081D01*
X15422363Y-12786081D02*
X15431887Y-12795605D01*
X15431887Y-12795605D02*
X15441411Y-12814652D01*
X15441411Y-12814652D02*
X15441411Y-12862271D01*
X15441411Y-12862271D02*
X15431887Y-12881319D01*
X15431887Y-12881319D02*
X15422363Y-12890843D01*
X15422363Y-12890843D02*
X15403315Y-12900367D01*
X15403315Y-12900367D02*
X15346173Y-12900367D01*
X15346173Y-12900367D02*
X15327125Y-12890843D01*
X15327125Y-12890843D02*
X15317601Y-12881319D01*
X15517601Y-12700367D02*
X15517601Y-12738462D01*
X15593792Y-12700367D02*
X15593792Y-12738462D01*
X15889030Y-12976557D02*
X15879506Y-12967033D01*
X15879506Y-12967033D02*
X15860458Y-12938462D01*
X15860458Y-12938462D02*
X15850935Y-12919414D01*
X15850935Y-12919414D02*
X15841411Y-12890843D01*
X15841411Y-12890843D02*
X15831887Y-12843224D01*
X15831887Y-12843224D02*
X15831887Y-12805129D01*
X15831887Y-12805129D02*
X15841411Y-12757510D01*
X15841411Y-12757510D02*
X15850935Y-12728938D01*
X15850935Y-12728938D02*
X15860458Y-12709891D01*
X15860458Y-12709891D02*
X15879506Y-12681319D01*
X15879506Y-12681319D02*
X15889030Y-12671795D01*
X15955696Y-12719414D02*
X15965220Y-12709891D01*
X15965220Y-12709891D02*
X15984268Y-12700367D01*
X15984268Y-12700367D02*
X16031887Y-12700367D01*
X16031887Y-12700367D02*
X16050935Y-12709891D01*
X16050935Y-12709891D02*
X16060458Y-12719414D01*
X16060458Y-12719414D02*
X16069982Y-12738462D01*
X16069982Y-12738462D02*
X16069982Y-12757510D01*
X16069982Y-12757510D02*
X16060458Y-12786081D01*
X16060458Y-12786081D02*
X15946173Y-12900367D01*
X15946173Y-12900367D02*
X16069982Y-12900367D01*
X16241411Y-12767033D02*
X16241411Y-12900367D01*
X16193792Y-12690843D02*
X16146173Y-12833700D01*
X16146173Y-12833700D02*
X16269982Y-12833700D01*
X16498554Y-12900367D02*
X16498554Y-12700367D01*
X16584268Y-12900367D02*
X16584268Y-12795605D01*
X16584268Y-12795605D02*
X16574744Y-12776557D01*
X16574744Y-12776557D02*
X16555697Y-12767033D01*
X16555697Y-12767033D02*
X16527125Y-12767033D01*
X16527125Y-12767033D02*
X16508077Y-12776557D01*
X16508077Y-12776557D02*
X16498554Y-12786081D01*
X16708077Y-12900367D02*
X16689030Y-12890843D01*
X16689030Y-12890843D02*
X16679506Y-12881319D01*
X16679506Y-12881319D02*
X16669982Y-12862271D01*
X16669982Y-12862271D02*
X16669982Y-12805129D01*
X16669982Y-12805129D02*
X16679506Y-12786081D01*
X16679506Y-12786081D02*
X16689030Y-12776557D01*
X16689030Y-12776557D02*
X16708077Y-12767033D01*
X16708077Y-12767033D02*
X16736649Y-12767033D01*
X16736649Y-12767033D02*
X16755697Y-12776557D01*
X16755697Y-12776557D02*
X16765220Y-12786081D01*
X16765220Y-12786081D02*
X16774744Y-12805129D01*
X16774744Y-12805129D02*
X16774744Y-12862271D01*
X16774744Y-12862271D02*
X16765220Y-12881319D01*
X16765220Y-12881319D02*
X16755697Y-12890843D01*
X16755697Y-12890843D02*
X16736649Y-12900367D01*
X16736649Y-12900367D02*
X16708077Y-12900367D01*
X16889030Y-12900367D02*
X16869982Y-12890843D01*
X16869982Y-12890843D02*
X16860459Y-12871795D01*
X16860459Y-12871795D02*
X16860459Y-12700367D01*
X17041411Y-12890843D02*
X17022363Y-12900367D01*
X17022363Y-12900367D02*
X16984268Y-12900367D01*
X16984268Y-12900367D02*
X16965220Y-12890843D01*
X16965220Y-12890843D02*
X16955697Y-12871795D01*
X16955697Y-12871795D02*
X16955697Y-12795605D01*
X16955697Y-12795605D02*
X16965220Y-12776557D01*
X16965220Y-12776557D02*
X16984268Y-12767033D01*
X16984268Y-12767033D02*
X17022363Y-12767033D01*
X17022363Y-12767033D02*
X17041411Y-12776557D01*
X17041411Y-12776557D02*
X17050935Y-12795605D01*
X17050935Y-12795605D02*
X17050935Y-12814652D01*
X17050935Y-12814652D02*
X16955697Y-12833700D01*
X17127125Y-12890843D02*
X17146173Y-12900367D01*
X17146173Y-12900367D02*
X17184268Y-12900367D01*
X17184268Y-12900367D02*
X17203316Y-12890843D01*
X17203316Y-12890843D02*
X17212840Y-12871795D01*
X17212840Y-12871795D02*
X17212840Y-12862271D01*
X17212840Y-12862271D02*
X17203316Y-12843224D01*
X17203316Y-12843224D02*
X17184268Y-12833700D01*
X17184268Y-12833700D02*
X17155697Y-12833700D01*
X17155697Y-12833700D02*
X17136649Y-12824176D01*
X17136649Y-12824176D02*
X17127125Y-12805129D01*
X17127125Y-12805129D02*
X17127125Y-12795605D01*
X17127125Y-12795605D02*
X17136649Y-12776557D01*
X17136649Y-12776557D02*
X17155697Y-12767033D01*
X17155697Y-12767033D02*
X17184268Y-12767033D01*
X17184268Y-12767033D02*
X17203316Y-12776557D01*
X17279506Y-12976557D02*
X17289030Y-12967033D01*
X17289030Y-12967033D02*
X17308078Y-12938462D01*
X17308078Y-12938462D02*
X17317601Y-12919414D01*
X17317601Y-12919414D02*
X17327125Y-12890843D01*
X17327125Y-12890843D02*
X17336649Y-12843224D01*
X17336649Y-12843224D02*
X17336649Y-12805129D01*
X17336649Y-12805129D02*
X17327125Y-12757510D01*
X17327125Y-12757510D02*
X17317601Y-12728938D01*
X17317601Y-12728938D02*
X17308078Y-12709891D01*
X17308078Y-12709891D02*
X17289030Y-12681319D01*
X17289030Y-12681319D02*
X17279506Y-12671795D01*
M02*
