%TF.GenerationSoftware,KiCad,Pcbnew,8.0.6*%
%TF.CreationDate,2024-11-18T08:45:56-05:00*%
%TF.ProjectId,cbmSD-pass,63626d53-442d-4706-9173-732e6b696361,rev?*%
%TF.SameCoordinates,Original*%
%TF.FileFunction,Drillmap*%
%TF.FilePolarity,Positive*%
%FSLAX45Y45*%
G04 Gerber Fmt 4.5, Leading zero omitted, Abs format (unit mm)*
G04 Created by KiCad (PCBNEW 8.0.6) date 2024-11-18 08:45:56*
%MOMM*%
%LPD*%
G01*
G04 APERTURE LIST*
%ADD10C,0.200660*%
%ADD11C,0.200000*%
G04 APERTURE END LIST*
D10*
X18214000Y-6654000D02*
X18213000Y-9451000D01*
X18135000Y-6576000D02*
X18214000Y-6654000D01*
X12324000Y-6656000D02*
X12380000Y-6579000D01*
X12324000Y-9455000D02*
X12324000Y-6656000D01*
X12799100Y-9454710D02*
X12324000Y-9455000D01*
X17714000Y-9450900D02*
X18213000Y-9451000D01*
X12380000Y-6579000D02*
X18135000Y-6576000D01*
X13643650Y-9673150D02*
X13751600Y-9673150D01*
X16526550Y-9666800D02*
X16418600Y-9666800D01*
X12938800Y-10574850D02*
X13503950Y-10574850D01*
X17714000Y-10435150D02*
X17714000Y-9450900D01*
X13891300Y-10574850D02*
X16278900Y-10574850D01*
X16666250Y-10574850D02*
X17574300Y-10574850D01*
X16526550Y-10435150D02*
X16526550Y-9666800D01*
X13643650Y-9673150D02*
X13643650Y-10435150D01*
X13891300Y-10574850D02*
G75*
G02*
X13751600Y-10435150I0J139700D01*
G01*
X13643650Y-10435150D02*
G75*
G02*
X13503950Y-10574850I-139700J0D01*
G01*
X16418600Y-9666800D02*
X16418600Y-10435150D01*
X17714000Y-10435150D02*
G75*
G02*
X17574300Y-10574850I-139700J0D01*
G01*
X16418600Y-10435150D02*
G75*
G02*
X16278900Y-10574850I-139700J0D01*
G01*
X13751600Y-10435150D02*
X13751600Y-9673150D01*
X16666250Y-10574850D02*
G75*
G02*
X16526550Y-10435150I0J139700D01*
G01*
X12938800Y-10574850D02*
G75*
G02*
X12799100Y-10435150I0J139700D01*
G01*
X12782723Y-6862000D02*
G75*
G02*
X12445277Y-6862000I-168723J0D01*
G01*
X12445277Y-6862000D02*
G75*
G02*
X12782723Y-6862000I168723J0D01*
G01*
X12782723Y-9151000D02*
G75*
G02*
X12445277Y-9151000I-168723J0D01*
G01*
X12445277Y-9151000D02*
G75*
G02*
X12782723Y-9151000I168723J0D01*
G01*
X12799100Y-10435150D02*
X12799100Y-9454710D01*
X18087953Y-6862080D02*
G75*
G02*
X17750507Y-6862080I-168723J0D01*
G01*
X17750507Y-6862080D02*
G75*
G02*
X18087953Y-6862080I168723J0D01*
G01*
X18094723Y-9168000D02*
G75*
G02*
X17757277Y-9168000I-168723J0D01*
G01*
X17757277Y-9168000D02*
G75*
G02*
X18094723Y-9168000I168723J0D01*
G01*
D11*
X12574744Y-10896367D02*
X12574744Y-10696367D01*
X12574744Y-10696367D02*
X12622363Y-10696367D01*
X12622363Y-10696367D02*
X12650934Y-10705891D01*
X12650934Y-10705891D02*
X12669982Y-10724938D01*
X12669982Y-10724938D02*
X12679506Y-10743986D01*
X12679506Y-10743986D02*
X12689029Y-10782081D01*
X12689029Y-10782081D02*
X12689029Y-10810653D01*
X12689029Y-10810653D02*
X12679506Y-10848748D01*
X12679506Y-10848748D02*
X12669982Y-10867795D01*
X12669982Y-10867795D02*
X12650934Y-10886843D01*
X12650934Y-10886843D02*
X12622363Y-10896367D01*
X12622363Y-10896367D02*
X12574744Y-10896367D01*
X12774744Y-10896367D02*
X12774744Y-10763033D01*
X12774744Y-10801129D02*
X12784268Y-10782081D01*
X12784268Y-10782081D02*
X12793791Y-10772557D01*
X12793791Y-10772557D02*
X12812839Y-10763033D01*
X12812839Y-10763033D02*
X12831887Y-10763033D01*
X12898553Y-10896367D02*
X12898553Y-10763033D01*
X12898553Y-10696367D02*
X12889029Y-10705891D01*
X12889029Y-10705891D02*
X12898553Y-10715414D01*
X12898553Y-10715414D02*
X12908077Y-10705891D01*
X12908077Y-10705891D02*
X12898553Y-10696367D01*
X12898553Y-10696367D02*
X12898553Y-10715414D01*
X13022363Y-10896367D02*
X13003315Y-10886843D01*
X13003315Y-10886843D02*
X12993791Y-10867795D01*
X12993791Y-10867795D02*
X12993791Y-10696367D01*
X13127125Y-10896367D02*
X13108077Y-10886843D01*
X13108077Y-10886843D02*
X13098553Y-10867795D01*
X13098553Y-10867795D02*
X13098553Y-10696367D01*
X13355696Y-10896367D02*
X13355696Y-10696367D01*
X13355696Y-10696367D02*
X13422363Y-10839224D01*
X13422363Y-10839224D02*
X13489029Y-10696367D01*
X13489029Y-10696367D02*
X13489029Y-10896367D01*
X13669982Y-10896367D02*
X13669982Y-10791605D01*
X13669982Y-10791605D02*
X13660458Y-10772557D01*
X13660458Y-10772557D02*
X13641410Y-10763033D01*
X13641410Y-10763033D02*
X13603315Y-10763033D01*
X13603315Y-10763033D02*
X13584268Y-10772557D01*
X13669982Y-10886843D02*
X13650934Y-10896367D01*
X13650934Y-10896367D02*
X13603315Y-10896367D01*
X13603315Y-10896367D02*
X13584268Y-10886843D01*
X13584268Y-10886843D02*
X13574744Y-10867795D01*
X13574744Y-10867795D02*
X13574744Y-10848748D01*
X13574744Y-10848748D02*
X13584268Y-10829700D01*
X13584268Y-10829700D02*
X13603315Y-10820176D01*
X13603315Y-10820176D02*
X13650934Y-10820176D01*
X13650934Y-10820176D02*
X13669982Y-10810653D01*
X13765220Y-10763033D02*
X13765220Y-10963033D01*
X13765220Y-10772557D02*
X13784268Y-10763033D01*
X13784268Y-10763033D02*
X13822363Y-10763033D01*
X13822363Y-10763033D02*
X13841410Y-10772557D01*
X13841410Y-10772557D02*
X13850934Y-10782081D01*
X13850934Y-10782081D02*
X13860458Y-10801129D01*
X13860458Y-10801129D02*
X13860458Y-10858272D01*
X13860458Y-10858272D02*
X13850934Y-10877319D01*
X13850934Y-10877319D02*
X13841410Y-10886843D01*
X13841410Y-10886843D02*
X13822363Y-10896367D01*
X13822363Y-10896367D02*
X13784268Y-10896367D01*
X13784268Y-10896367D02*
X13765220Y-10886843D01*
X13946172Y-10877319D02*
X13955696Y-10886843D01*
X13955696Y-10886843D02*
X13946172Y-10896367D01*
X13946172Y-10896367D02*
X13936649Y-10886843D01*
X13936649Y-10886843D02*
X13946172Y-10877319D01*
X13946172Y-10877319D02*
X13946172Y-10896367D01*
X13946172Y-10772557D02*
X13955696Y-10782081D01*
X13955696Y-10782081D02*
X13946172Y-10791605D01*
X13946172Y-10791605D02*
X13936649Y-10782081D01*
X13936649Y-10782081D02*
X13946172Y-10772557D01*
X13946172Y-10772557D02*
X13946172Y-10791605D01*
M02*
