G04 #@! TF.GenerationSoftware,KiCad,Pcbnew,8.0.6*
G04 #@! TF.CreationDate,2024-11-18T08:46:01-05:00*
G04 #@! TF.ProjectId,cbmSD-pass,63626d53-442d-4706-9173-732e6b696361,rev?*
G04 #@! TF.SameCoordinates,Original*
G04 #@! TF.FileFunction,Legend,Top*
G04 #@! TF.FilePolarity,Positive*
%FSLAX46Y46*%
G04 Gerber Fmt 4.6, Leading zero omitted, Abs format (unit mm)*
G04 Created by KiCad (PCBNEW 8.0.6) date 2024-11-18 08:46:01*
%MOMM*%
%LPD*%
G01*
G04 APERTURE LIST*
G04 Aperture macros list*
%AMRoundRect*
0 Rectangle with rounded corners*
0 $1 Rounding radius*
0 $2 $3 $4 $5 $6 $7 $8 $9 X,Y pos of 4 corners*
0 Add a 4 corners polygon primitive as box body*
4,1,4,$2,$3,$4,$5,$6,$7,$8,$9,$2,$3,0*
0 Add four circle primitives for the rounded corners*
1,1,$1+$1,$2,$3*
1,1,$1+$1,$4,$5*
1,1,$1+$1,$6,$7*
1,1,$1+$1,$8,$9*
0 Add four rect primitives between the rounded corners*
20,1,$1+$1,$2,$3,$4,$5,0*
20,1,$1+$1,$4,$5,$6,$7,0*
20,1,$1+$1,$6,$7,$8,$9,0*
20,1,$1+$1,$8,$9,$2,$3,0*%
G04 Aperture macros list end*
%ADD10C,0.150000*%
%ADD11C,0.200660*%
%ADD12C,0.381000*%
%ADD13C,0.203200*%
%ADD14C,0.250000*%
%ADD15C,0.120000*%
%ADD16C,0.100000*%
%ADD17R,1.700000X1.700000*%
%ADD18O,1.700000X1.700000*%
%ADD19R,1.200000X1.200000*%
%ADD20C,1.200000*%
%ADD21RoundRect,0.875000X0.875000X0.875000X-0.875000X0.875000X-0.875000X-0.875000X0.875000X-0.875000X0*%
%ADD22RoundRect,0.750000X0.750000X1.000000X-0.750000X1.000000X-0.750000X-1.000000X0.750000X-1.000000X0*%
%ADD23R,3.500000X3.500000*%
%ADD24R,1.800000X1.800000*%
%ADD25C,1.800000*%
%ADD26O,2.410000X8.760000*%
%ADD27RoundRect,0.273700X-0.576300X0.576300X-0.576300X-0.576300X0.576300X-0.576300X0.576300X0.576300X0*%
%ADD28C,1.700000*%
%ADD29C,1.550000*%
%ADD30C,1.600000*%
%ADD31O,1.600000X1.600000*%
G04 #@! TA.AperFunction,Profile*
%ADD32C,0.200660*%
G04 #@! TD*
G04 APERTURE END LIST*
D10*
X144997731Y-76947057D02*
X144959636Y-76908961D01*
X144959636Y-76908961D02*
X144883445Y-76794676D01*
X144883445Y-76794676D02*
X144845350Y-76718485D01*
X144845350Y-76718485D02*
X144807255Y-76604200D01*
X144807255Y-76604200D02*
X144769160Y-76413723D01*
X144769160Y-76413723D02*
X144769160Y-76261342D01*
X144769160Y-76261342D02*
X144807255Y-76070866D01*
X144807255Y-76070866D02*
X144845350Y-75956580D01*
X144845350Y-75956580D02*
X144883445Y-75880390D01*
X144883445Y-75880390D02*
X144959636Y-75766104D01*
X144959636Y-75766104D02*
X144997731Y-75728009D01*
X145302493Y-76642295D02*
X145302493Y-75842295D01*
X145302493Y-76223247D02*
X145759636Y-76223247D01*
X145759636Y-76642295D02*
X145759636Y-75842295D01*
X146254873Y-76642295D02*
X146178683Y-76604200D01*
X146178683Y-76604200D02*
X146140588Y-76566104D01*
X146140588Y-76566104D02*
X146102492Y-76489914D01*
X146102492Y-76489914D02*
X146102492Y-76261342D01*
X146102492Y-76261342D02*
X146140588Y-76185152D01*
X146140588Y-76185152D02*
X146178683Y-76147057D01*
X146178683Y-76147057D02*
X146254873Y-76108961D01*
X146254873Y-76108961D02*
X146369159Y-76108961D01*
X146369159Y-76108961D02*
X146445350Y-76147057D01*
X146445350Y-76147057D02*
X146483445Y-76185152D01*
X146483445Y-76185152D02*
X146521540Y-76261342D01*
X146521540Y-76261342D02*
X146521540Y-76489914D01*
X146521540Y-76489914D02*
X146483445Y-76566104D01*
X146483445Y-76566104D02*
X146445350Y-76604200D01*
X146445350Y-76604200D02*
X146369159Y-76642295D01*
X146369159Y-76642295D02*
X146254873Y-76642295D01*
X146864398Y-76642295D02*
X146864398Y-76108961D01*
X146864398Y-76261342D02*
X146902493Y-76185152D01*
X146902493Y-76185152D02*
X146940588Y-76147057D01*
X146940588Y-76147057D02*
X147016779Y-76108961D01*
X147016779Y-76108961D02*
X147092969Y-76108961D01*
X147359636Y-76642295D02*
X147359636Y-76108961D01*
X147359636Y-75842295D02*
X147321540Y-75880390D01*
X147321540Y-75880390D02*
X147359636Y-75918485D01*
X147359636Y-75918485D02*
X147397731Y-75880390D01*
X147397731Y-75880390D02*
X147359636Y-75842295D01*
X147359636Y-75842295D02*
X147359636Y-75918485D01*
X147664397Y-76108961D02*
X148083445Y-76108961D01*
X148083445Y-76108961D02*
X147664397Y-76642295D01*
X147664397Y-76642295D02*
X148083445Y-76642295D01*
X148502492Y-76642295D02*
X148426302Y-76604200D01*
X148426302Y-76604200D02*
X148388207Y-76566104D01*
X148388207Y-76566104D02*
X148350111Y-76489914D01*
X148350111Y-76489914D02*
X148350111Y-76261342D01*
X148350111Y-76261342D02*
X148388207Y-76185152D01*
X148388207Y-76185152D02*
X148426302Y-76147057D01*
X148426302Y-76147057D02*
X148502492Y-76108961D01*
X148502492Y-76108961D02*
X148616778Y-76108961D01*
X148616778Y-76108961D02*
X148692969Y-76147057D01*
X148692969Y-76147057D02*
X148731064Y-76185152D01*
X148731064Y-76185152D02*
X148769159Y-76261342D01*
X148769159Y-76261342D02*
X148769159Y-76489914D01*
X148769159Y-76489914D02*
X148731064Y-76566104D01*
X148731064Y-76566104D02*
X148692969Y-76604200D01*
X148692969Y-76604200D02*
X148616778Y-76642295D01*
X148616778Y-76642295D02*
X148502492Y-76642295D01*
X149112017Y-76108961D02*
X149112017Y-76642295D01*
X149112017Y-76185152D02*
X149150112Y-76147057D01*
X149150112Y-76147057D02*
X149226302Y-76108961D01*
X149226302Y-76108961D02*
X149340588Y-76108961D01*
X149340588Y-76108961D02*
X149416779Y-76147057D01*
X149416779Y-76147057D02*
X149454874Y-76223247D01*
X149454874Y-76223247D02*
X149454874Y-76642295D01*
X149721541Y-76108961D02*
X150026303Y-76108961D01*
X149835827Y-75842295D02*
X149835827Y-76528009D01*
X149835827Y-76528009D02*
X149873922Y-76604200D01*
X149873922Y-76604200D02*
X149950112Y-76642295D01*
X149950112Y-76642295D02*
X150026303Y-76642295D01*
X150635827Y-76642295D02*
X150635827Y-76223247D01*
X150635827Y-76223247D02*
X150597732Y-76147057D01*
X150597732Y-76147057D02*
X150521541Y-76108961D01*
X150521541Y-76108961D02*
X150369160Y-76108961D01*
X150369160Y-76108961D02*
X150292970Y-76147057D01*
X150635827Y-76604200D02*
X150559636Y-76642295D01*
X150559636Y-76642295D02*
X150369160Y-76642295D01*
X150369160Y-76642295D02*
X150292970Y-76604200D01*
X150292970Y-76604200D02*
X150254874Y-76528009D01*
X150254874Y-76528009D02*
X150254874Y-76451819D01*
X150254874Y-76451819D02*
X150292970Y-76375628D01*
X150292970Y-76375628D02*
X150369160Y-76337533D01*
X150369160Y-76337533D02*
X150559636Y-76337533D01*
X150559636Y-76337533D02*
X150635827Y-76299438D01*
X151131065Y-76642295D02*
X151054875Y-76604200D01*
X151054875Y-76604200D02*
X151016780Y-76528009D01*
X151016780Y-76528009D02*
X151016780Y-75842295D01*
X152197733Y-75842295D02*
X152350114Y-75842295D01*
X152350114Y-75842295D02*
X152426304Y-75880390D01*
X152426304Y-75880390D02*
X152502495Y-75956580D01*
X152502495Y-75956580D02*
X152540590Y-76108961D01*
X152540590Y-76108961D02*
X152540590Y-76375628D01*
X152540590Y-76375628D02*
X152502495Y-76528009D01*
X152502495Y-76528009D02*
X152426304Y-76604200D01*
X152426304Y-76604200D02*
X152350114Y-76642295D01*
X152350114Y-76642295D02*
X152197733Y-76642295D01*
X152197733Y-76642295D02*
X152121542Y-76604200D01*
X152121542Y-76604200D02*
X152045352Y-76528009D01*
X152045352Y-76528009D02*
X152007256Y-76375628D01*
X152007256Y-76375628D02*
X152007256Y-76108961D01*
X152007256Y-76108961D02*
X152045352Y-75956580D01*
X152045352Y-75956580D02*
X152121542Y-75880390D01*
X152121542Y-75880390D02*
X152197733Y-75842295D01*
X152883447Y-76108961D02*
X152883447Y-76908961D01*
X152883447Y-76147057D02*
X152959637Y-76108961D01*
X152959637Y-76108961D02*
X153112018Y-76108961D01*
X153112018Y-76108961D02*
X153188209Y-76147057D01*
X153188209Y-76147057D02*
X153226304Y-76185152D01*
X153226304Y-76185152D02*
X153264399Y-76261342D01*
X153264399Y-76261342D02*
X153264399Y-76489914D01*
X153264399Y-76489914D02*
X153226304Y-76566104D01*
X153226304Y-76566104D02*
X153188209Y-76604200D01*
X153188209Y-76604200D02*
X153112018Y-76642295D01*
X153112018Y-76642295D02*
X152959637Y-76642295D01*
X152959637Y-76642295D02*
X152883447Y-76604200D01*
X153492971Y-76108961D02*
X153797733Y-76108961D01*
X153607257Y-75842295D02*
X153607257Y-76528009D01*
X153607257Y-76528009D02*
X153645352Y-76604200D01*
X153645352Y-76604200D02*
X153721542Y-76642295D01*
X153721542Y-76642295D02*
X153797733Y-76642295D01*
X154064400Y-76642295D02*
X154064400Y-76108961D01*
X154064400Y-75842295D02*
X154026304Y-75880390D01*
X154026304Y-75880390D02*
X154064400Y-75918485D01*
X154064400Y-75918485D02*
X154102495Y-75880390D01*
X154102495Y-75880390D02*
X154064400Y-75842295D01*
X154064400Y-75842295D02*
X154064400Y-75918485D01*
X154559637Y-76642295D02*
X154483447Y-76604200D01*
X154483447Y-76604200D02*
X154445352Y-76566104D01*
X154445352Y-76566104D02*
X154407256Y-76489914D01*
X154407256Y-76489914D02*
X154407256Y-76261342D01*
X154407256Y-76261342D02*
X154445352Y-76185152D01*
X154445352Y-76185152D02*
X154483447Y-76147057D01*
X154483447Y-76147057D02*
X154559637Y-76108961D01*
X154559637Y-76108961D02*
X154673923Y-76108961D01*
X154673923Y-76108961D02*
X154750114Y-76147057D01*
X154750114Y-76147057D02*
X154788209Y-76185152D01*
X154788209Y-76185152D02*
X154826304Y-76261342D01*
X154826304Y-76261342D02*
X154826304Y-76489914D01*
X154826304Y-76489914D02*
X154788209Y-76566104D01*
X154788209Y-76566104D02*
X154750114Y-76604200D01*
X154750114Y-76604200D02*
X154673923Y-76642295D01*
X154673923Y-76642295D02*
X154559637Y-76642295D01*
X155169162Y-76108961D02*
X155169162Y-76642295D01*
X155169162Y-76185152D02*
X155207257Y-76147057D01*
X155207257Y-76147057D02*
X155283447Y-76108961D01*
X155283447Y-76108961D02*
X155397733Y-76108961D01*
X155397733Y-76108961D02*
X155473924Y-76147057D01*
X155473924Y-76147057D02*
X155512019Y-76223247D01*
X155512019Y-76223247D02*
X155512019Y-76642295D01*
X155816781Y-76947057D02*
X155854876Y-76908961D01*
X155854876Y-76908961D02*
X155931067Y-76794676D01*
X155931067Y-76794676D02*
X155969162Y-76718485D01*
X155969162Y-76718485D02*
X156007257Y-76604200D01*
X156007257Y-76604200D02*
X156045353Y-76413723D01*
X156045353Y-76413723D02*
X156045353Y-76261342D01*
X156045353Y-76261342D02*
X156007257Y-76070866D01*
X156007257Y-76070866D02*
X155969162Y-75956580D01*
X155969162Y-75956580D02*
X155931067Y-75880390D01*
X155931067Y-75880390D02*
X155854876Y-75766104D01*
X155854876Y-75766104D02*
X155816781Y-75728009D01*
X127060633Y-81138684D02*
X126593966Y-81272017D01*
X126593966Y-81272017D02*
X126927300Y-81405350D01*
X126927300Y-81405350D02*
X126593966Y-81538684D01*
X126593966Y-81538684D02*
X127060633Y-81672017D01*
X126593966Y-81938683D02*
X127060633Y-81938683D01*
X127293966Y-81938683D02*
X127260633Y-81905350D01*
X127260633Y-81905350D02*
X127227300Y-81938683D01*
X127227300Y-81938683D02*
X127260633Y-81972017D01*
X127260633Y-81972017D02*
X127293966Y-81938683D01*
X127293966Y-81938683D02*
X127227300Y-81938683D01*
X127060633Y-82172016D02*
X127060633Y-82438683D01*
X127293966Y-82272016D02*
X126693966Y-82272016D01*
X126693966Y-82272016D02*
X126627300Y-82305350D01*
X126627300Y-82305350D02*
X126593966Y-82372016D01*
X126593966Y-82372016D02*
X126593966Y-82438683D01*
X126593966Y-82672016D02*
X127293966Y-82672016D01*
X126593966Y-82972016D02*
X126960633Y-82972016D01*
X126960633Y-82972016D02*
X127027300Y-82938683D01*
X127027300Y-82938683D02*
X127060633Y-82872016D01*
X127060633Y-82872016D02*
X127060633Y-82772016D01*
X127060633Y-82772016D02*
X127027300Y-82705350D01*
X127027300Y-82705350D02*
X126993966Y-82672016D01*
X127060633Y-83838682D02*
X126360633Y-83838682D01*
X127027300Y-83838682D02*
X127060633Y-83905349D01*
X127060633Y-83905349D02*
X127060633Y-84038682D01*
X127060633Y-84038682D02*
X127027300Y-84105349D01*
X127027300Y-84105349D02*
X126993966Y-84138682D01*
X126993966Y-84138682D02*
X126927300Y-84172016D01*
X126927300Y-84172016D02*
X126727300Y-84172016D01*
X126727300Y-84172016D02*
X126660633Y-84138682D01*
X126660633Y-84138682D02*
X126627300Y-84105349D01*
X126627300Y-84105349D02*
X126593966Y-84038682D01*
X126593966Y-84038682D02*
X126593966Y-83905349D01*
X126593966Y-83905349D02*
X126627300Y-83838682D01*
X126593966Y-84572015D02*
X126627300Y-84505349D01*
X126627300Y-84505349D02*
X126660633Y-84472015D01*
X126660633Y-84472015D02*
X126727300Y-84438682D01*
X126727300Y-84438682D02*
X126927300Y-84438682D01*
X126927300Y-84438682D02*
X126993966Y-84472015D01*
X126993966Y-84472015D02*
X127027300Y-84505349D01*
X127027300Y-84505349D02*
X127060633Y-84572015D01*
X127060633Y-84572015D02*
X127060633Y-84672015D01*
X127060633Y-84672015D02*
X127027300Y-84738682D01*
X127027300Y-84738682D02*
X126993966Y-84772015D01*
X126993966Y-84772015D02*
X126927300Y-84805349D01*
X126927300Y-84805349D02*
X126727300Y-84805349D01*
X126727300Y-84805349D02*
X126660633Y-84772015D01*
X126660633Y-84772015D02*
X126627300Y-84738682D01*
X126627300Y-84738682D02*
X126593966Y-84672015D01*
X126593966Y-84672015D02*
X126593966Y-84572015D01*
X127060633Y-85038682D02*
X126593966Y-85172015D01*
X126593966Y-85172015D02*
X126927300Y-85305348D01*
X126927300Y-85305348D02*
X126593966Y-85438682D01*
X126593966Y-85438682D02*
X127060633Y-85572015D01*
X126627300Y-86105348D02*
X126593966Y-86038681D01*
X126593966Y-86038681D02*
X126593966Y-85905348D01*
X126593966Y-85905348D02*
X126627300Y-85838681D01*
X126627300Y-85838681D02*
X126693966Y-85805348D01*
X126693966Y-85805348D02*
X126960633Y-85805348D01*
X126960633Y-85805348D02*
X127027300Y-85838681D01*
X127027300Y-85838681D02*
X127060633Y-85905348D01*
X127060633Y-85905348D02*
X127060633Y-86038681D01*
X127060633Y-86038681D02*
X127027300Y-86105348D01*
X127027300Y-86105348D02*
X126960633Y-86138681D01*
X126960633Y-86138681D02*
X126893966Y-86138681D01*
X126893966Y-86138681D02*
X126827300Y-85805348D01*
X126593966Y-86438681D02*
X127060633Y-86438681D01*
X126927300Y-86438681D02*
X126993966Y-86472015D01*
X126993966Y-86472015D02*
X127027300Y-86505348D01*
X127027300Y-86505348D02*
X127060633Y-86572015D01*
X127060633Y-86572015D02*
X127060633Y-86638681D01*
D11*
X129260000Y-87990000D02*
X175930000Y-87990000D01*
X175930000Y-94500000D01*
X129260000Y-94500000D01*
X129260000Y-87990000D01*
D12*
X123580000Y-71560000D02*
X128473000Y-71574304D01*
X128483000Y-77784304D02*
X123560000Y-77780000D01*
D13*
X124818165Y-73522762D02*
X124866546Y-73426000D01*
X124866546Y-73426000D02*
X124866546Y-73280857D01*
X124866546Y-73280857D02*
X124818165Y-73135714D01*
X124818165Y-73135714D02*
X124721403Y-73038952D01*
X124721403Y-73038952D02*
X124624641Y-72990571D01*
X124624641Y-72990571D02*
X124431117Y-72942190D01*
X124431117Y-72942190D02*
X124285974Y-72942190D01*
X124285974Y-72942190D02*
X124092450Y-72990571D01*
X124092450Y-72990571D02*
X123995688Y-73038952D01*
X123995688Y-73038952D02*
X123898927Y-73135714D01*
X123898927Y-73135714D02*
X123850546Y-73280857D01*
X123850546Y-73280857D02*
X123850546Y-73377619D01*
X123850546Y-73377619D02*
X123898927Y-73522762D01*
X123898927Y-73522762D02*
X123947307Y-73571143D01*
X123947307Y-73571143D02*
X124285974Y-73571143D01*
X124285974Y-73571143D02*
X124285974Y-73377619D01*
X124866546Y-76038571D02*
X124866546Y-75554761D01*
X124866546Y-75554761D02*
X124382736Y-75506380D01*
X124382736Y-75506380D02*
X124431117Y-75554761D01*
X124431117Y-75554761D02*
X124479498Y-75651523D01*
X124479498Y-75651523D02*
X124479498Y-75893428D01*
X124479498Y-75893428D02*
X124431117Y-75990190D01*
X124431117Y-75990190D02*
X124382736Y-76038571D01*
X124382736Y-76038571D02*
X124285974Y-76086952D01*
X124285974Y-76086952D02*
X124044069Y-76086952D01*
X124044069Y-76086952D02*
X123947307Y-76038571D01*
X123947307Y-76038571D02*
X123898927Y-75990190D01*
X123898927Y-75990190D02*
X123850546Y-75893428D01*
X123850546Y-75893428D02*
X123850546Y-75651523D01*
X123850546Y-75651523D02*
X123898927Y-75554761D01*
X123898927Y-75554761D02*
X123947307Y-75506380D01*
X124866546Y-76377237D02*
X123850546Y-76715904D01*
X123850546Y-76715904D02*
X124866546Y-77054571D01*
X180633453Y-76375618D02*
X180633453Y-76859428D01*
X180633453Y-76859428D02*
X181117263Y-76907809D01*
X181117263Y-76907809D02*
X181068882Y-76859428D01*
X181068882Y-76859428D02*
X181020501Y-76762666D01*
X181020501Y-76762666D02*
X181020501Y-76520761D01*
X181020501Y-76520761D02*
X181068882Y-76423999D01*
X181068882Y-76423999D02*
X181117263Y-76375618D01*
X181117263Y-76375618D02*
X181214025Y-76327237D01*
X181214025Y-76327237D02*
X181455930Y-76327237D01*
X181455930Y-76327237D02*
X181552692Y-76375618D01*
X181552692Y-76375618D02*
X181601073Y-76423999D01*
X181601073Y-76423999D02*
X181649453Y-76520761D01*
X181649453Y-76520761D02*
X181649453Y-76762666D01*
X181649453Y-76762666D02*
X181601073Y-76859428D01*
X181601073Y-76859428D02*
X181552692Y-76907809D01*
X180633453Y-76036952D02*
X181649453Y-75698285D01*
X181649453Y-75698285D02*
X180633453Y-75359618D01*
X180681834Y-72940571D02*
X180633453Y-73037333D01*
X180633453Y-73037333D02*
X180633453Y-73182476D01*
X180633453Y-73182476D02*
X180681834Y-73327619D01*
X180681834Y-73327619D02*
X180778596Y-73424381D01*
X180778596Y-73424381D02*
X180875358Y-73472762D01*
X180875358Y-73472762D02*
X181068882Y-73521143D01*
X181068882Y-73521143D02*
X181214025Y-73521143D01*
X181214025Y-73521143D02*
X181407549Y-73472762D01*
X181407549Y-73472762D02*
X181504311Y-73424381D01*
X181504311Y-73424381D02*
X181601073Y-73327619D01*
X181601073Y-73327619D02*
X181649453Y-73182476D01*
X181649453Y-73182476D02*
X181649453Y-73085714D01*
X181649453Y-73085714D02*
X181601073Y-72940571D01*
X181601073Y-72940571D02*
X181552692Y-72892190D01*
X181552692Y-72892190D02*
X181214025Y-72892190D01*
X181214025Y-72892190D02*
X181214025Y-73085714D01*
D10*
X137065714Y-91396104D02*
X137027618Y-91434200D01*
X137027618Y-91434200D02*
X136913333Y-91472295D01*
X136913333Y-91472295D02*
X136837142Y-91472295D01*
X136837142Y-91472295D02*
X136722856Y-91434200D01*
X136722856Y-91434200D02*
X136646666Y-91358009D01*
X136646666Y-91358009D02*
X136608571Y-91281819D01*
X136608571Y-91281819D02*
X136570475Y-91129438D01*
X136570475Y-91129438D02*
X136570475Y-91015152D01*
X136570475Y-91015152D02*
X136608571Y-90862771D01*
X136608571Y-90862771D02*
X136646666Y-90786580D01*
X136646666Y-90786580D02*
X136722856Y-90710390D01*
X136722856Y-90710390D02*
X136837142Y-90672295D01*
X136837142Y-90672295D02*
X136913333Y-90672295D01*
X136913333Y-90672295D02*
X137027618Y-90710390D01*
X137027618Y-90710390D02*
X137065714Y-90748485D01*
X137560952Y-90672295D02*
X137713333Y-90672295D01*
X137713333Y-90672295D02*
X137789523Y-90710390D01*
X137789523Y-90710390D02*
X137865714Y-90786580D01*
X137865714Y-90786580D02*
X137903809Y-90938961D01*
X137903809Y-90938961D02*
X137903809Y-91205628D01*
X137903809Y-91205628D02*
X137865714Y-91358009D01*
X137865714Y-91358009D02*
X137789523Y-91434200D01*
X137789523Y-91434200D02*
X137713333Y-91472295D01*
X137713333Y-91472295D02*
X137560952Y-91472295D01*
X137560952Y-91472295D02*
X137484761Y-91434200D01*
X137484761Y-91434200D02*
X137408571Y-91358009D01*
X137408571Y-91358009D02*
X137370475Y-91205628D01*
X137370475Y-91205628D02*
X137370475Y-90938961D01*
X137370475Y-90938961D02*
X137408571Y-90786580D01*
X137408571Y-90786580D02*
X137484761Y-90710390D01*
X137484761Y-90710390D02*
X137560952Y-90672295D01*
X138246666Y-91472295D02*
X138246666Y-90672295D01*
X138246666Y-90672295D02*
X138513332Y-91243723D01*
X138513332Y-91243723D02*
X138779999Y-90672295D01*
X138779999Y-90672295D02*
X138779999Y-91472295D01*
X139160952Y-91472295D02*
X139160952Y-90672295D01*
X139160952Y-90672295D02*
X139465714Y-90672295D01*
X139465714Y-90672295D02*
X139541904Y-90710390D01*
X139541904Y-90710390D02*
X139579999Y-90748485D01*
X139579999Y-90748485D02*
X139618095Y-90824676D01*
X139618095Y-90824676D02*
X139618095Y-90938961D01*
X139618095Y-90938961D02*
X139579999Y-91015152D01*
X139579999Y-91015152D02*
X139541904Y-91053247D01*
X139541904Y-91053247D02*
X139465714Y-91091342D01*
X139465714Y-91091342D02*
X139160952Y-91091342D01*
X139960952Y-90672295D02*
X139960952Y-91319914D01*
X139960952Y-91319914D02*
X139999047Y-91396104D01*
X139999047Y-91396104D02*
X140037142Y-91434200D01*
X140037142Y-91434200D02*
X140113333Y-91472295D01*
X140113333Y-91472295D02*
X140265714Y-91472295D01*
X140265714Y-91472295D02*
X140341904Y-91434200D01*
X140341904Y-91434200D02*
X140379999Y-91396104D01*
X140379999Y-91396104D02*
X140418095Y-91319914D01*
X140418095Y-91319914D02*
X140418095Y-90672295D01*
X140684761Y-90672295D02*
X141141904Y-90672295D01*
X140913332Y-91472295D02*
X140913332Y-90672295D01*
X141408571Y-91053247D02*
X141675237Y-91053247D01*
X141789523Y-91472295D02*
X141408571Y-91472295D01*
X141408571Y-91472295D02*
X141408571Y-90672295D01*
X141408571Y-90672295D02*
X141789523Y-90672295D01*
X142589524Y-91472295D02*
X142322857Y-91091342D01*
X142132381Y-91472295D02*
X142132381Y-90672295D01*
X142132381Y-90672295D02*
X142437143Y-90672295D01*
X142437143Y-90672295D02*
X142513333Y-90710390D01*
X142513333Y-90710390D02*
X142551428Y-90748485D01*
X142551428Y-90748485D02*
X142589524Y-90824676D01*
X142589524Y-90824676D02*
X142589524Y-90938961D01*
X142589524Y-90938961D02*
X142551428Y-91015152D01*
X142551428Y-91015152D02*
X142513333Y-91053247D01*
X142513333Y-91053247D02*
X142437143Y-91091342D01*
X142437143Y-91091342D02*
X142132381Y-91091342D01*
D12*
X131490000Y-86660000D02*
X130110000Y-86660000D01*
X130790000Y-84930000D01*
X131490000Y-86660000D01*
G36*
X131490000Y-86660000D02*
G01*
X130110000Y-86660000D01*
X130790000Y-84930000D01*
X131490000Y-86660000D01*
G37*
D10*
X148891428Y-95772295D02*
X148891428Y-94972295D01*
X149272380Y-95353247D02*
X149539046Y-95353247D01*
X149653332Y-95772295D02*
X149272380Y-95772295D01*
X149272380Y-95772295D02*
X149272380Y-94972295D01*
X149272380Y-94972295D02*
X149653332Y-94972295D01*
X149996190Y-95353247D02*
X150262856Y-95353247D01*
X150377142Y-95772295D02*
X149996190Y-95772295D01*
X149996190Y-95772295D02*
X149996190Y-94972295D01*
X149996190Y-94972295D02*
X150377142Y-94972295D01*
X150720000Y-95353247D02*
X150986666Y-95353247D01*
X151100952Y-95772295D02*
X150720000Y-95772295D01*
X150720000Y-95772295D02*
X150720000Y-94972295D01*
X150720000Y-94972295D02*
X151100952Y-94972295D01*
X152053334Y-95772295D02*
X152053334Y-94972295D01*
X152053334Y-94972295D02*
X152243810Y-94972295D01*
X152243810Y-94972295D02*
X152358096Y-95010390D01*
X152358096Y-95010390D02*
X152434286Y-95086580D01*
X152434286Y-95086580D02*
X152472381Y-95162771D01*
X152472381Y-95162771D02*
X152510477Y-95315152D01*
X152510477Y-95315152D02*
X152510477Y-95429438D01*
X152510477Y-95429438D02*
X152472381Y-95581819D01*
X152472381Y-95581819D02*
X152434286Y-95658009D01*
X152434286Y-95658009D02*
X152358096Y-95734200D01*
X152358096Y-95734200D02*
X152243810Y-95772295D01*
X152243810Y-95772295D02*
X152053334Y-95772295D01*
X152853334Y-95353247D02*
X153120000Y-95353247D01*
X153234286Y-95772295D02*
X152853334Y-95772295D01*
X152853334Y-95772295D02*
X152853334Y-94972295D01*
X152853334Y-94972295D02*
X153234286Y-94972295D01*
X153462858Y-94972295D02*
X153729525Y-95772295D01*
X153729525Y-95772295D02*
X153996191Y-94972295D01*
X154262858Y-95772295D02*
X154262858Y-94972295D01*
X155100953Y-95696104D02*
X155062857Y-95734200D01*
X155062857Y-95734200D02*
X154948572Y-95772295D01*
X154948572Y-95772295D02*
X154872381Y-95772295D01*
X154872381Y-95772295D02*
X154758095Y-95734200D01*
X154758095Y-95734200D02*
X154681905Y-95658009D01*
X154681905Y-95658009D02*
X154643810Y-95581819D01*
X154643810Y-95581819D02*
X154605714Y-95429438D01*
X154605714Y-95429438D02*
X154605714Y-95315152D01*
X154605714Y-95315152D02*
X154643810Y-95162771D01*
X154643810Y-95162771D02*
X154681905Y-95086580D01*
X154681905Y-95086580D02*
X154758095Y-95010390D01*
X154758095Y-95010390D02*
X154872381Y-94972295D01*
X154872381Y-94972295D02*
X154948572Y-94972295D01*
X154948572Y-94972295D02*
X155062857Y-95010390D01*
X155062857Y-95010390D02*
X155100953Y-95048485D01*
X155443810Y-95353247D02*
X155710476Y-95353247D01*
X155824762Y-95772295D02*
X155443810Y-95772295D01*
X155443810Y-95772295D02*
X155443810Y-94972295D01*
X155443810Y-94972295D02*
X155824762Y-94972295D01*
X156129524Y-95734200D02*
X156243810Y-95772295D01*
X156243810Y-95772295D02*
X156434286Y-95772295D01*
X156434286Y-95772295D02*
X156510477Y-95734200D01*
X156510477Y-95734200D02*
X156548572Y-95696104D01*
X156548572Y-95696104D02*
X156586667Y-95619914D01*
X156586667Y-95619914D02*
X156586667Y-95543723D01*
X156586667Y-95543723D02*
X156548572Y-95467533D01*
X156548572Y-95467533D02*
X156510477Y-95429438D01*
X156510477Y-95429438D02*
X156434286Y-95391342D01*
X156434286Y-95391342D02*
X156281905Y-95353247D01*
X156281905Y-95353247D02*
X156205715Y-95315152D01*
X156205715Y-95315152D02*
X156167620Y-95277057D01*
X156167620Y-95277057D02*
X156129524Y-95200866D01*
X156129524Y-95200866D02*
X156129524Y-95124676D01*
X156129524Y-95124676D02*
X156167620Y-95048485D01*
X156167620Y-95048485D02*
X156205715Y-95010390D01*
X156205715Y-95010390D02*
X156281905Y-94972295D01*
X156281905Y-94972295D02*
X156472382Y-94972295D01*
X156472382Y-94972295D02*
X156586667Y-95010390D01*
X137305714Y-76506104D02*
X137267618Y-76544200D01*
X137267618Y-76544200D02*
X137153333Y-76582295D01*
X137153333Y-76582295D02*
X137077142Y-76582295D01*
X137077142Y-76582295D02*
X136962856Y-76544200D01*
X136962856Y-76544200D02*
X136886666Y-76468009D01*
X136886666Y-76468009D02*
X136848571Y-76391819D01*
X136848571Y-76391819D02*
X136810475Y-76239438D01*
X136810475Y-76239438D02*
X136810475Y-76125152D01*
X136810475Y-76125152D02*
X136848571Y-75972771D01*
X136848571Y-75972771D02*
X136886666Y-75896580D01*
X136886666Y-75896580D02*
X136962856Y-75820390D01*
X136962856Y-75820390D02*
X137077142Y-75782295D01*
X137077142Y-75782295D02*
X137153333Y-75782295D01*
X137153333Y-75782295D02*
X137267618Y-75820390D01*
X137267618Y-75820390D02*
X137305714Y-75858485D01*
X137800952Y-75782295D02*
X137953333Y-75782295D01*
X137953333Y-75782295D02*
X138029523Y-75820390D01*
X138029523Y-75820390D02*
X138105714Y-75896580D01*
X138105714Y-75896580D02*
X138143809Y-76048961D01*
X138143809Y-76048961D02*
X138143809Y-76315628D01*
X138143809Y-76315628D02*
X138105714Y-76468009D01*
X138105714Y-76468009D02*
X138029523Y-76544200D01*
X138029523Y-76544200D02*
X137953333Y-76582295D01*
X137953333Y-76582295D02*
X137800952Y-76582295D01*
X137800952Y-76582295D02*
X137724761Y-76544200D01*
X137724761Y-76544200D02*
X137648571Y-76468009D01*
X137648571Y-76468009D02*
X137610475Y-76315628D01*
X137610475Y-76315628D02*
X137610475Y-76048961D01*
X137610475Y-76048961D02*
X137648571Y-75896580D01*
X137648571Y-75896580D02*
X137724761Y-75820390D01*
X137724761Y-75820390D02*
X137800952Y-75782295D01*
X138486666Y-76582295D02*
X138486666Y-75782295D01*
X138486666Y-75782295D02*
X138753332Y-76353723D01*
X138753332Y-76353723D02*
X139019999Y-75782295D01*
X139019999Y-75782295D02*
X139019999Y-76582295D01*
X139400952Y-76582295D02*
X139400952Y-75782295D01*
X139400952Y-75782295D02*
X139705714Y-75782295D01*
X139705714Y-75782295D02*
X139781904Y-75820390D01*
X139781904Y-75820390D02*
X139819999Y-75858485D01*
X139819999Y-75858485D02*
X139858095Y-75934676D01*
X139858095Y-75934676D02*
X139858095Y-76048961D01*
X139858095Y-76048961D02*
X139819999Y-76125152D01*
X139819999Y-76125152D02*
X139781904Y-76163247D01*
X139781904Y-76163247D02*
X139705714Y-76201342D01*
X139705714Y-76201342D02*
X139400952Y-76201342D01*
X140200952Y-75782295D02*
X140200952Y-76429914D01*
X140200952Y-76429914D02*
X140239047Y-76506104D01*
X140239047Y-76506104D02*
X140277142Y-76544200D01*
X140277142Y-76544200D02*
X140353333Y-76582295D01*
X140353333Y-76582295D02*
X140505714Y-76582295D01*
X140505714Y-76582295D02*
X140581904Y-76544200D01*
X140581904Y-76544200D02*
X140619999Y-76506104D01*
X140619999Y-76506104D02*
X140658095Y-76429914D01*
X140658095Y-76429914D02*
X140658095Y-75782295D01*
X140924761Y-75782295D02*
X141381904Y-75782295D01*
X141153332Y-76582295D02*
X141153332Y-75782295D01*
X141648571Y-76163247D02*
X141915237Y-76163247D01*
X142029523Y-76582295D02*
X141648571Y-76582295D01*
X141648571Y-76582295D02*
X141648571Y-75782295D01*
X141648571Y-75782295D02*
X142029523Y-75782295D01*
X142829524Y-76582295D02*
X142562857Y-76201342D01*
X142372381Y-76582295D02*
X142372381Y-75782295D01*
X142372381Y-75782295D02*
X142677143Y-75782295D01*
X142677143Y-75782295D02*
X142753333Y-75820390D01*
X142753333Y-75820390D02*
X142791428Y-75858485D01*
X142791428Y-75858485D02*
X142829524Y-75934676D01*
X142829524Y-75934676D02*
X142829524Y-76048961D01*
X142829524Y-76048961D02*
X142791428Y-76125152D01*
X142791428Y-76125152D02*
X142753333Y-76163247D01*
X142753333Y-76163247D02*
X142677143Y-76201342D01*
X142677143Y-76201342D02*
X142372381Y-76201342D01*
X138215121Y-84588485D02*
X138253217Y-84550390D01*
X138253217Y-84550390D02*
X138329407Y-84512295D01*
X138329407Y-84512295D02*
X138519883Y-84512295D01*
X138519883Y-84512295D02*
X138596074Y-84550390D01*
X138596074Y-84550390D02*
X138634169Y-84588485D01*
X138634169Y-84588485D02*
X138672264Y-84664676D01*
X138672264Y-84664676D02*
X138672264Y-84740866D01*
X138672264Y-84740866D02*
X138634169Y-84855152D01*
X138634169Y-84855152D02*
X138177026Y-85312295D01*
X138177026Y-85312295D02*
X138672264Y-85312295D01*
X139167503Y-84512295D02*
X139243693Y-84512295D01*
X139243693Y-84512295D02*
X139319884Y-84550390D01*
X139319884Y-84550390D02*
X139357979Y-84588485D01*
X139357979Y-84588485D02*
X139396074Y-84664676D01*
X139396074Y-84664676D02*
X139434169Y-84817057D01*
X139434169Y-84817057D02*
X139434169Y-85007533D01*
X139434169Y-85007533D02*
X139396074Y-85159914D01*
X139396074Y-85159914D02*
X139357979Y-85236104D01*
X139357979Y-85236104D02*
X139319884Y-85274200D01*
X139319884Y-85274200D02*
X139243693Y-85312295D01*
X139243693Y-85312295D02*
X139167503Y-85312295D01*
X139167503Y-85312295D02*
X139091312Y-85274200D01*
X139091312Y-85274200D02*
X139053217Y-85236104D01*
X139053217Y-85236104D02*
X139015122Y-85159914D01*
X139015122Y-85159914D02*
X138977026Y-85007533D01*
X138977026Y-85007533D02*
X138977026Y-84817057D01*
X138977026Y-84817057D02*
X139015122Y-84664676D01*
X139015122Y-84664676D02*
X139053217Y-84588485D01*
X139053217Y-84588485D02*
X139091312Y-84550390D01*
X139091312Y-84550390D02*
X139167503Y-84512295D01*
X139777027Y-85007533D02*
X140386551Y-85007533D01*
X140767503Y-84778961D02*
X140767503Y-85578961D01*
X140767503Y-84817057D02*
X140843693Y-84778961D01*
X140843693Y-84778961D02*
X140996074Y-84778961D01*
X140996074Y-84778961D02*
X141072265Y-84817057D01*
X141072265Y-84817057D02*
X141110360Y-84855152D01*
X141110360Y-84855152D02*
X141148455Y-84931342D01*
X141148455Y-84931342D02*
X141148455Y-85159914D01*
X141148455Y-85159914D02*
X141110360Y-85236104D01*
X141110360Y-85236104D02*
X141072265Y-85274200D01*
X141072265Y-85274200D02*
X140996074Y-85312295D01*
X140996074Y-85312295D02*
X140843693Y-85312295D01*
X140843693Y-85312295D02*
X140767503Y-85274200D01*
X141491313Y-85312295D02*
X141491313Y-84778961D01*
X141491313Y-84512295D02*
X141453217Y-84550390D01*
X141453217Y-84550390D02*
X141491313Y-84588485D01*
X141491313Y-84588485D02*
X141529408Y-84550390D01*
X141529408Y-84550390D02*
X141491313Y-84512295D01*
X141491313Y-84512295D02*
X141491313Y-84588485D01*
X141872265Y-84778961D02*
X141872265Y-85312295D01*
X141872265Y-84855152D02*
X141910360Y-84817057D01*
X141910360Y-84817057D02*
X141986550Y-84778961D01*
X141986550Y-84778961D02*
X142100836Y-84778961D01*
X142100836Y-84778961D02*
X142177027Y-84817057D01*
X142177027Y-84817057D02*
X142215122Y-84893247D01*
X142215122Y-84893247D02*
X142215122Y-85312295D01*
X143548456Y-85274200D02*
X143472265Y-85312295D01*
X143472265Y-85312295D02*
X143319884Y-85312295D01*
X143319884Y-85312295D02*
X143243694Y-85274200D01*
X143243694Y-85274200D02*
X143205599Y-85236104D01*
X143205599Y-85236104D02*
X143167503Y-85159914D01*
X143167503Y-85159914D02*
X143167503Y-84931342D01*
X143167503Y-84931342D02*
X143205599Y-84855152D01*
X143205599Y-84855152D02*
X143243694Y-84817057D01*
X143243694Y-84817057D02*
X143319884Y-84778961D01*
X143319884Y-84778961D02*
X143472265Y-84778961D01*
X143472265Y-84778961D02*
X143548456Y-84817057D01*
X144234170Y-85312295D02*
X144234170Y-84893247D01*
X144234170Y-84893247D02*
X144196075Y-84817057D01*
X144196075Y-84817057D02*
X144119884Y-84778961D01*
X144119884Y-84778961D02*
X143967503Y-84778961D01*
X143967503Y-84778961D02*
X143891313Y-84817057D01*
X144234170Y-85274200D02*
X144157979Y-85312295D01*
X144157979Y-85312295D02*
X143967503Y-85312295D01*
X143967503Y-85312295D02*
X143891313Y-85274200D01*
X143891313Y-85274200D02*
X143853217Y-85198009D01*
X143853217Y-85198009D02*
X143853217Y-85121819D01*
X143853217Y-85121819D02*
X143891313Y-85045628D01*
X143891313Y-85045628D02*
X143967503Y-85007533D01*
X143967503Y-85007533D02*
X144157979Y-85007533D01*
X144157979Y-85007533D02*
X144234170Y-84969438D01*
X144615123Y-85312295D02*
X144615123Y-84512295D01*
X144615123Y-84817057D02*
X144691313Y-84778961D01*
X144691313Y-84778961D02*
X144843694Y-84778961D01*
X144843694Y-84778961D02*
X144919885Y-84817057D01*
X144919885Y-84817057D02*
X144957980Y-84855152D01*
X144957980Y-84855152D02*
X144996075Y-84931342D01*
X144996075Y-84931342D02*
X144996075Y-85159914D01*
X144996075Y-85159914D02*
X144957980Y-85236104D01*
X144957980Y-85236104D02*
X144919885Y-85274200D01*
X144919885Y-85274200D02*
X144843694Y-85312295D01*
X144843694Y-85312295D02*
X144691313Y-85312295D01*
X144691313Y-85312295D02*
X144615123Y-85274200D01*
X145453218Y-85312295D02*
X145377028Y-85274200D01*
X145377028Y-85274200D02*
X145338933Y-85198009D01*
X145338933Y-85198009D02*
X145338933Y-84512295D01*
X146062743Y-85274200D02*
X145986552Y-85312295D01*
X145986552Y-85312295D02*
X145834171Y-85312295D01*
X145834171Y-85312295D02*
X145757981Y-85274200D01*
X145757981Y-85274200D02*
X145719885Y-85198009D01*
X145719885Y-85198009D02*
X145719885Y-84893247D01*
X145719885Y-84893247D02*
X145757981Y-84817057D01*
X145757981Y-84817057D02*
X145834171Y-84778961D01*
X145834171Y-84778961D02*
X145986552Y-84778961D01*
X145986552Y-84778961D02*
X146062743Y-84817057D01*
X146062743Y-84817057D02*
X146100838Y-84893247D01*
X146100838Y-84893247D02*
X146100838Y-84969438D01*
X146100838Y-84969438D02*
X145719885Y-85045628D01*
X146938933Y-84778961D02*
X147243695Y-84778961D01*
X147053219Y-84512295D02*
X147053219Y-85198009D01*
X147053219Y-85198009D02*
X147091314Y-85274200D01*
X147091314Y-85274200D02*
X147167504Y-85312295D01*
X147167504Y-85312295D02*
X147243695Y-85312295D01*
X147624647Y-85312295D02*
X147548457Y-85274200D01*
X147548457Y-85274200D02*
X147510362Y-85236104D01*
X147510362Y-85236104D02*
X147472266Y-85159914D01*
X147472266Y-85159914D02*
X147472266Y-84931342D01*
X147472266Y-84931342D02*
X147510362Y-84855152D01*
X147510362Y-84855152D02*
X147548457Y-84817057D01*
X147548457Y-84817057D02*
X147624647Y-84778961D01*
X147624647Y-84778961D02*
X147738933Y-84778961D01*
X147738933Y-84778961D02*
X147815124Y-84817057D01*
X147815124Y-84817057D02*
X147853219Y-84855152D01*
X147853219Y-84855152D02*
X147891314Y-84931342D01*
X147891314Y-84931342D02*
X147891314Y-85159914D01*
X147891314Y-85159914D02*
X147853219Y-85236104D01*
X147853219Y-85236104D02*
X147815124Y-85274200D01*
X147815124Y-85274200D02*
X147738933Y-85312295D01*
X147738933Y-85312295D02*
X147624647Y-85312295D01*
X149186553Y-85274200D02*
X149110362Y-85312295D01*
X149110362Y-85312295D02*
X148957981Y-85312295D01*
X148957981Y-85312295D02*
X148881791Y-85274200D01*
X148881791Y-85274200D02*
X148843696Y-85236104D01*
X148843696Y-85236104D02*
X148805600Y-85159914D01*
X148805600Y-85159914D02*
X148805600Y-84931342D01*
X148805600Y-84931342D02*
X148843696Y-84855152D01*
X148843696Y-84855152D02*
X148881791Y-84817057D01*
X148881791Y-84817057D02*
X148957981Y-84778961D01*
X148957981Y-84778961D02*
X149110362Y-84778961D01*
X149110362Y-84778961D02*
X149186553Y-84817057D01*
X149529410Y-85312295D02*
X149529410Y-84512295D01*
X149529410Y-84817057D02*
X149605600Y-84778961D01*
X149605600Y-84778961D02*
X149757981Y-84778961D01*
X149757981Y-84778961D02*
X149834172Y-84817057D01*
X149834172Y-84817057D02*
X149872267Y-84855152D01*
X149872267Y-84855152D02*
X149910362Y-84931342D01*
X149910362Y-84931342D02*
X149910362Y-85159914D01*
X149910362Y-85159914D02*
X149872267Y-85236104D01*
X149872267Y-85236104D02*
X149834172Y-85274200D01*
X149834172Y-85274200D02*
X149757981Y-85312295D01*
X149757981Y-85312295D02*
X149605600Y-85312295D01*
X149605600Y-85312295D02*
X149529410Y-85274200D01*
X150253220Y-85312295D02*
X150253220Y-84778961D01*
X150253220Y-84855152D02*
X150291315Y-84817057D01*
X150291315Y-84817057D02*
X150367505Y-84778961D01*
X150367505Y-84778961D02*
X150481791Y-84778961D01*
X150481791Y-84778961D02*
X150557982Y-84817057D01*
X150557982Y-84817057D02*
X150596077Y-84893247D01*
X150596077Y-84893247D02*
X150596077Y-85312295D01*
X150596077Y-84893247D02*
X150634172Y-84817057D01*
X150634172Y-84817057D02*
X150710363Y-84778961D01*
X150710363Y-84778961D02*
X150824648Y-84778961D01*
X150824648Y-84778961D02*
X150900839Y-84817057D01*
X150900839Y-84817057D02*
X150938934Y-84893247D01*
X150938934Y-84893247D02*
X150938934Y-85312295D01*
X151281791Y-85274200D02*
X151396077Y-85312295D01*
X151396077Y-85312295D02*
X151586553Y-85312295D01*
X151586553Y-85312295D02*
X151662744Y-85274200D01*
X151662744Y-85274200D02*
X151700839Y-85236104D01*
X151700839Y-85236104D02*
X151738934Y-85159914D01*
X151738934Y-85159914D02*
X151738934Y-85083723D01*
X151738934Y-85083723D02*
X151700839Y-85007533D01*
X151700839Y-85007533D02*
X151662744Y-84969438D01*
X151662744Y-84969438D02*
X151586553Y-84931342D01*
X151586553Y-84931342D02*
X151434172Y-84893247D01*
X151434172Y-84893247D02*
X151357982Y-84855152D01*
X151357982Y-84855152D02*
X151319887Y-84817057D01*
X151319887Y-84817057D02*
X151281791Y-84740866D01*
X151281791Y-84740866D02*
X151281791Y-84664676D01*
X151281791Y-84664676D02*
X151319887Y-84588485D01*
X151319887Y-84588485D02*
X151357982Y-84550390D01*
X151357982Y-84550390D02*
X151434172Y-84512295D01*
X151434172Y-84512295D02*
X151624649Y-84512295D01*
X151624649Y-84512295D02*
X151738934Y-84550390D01*
X152081792Y-85312295D02*
X152081792Y-84512295D01*
X152081792Y-84512295D02*
X152272268Y-84512295D01*
X152272268Y-84512295D02*
X152386554Y-84550390D01*
X152386554Y-84550390D02*
X152462744Y-84626580D01*
X152462744Y-84626580D02*
X152500839Y-84702771D01*
X152500839Y-84702771D02*
X152538935Y-84855152D01*
X152538935Y-84855152D02*
X152538935Y-84969438D01*
X152538935Y-84969438D02*
X152500839Y-85121819D01*
X152500839Y-85121819D02*
X152462744Y-85198009D01*
X152462744Y-85198009D02*
X152386554Y-85274200D01*
X152386554Y-85274200D02*
X152272268Y-85312295D01*
X152272268Y-85312295D02*
X152081792Y-85312295D01*
D12*
X181900000Y-78140000D02*
X176333999Y-78140693D01*
X176323999Y-71941392D02*
X181890000Y-71930000D01*
D13*
X177110476Y-88343453D02*
X176626666Y-88343453D01*
X176626666Y-88343453D02*
X176578285Y-88827263D01*
X176578285Y-88827263D02*
X176626666Y-88778882D01*
X176626666Y-88778882D02*
X176723428Y-88730501D01*
X176723428Y-88730501D02*
X176965333Y-88730501D01*
X176965333Y-88730501D02*
X177062095Y-88778882D01*
X177062095Y-88778882D02*
X177110476Y-88827263D01*
X177110476Y-88827263D02*
X177158857Y-88924025D01*
X177158857Y-88924025D02*
X177158857Y-89165930D01*
X177158857Y-89165930D02*
X177110476Y-89262692D01*
X177110476Y-89262692D02*
X177062095Y-89311073D01*
X177062095Y-89311073D02*
X176965333Y-89359453D01*
X176965333Y-89359453D02*
X176723428Y-89359453D01*
X176723428Y-89359453D02*
X176626666Y-89311073D01*
X176626666Y-89311073D02*
X176578285Y-89262692D01*
X177449142Y-88343453D02*
X177787809Y-89359453D01*
X177787809Y-89359453D02*
X178126476Y-88343453D01*
X178465142Y-89359453D02*
X178465142Y-88343453D01*
X178465142Y-88343453D02*
X178707047Y-88343453D01*
X178707047Y-88343453D02*
X178852190Y-88391834D01*
X178852190Y-88391834D02*
X178948952Y-88488596D01*
X178948952Y-88488596D02*
X178997333Y-88585358D01*
X178997333Y-88585358D02*
X179045714Y-88778882D01*
X179045714Y-88778882D02*
X179045714Y-88924025D01*
X179045714Y-88924025D02*
X178997333Y-89117549D01*
X178997333Y-89117549D02*
X178948952Y-89214311D01*
X178948952Y-89214311D02*
X178852190Y-89311073D01*
X178852190Y-89311073D02*
X178707047Y-89359453D01*
X178707047Y-89359453D02*
X178465142Y-89359453D01*
X180061714Y-89262692D02*
X180013333Y-89311073D01*
X180013333Y-89311073D02*
X179868190Y-89359453D01*
X179868190Y-89359453D02*
X179771428Y-89359453D01*
X179771428Y-89359453D02*
X179626285Y-89311073D01*
X179626285Y-89311073D02*
X179529523Y-89214311D01*
X179529523Y-89214311D02*
X179481142Y-89117549D01*
X179481142Y-89117549D02*
X179432761Y-88924025D01*
X179432761Y-88924025D02*
X179432761Y-88778882D01*
X179432761Y-88778882D02*
X179481142Y-88585358D01*
X179481142Y-88585358D02*
X179529523Y-88488596D01*
X179529523Y-88488596D02*
X179626285Y-88391834D01*
X179626285Y-88391834D02*
X179771428Y-88343453D01*
X179771428Y-88343453D02*
X179868190Y-88343453D01*
X179868190Y-88343453D02*
X180013333Y-88391834D01*
X180013333Y-88391834D02*
X180061714Y-88440215D01*
D14*
X127726500Y-79609523D02*
X127674119Y-79514285D01*
X127674119Y-79514285D02*
X127674119Y-79323809D01*
X127674119Y-79323809D02*
X127726500Y-79228571D01*
X127726500Y-79228571D02*
X127778880Y-79180952D01*
X127778880Y-79180952D02*
X127883642Y-79133333D01*
X127883642Y-79133333D02*
X128197928Y-79133333D01*
X128197928Y-79133333D02*
X128302690Y-79180952D01*
X128302690Y-79180952D02*
X128355071Y-79228571D01*
X128355071Y-79228571D02*
X128407452Y-79323809D01*
X128407452Y-79323809D02*
X128407452Y-79514285D01*
X128407452Y-79514285D02*
X128355071Y-79609523D01*
X127674119Y-80038095D02*
X128774119Y-80038095D01*
X128355071Y-80038095D02*
X128407452Y-80133333D01*
X128407452Y-80133333D02*
X128407452Y-80323809D01*
X128407452Y-80323809D02*
X128355071Y-80419047D01*
X128355071Y-80419047D02*
X128302690Y-80466666D01*
X128302690Y-80466666D02*
X128197928Y-80514285D01*
X128197928Y-80514285D02*
X127883642Y-80514285D01*
X127883642Y-80514285D02*
X127778880Y-80466666D01*
X127778880Y-80466666D02*
X127726500Y-80419047D01*
X127726500Y-80419047D02*
X127674119Y-80323809D01*
X127674119Y-80323809D02*
X127674119Y-80133333D01*
X127674119Y-80133333D02*
X127726500Y-80038095D01*
X127674119Y-80942857D02*
X128407452Y-80942857D01*
X128302690Y-80942857D02*
X128355071Y-80990476D01*
X128355071Y-80990476D02*
X128407452Y-81085714D01*
X128407452Y-81085714D02*
X128407452Y-81228571D01*
X128407452Y-81228571D02*
X128355071Y-81323809D01*
X128355071Y-81323809D02*
X128250309Y-81371428D01*
X128250309Y-81371428D02*
X127674119Y-81371428D01*
X128250309Y-81371428D02*
X128355071Y-81419047D01*
X128355071Y-81419047D02*
X128407452Y-81514285D01*
X128407452Y-81514285D02*
X128407452Y-81657142D01*
X128407452Y-81657142D02*
X128355071Y-81752381D01*
X128355071Y-81752381D02*
X128250309Y-81800000D01*
X128250309Y-81800000D02*
X127674119Y-81800000D01*
X127726500Y-82228571D02*
X127674119Y-82371428D01*
X127674119Y-82371428D02*
X127674119Y-82609523D01*
X127674119Y-82609523D02*
X127726500Y-82704761D01*
X127726500Y-82704761D02*
X127778880Y-82752380D01*
X127778880Y-82752380D02*
X127883642Y-82799999D01*
X127883642Y-82799999D02*
X127988404Y-82799999D01*
X127988404Y-82799999D02*
X128093166Y-82752380D01*
X128093166Y-82752380D02*
X128145547Y-82704761D01*
X128145547Y-82704761D02*
X128197928Y-82609523D01*
X128197928Y-82609523D02*
X128250309Y-82419047D01*
X128250309Y-82419047D02*
X128302690Y-82323809D01*
X128302690Y-82323809D02*
X128355071Y-82276190D01*
X128355071Y-82276190D02*
X128459833Y-82228571D01*
X128459833Y-82228571D02*
X128564595Y-82228571D01*
X128564595Y-82228571D02*
X128669357Y-82276190D01*
X128669357Y-82276190D02*
X128721738Y-82323809D01*
X128721738Y-82323809D02*
X128774119Y-82419047D01*
X128774119Y-82419047D02*
X128774119Y-82657142D01*
X128774119Y-82657142D02*
X128721738Y-82799999D01*
X127674119Y-83228571D02*
X128774119Y-83228571D01*
X128774119Y-83228571D02*
X128774119Y-83466666D01*
X128774119Y-83466666D02*
X128721738Y-83609523D01*
X128721738Y-83609523D02*
X128616976Y-83704761D01*
X128616976Y-83704761D02*
X128512214Y-83752380D01*
X128512214Y-83752380D02*
X128302690Y-83799999D01*
X128302690Y-83799999D02*
X128145547Y-83799999D01*
X128145547Y-83799999D02*
X127936023Y-83752380D01*
X127936023Y-83752380D02*
X127831261Y-83704761D01*
X127831261Y-83704761D02*
X127726500Y-83609523D01*
X127726500Y-83609523D02*
X127674119Y-83466666D01*
X127674119Y-83466666D02*
X127674119Y-83228571D01*
X128093166Y-84228571D02*
X128093166Y-84990476D01*
X128407452Y-85466666D02*
X127307452Y-85466666D01*
X128355071Y-85466666D02*
X128407452Y-85561904D01*
X128407452Y-85561904D02*
X128407452Y-85752380D01*
X128407452Y-85752380D02*
X128355071Y-85847618D01*
X128355071Y-85847618D02*
X128302690Y-85895237D01*
X128302690Y-85895237D02*
X128197928Y-85942856D01*
X128197928Y-85942856D02*
X127883642Y-85942856D01*
X127883642Y-85942856D02*
X127778880Y-85895237D01*
X127778880Y-85895237D02*
X127726500Y-85847618D01*
X127726500Y-85847618D02*
X127674119Y-85752380D01*
X127674119Y-85752380D02*
X127674119Y-85561904D01*
X127674119Y-85561904D02*
X127726500Y-85466666D01*
X127674119Y-86799999D02*
X128250309Y-86799999D01*
X128250309Y-86799999D02*
X128355071Y-86752380D01*
X128355071Y-86752380D02*
X128407452Y-86657142D01*
X128407452Y-86657142D02*
X128407452Y-86466666D01*
X128407452Y-86466666D02*
X128355071Y-86371428D01*
X127726500Y-86799999D02*
X127674119Y-86704761D01*
X127674119Y-86704761D02*
X127674119Y-86466666D01*
X127674119Y-86466666D02*
X127726500Y-86371428D01*
X127726500Y-86371428D02*
X127831261Y-86323809D01*
X127831261Y-86323809D02*
X127936023Y-86323809D01*
X127936023Y-86323809D02*
X128040785Y-86371428D01*
X128040785Y-86371428D02*
X128093166Y-86466666D01*
X128093166Y-86466666D02*
X128093166Y-86704761D01*
X128093166Y-86704761D02*
X128145547Y-86799999D01*
X127726500Y-87228571D02*
X127674119Y-87323809D01*
X127674119Y-87323809D02*
X127674119Y-87514285D01*
X127674119Y-87514285D02*
X127726500Y-87609523D01*
X127726500Y-87609523D02*
X127831261Y-87657142D01*
X127831261Y-87657142D02*
X127883642Y-87657142D01*
X127883642Y-87657142D02*
X127988404Y-87609523D01*
X127988404Y-87609523D02*
X128040785Y-87514285D01*
X128040785Y-87514285D02*
X128040785Y-87371428D01*
X128040785Y-87371428D02*
X128093166Y-87276190D01*
X128093166Y-87276190D02*
X128197928Y-87228571D01*
X128197928Y-87228571D02*
X128250309Y-87228571D01*
X128250309Y-87228571D02*
X128355071Y-87276190D01*
X128355071Y-87276190D02*
X128407452Y-87371428D01*
X128407452Y-87371428D02*
X128407452Y-87514285D01*
X128407452Y-87514285D02*
X128355071Y-87609523D01*
X127726500Y-88038095D02*
X127674119Y-88133333D01*
X127674119Y-88133333D02*
X127674119Y-88323809D01*
X127674119Y-88323809D02*
X127726500Y-88419047D01*
X127726500Y-88419047D02*
X127831261Y-88466666D01*
X127831261Y-88466666D02*
X127883642Y-88466666D01*
X127883642Y-88466666D02*
X127988404Y-88419047D01*
X127988404Y-88419047D02*
X128040785Y-88323809D01*
X128040785Y-88323809D02*
X128040785Y-88180952D01*
X128040785Y-88180952D02*
X128093166Y-88085714D01*
X128093166Y-88085714D02*
X128197928Y-88038095D01*
X128197928Y-88038095D02*
X128250309Y-88038095D01*
X128250309Y-88038095D02*
X128355071Y-88085714D01*
X128355071Y-88085714D02*
X128407452Y-88180952D01*
X128407452Y-88180952D02*
X128407452Y-88323809D01*
X128407452Y-88323809D02*
X128355071Y-88419047D01*
D10*
X125573966Y-78210001D02*
X124873966Y-78443335D01*
X124873966Y-78443335D02*
X125573966Y-78676668D01*
X124873966Y-79276668D02*
X124873966Y-78876668D01*
X124873966Y-79076668D02*
X125573966Y-79076668D01*
X125573966Y-79076668D02*
X125473966Y-79010001D01*
X125473966Y-79010001D02*
X125407300Y-78943335D01*
X125407300Y-78943335D02*
X125373966Y-78876668D01*
X124940633Y-79576668D02*
X124907300Y-79610002D01*
X124907300Y-79610002D02*
X124873966Y-79576668D01*
X124873966Y-79576668D02*
X124907300Y-79543335D01*
X124907300Y-79543335D02*
X124940633Y-79576668D01*
X124940633Y-79576668D02*
X124873966Y-79576668D01*
X125573966Y-80043335D02*
X125573966Y-80110001D01*
X125573966Y-80110001D02*
X125540633Y-80176668D01*
X125540633Y-80176668D02*
X125507300Y-80210001D01*
X125507300Y-80210001D02*
X125440633Y-80243335D01*
X125440633Y-80243335D02*
X125307300Y-80276668D01*
X125307300Y-80276668D02*
X125140633Y-80276668D01*
X125140633Y-80276668D02*
X125007300Y-80243335D01*
X125007300Y-80243335D02*
X124940633Y-80210001D01*
X124940633Y-80210001D02*
X124907300Y-80176668D01*
X124907300Y-80176668D02*
X124873966Y-80110001D01*
X124873966Y-80110001D02*
X124873966Y-80043335D01*
X124873966Y-80043335D02*
X124907300Y-79976668D01*
X124907300Y-79976668D02*
X124940633Y-79943335D01*
X124940633Y-79943335D02*
X125007300Y-79910001D01*
X125007300Y-79910001D02*
X125140633Y-79876668D01*
X125140633Y-79876668D02*
X125307300Y-79876668D01*
X125307300Y-79876668D02*
X125440633Y-79910001D01*
X125440633Y-79910001D02*
X125507300Y-79943335D01*
X125507300Y-79943335D02*
X125540633Y-79976668D01*
X125540633Y-79976668D02*
X125573966Y-80043335D01*
X124873966Y-81110001D02*
X125573966Y-81110001D01*
X125307300Y-81110001D02*
X125340633Y-81176668D01*
X125340633Y-81176668D02*
X125340633Y-81310001D01*
X125340633Y-81310001D02*
X125307300Y-81376668D01*
X125307300Y-81376668D02*
X125273966Y-81410001D01*
X125273966Y-81410001D02*
X125207300Y-81443335D01*
X125207300Y-81443335D02*
X125007300Y-81443335D01*
X125007300Y-81443335D02*
X124940633Y-81410001D01*
X124940633Y-81410001D02*
X124907300Y-81376668D01*
X124907300Y-81376668D02*
X124873966Y-81310001D01*
X124873966Y-81310001D02*
X124873966Y-81176668D01*
X124873966Y-81176668D02*
X124907300Y-81110001D01*
X125340633Y-81676668D02*
X124873966Y-81843334D01*
X125340633Y-82010001D02*
X124873966Y-81843334D01*
X124873966Y-81843334D02*
X124707300Y-81776668D01*
X124707300Y-81776668D02*
X124673966Y-81743334D01*
X124673966Y-81743334D02*
X124640633Y-81676668D01*
X124907300Y-82776667D02*
X124873966Y-82876667D01*
X124873966Y-82876667D02*
X124873966Y-83043334D01*
X124873966Y-83043334D02*
X124907300Y-83110000D01*
X124907300Y-83110000D02*
X124940633Y-83143334D01*
X124940633Y-83143334D02*
X125007300Y-83176667D01*
X125007300Y-83176667D02*
X125073966Y-83176667D01*
X125073966Y-83176667D02*
X125140633Y-83143334D01*
X125140633Y-83143334D02*
X125173966Y-83110000D01*
X125173966Y-83110000D02*
X125207300Y-83043334D01*
X125207300Y-83043334D02*
X125240633Y-82910000D01*
X125240633Y-82910000D02*
X125273966Y-82843334D01*
X125273966Y-82843334D02*
X125307300Y-82810000D01*
X125307300Y-82810000D02*
X125373966Y-82776667D01*
X125373966Y-82776667D02*
X125440633Y-82776667D01*
X125440633Y-82776667D02*
X125507300Y-82810000D01*
X125507300Y-82810000D02*
X125540633Y-82843334D01*
X125540633Y-82843334D02*
X125573966Y-82910000D01*
X125573966Y-82910000D02*
X125573966Y-83076667D01*
X125573966Y-83076667D02*
X125540633Y-83176667D01*
X125340633Y-83376667D02*
X125340633Y-83643334D01*
X125573966Y-83476667D02*
X124973966Y-83476667D01*
X124973966Y-83476667D02*
X124907300Y-83510001D01*
X124907300Y-83510001D02*
X124873966Y-83576667D01*
X124873966Y-83576667D02*
X124873966Y-83643334D01*
X124907300Y-84143334D02*
X124873966Y-84076667D01*
X124873966Y-84076667D02*
X124873966Y-83943334D01*
X124873966Y-83943334D02*
X124907300Y-83876667D01*
X124907300Y-83876667D02*
X124973966Y-83843334D01*
X124973966Y-83843334D02*
X125240633Y-83843334D01*
X125240633Y-83843334D02*
X125307300Y-83876667D01*
X125307300Y-83876667D02*
X125340633Y-83943334D01*
X125340633Y-83943334D02*
X125340633Y-84076667D01*
X125340633Y-84076667D02*
X125307300Y-84143334D01*
X125307300Y-84143334D02*
X125240633Y-84176667D01*
X125240633Y-84176667D02*
X125173966Y-84176667D01*
X125173966Y-84176667D02*
X125107300Y-83843334D01*
X125340633Y-84410001D02*
X124873966Y-84576667D01*
X124873966Y-84576667D02*
X125340633Y-84743334D01*
X124907300Y-85276667D02*
X124873966Y-85210000D01*
X124873966Y-85210000D02*
X124873966Y-85076667D01*
X124873966Y-85076667D02*
X124907300Y-85010000D01*
X124907300Y-85010000D02*
X124973966Y-84976667D01*
X124973966Y-84976667D02*
X125240633Y-84976667D01*
X125240633Y-84976667D02*
X125307300Y-85010000D01*
X125307300Y-85010000D02*
X125340633Y-85076667D01*
X125340633Y-85076667D02*
X125340633Y-85210000D01*
X125340633Y-85210000D02*
X125307300Y-85276667D01*
X125307300Y-85276667D02*
X125240633Y-85310000D01*
X125240633Y-85310000D02*
X125173966Y-85310000D01*
X125173966Y-85310000D02*
X125107300Y-84976667D01*
X125573966Y-86343333D02*
X125073966Y-86343333D01*
X125073966Y-86343333D02*
X124973966Y-86310000D01*
X124973966Y-86310000D02*
X124907300Y-86243333D01*
X124907300Y-86243333D02*
X124873966Y-86143333D01*
X124873966Y-86143333D02*
X124873966Y-86076667D01*
X124940633Y-86676666D02*
X124907300Y-86710000D01*
X124907300Y-86710000D02*
X124873966Y-86676666D01*
X124873966Y-86676666D02*
X124907300Y-86643333D01*
X124907300Y-86643333D02*
X124940633Y-86676666D01*
X124940633Y-86676666D02*
X124873966Y-86676666D01*
X125540633Y-87909999D02*
X125573966Y-87843332D01*
X125573966Y-87843332D02*
X125573966Y-87743332D01*
X125573966Y-87743332D02*
X125540633Y-87643332D01*
X125540633Y-87643332D02*
X125473966Y-87576666D01*
X125473966Y-87576666D02*
X125407300Y-87543332D01*
X125407300Y-87543332D02*
X125273966Y-87509999D01*
X125273966Y-87509999D02*
X125173966Y-87509999D01*
X125173966Y-87509999D02*
X125040633Y-87543332D01*
X125040633Y-87543332D02*
X124973966Y-87576666D01*
X124973966Y-87576666D02*
X124907300Y-87643332D01*
X124907300Y-87643332D02*
X124873966Y-87743332D01*
X124873966Y-87743332D02*
X124873966Y-87809999D01*
X124873966Y-87809999D02*
X124907300Y-87909999D01*
X124907300Y-87909999D02*
X124940633Y-87943332D01*
X124940633Y-87943332D02*
X125173966Y-87943332D01*
X125173966Y-87943332D02*
X125173966Y-87809999D01*
X124873966Y-88243332D02*
X125340633Y-88243332D01*
X125207300Y-88243332D02*
X125273966Y-88276666D01*
X125273966Y-88276666D02*
X125307300Y-88309999D01*
X125307300Y-88309999D02*
X125340633Y-88376666D01*
X125340633Y-88376666D02*
X125340633Y-88443332D01*
X124873966Y-88976665D02*
X125240633Y-88976665D01*
X125240633Y-88976665D02*
X125307300Y-88943332D01*
X125307300Y-88943332D02*
X125340633Y-88876665D01*
X125340633Y-88876665D02*
X125340633Y-88743332D01*
X125340633Y-88743332D02*
X125307300Y-88676665D01*
X124907300Y-88976665D02*
X124873966Y-88909999D01*
X124873966Y-88909999D02*
X124873966Y-88743332D01*
X124873966Y-88743332D02*
X124907300Y-88676665D01*
X124907300Y-88676665D02*
X124973966Y-88643332D01*
X124973966Y-88643332D02*
X125040633Y-88643332D01*
X125040633Y-88643332D02*
X125107300Y-88676665D01*
X125107300Y-88676665D02*
X125140633Y-88743332D01*
X125140633Y-88743332D02*
X125140633Y-88909999D01*
X125140633Y-88909999D02*
X125173966Y-88976665D01*
X125340633Y-89243332D02*
X124873966Y-89409998D01*
X125340633Y-89576665D02*
X124873966Y-89409998D01*
X124873966Y-89409998D02*
X124707300Y-89343332D01*
X124707300Y-89343332D02*
X124673966Y-89309998D01*
X124673966Y-89309998D02*
X124640633Y-89243332D01*
X181885771Y-89611904D02*
X181838152Y-89659523D01*
X181838152Y-89659523D02*
X181695295Y-89754761D01*
X181695295Y-89754761D02*
X181600057Y-89802380D01*
X181600057Y-89802380D02*
X181457200Y-89849999D01*
X181457200Y-89849999D02*
X181219104Y-89897618D01*
X181219104Y-89897618D02*
X181028628Y-89897618D01*
X181028628Y-89897618D02*
X180790533Y-89849999D01*
X180790533Y-89849999D02*
X180647676Y-89802380D01*
X180647676Y-89802380D02*
X180552438Y-89754761D01*
X180552438Y-89754761D02*
X180409580Y-89659523D01*
X180409580Y-89659523D02*
X180361961Y-89611904D01*
X181123866Y-89230951D02*
X181123866Y-88469047D01*
X181504819Y-88849999D02*
X180742914Y-88849999D01*
X181885771Y-88088094D02*
X181838152Y-88040475D01*
X181838152Y-88040475D02*
X181695295Y-87945237D01*
X181695295Y-87945237D02*
X181600057Y-87897618D01*
X181600057Y-87897618D02*
X181457200Y-87849999D01*
X181457200Y-87849999D02*
X181219104Y-87802380D01*
X181219104Y-87802380D02*
X181028628Y-87802380D01*
X181028628Y-87802380D02*
X180790533Y-87849999D01*
X180790533Y-87849999D02*
X180647676Y-87897618D01*
X180647676Y-87897618D02*
X180552438Y-87945237D01*
X180552438Y-87945237D02*
X180409580Y-88040475D01*
X180409580Y-88040475D02*
X180361961Y-88088094D01*
X144937731Y-91727057D02*
X144899636Y-91688961D01*
X144899636Y-91688961D02*
X144823445Y-91574676D01*
X144823445Y-91574676D02*
X144785350Y-91498485D01*
X144785350Y-91498485D02*
X144747255Y-91384200D01*
X144747255Y-91384200D02*
X144709160Y-91193723D01*
X144709160Y-91193723D02*
X144709160Y-91041342D01*
X144709160Y-91041342D02*
X144747255Y-90850866D01*
X144747255Y-90850866D02*
X144785350Y-90736580D01*
X144785350Y-90736580D02*
X144823445Y-90660390D01*
X144823445Y-90660390D02*
X144899636Y-90546104D01*
X144899636Y-90546104D02*
X144937731Y-90508009D01*
X145128207Y-90622295D02*
X145394874Y-91422295D01*
X145394874Y-91422295D02*
X145661540Y-90622295D01*
X146232969Y-91384200D02*
X146156778Y-91422295D01*
X146156778Y-91422295D02*
X146004397Y-91422295D01*
X146004397Y-91422295D02*
X145928207Y-91384200D01*
X145928207Y-91384200D02*
X145890111Y-91308009D01*
X145890111Y-91308009D02*
X145890111Y-91003247D01*
X145890111Y-91003247D02*
X145928207Y-90927057D01*
X145928207Y-90927057D02*
X146004397Y-90888961D01*
X146004397Y-90888961D02*
X146156778Y-90888961D01*
X146156778Y-90888961D02*
X146232969Y-90927057D01*
X146232969Y-90927057D02*
X146271064Y-91003247D01*
X146271064Y-91003247D02*
X146271064Y-91079438D01*
X146271064Y-91079438D02*
X145890111Y-91155628D01*
X146613921Y-91422295D02*
X146613921Y-90888961D01*
X146613921Y-91041342D02*
X146652016Y-90965152D01*
X146652016Y-90965152D02*
X146690111Y-90927057D01*
X146690111Y-90927057D02*
X146766302Y-90888961D01*
X146766302Y-90888961D02*
X146842492Y-90888961D01*
X146994873Y-90888961D02*
X147299635Y-90888961D01*
X147109159Y-90622295D02*
X147109159Y-91308009D01*
X147109159Y-91308009D02*
X147147254Y-91384200D01*
X147147254Y-91384200D02*
X147223444Y-91422295D01*
X147223444Y-91422295D02*
X147299635Y-91422295D01*
X147566302Y-91422295D02*
X147566302Y-90888961D01*
X147566302Y-90622295D02*
X147528206Y-90660390D01*
X147528206Y-90660390D02*
X147566302Y-90698485D01*
X147566302Y-90698485D02*
X147604397Y-90660390D01*
X147604397Y-90660390D02*
X147566302Y-90622295D01*
X147566302Y-90622295D02*
X147566302Y-90698485D01*
X148290111Y-91384200D02*
X148213920Y-91422295D01*
X148213920Y-91422295D02*
X148061539Y-91422295D01*
X148061539Y-91422295D02*
X147985349Y-91384200D01*
X147985349Y-91384200D02*
X147947254Y-91346104D01*
X147947254Y-91346104D02*
X147909158Y-91269914D01*
X147909158Y-91269914D02*
X147909158Y-91041342D01*
X147909158Y-91041342D02*
X147947254Y-90965152D01*
X147947254Y-90965152D02*
X147985349Y-90927057D01*
X147985349Y-90927057D02*
X148061539Y-90888961D01*
X148061539Y-90888961D02*
X148213920Y-90888961D01*
X148213920Y-90888961D02*
X148290111Y-90927057D01*
X148975825Y-91422295D02*
X148975825Y-91003247D01*
X148975825Y-91003247D02*
X148937730Y-90927057D01*
X148937730Y-90927057D02*
X148861539Y-90888961D01*
X148861539Y-90888961D02*
X148709158Y-90888961D01*
X148709158Y-90888961D02*
X148632968Y-90927057D01*
X148975825Y-91384200D02*
X148899634Y-91422295D01*
X148899634Y-91422295D02*
X148709158Y-91422295D01*
X148709158Y-91422295D02*
X148632968Y-91384200D01*
X148632968Y-91384200D02*
X148594872Y-91308009D01*
X148594872Y-91308009D02*
X148594872Y-91231819D01*
X148594872Y-91231819D02*
X148632968Y-91155628D01*
X148632968Y-91155628D02*
X148709158Y-91117533D01*
X148709158Y-91117533D02*
X148899634Y-91117533D01*
X148899634Y-91117533D02*
X148975825Y-91079438D01*
X149471063Y-91422295D02*
X149394873Y-91384200D01*
X149394873Y-91384200D02*
X149356778Y-91308009D01*
X149356778Y-91308009D02*
X149356778Y-90622295D01*
X150499635Y-91422295D02*
X150423445Y-91384200D01*
X150423445Y-91384200D02*
X150385350Y-91346104D01*
X150385350Y-91346104D02*
X150347254Y-91269914D01*
X150347254Y-91269914D02*
X150347254Y-91041342D01*
X150347254Y-91041342D02*
X150385350Y-90965152D01*
X150385350Y-90965152D02*
X150423445Y-90927057D01*
X150423445Y-90927057D02*
X150499635Y-90888961D01*
X150499635Y-90888961D02*
X150613921Y-90888961D01*
X150613921Y-90888961D02*
X150690112Y-90927057D01*
X150690112Y-90927057D02*
X150728207Y-90965152D01*
X150728207Y-90965152D02*
X150766302Y-91041342D01*
X150766302Y-91041342D02*
X150766302Y-91269914D01*
X150766302Y-91269914D02*
X150728207Y-91346104D01*
X150728207Y-91346104D02*
X150690112Y-91384200D01*
X150690112Y-91384200D02*
X150613921Y-91422295D01*
X150613921Y-91422295D02*
X150499635Y-91422295D01*
X151109160Y-90888961D02*
X151109160Y-91688961D01*
X151109160Y-90927057D02*
X151185350Y-90888961D01*
X151185350Y-90888961D02*
X151337731Y-90888961D01*
X151337731Y-90888961D02*
X151413922Y-90927057D01*
X151413922Y-90927057D02*
X151452017Y-90965152D01*
X151452017Y-90965152D02*
X151490112Y-91041342D01*
X151490112Y-91041342D02*
X151490112Y-91269914D01*
X151490112Y-91269914D02*
X151452017Y-91346104D01*
X151452017Y-91346104D02*
X151413922Y-91384200D01*
X151413922Y-91384200D02*
X151337731Y-91422295D01*
X151337731Y-91422295D02*
X151185350Y-91422295D01*
X151185350Y-91422295D02*
X151109160Y-91384200D01*
X151718684Y-90888961D02*
X152023446Y-90888961D01*
X151832970Y-90622295D02*
X151832970Y-91308009D01*
X151832970Y-91308009D02*
X151871065Y-91384200D01*
X151871065Y-91384200D02*
X151947255Y-91422295D01*
X151947255Y-91422295D02*
X152023446Y-91422295D01*
X152290113Y-91422295D02*
X152290113Y-90888961D01*
X152290113Y-90622295D02*
X152252017Y-90660390D01*
X152252017Y-90660390D02*
X152290113Y-90698485D01*
X152290113Y-90698485D02*
X152328208Y-90660390D01*
X152328208Y-90660390D02*
X152290113Y-90622295D01*
X152290113Y-90622295D02*
X152290113Y-90698485D01*
X152785350Y-91422295D02*
X152709160Y-91384200D01*
X152709160Y-91384200D02*
X152671065Y-91346104D01*
X152671065Y-91346104D02*
X152632969Y-91269914D01*
X152632969Y-91269914D02*
X152632969Y-91041342D01*
X152632969Y-91041342D02*
X152671065Y-90965152D01*
X152671065Y-90965152D02*
X152709160Y-90927057D01*
X152709160Y-90927057D02*
X152785350Y-90888961D01*
X152785350Y-90888961D02*
X152899636Y-90888961D01*
X152899636Y-90888961D02*
X152975827Y-90927057D01*
X152975827Y-90927057D02*
X153013922Y-90965152D01*
X153013922Y-90965152D02*
X153052017Y-91041342D01*
X153052017Y-91041342D02*
X153052017Y-91269914D01*
X153052017Y-91269914D02*
X153013922Y-91346104D01*
X153013922Y-91346104D02*
X152975827Y-91384200D01*
X152975827Y-91384200D02*
X152899636Y-91422295D01*
X152899636Y-91422295D02*
X152785350Y-91422295D01*
X153394875Y-90888961D02*
X153394875Y-91422295D01*
X153394875Y-90965152D02*
X153432970Y-90927057D01*
X153432970Y-90927057D02*
X153509160Y-90888961D01*
X153509160Y-90888961D02*
X153623446Y-90888961D01*
X153623446Y-90888961D02*
X153699637Y-90927057D01*
X153699637Y-90927057D02*
X153737732Y-91003247D01*
X153737732Y-91003247D02*
X153737732Y-91422295D01*
X154042494Y-91727057D02*
X154080589Y-91688961D01*
X154080589Y-91688961D02*
X154156780Y-91574676D01*
X154156780Y-91574676D02*
X154194875Y-91498485D01*
X154194875Y-91498485D02*
X154232970Y-91384200D01*
X154232970Y-91384200D02*
X154271066Y-91193723D01*
X154271066Y-91193723D02*
X154271066Y-91041342D01*
X154271066Y-91041342D02*
X154232970Y-90850866D01*
X154232970Y-90850866D02*
X154194875Y-90736580D01*
X154194875Y-90736580D02*
X154156780Y-90660390D01*
X154156780Y-90660390D02*
X154080589Y-90546104D01*
X154080589Y-90546104D02*
X154042494Y-90508009D01*
X155718685Y-91346104D02*
X155680589Y-91384200D01*
X155680589Y-91384200D02*
X155566304Y-91422295D01*
X155566304Y-91422295D02*
X155490113Y-91422295D01*
X155490113Y-91422295D02*
X155375827Y-91384200D01*
X155375827Y-91384200D02*
X155299637Y-91308009D01*
X155299637Y-91308009D02*
X155261542Y-91231819D01*
X155261542Y-91231819D02*
X155223446Y-91079438D01*
X155223446Y-91079438D02*
X155223446Y-90965152D01*
X155223446Y-90965152D02*
X155261542Y-90812771D01*
X155261542Y-90812771D02*
X155299637Y-90736580D01*
X155299637Y-90736580D02*
X155375827Y-90660390D01*
X155375827Y-90660390D02*
X155490113Y-90622295D01*
X155490113Y-90622295D02*
X155566304Y-90622295D01*
X155566304Y-90622295D02*
X155680589Y-90660390D01*
X155680589Y-90660390D02*
X155718685Y-90698485D01*
X156175827Y-91422295D02*
X156099637Y-91384200D01*
X156099637Y-91384200D02*
X156061542Y-91346104D01*
X156061542Y-91346104D02*
X156023446Y-91269914D01*
X156023446Y-91269914D02*
X156023446Y-91041342D01*
X156023446Y-91041342D02*
X156061542Y-90965152D01*
X156061542Y-90965152D02*
X156099637Y-90927057D01*
X156099637Y-90927057D02*
X156175827Y-90888961D01*
X156175827Y-90888961D02*
X156290113Y-90888961D01*
X156290113Y-90888961D02*
X156366304Y-90927057D01*
X156366304Y-90927057D02*
X156404399Y-90965152D01*
X156404399Y-90965152D02*
X156442494Y-91041342D01*
X156442494Y-91041342D02*
X156442494Y-91269914D01*
X156442494Y-91269914D02*
X156404399Y-91346104D01*
X156404399Y-91346104D02*
X156366304Y-91384200D01*
X156366304Y-91384200D02*
X156290113Y-91422295D01*
X156290113Y-91422295D02*
X156175827Y-91422295D01*
X156785352Y-90888961D02*
X156785352Y-91422295D01*
X156785352Y-90965152D02*
X156823447Y-90927057D01*
X156823447Y-90927057D02*
X156899637Y-90888961D01*
X156899637Y-90888961D02*
X157013923Y-90888961D01*
X157013923Y-90888961D02*
X157090114Y-90927057D01*
X157090114Y-90927057D02*
X157128209Y-91003247D01*
X157128209Y-91003247D02*
X157128209Y-91422295D01*
X157509162Y-90888961D02*
X157509162Y-91422295D01*
X157509162Y-90965152D02*
X157547257Y-90927057D01*
X157547257Y-90927057D02*
X157623447Y-90888961D01*
X157623447Y-90888961D02*
X157737733Y-90888961D01*
X157737733Y-90888961D02*
X157813924Y-90927057D01*
X157813924Y-90927057D02*
X157852019Y-91003247D01*
X157852019Y-91003247D02*
X157852019Y-91422295D01*
X158537734Y-91384200D02*
X158461543Y-91422295D01*
X158461543Y-91422295D02*
X158309162Y-91422295D01*
X158309162Y-91422295D02*
X158232972Y-91384200D01*
X158232972Y-91384200D02*
X158194876Y-91308009D01*
X158194876Y-91308009D02*
X158194876Y-91003247D01*
X158194876Y-91003247D02*
X158232972Y-90927057D01*
X158232972Y-90927057D02*
X158309162Y-90888961D01*
X158309162Y-90888961D02*
X158461543Y-90888961D01*
X158461543Y-90888961D02*
X158537734Y-90927057D01*
X158537734Y-90927057D02*
X158575829Y-91003247D01*
X158575829Y-91003247D02*
X158575829Y-91079438D01*
X158575829Y-91079438D02*
X158194876Y-91155628D01*
X159261543Y-91384200D02*
X159185352Y-91422295D01*
X159185352Y-91422295D02*
X159032971Y-91422295D01*
X159032971Y-91422295D02*
X158956781Y-91384200D01*
X158956781Y-91384200D02*
X158918686Y-91346104D01*
X158918686Y-91346104D02*
X158880590Y-91269914D01*
X158880590Y-91269914D02*
X158880590Y-91041342D01*
X158880590Y-91041342D02*
X158918686Y-90965152D01*
X158918686Y-90965152D02*
X158956781Y-90927057D01*
X158956781Y-90927057D02*
X159032971Y-90888961D01*
X159032971Y-90888961D02*
X159185352Y-90888961D01*
X159185352Y-90888961D02*
X159261543Y-90927057D01*
X159490114Y-90888961D02*
X159794876Y-90888961D01*
X159604400Y-90622295D02*
X159604400Y-91308009D01*
X159604400Y-91308009D02*
X159642495Y-91384200D01*
X159642495Y-91384200D02*
X159718685Y-91422295D01*
X159718685Y-91422295D02*
X159794876Y-91422295D01*
X160175828Y-91422295D02*
X160099638Y-91384200D01*
X160099638Y-91384200D02*
X160061543Y-91346104D01*
X160061543Y-91346104D02*
X160023447Y-91269914D01*
X160023447Y-91269914D02*
X160023447Y-91041342D01*
X160023447Y-91041342D02*
X160061543Y-90965152D01*
X160061543Y-90965152D02*
X160099638Y-90927057D01*
X160099638Y-90927057D02*
X160175828Y-90888961D01*
X160175828Y-90888961D02*
X160290114Y-90888961D01*
X160290114Y-90888961D02*
X160366305Y-90927057D01*
X160366305Y-90927057D02*
X160404400Y-90965152D01*
X160404400Y-90965152D02*
X160442495Y-91041342D01*
X160442495Y-91041342D02*
X160442495Y-91269914D01*
X160442495Y-91269914D02*
X160404400Y-91346104D01*
X160404400Y-91346104D02*
X160366305Y-91384200D01*
X160366305Y-91384200D02*
X160290114Y-91422295D01*
X160290114Y-91422295D02*
X160175828Y-91422295D01*
X160785353Y-91422295D02*
X160785353Y-90888961D01*
X160785353Y-91041342D02*
X160823448Y-90965152D01*
X160823448Y-90965152D02*
X160861543Y-90927057D01*
X160861543Y-90927057D02*
X160937734Y-90888961D01*
X160937734Y-90888961D02*
X161013924Y-90888961D01*
X162004400Y-91422295D02*
X161928210Y-91384200D01*
X161928210Y-91384200D02*
X161890115Y-91346104D01*
X161890115Y-91346104D02*
X161852019Y-91269914D01*
X161852019Y-91269914D02*
X161852019Y-91041342D01*
X161852019Y-91041342D02*
X161890115Y-90965152D01*
X161890115Y-90965152D02*
X161928210Y-90927057D01*
X161928210Y-90927057D02*
X162004400Y-90888961D01*
X162004400Y-90888961D02*
X162118686Y-90888961D01*
X162118686Y-90888961D02*
X162194877Y-90927057D01*
X162194877Y-90927057D02*
X162232972Y-90965152D01*
X162232972Y-90965152D02*
X162271067Y-91041342D01*
X162271067Y-91041342D02*
X162271067Y-91269914D01*
X162271067Y-91269914D02*
X162232972Y-91346104D01*
X162232972Y-91346104D02*
X162194877Y-91384200D01*
X162194877Y-91384200D02*
X162118686Y-91422295D01*
X162118686Y-91422295D02*
X162004400Y-91422295D01*
X162613925Y-90888961D02*
X162613925Y-91422295D01*
X162613925Y-90965152D02*
X162652020Y-90927057D01*
X162652020Y-90927057D02*
X162728210Y-90888961D01*
X162728210Y-90888961D02*
X162842496Y-90888961D01*
X162842496Y-90888961D02*
X162918687Y-90927057D01*
X162918687Y-90927057D02*
X162956782Y-91003247D01*
X162956782Y-91003247D02*
X162956782Y-91422295D01*
X163947259Y-91422295D02*
X163947259Y-90622295D01*
X163947259Y-90927057D02*
X164023449Y-90888961D01*
X164023449Y-90888961D02*
X164175830Y-90888961D01*
X164175830Y-90888961D02*
X164252021Y-90927057D01*
X164252021Y-90927057D02*
X164290116Y-90965152D01*
X164290116Y-90965152D02*
X164328211Y-91041342D01*
X164328211Y-91041342D02*
X164328211Y-91269914D01*
X164328211Y-91269914D02*
X164290116Y-91346104D01*
X164290116Y-91346104D02*
X164252021Y-91384200D01*
X164252021Y-91384200D02*
X164175830Y-91422295D01*
X164175830Y-91422295D02*
X164023449Y-91422295D01*
X164023449Y-91422295D02*
X163947259Y-91384200D01*
X164785354Y-91422295D02*
X164709164Y-91384200D01*
X164709164Y-91384200D02*
X164671069Y-91346104D01*
X164671069Y-91346104D02*
X164632973Y-91269914D01*
X164632973Y-91269914D02*
X164632973Y-91041342D01*
X164632973Y-91041342D02*
X164671069Y-90965152D01*
X164671069Y-90965152D02*
X164709164Y-90927057D01*
X164709164Y-90927057D02*
X164785354Y-90888961D01*
X164785354Y-90888961D02*
X164899640Y-90888961D01*
X164899640Y-90888961D02*
X164975831Y-90927057D01*
X164975831Y-90927057D02*
X165013926Y-90965152D01*
X165013926Y-90965152D02*
X165052021Y-91041342D01*
X165052021Y-91041342D02*
X165052021Y-91269914D01*
X165052021Y-91269914D02*
X165013926Y-91346104D01*
X165013926Y-91346104D02*
X164975831Y-91384200D01*
X164975831Y-91384200D02*
X164899640Y-91422295D01*
X164899640Y-91422295D02*
X164785354Y-91422295D01*
X165280593Y-90888961D02*
X165585355Y-90888961D01*
X165394879Y-90622295D02*
X165394879Y-91308009D01*
X165394879Y-91308009D02*
X165432974Y-91384200D01*
X165432974Y-91384200D02*
X165509164Y-91422295D01*
X165509164Y-91422295D02*
X165585355Y-91422295D01*
X165737736Y-90888961D02*
X166042498Y-90888961D01*
X165852022Y-90622295D02*
X165852022Y-91308009D01*
X165852022Y-91308009D02*
X165890117Y-91384200D01*
X165890117Y-91384200D02*
X165966307Y-91422295D01*
X165966307Y-91422295D02*
X166042498Y-91422295D01*
X166423450Y-91422295D02*
X166347260Y-91384200D01*
X166347260Y-91384200D02*
X166309165Y-91346104D01*
X166309165Y-91346104D02*
X166271069Y-91269914D01*
X166271069Y-91269914D02*
X166271069Y-91041342D01*
X166271069Y-91041342D02*
X166309165Y-90965152D01*
X166309165Y-90965152D02*
X166347260Y-90927057D01*
X166347260Y-90927057D02*
X166423450Y-90888961D01*
X166423450Y-90888961D02*
X166537736Y-90888961D01*
X166537736Y-90888961D02*
X166613927Y-90927057D01*
X166613927Y-90927057D02*
X166652022Y-90965152D01*
X166652022Y-90965152D02*
X166690117Y-91041342D01*
X166690117Y-91041342D02*
X166690117Y-91269914D01*
X166690117Y-91269914D02*
X166652022Y-91346104D01*
X166652022Y-91346104D02*
X166613927Y-91384200D01*
X166613927Y-91384200D02*
X166537736Y-91422295D01*
X166537736Y-91422295D02*
X166423450Y-91422295D01*
X167032975Y-91422295D02*
X167032975Y-90888961D01*
X167032975Y-90965152D02*
X167071070Y-90927057D01*
X167071070Y-90927057D02*
X167147260Y-90888961D01*
X167147260Y-90888961D02*
X167261546Y-90888961D01*
X167261546Y-90888961D02*
X167337737Y-90927057D01*
X167337737Y-90927057D02*
X167375832Y-91003247D01*
X167375832Y-91003247D02*
X167375832Y-91422295D01*
X167375832Y-91003247D02*
X167413927Y-90927057D01*
X167413927Y-90927057D02*
X167490118Y-90888961D01*
X167490118Y-90888961D02*
X167604403Y-90888961D01*
X167604403Y-90888961D02*
X167680594Y-90927057D01*
X167680594Y-90927057D02*
X167718689Y-91003247D01*
X167718689Y-91003247D02*
X167718689Y-91422295D01*
X124307300Y-80509998D02*
X124340633Y-80543331D01*
X124340633Y-80543331D02*
X124373966Y-80609998D01*
X124373966Y-80609998D02*
X124373966Y-80776665D01*
X124373966Y-80776665D02*
X124340633Y-80843331D01*
X124340633Y-80843331D02*
X124307300Y-80876665D01*
X124307300Y-80876665D02*
X124240633Y-80909998D01*
X124240633Y-80909998D02*
X124173966Y-80909998D01*
X124173966Y-80909998D02*
X124073966Y-80876665D01*
X124073966Y-80876665D02*
X123673966Y-80476665D01*
X123673966Y-80476665D02*
X123673966Y-80909998D01*
X124373966Y-81343332D02*
X124373966Y-81409998D01*
X124373966Y-81409998D02*
X124340633Y-81476665D01*
X124340633Y-81476665D02*
X124307300Y-81509998D01*
X124307300Y-81509998D02*
X124240633Y-81543332D01*
X124240633Y-81543332D02*
X124107300Y-81576665D01*
X124107300Y-81576665D02*
X123940633Y-81576665D01*
X123940633Y-81576665D02*
X123807300Y-81543332D01*
X123807300Y-81543332D02*
X123740633Y-81509998D01*
X123740633Y-81509998D02*
X123707300Y-81476665D01*
X123707300Y-81476665D02*
X123673966Y-81409998D01*
X123673966Y-81409998D02*
X123673966Y-81343332D01*
X123673966Y-81343332D02*
X123707300Y-81276665D01*
X123707300Y-81276665D02*
X123740633Y-81243332D01*
X123740633Y-81243332D02*
X123807300Y-81209998D01*
X123807300Y-81209998D02*
X123940633Y-81176665D01*
X123940633Y-81176665D02*
X124107300Y-81176665D01*
X124107300Y-81176665D02*
X124240633Y-81209998D01*
X124240633Y-81209998D02*
X124307300Y-81243332D01*
X124307300Y-81243332D02*
X124340633Y-81276665D01*
X124340633Y-81276665D02*
X124373966Y-81343332D01*
X124307300Y-81843332D02*
X124340633Y-81876665D01*
X124340633Y-81876665D02*
X124373966Y-81943332D01*
X124373966Y-81943332D02*
X124373966Y-82109999D01*
X124373966Y-82109999D02*
X124340633Y-82176665D01*
X124340633Y-82176665D02*
X124307300Y-82209999D01*
X124307300Y-82209999D02*
X124240633Y-82243332D01*
X124240633Y-82243332D02*
X124173966Y-82243332D01*
X124173966Y-82243332D02*
X124073966Y-82209999D01*
X124073966Y-82209999D02*
X123673966Y-81809999D01*
X123673966Y-81809999D02*
X123673966Y-82243332D01*
X124140633Y-82843332D02*
X123673966Y-82843332D01*
X124407300Y-82676666D02*
X123907300Y-82509999D01*
X123907300Y-82509999D02*
X123907300Y-82943332D01*
X123940633Y-83209999D02*
X123940633Y-83743333D01*
X123673966Y-84443333D02*
X123673966Y-84043333D01*
X123673966Y-84243333D02*
X124373966Y-84243333D01*
X124373966Y-84243333D02*
X124273966Y-84176666D01*
X124273966Y-84176666D02*
X124207300Y-84110000D01*
X124207300Y-84110000D02*
X124173966Y-84043333D01*
X123673966Y-85110000D02*
X123673966Y-84710000D01*
X123673966Y-84910000D02*
X124373966Y-84910000D01*
X124373966Y-84910000D02*
X124273966Y-84843333D01*
X124273966Y-84843333D02*
X124207300Y-84776667D01*
X124207300Y-84776667D02*
X124173966Y-84710000D01*
X123940633Y-85410000D02*
X123940633Y-85943334D01*
X123673966Y-86643334D02*
X123673966Y-86243334D01*
X123673966Y-86443334D02*
X124373966Y-86443334D01*
X124373966Y-86443334D02*
X124273966Y-86376667D01*
X124273966Y-86376667D02*
X124207300Y-86310001D01*
X124207300Y-86310001D02*
X124173966Y-86243334D01*
X124073966Y-87043334D02*
X124107300Y-86976668D01*
X124107300Y-86976668D02*
X124140633Y-86943334D01*
X124140633Y-86943334D02*
X124207300Y-86910001D01*
X124207300Y-86910001D02*
X124240633Y-86910001D01*
X124240633Y-86910001D02*
X124307300Y-86943334D01*
X124307300Y-86943334D02*
X124340633Y-86976668D01*
X124340633Y-86976668D02*
X124373966Y-87043334D01*
X124373966Y-87043334D02*
X124373966Y-87176668D01*
X124373966Y-87176668D02*
X124340633Y-87243334D01*
X124340633Y-87243334D02*
X124307300Y-87276668D01*
X124307300Y-87276668D02*
X124240633Y-87310001D01*
X124240633Y-87310001D02*
X124207300Y-87310001D01*
X124207300Y-87310001D02*
X124140633Y-87276668D01*
X124140633Y-87276668D02*
X124107300Y-87243334D01*
X124107300Y-87243334D02*
X124073966Y-87176668D01*
X124073966Y-87176668D02*
X124073966Y-87043334D01*
X124073966Y-87043334D02*
X124040633Y-86976668D01*
X124040633Y-86976668D02*
X124007300Y-86943334D01*
X124007300Y-86943334D02*
X123940633Y-86910001D01*
X123940633Y-86910001D02*
X123807300Y-86910001D01*
X123807300Y-86910001D02*
X123740633Y-86943334D01*
X123740633Y-86943334D02*
X123707300Y-86976668D01*
X123707300Y-86976668D02*
X123673966Y-87043334D01*
X123673966Y-87043334D02*
X123673966Y-87176668D01*
X123673966Y-87176668D02*
X123707300Y-87243334D01*
X123707300Y-87243334D02*
X123740633Y-87276668D01*
X123740633Y-87276668D02*
X123807300Y-87310001D01*
X123807300Y-87310001D02*
X123940633Y-87310001D01*
X123940633Y-87310001D02*
X124007300Y-87276668D01*
X124007300Y-87276668D02*
X124040633Y-87243334D01*
X124040633Y-87243334D02*
X124073966Y-87176668D01*
D13*
X157383523Y-82909453D02*
X157383523Y-81893453D01*
X157383523Y-81893453D02*
X157770571Y-81893453D01*
X157770571Y-81893453D02*
X157867333Y-81941834D01*
X157867333Y-81941834D02*
X157915714Y-81990215D01*
X157915714Y-81990215D02*
X157964095Y-82086977D01*
X157964095Y-82086977D02*
X157964095Y-82232120D01*
X157964095Y-82232120D02*
X157915714Y-82328882D01*
X157915714Y-82328882D02*
X157867333Y-82377263D01*
X157867333Y-82377263D02*
X157770571Y-82425644D01*
X157770571Y-82425644D02*
X157383523Y-82425644D01*
X158593047Y-81893453D02*
X158786571Y-81893453D01*
X158786571Y-81893453D02*
X158883333Y-81941834D01*
X158883333Y-81941834D02*
X158980095Y-82038596D01*
X158980095Y-82038596D02*
X159028476Y-82232120D01*
X159028476Y-82232120D02*
X159028476Y-82570787D01*
X159028476Y-82570787D02*
X158980095Y-82764311D01*
X158980095Y-82764311D02*
X158883333Y-82861073D01*
X158883333Y-82861073D02*
X158786571Y-82909453D01*
X158786571Y-82909453D02*
X158593047Y-82909453D01*
X158593047Y-82909453D02*
X158496285Y-82861073D01*
X158496285Y-82861073D02*
X158399523Y-82764311D01*
X158399523Y-82764311D02*
X158351142Y-82570787D01*
X158351142Y-82570787D02*
X158351142Y-82232120D01*
X158351142Y-82232120D02*
X158399523Y-82038596D01*
X158399523Y-82038596D02*
X158496285Y-81941834D01*
X158496285Y-81941834D02*
X158593047Y-81893453D01*
X159367142Y-81893453D02*
X159609047Y-82909453D01*
X159609047Y-82909453D02*
X159802571Y-82183739D01*
X159802571Y-82183739D02*
X159996095Y-82909453D01*
X159996095Y-82909453D02*
X160238000Y-81893453D01*
X160625047Y-82377263D02*
X160963714Y-82377263D01*
X161108857Y-82909453D02*
X160625047Y-82909453D01*
X160625047Y-82909453D02*
X160625047Y-81893453D01*
X160625047Y-81893453D02*
X161108857Y-81893453D01*
X162124857Y-82909453D02*
X161786190Y-82425644D01*
X161544285Y-82909453D02*
X161544285Y-81893453D01*
X161544285Y-81893453D02*
X161931333Y-81893453D01*
X161931333Y-81893453D02*
X162028095Y-81941834D01*
X162028095Y-81941834D02*
X162076476Y-81990215D01*
X162076476Y-81990215D02*
X162124857Y-82086977D01*
X162124857Y-82086977D02*
X162124857Y-82232120D01*
X162124857Y-82232120D02*
X162076476Y-82328882D01*
X162076476Y-82328882D02*
X162028095Y-82377263D01*
X162028095Y-82377263D02*
X161931333Y-82425644D01*
X161931333Y-82425644D02*
X161544285Y-82425644D01*
D10*
X127506666Y-70154819D02*
X127506666Y-70869104D01*
X127506666Y-70869104D02*
X127459047Y-71011961D01*
X127459047Y-71011961D02*
X127363809Y-71107200D01*
X127363809Y-71107200D02*
X127220952Y-71154819D01*
X127220952Y-71154819D02*
X127125714Y-71154819D01*
X127887619Y-70154819D02*
X128506666Y-70154819D01*
X128506666Y-70154819D02*
X128173333Y-70535771D01*
X128173333Y-70535771D02*
X128316190Y-70535771D01*
X128316190Y-70535771D02*
X128411428Y-70583390D01*
X128411428Y-70583390D02*
X128459047Y-70631009D01*
X128459047Y-70631009D02*
X128506666Y-70726247D01*
X128506666Y-70726247D02*
X128506666Y-70964342D01*
X128506666Y-70964342D02*
X128459047Y-71059580D01*
X128459047Y-71059580D02*
X128411428Y-71107200D01*
X128411428Y-71107200D02*
X128316190Y-71154819D01*
X128316190Y-71154819D02*
X128030476Y-71154819D01*
X128030476Y-71154819D02*
X127935238Y-71107200D01*
X127935238Y-71107200D02*
X127887619Y-71059580D01*
X165717142Y-82249580D02*
X165669523Y-82297200D01*
X165669523Y-82297200D02*
X165526666Y-82344819D01*
X165526666Y-82344819D02*
X165431428Y-82344819D01*
X165431428Y-82344819D02*
X165288571Y-82297200D01*
X165288571Y-82297200D02*
X165193333Y-82201961D01*
X165193333Y-82201961D02*
X165145714Y-82106723D01*
X165145714Y-82106723D02*
X165098095Y-81916247D01*
X165098095Y-81916247D02*
X165098095Y-81773390D01*
X165098095Y-81773390D02*
X165145714Y-81582914D01*
X165145714Y-81582914D02*
X165193333Y-81487676D01*
X165193333Y-81487676D02*
X165288571Y-81392438D01*
X165288571Y-81392438D02*
X165431428Y-81344819D01*
X165431428Y-81344819D02*
X165526666Y-81344819D01*
X165526666Y-81344819D02*
X165669523Y-81392438D01*
X165669523Y-81392438D02*
X165717142Y-81440057D01*
X166669523Y-82344819D02*
X166098095Y-82344819D01*
X166383809Y-82344819D02*
X166383809Y-81344819D01*
X166383809Y-81344819D02*
X166288571Y-81487676D01*
X166288571Y-81487676D02*
X166193333Y-81582914D01*
X166193333Y-81582914D02*
X166098095Y-81630533D01*
X167002857Y-81344819D02*
X167669523Y-81344819D01*
X167669523Y-81344819D02*
X167240952Y-82344819D01*
X132486666Y-85094819D02*
X132486666Y-85809104D01*
X132486666Y-85809104D02*
X132439047Y-85951961D01*
X132439047Y-85951961D02*
X132343809Y-86047200D01*
X132343809Y-86047200D02*
X132200952Y-86094819D01*
X132200952Y-86094819D02*
X132105714Y-86094819D01*
X133486666Y-86094819D02*
X132915238Y-86094819D01*
X133200952Y-86094819D02*
X133200952Y-85094819D01*
X133200952Y-85094819D02*
X133105714Y-85237676D01*
X133105714Y-85237676D02*
X133010476Y-85332914D01*
X133010476Y-85332914D02*
X132915238Y-85380533D01*
X169090476Y-76684819D02*
X169090476Y-77399104D01*
X169090476Y-77399104D02*
X169042857Y-77541961D01*
X169042857Y-77541961D02*
X168947619Y-77637200D01*
X168947619Y-77637200D02*
X168804762Y-77684819D01*
X168804762Y-77684819D02*
X168709524Y-77684819D01*
X170090476Y-77684819D02*
X169519048Y-77684819D01*
X169804762Y-77684819D02*
X169804762Y-76684819D01*
X169804762Y-76684819D02*
X169709524Y-76827676D01*
X169709524Y-76827676D02*
X169614286Y-76922914D01*
X169614286Y-76922914D02*
X169519048Y-76970533D01*
X170709524Y-76684819D02*
X170804762Y-76684819D01*
X170804762Y-76684819D02*
X170900000Y-76732438D01*
X170900000Y-76732438D02*
X170947619Y-76780057D01*
X170947619Y-76780057D02*
X170995238Y-76875295D01*
X170995238Y-76875295D02*
X171042857Y-77065771D01*
X171042857Y-77065771D02*
X171042857Y-77303866D01*
X171042857Y-77303866D02*
X170995238Y-77494342D01*
X170995238Y-77494342D02*
X170947619Y-77589580D01*
X170947619Y-77589580D02*
X170900000Y-77637200D01*
X170900000Y-77637200D02*
X170804762Y-77684819D01*
X170804762Y-77684819D02*
X170709524Y-77684819D01*
X170709524Y-77684819D02*
X170614286Y-77637200D01*
X170614286Y-77637200D02*
X170566667Y-77589580D01*
X170566667Y-77589580D02*
X170519048Y-77494342D01*
X170519048Y-77494342D02*
X170471429Y-77303866D01*
X170471429Y-77303866D02*
X170471429Y-77065771D01*
X170471429Y-77065771D02*
X170519048Y-76875295D01*
X170519048Y-76875295D02*
X170566667Y-76780057D01*
X170566667Y-76780057D02*
X170614286Y-76732438D01*
X170614286Y-76732438D02*
X170709524Y-76684819D01*
X176756666Y-70424819D02*
X176756666Y-71139104D01*
X176756666Y-71139104D02*
X176709047Y-71281961D01*
X176709047Y-71281961D02*
X176613809Y-71377200D01*
X176613809Y-71377200D02*
X176470952Y-71424819D01*
X176470952Y-71424819D02*
X176375714Y-71424819D01*
X177185238Y-70520057D02*
X177232857Y-70472438D01*
X177232857Y-70472438D02*
X177328095Y-70424819D01*
X177328095Y-70424819D02*
X177566190Y-70424819D01*
X177566190Y-70424819D02*
X177661428Y-70472438D01*
X177661428Y-70472438D02*
X177709047Y-70520057D01*
X177709047Y-70520057D02*
X177756666Y-70615295D01*
X177756666Y-70615295D02*
X177756666Y-70710533D01*
X177756666Y-70710533D02*
X177709047Y-70853390D01*
X177709047Y-70853390D02*
X177137619Y-71424819D01*
X177137619Y-71424819D02*
X177756666Y-71424819D01*
X174159523Y-95759580D02*
X174111904Y-95807200D01*
X174111904Y-95807200D02*
X173969047Y-95854819D01*
X173969047Y-95854819D02*
X173873809Y-95854819D01*
X173873809Y-95854819D02*
X173730952Y-95807200D01*
X173730952Y-95807200D02*
X173635714Y-95711961D01*
X173635714Y-95711961D02*
X173588095Y-95616723D01*
X173588095Y-95616723D02*
X173540476Y-95426247D01*
X173540476Y-95426247D02*
X173540476Y-95283390D01*
X173540476Y-95283390D02*
X173588095Y-95092914D01*
X173588095Y-95092914D02*
X173635714Y-94997676D01*
X173635714Y-94997676D02*
X173730952Y-94902438D01*
X173730952Y-94902438D02*
X173873809Y-94854819D01*
X173873809Y-94854819D02*
X173969047Y-94854819D01*
X173969047Y-94854819D02*
X174111904Y-94902438D01*
X174111904Y-94902438D02*
X174159523Y-94950057D01*
X174588095Y-95854819D02*
X174588095Y-94854819D01*
X174588095Y-94854819D02*
X175159523Y-95854819D01*
X175159523Y-95854819D02*
X175159523Y-94854819D01*
X175588095Y-94950057D02*
X175635714Y-94902438D01*
X175635714Y-94902438D02*
X175730952Y-94854819D01*
X175730952Y-94854819D02*
X175969047Y-94854819D01*
X175969047Y-94854819D02*
X176064285Y-94902438D01*
X176064285Y-94902438D02*
X176111904Y-94950057D01*
X176111904Y-94950057D02*
X176159523Y-95045295D01*
X176159523Y-95045295D02*
X176159523Y-95140533D01*
X176159523Y-95140533D02*
X176111904Y-95283390D01*
X176111904Y-95283390D02*
X175540476Y-95854819D01*
X175540476Y-95854819D02*
X176159523Y-95854819D01*
X129489523Y-76469580D02*
X129441904Y-76517200D01*
X129441904Y-76517200D02*
X129299047Y-76564819D01*
X129299047Y-76564819D02*
X129203809Y-76564819D01*
X129203809Y-76564819D02*
X129060952Y-76517200D01*
X129060952Y-76517200D02*
X128965714Y-76421961D01*
X128965714Y-76421961D02*
X128918095Y-76326723D01*
X128918095Y-76326723D02*
X128870476Y-76136247D01*
X128870476Y-76136247D02*
X128870476Y-75993390D01*
X128870476Y-75993390D02*
X128918095Y-75802914D01*
X128918095Y-75802914D02*
X128965714Y-75707676D01*
X128965714Y-75707676D02*
X129060952Y-75612438D01*
X129060952Y-75612438D02*
X129203809Y-75564819D01*
X129203809Y-75564819D02*
X129299047Y-75564819D01*
X129299047Y-75564819D02*
X129441904Y-75612438D01*
X129441904Y-75612438D02*
X129489523Y-75660057D01*
X129918095Y-76564819D02*
X129918095Y-75564819D01*
X129918095Y-75564819D02*
X130489523Y-76564819D01*
X130489523Y-76564819D02*
X130489523Y-75564819D01*
X131489523Y-76564819D02*
X130918095Y-76564819D01*
X131203809Y-76564819D02*
X131203809Y-75564819D01*
X131203809Y-75564819D02*
X131108571Y-75707676D01*
X131108571Y-75707676D02*
X131013333Y-75802914D01*
X131013333Y-75802914D02*
X130918095Y-75850533D01*
X161743333Y-86344819D02*
X161410000Y-85868628D01*
X161171905Y-86344819D02*
X161171905Y-85344819D01*
X161171905Y-85344819D02*
X161552857Y-85344819D01*
X161552857Y-85344819D02*
X161648095Y-85392438D01*
X161648095Y-85392438D02*
X161695714Y-85440057D01*
X161695714Y-85440057D02*
X161743333Y-85535295D01*
X161743333Y-85535295D02*
X161743333Y-85678152D01*
X161743333Y-85678152D02*
X161695714Y-85773390D01*
X161695714Y-85773390D02*
X161648095Y-85821009D01*
X161648095Y-85821009D02*
X161552857Y-85868628D01*
X161552857Y-85868628D02*
X161171905Y-85868628D01*
X162076667Y-85344819D02*
X162695714Y-85344819D01*
X162695714Y-85344819D02*
X162362381Y-85725771D01*
X162362381Y-85725771D02*
X162505238Y-85725771D01*
X162505238Y-85725771D02*
X162600476Y-85773390D01*
X162600476Y-85773390D02*
X162648095Y-85821009D01*
X162648095Y-85821009D02*
X162695714Y-85916247D01*
X162695714Y-85916247D02*
X162695714Y-86154342D01*
X162695714Y-86154342D02*
X162648095Y-86249580D01*
X162648095Y-86249580D02*
X162600476Y-86297200D01*
X162600476Y-86297200D02*
X162505238Y-86344819D01*
X162505238Y-86344819D02*
X162219524Y-86344819D01*
X162219524Y-86344819D02*
X162124286Y-86297200D01*
X162124286Y-86297200D02*
X162076667Y-86249580D01*
D15*
X128240000Y-77260000D02*
X126910000Y-77260000D01*
X128240000Y-75930000D02*
X128240000Y-77260000D01*
X128240000Y-74659999D02*
X128240000Y-72060000D01*
X128240000Y-74659999D02*
X125580000Y-74659999D01*
X128240000Y-72060000D02*
X125580000Y-72060000D01*
X125580000Y-74659999D02*
X125580000Y-72060000D01*
X165265000Y-81029801D02*
X165265000Y-80629800D01*
X165065000Y-80829801D02*
X165465000Y-80829801D01*
X164380000Y-78760000D02*
X165620000Y-78760000D01*
X167300000Y-78760000D02*
X168540000Y-78760000D01*
X164380000Y-78720001D02*
X165620000Y-78720000D01*
X167300000Y-78720000D02*
X168540000Y-78720001D01*
X164381000Y-78679999D02*
X165620000Y-78680000D01*
X167300000Y-78680000D02*
X168539000Y-78679999D01*
X164383000Y-78640000D02*
X165620000Y-78640000D01*
X167300000Y-78640000D02*
X168537000Y-78640000D01*
X164386000Y-78600000D02*
X165620000Y-78600000D01*
X167300000Y-78600000D02*
X168534000Y-78600000D01*
X164388999Y-78560000D02*
X165620000Y-78560000D01*
X167300000Y-78560000D02*
X168531001Y-78560000D01*
X164393000Y-78520000D02*
X165620000Y-78520000D01*
X167300000Y-78520000D02*
X168527000Y-78520000D01*
X164398000Y-78480000D02*
X165620000Y-78480000D01*
X167300000Y-78480000D02*
X168522000Y-78480000D01*
X164404000Y-78440000D02*
X165620000Y-78440000D01*
X167300000Y-78440000D02*
X168516000Y-78440000D01*
X164410001Y-78400000D02*
X165620000Y-78400000D01*
X167300000Y-78400000D02*
X168509999Y-78400000D01*
X164418000Y-78360000D02*
X165620000Y-78360000D01*
X167300000Y-78360000D02*
X168502000Y-78360000D01*
X164426000Y-78320000D02*
X165620000Y-78320000D01*
X167300000Y-78320000D02*
X168494000Y-78320000D01*
X164435000Y-78280000D02*
X165620000Y-78280000D01*
X167300000Y-78280000D02*
X168485000Y-78280000D01*
X164444000Y-78240000D02*
X165620000Y-78240000D01*
X167300000Y-78240000D02*
X168476000Y-78240000D01*
X164455000Y-78200000D02*
X165620000Y-78200000D01*
X167300000Y-78200000D02*
X168465000Y-78200000D01*
X164466000Y-78160000D02*
X165620000Y-78160000D01*
X167300000Y-78160000D02*
X168454000Y-78160000D01*
X164478000Y-78120000D02*
X165620000Y-78120000D01*
X167300000Y-78120000D02*
X168442000Y-78120000D01*
X164492000Y-78080000D02*
X165620000Y-78080000D01*
X167300000Y-78080000D02*
X168428000Y-78080000D01*
X164506000Y-78039000D02*
X165620000Y-78039000D01*
X167300000Y-78039000D02*
X168414000Y-78039000D01*
X164520000Y-77999000D02*
X165620000Y-77999000D01*
X167300000Y-77999000D02*
X168400000Y-77999000D01*
X164536000Y-77959000D02*
X165620000Y-77959000D01*
X167300000Y-77959000D02*
X168384000Y-77959000D01*
X164552999Y-77919000D02*
X165620000Y-77919000D01*
X167300000Y-77919000D02*
X168367001Y-77919000D01*
X164571000Y-77879000D02*
X165620000Y-77879000D01*
X167300000Y-77879000D02*
X168349000Y-77879000D01*
X164590000Y-77839000D02*
X165620000Y-77839000D01*
X167300000Y-77839000D02*
X168330000Y-77839000D01*
X164609000Y-77799000D02*
X165620000Y-77799000D01*
X167300000Y-77799000D02*
X168311000Y-77799000D01*
X164630001Y-77759000D02*
X165620000Y-77759000D01*
X167300000Y-77759000D02*
X168289999Y-77759000D01*
X164652000Y-77719000D02*
X165620000Y-77719000D01*
X167300000Y-77719000D02*
X168268000Y-77719000D01*
X164675000Y-77679000D02*
X165620000Y-77679000D01*
X167300000Y-77679000D02*
X168245000Y-77679000D01*
X164700000Y-77639000D02*
X165620000Y-77639000D01*
X167300000Y-77639000D02*
X168220000Y-77639000D01*
X164725000Y-77599000D02*
X165620000Y-77599000D01*
X167300000Y-77599000D02*
X168195000Y-77599000D01*
X164752000Y-77559000D02*
X165620000Y-77559000D01*
X167300000Y-77559000D02*
X168168000Y-77559000D01*
X164780000Y-77519000D02*
X165620000Y-77519000D01*
X167300000Y-77519000D02*
X168140000Y-77519000D01*
X164810000Y-77479000D02*
X165620000Y-77479000D01*
X167300000Y-77479000D02*
X168110000Y-77479000D01*
X164841000Y-77439000D02*
X165620000Y-77439000D01*
X167300000Y-77439000D02*
X168079000Y-77439000D01*
X164873000Y-77399000D02*
X165620000Y-77399000D01*
X167300000Y-77399000D02*
X168047000Y-77399000D01*
X164908000Y-77359000D02*
X165620000Y-77359000D01*
X167300000Y-77359000D02*
X168012000Y-77359000D01*
X164944000Y-77319000D02*
X165620000Y-77319000D01*
X167300000Y-77319000D02*
X167976000Y-77319000D01*
X164982000Y-77279000D02*
X165620000Y-77279000D01*
X167300000Y-77279000D02*
X167938000Y-77279000D01*
X165022000Y-77239000D02*
X165620000Y-77239000D01*
X167300000Y-77239000D02*
X167898000Y-77239000D01*
X165064000Y-77199000D02*
X165620000Y-77199000D01*
X167300000Y-77199000D02*
X167856000Y-77199000D01*
X165109000Y-77159000D02*
X167811000Y-77159000D01*
X165156000Y-77119000D02*
X167764000Y-77119000D01*
X165206001Y-77079000D02*
X167713999Y-77079000D01*
X165260000Y-77039000D02*
X167660000Y-77039000D01*
X165318000Y-76999000D02*
X167602000Y-76999000D01*
X165380000Y-76959000D02*
X167540000Y-76959000D01*
X165447000Y-76919000D02*
X167473000Y-76919000D01*
X165520001Y-76879000D02*
X167399999Y-76879000D01*
X165601000Y-76839000D02*
X167319000Y-76839000D01*
X165692000Y-76799001D02*
X167228000Y-76799001D01*
X165796000Y-76759000D02*
X167124000Y-76759000D01*
X165923000Y-76719000D02*
X166997000Y-76719000D01*
X166090000Y-76679000D02*
X166830000Y-76679000D01*
X168579999Y-78760000D02*
G75*
G02*
X164340001Y-78760000I-2119999J0D01*
G01*
X164340001Y-78760000D02*
G75*
G02*
X168579999Y-78760000I2119999J0D01*
G01*
X129590000Y-84300000D02*
X129590000Y-82970000D01*
X130920000Y-84300000D02*
X129590000Y-84300000D01*
X132190001Y-84300000D02*
X155110000Y-84300000D01*
X132190001Y-84300000D02*
X132190000Y-81700000D01*
X155110000Y-84300000D02*
X155110000Y-79100000D01*
X129590000Y-81699999D02*
X129590000Y-79100000D01*
X132190000Y-81700000D02*
X129590000Y-81699999D01*
X129590000Y-79100000D02*
X155110000Y-79100000D01*
X184040000Y-87600000D02*
X169340000Y-87600000D01*
X184040000Y-78400000D02*
X184040000Y-87600000D01*
X175240000Y-78400000D02*
X184040000Y-78400000D01*
X170190000Y-87800000D02*
X169140000Y-87800000D01*
X169340000Y-87600000D02*
X169340000Y-85000000D01*
X169340000Y-81100000D02*
X169340000Y-78400000D01*
X169340000Y-78400000D02*
X171240000Y-78400000D01*
X169140000Y-86750000D02*
X169140000Y-87800000D01*
X161406000Y-78070000D02*
X161250000Y-78070000D01*
X159090000Y-78070000D02*
X158934000Y-78070000D01*
X161405516Y-78070000D02*
G75*
G02*
X161248609Y-81302336I-1235516J-1560001D01*
G01*
X161250000Y-78589039D02*
G75*
G02*
X161249838Y-80671131I-1080000J-1040962D01*
G01*
X159091392Y-81302335D02*
G75*
G02*
X158934485Y-78070001I1078608J1672334D01*
G01*
X159090163Y-80671130D02*
G75*
G02*
X159090001Y-78589040I1079837J1041129D01*
G01*
X176594199Y-74849691D02*
X176594199Y-72249692D01*
X179254199Y-72249692D02*
X176594199Y-72249692D01*
X179254199Y-74849691D02*
X176594199Y-74849691D01*
X179254199Y-74849691D02*
X179254199Y-72249692D01*
X179254199Y-76119692D02*
X179254199Y-77449692D01*
X179254199Y-77449692D02*
X177924199Y-77449692D01*
X158510000Y-87110000D02*
X165050000Y-87110000D01*
X165050000Y-87110000D02*
X165050000Y-84370000D01*
X157740000Y-85740000D02*
X158509999Y-85740000D01*
X165820000Y-85740000D02*
X165050000Y-85740000D01*
X158510000Y-84370000D02*
X158510000Y-87110000D01*
X165050000Y-84370000D02*
X158510000Y-84370000D01*
%LPC*%
D16*
X177247350Y-96253900D02*
X177133050Y-105753500D01*
X127890000Y-105740000D01*
X127940800Y-96240400D01*
X177247350Y-96253900D01*
G36*
X177247350Y-96253900D02*
G01*
X177133050Y-105753500D01*
X127890000Y-105740000D01*
X127940800Y-96240400D01*
X177247350Y-96253900D01*
G37*
X176117250Y-65862200D02*
X176002950Y-75361800D01*
X128739900Y-75298300D01*
X128790700Y-65798700D01*
X176117250Y-65862200D01*
G36*
X176117250Y-65862200D02*
G01*
X176002950Y-75361800D01*
X128739900Y-75298300D01*
X128790700Y-65798700D01*
X176117250Y-65862200D01*
G37*
D17*
X126910000Y-75930000D03*
D18*
X126910000Y-73390000D03*
D19*
X166460000Y-79510000D03*
D20*
X166460000Y-78010000D03*
D17*
X130920000Y-82970000D03*
D18*
X130920000Y-80430000D03*
X133460000Y-82970000D03*
X133460000Y-80430000D03*
X135999999Y-82970000D03*
X136000000Y-80430000D03*
X138540000Y-82970000D03*
X138540000Y-80430000D03*
X141080000Y-82970000D03*
X141080000Y-80430000D03*
X143620000Y-82970000D03*
X143620000Y-80430000D03*
X146160000Y-82970000D03*
X146160000Y-80430000D03*
X148700001Y-82970000D03*
X148700000Y-80430000D03*
X151240000Y-82970000D03*
X151240000Y-80430000D03*
X153780000Y-82970000D03*
X153780000Y-80430000D03*
D21*
X173240000Y-78300000D03*
D22*
X176240000Y-83000000D03*
D23*
X170240000Y-83000000D03*
D24*
X160170000Y-78360000D03*
D25*
X160170000Y-80900000D03*
D18*
X177924199Y-73579692D03*
D17*
X177924199Y-76119692D03*
D26*
X131040000Y-101240000D03*
X135000000Y-101240000D03*
X138960000Y-101240000D03*
X142920000Y-101240000D03*
X146880000Y-101240000D03*
X150840000Y-101240000D03*
X154800000Y-101240000D03*
X158760000Y-101240000D03*
X162720000Y-101240000D03*
X166680000Y-101240000D03*
X170640000Y-101240000D03*
X174600000Y-101240000D03*
X130860799Y-70408800D03*
X134820799Y-70408800D03*
X138780799Y-70408800D03*
X142740799Y-70408800D03*
X146700799Y-70408800D03*
X150660799Y-70408800D03*
X154620799Y-70408800D03*
X158580799Y-70408800D03*
X162540799Y-70408800D03*
X166500799Y-70408800D03*
X170460799Y-70408800D03*
X174420799Y-70408800D03*
D27*
X130920000Y-89390000D03*
D28*
X134880089Y-89390000D03*
X138840180Y-89390000D03*
X142800269Y-89390000D03*
X146760360Y-89390000D03*
X150720449Y-89390000D03*
X154680540Y-89390000D03*
X158640629Y-89390000D03*
X162600720Y-89390000D03*
X166560809Y-89390000D03*
X170520900Y-89390000D03*
X174480999Y-89390000D03*
X130920000Y-92790000D03*
X134880090Y-92790001D03*
X138840180Y-92790000D03*
X142800270Y-92790001D03*
X146760360Y-92790000D03*
X150720450Y-92790001D03*
X154680540Y-92790000D03*
X158640630Y-92790001D03*
X162600720Y-92790000D03*
X166560809Y-92790000D03*
X170520900Y-92790000D03*
D29*
X174481000Y-92790001D03*
D30*
X166860000Y-85740000D03*
D31*
X156700000Y-85740000D03*
%LPD*%
D32*
X182140000Y-66540000D02*
X182130000Y-94510000D01*
X181350000Y-65760000D02*
X182140000Y-66540000D01*
X123240000Y-66560000D02*
X123800000Y-65790000D01*
X123240000Y-94550000D02*
X123240000Y-66560000D01*
X127991000Y-94547100D02*
X123240000Y-94550000D01*
X177140000Y-94509000D02*
X182130000Y-94510000D01*
X123800000Y-65790000D02*
X181350000Y-65760000D01*
X136436500Y-96731500D02*
X137516000Y-96731500D01*
X165265500Y-96668000D02*
X164186000Y-96668000D01*
X129388000Y-105748500D02*
X135039500Y-105748500D01*
X177140000Y-104351500D02*
X177140000Y-94509000D01*
X138913000Y-105748500D02*
X162789000Y-105748500D01*
X166662500Y-105748500D02*
X175743000Y-105748500D01*
X165265500Y-104351500D02*
X165265500Y-96668000D01*
X136436500Y-96731500D02*
X136436500Y-104351500D01*
X138913000Y-105748500D02*
G75*
G02*
X137516000Y-104351500I0J1397000D01*
G01*
X136436500Y-104351500D02*
G75*
G02*
X135039500Y-105748500I-1397000J0D01*
G01*
X164186000Y-96668000D02*
X164186000Y-104351500D01*
X177140000Y-104351500D02*
G75*
G02*
X175743000Y-105748500I-1397000J0D01*
G01*
X164186000Y-104351500D02*
G75*
G02*
X162789000Y-105748500I-1397000J0D01*
G01*
X137516000Y-104351500D02*
X137516000Y-96731500D01*
X166662500Y-105748500D02*
G75*
G02*
X165265500Y-104351500I0J1397000D01*
G01*
X129388000Y-105748500D02*
G75*
G02*
X127991000Y-104351500I0J1397000D01*
G01*
X127827228Y-68620000D02*
G75*
G02*
X124452772Y-68620000I-1687228J0D01*
G01*
X124452772Y-68620000D02*
G75*
G02*
X127827228Y-68620000I1687228J0D01*
G01*
X127827228Y-91510000D02*
G75*
G02*
X124452772Y-91510000I-1687228J0D01*
G01*
X124452772Y-91510000D02*
G75*
G02*
X127827228Y-91510000I1687228J0D01*
G01*
X127991000Y-104351500D02*
X127991000Y-94547100D01*
X180879528Y-68620800D02*
G75*
G02*
X177505072Y-68620800I-1687228J0D01*
G01*
X177505072Y-68620800D02*
G75*
G02*
X180879528Y-68620800I1687228J0D01*
G01*
X180947227Y-91680000D02*
G75*
G02*
X177572773Y-91680000I-1687227J0D01*
G01*
X177572773Y-91680000D02*
G75*
G02*
X180947227Y-91680000I1687227J0D01*
G01*
M02*
