G04 #@! TF.GenerationSoftware,KiCad,Pcbnew,8.0.6*
G04 #@! TF.CreationDate,2024-11-18T08:46:01-05:00*
G04 #@! TF.ProjectId,cbmSD-pass,63626d53-442d-4706-9173-732e6b696361,rev?*
G04 #@! TF.SameCoordinates,Original*
G04 #@! TF.FileFunction,Soldermask,Bot*
G04 #@! TF.FilePolarity,Negative*
%FSLAX46Y46*%
G04 Gerber Fmt 4.6, Leading zero omitted, Abs format (unit mm)*
G04 Created by KiCad (PCBNEW 8.0.6) date 2024-11-18 08:46:01*
%MOMM*%
%LPD*%
G01*
G04 APERTURE LIST*
G04 Aperture macros list*
%AMRoundRect*
0 Rectangle with rounded corners*
0 $1 Rounding radius*
0 $2 $3 $4 $5 $6 $7 $8 $9 X,Y pos of 4 corners*
0 Add a 4 corners polygon primitive as box body*
4,1,4,$2,$3,$4,$5,$6,$7,$8,$9,$2,$3,0*
0 Add four circle primitives for the rounded corners*
1,1,$1+$1,$2,$3*
1,1,$1+$1,$4,$5*
1,1,$1+$1,$6,$7*
1,1,$1+$1,$8,$9*
0 Add four rect primitives between the rounded corners*
20,1,$1+$1,$2,$3,$4,$5,0*
20,1,$1+$1,$4,$5,$6,$7,0*
20,1,$1+$1,$6,$7,$8,$9,0*
20,1,$1+$1,$8,$9,$2,$3,0*%
G04 Aperture macros list end*
%ADD10C,0.100000*%
%ADD11R,1.700000X1.700000*%
%ADD12O,1.700000X1.700000*%
%ADD13R,1.200000X1.200000*%
%ADD14C,1.200000*%
%ADD15RoundRect,0.875000X0.875000X0.875000X-0.875000X0.875000X-0.875000X-0.875000X0.875000X-0.875000X0*%
%ADD16RoundRect,0.750000X0.750000X1.000000X-0.750000X1.000000X-0.750000X-1.000000X0.750000X-1.000000X0*%
%ADD17R,3.500000X3.500000*%
%ADD18R,1.800000X1.800000*%
%ADD19C,1.800000*%
%ADD20O,2.410000X8.760000*%
%ADD21RoundRect,0.273700X-0.576300X0.576300X-0.576300X-0.576300X0.576300X-0.576300X0.576300X0.576300X0*%
%ADD22C,1.700000*%
%ADD23C,1.550000*%
%ADD24C,1.600000*%
%ADD25O,1.600000X1.600000*%
G04 #@! TA.AperFunction,Profile*
%ADD26C,0.200660*%
G04 #@! TD*
G04 APERTURE END LIST*
D10*
X177210000Y-96235000D02*
X177210000Y-105760000D01*
X128046000Y-105769200D01*
X128046000Y-96244200D01*
X130029500Y-96184200D01*
X177210000Y-96235000D01*
G36*
X177210000Y-96235000D02*
G01*
X177210000Y-105760000D01*
X128046000Y-105769200D01*
X128046000Y-96244200D01*
X130029500Y-96184200D01*
X177210000Y-96235000D01*
G37*
X176072800Y-65849500D02*
X176072800Y-75374500D01*
X128828800Y-75323700D01*
X128828800Y-65798700D01*
X128892300Y-65798700D01*
X176072800Y-65849500D01*
G36*
X176072800Y-65849500D02*
G01*
X176072800Y-75374500D01*
X128828800Y-75323700D01*
X128828800Y-65798700D01*
X128892300Y-65798700D01*
X176072800Y-65849500D01*
G37*
D11*
X126910000Y-75930000D03*
D12*
X126910000Y-73390000D03*
D13*
X166460000Y-79510000D03*
D14*
X166460000Y-78010000D03*
D11*
X130920000Y-82970000D03*
D12*
X130920000Y-80430000D03*
X133460000Y-82970000D03*
X133460000Y-80430000D03*
X135999999Y-82970000D03*
X136000000Y-80430000D03*
X138540000Y-82970000D03*
X138540000Y-80430000D03*
X141080000Y-82970000D03*
X141080000Y-80430000D03*
X143620000Y-82970000D03*
X143620000Y-80430000D03*
X146160000Y-82970000D03*
X146160000Y-80430000D03*
X148700001Y-82970000D03*
X148700000Y-80430000D03*
X151240000Y-82970000D03*
X151240000Y-80430000D03*
X153780000Y-82970000D03*
X153780000Y-80430000D03*
D15*
X173240000Y-78300000D03*
D16*
X176240000Y-83000000D03*
D17*
X170240000Y-83000000D03*
D18*
X160170000Y-78360000D03*
D19*
X160170000Y-80900000D03*
D12*
X177924199Y-73579692D03*
D11*
X177924199Y-76119692D03*
D20*
X131040000Y-101240000D03*
X135000000Y-101240000D03*
X138960000Y-101240000D03*
X142920000Y-101240000D03*
X146880000Y-101240000D03*
X150840000Y-101240000D03*
X154800000Y-101240000D03*
X158760000Y-101240000D03*
X162720000Y-101240000D03*
X166680000Y-101240000D03*
X170640000Y-101240000D03*
X174600000Y-101240000D03*
X130860799Y-70408800D03*
X134820799Y-70408800D03*
X138780799Y-70408800D03*
X142740799Y-70408800D03*
X146700799Y-70408800D03*
X150660799Y-70408800D03*
X154620799Y-70408800D03*
X158580799Y-70408800D03*
X162540799Y-70408800D03*
X166500799Y-70408800D03*
X170460799Y-70408800D03*
X174420799Y-70408800D03*
D21*
X130920000Y-89390000D03*
D22*
X134880089Y-89390000D03*
X138840180Y-89390000D03*
X142800269Y-89390000D03*
X146760360Y-89390000D03*
X150720449Y-89390000D03*
X154680540Y-89390000D03*
X158640629Y-89390000D03*
X162600720Y-89390000D03*
X166560809Y-89390000D03*
X170520900Y-89390000D03*
X174480999Y-89390000D03*
X130920000Y-92790000D03*
X134880090Y-92790001D03*
X138840180Y-92790000D03*
X142800270Y-92790001D03*
X146760360Y-92790000D03*
X150720450Y-92790001D03*
X154680540Y-92790000D03*
X158640630Y-92790001D03*
X162600720Y-92790000D03*
X166560809Y-92790000D03*
X170520900Y-92790000D03*
D23*
X174481000Y-92790001D03*
D24*
X166860000Y-85740000D03*
D25*
X156700000Y-85740000D03*
D26*
X182140000Y-66540000D02*
X182130000Y-94510000D01*
X181350000Y-65760000D02*
X182140000Y-66540000D01*
X123240000Y-66560000D02*
X123800000Y-65790000D01*
X123240000Y-94550000D02*
X123240000Y-66560000D01*
X127991000Y-94547100D02*
X123240000Y-94550000D01*
X177140000Y-94509000D02*
X182130000Y-94510000D01*
X123800000Y-65790000D02*
X181350000Y-65760000D01*
X136436500Y-96731500D02*
X137516000Y-96731500D01*
X165265500Y-96668000D02*
X164186000Y-96668000D01*
X129388000Y-105748500D02*
X135039500Y-105748500D01*
X177140000Y-104351500D02*
X177140000Y-94509000D01*
X138913000Y-105748500D02*
X162789000Y-105748500D01*
X166662500Y-105748500D02*
X175743000Y-105748500D01*
X165265500Y-104351500D02*
X165265500Y-96668000D01*
X136436500Y-96731500D02*
X136436500Y-104351500D01*
X138913000Y-105748500D02*
G75*
G02*
X137516000Y-104351500I0J1397000D01*
G01*
X136436500Y-104351500D02*
G75*
G02*
X135039500Y-105748500I-1397000J0D01*
G01*
X164186000Y-96668000D02*
X164186000Y-104351500D01*
X177140000Y-104351500D02*
G75*
G02*
X175743000Y-105748500I-1397000J0D01*
G01*
X164186000Y-104351500D02*
G75*
G02*
X162789000Y-105748500I-1397000J0D01*
G01*
X137516000Y-104351500D02*
X137516000Y-96731500D01*
X166662500Y-105748500D02*
G75*
G02*
X165265500Y-104351500I0J1397000D01*
G01*
X129388000Y-105748500D02*
G75*
G02*
X127991000Y-104351500I0J1397000D01*
G01*
X127827228Y-68620000D02*
G75*
G02*
X124452772Y-68620000I-1687228J0D01*
G01*
X124452772Y-68620000D02*
G75*
G02*
X127827228Y-68620000I1687228J0D01*
G01*
X127827228Y-91510000D02*
G75*
G02*
X124452772Y-91510000I-1687228J0D01*
G01*
X124452772Y-91510000D02*
G75*
G02*
X127827228Y-91510000I1687228J0D01*
G01*
X127991000Y-104351500D02*
X127991000Y-94547100D01*
X180879528Y-68620800D02*
G75*
G02*
X177505072Y-68620800I-1687228J0D01*
G01*
X177505072Y-68620800D02*
G75*
G02*
X180879528Y-68620800I1687228J0D01*
G01*
X180947227Y-91680000D02*
G75*
G02*
X177572773Y-91680000I-1687227J0D01*
G01*
X177572773Y-91680000D02*
G75*
G02*
X180947227Y-91680000I1687227J0D01*
G01*
M02*
