G04 #@! TF.GenerationSoftware,KiCad,Pcbnew,8.0.6*
G04 #@! TF.CreationDate,2024-11-18T08:46:01-05:00*
G04 #@! TF.ProjectId,cbmSD-pass,63626d53-442d-4706-9173-732e6b696361,rev?*
G04 #@! TF.SameCoordinates,Original*
G04 #@! TF.FileFunction,Copper,L1,Top*
G04 #@! TF.FilePolarity,Positive*
%FSLAX46Y46*%
G04 Gerber Fmt 4.6, Leading zero omitted, Abs format (unit mm)*
G04 Created by KiCad (PCBNEW 8.0.6) date 2024-11-18 08:46:01*
%MOMM*%
%LPD*%
G01*
G04 APERTURE LIST*
G04 Aperture macros list*
%AMRoundRect*
0 Rectangle with rounded corners*
0 $1 Rounding radius*
0 $2 $3 $4 $5 $6 $7 $8 $9 X,Y pos of 4 corners*
0 Add a 4 corners polygon primitive as box body*
4,1,4,$2,$3,$4,$5,$6,$7,$8,$9,$2,$3,0*
0 Add four circle primitives for the rounded corners*
1,1,$1+$1,$2,$3*
1,1,$1+$1,$4,$5*
1,1,$1+$1,$6,$7*
1,1,$1+$1,$8,$9*
0 Add four rect primitives between the rounded corners*
20,1,$1+$1,$2,$3,$4,$5,0*
20,1,$1+$1,$4,$5,$6,$7,0*
20,1,$1+$1,$6,$7,$8,$9,0*
20,1,$1+$1,$8,$9,$2,$3,0*%
G04 Aperture macros list end*
G04 #@! TA.AperFunction,ComponentPad*
%ADD10R,1.700000X1.700000*%
G04 #@! TD*
G04 #@! TA.AperFunction,ComponentPad*
%ADD11O,1.700000X1.700000*%
G04 #@! TD*
G04 #@! TA.AperFunction,ComponentPad*
%ADD12R,1.200000X1.200000*%
G04 #@! TD*
G04 #@! TA.AperFunction,ComponentPad*
%ADD13C,1.200000*%
G04 #@! TD*
G04 #@! TA.AperFunction,ComponentPad*
%ADD14RoundRect,0.875000X0.875000X0.875000X-0.875000X0.875000X-0.875000X-0.875000X0.875000X-0.875000X0*%
G04 #@! TD*
G04 #@! TA.AperFunction,ComponentPad*
%ADD15RoundRect,0.750000X0.750000X1.000000X-0.750000X1.000000X-0.750000X-1.000000X0.750000X-1.000000X0*%
G04 #@! TD*
G04 #@! TA.AperFunction,ComponentPad*
%ADD16R,3.500000X3.500000*%
G04 #@! TD*
G04 #@! TA.AperFunction,ComponentPad*
%ADD17R,1.800000X1.800000*%
G04 #@! TD*
G04 #@! TA.AperFunction,ComponentPad*
%ADD18C,1.800000*%
G04 #@! TD*
G04 #@! TA.AperFunction,ConnectorPad*
%ADD19O,2.410000X8.760000*%
G04 #@! TD*
G04 #@! TA.AperFunction,ComponentPad*
%ADD20RoundRect,0.273700X-0.576300X0.576300X-0.576300X-0.576300X0.576300X-0.576300X0.576300X0.576300X0*%
G04 #@! TD*
G04 #@! TA.AperFunction,ComponentPad*
%ADD21C,1.700000*%
G04 #@! TD*
G04 #@! TA.AperFunction,ComponentPad*
%ADD22C,1.550000*%
G04 #@! TD*
G04 #@! TA.AperFunction,ComponentPad*
%ADD23C,1.600000*%
G04 #@! TD*
G04 #@! TA.AperFunction,ComponentPad*
%ADD24O,1.600000X1.600000*%
G04 #@! TD*
G04 #@! TA.AperFunction,ViaPad*
%ADD25C,1.219200*%
G04 #@! TD*
G04 #@! TA.AperFunction,ViaPad*
%ADD26C,1.422400*%
G04 #@! TD*
G04 #@! TA.AperFunction,Conductor*
%ADD27C,0.203200*%
G04 #@! TD*
G04 #@! TA.AperFunction,Conductor*
%ADD28C,0.660400*%
G04 #@! TD*
G04 #@! TA.AperFunction,Profile*
%ADD29C,0.200660*%
G04 #@! TD*
G04 APERTURE END LIST*
D10*
X126910000Y-75930000D03*
D11*
X126910000Y-73390000D03*
D12*
X166460000Y-79510000D03*
D13*
X166460000Y-78010000D03*
D10*
X130920000Y-82970000D03*
D11*
X130920000Y-80430000D03*
X133460000Y-82970000D03*
X133460000Y-80430000D03*
X135999999Y-82970000D03*
X136000000Y-80430000D03*
X138540000Y-82970000D03*
X138540000Y-80430000D03*
X141080000Y-82970000D03*
X141080000Y-80430000D03*
X143620000Y-82970000D03*
X143620000Y-80430000D03*
X146160000Y-82970000D03*
X146160000Y-80430000D03*
X148700001Y-82970000D03*
X148700000Y-80430000D03*
X151240000Y-82970000D03*
X151240000Y-80430000D03*
X153780000Y-82970000D03*
X153780000Y-80430000D03*
D14*
X173240000Y-78300000D03*
D15*
X176240000Y-83000000D03*
D16*
X170240000Y-83000000D03*
D17*
X160170000Y-78360000D03*
D18*
X160170000Y-80900000D03*
D11*
X177924199Y-73579692D03*
D10*
X177924199Y-76119692D03*
D19*
X131040000Y-101240000D03*
X135000000Y-101240000D03*
X138960000Y-101240000D03*
X142920000Y-101240000D03*
X146880000Y-101240000D03*
X150840000Y-101240000D03*
X154800000Y-101240000D03*
X158760000Y-101240000D03*
X162720000Y-101240000D03*
X166680000Y-101240000D03*
X170640000Y-101240000D03*
X174600000Y-101240000D03*
X130860799Y-70408800D03*
X134820799Y-70408800D03*
X138780799Y-70408800D03*
X142740799Y-70408800D03*
X146700799Y-70408800D03*
X150660799Y-70408800D03*
X154620799Y-70408800D03*
X158580799Y-70408800D03*
X162540799Y-70408800D03*
X166500799Y-70408800D03*
X170460799Y-70408800D03*
X174420799Y-70408800D03*
D20*
X130920000Y-89390000D03*
D21*
X134880089Y-89390000D03*
X138840180Y-89390000D03*
X142800269Y-89390000D03*
X146760360Y-89390000D03*
X150720449Y-89390000D03*
X154680540Y-89390000D03*
X158640629Y-89390000D03*
X162600720Y-89390000D03*
X166560809Y-89390000D03*
X170520900Y-89390000D03*
X174480999Y-89390000D03*
X130920000Y-92790000D03*
X134880090Y-92790001D03*
X138840180Y-92790000D03*
X142800270Y-92790001D03*
X146760360Y-92790000D03*
X150720450Y-92790001D03*
X154680540Y-92790000D03*
X158640630Y-92790001D03*
X162600720Y-92790000D03*
X166560809Y-92790000D03*
X170520900Y-92790000D03*
D22*
X174481000Y-92790001D03*
D23*
X166860000Y-85740000D03*
D24*
X156700000Y-85740000D03*
D25*
X137330000Y-84960000D03*
X142388421Y-85571579D03*
X139830000Y-84400000D03*
X176952800Y-79800000D03*
D26*
X156356000Y-80540000D03*
D25*
X157640000Y-77770000D03*
X149870000Y-77920000D03*
X143953421Y-76643421D03*
X141380000Y-76180000D03*
X137866399Y-76180000D03*
X135670000Y-76050000D03*
X132010000Y-76300000D03*
D27*
X153030000Y-91040540D02*
X153030000Y-93980000D01*
X153030000Y-93980000D02*
X154800000Y-95750000D01*
X154680540Y-89390000D02*
X153030000Y-91040540D01*
X154800000Y-95750000D02*
X154800000Y-101240000D01*
X148390000Y-94150000D02*
X146880000Y-95660000D01*
X146880000Y-95660000D02*
X146880000Y-101240000D01*
X148390000Y-91019640D02*
X148390000Y-94150000D01*
X146760360Y-89390000D02*
X148390000Y-91019640D01*
X129240000Y-93730000D02*
X131040000Y-95530000D01*
X129240000Y-91070000D02*
X129240000Y-93730000D01*
X130920000Y-89390000D02*
X129240000Y-91070000D01*
X131040000Y-95530000D02*
X131040000Y-101240000D01*
X133300000Y-94030000D02*
X135000000Y-95730000D01*
X135000000Y-95730000D02*
X135000000Y-101240000D01*
X134880089Y-89390000D02*
X133300000Y-90970089D01*
X133300000Y-90970089D02*
X133300000Y-94030000D01*
D28*
X165080000Y-83000000D02*
X166490000Y-83000000D01*
X166460000Y-81220000D02*
X166460000Y-82970000D01*
X166460000Y-81220000D02*
X166460000Y-79510000D01*
X166460000Y-81620000D02*
X166460000Y-81220000D01*
X166490000Y-83000000D02*
X170240000Y-83000000D01*
X166460000Y-82970000D02*
X166490000Y-83000000D01*
D27*
X174600000Y-95960000D02*
X174600000Y-101240000D01*
X172910000Y-94270000D02*
X174600000Y-95960000D01*
X172910000Y-90960999D02*
X172910000Y-94270000D01*
X174480999Y-89390000D02*
X172910000Y-90960999D01*
X170640000Y-96080000D02*
X170640000Y-101240000D01*
X168800000Y-94240000D02*
X170640000Y-96080000D01*
X168800000Y-91110900D02*
X168800000Y-94240000D01*
X170520900Y-89390000D02*
X168800000Y-91110900D01*
X164880000Y-94410000D02*
X166680000Y-96210000D01*
X166680000Y-96210000D02*
X166680000Y-101240000D01*
X164880000Y-91070809D02*
X164880000Y-94410000D01*
X166560809Y-89390000D02*
X164880000Y-91070809D01*
X162720000Y-95960000D02*
X162720000Y-101240000D01*
X160870000Y-91120720D02*
X160870000Y-94110000D01*
X162600720Y-89390000D02*
X160870000Y-91120720D01*
X160870000Y-94110000D02*
X162720000Y-95960000D01*
X158760000Y-95950000D02*
X158760000Y-101240000D01*
X157040000Y-94230000D02*
X158760000Y-95950000D01*
X158640629Y-89390000D02*
X157040000Y-90990629D01*
X157040000Y-90990629D02*
X157040000Y-94230000D01*
X150840000Y-96100000D02*
X150840000Y-101240000D01*
X149310000Y-94570000D02*
X150840000Y-96100000D01*
X150720449Y-89390000D02*
X149310000Y-90800449D01*
X149310000Y-90800449D02*
X149310000Y-94570000D01*
X142920000Y-96060000D02*
X142920000Y-101240000D01*
X141220000Y-94360000D02*
X142920000Y-96060000D01*
X141220000Y-90970269D02*
X141220000Y-94360000D01*
X142800269Y-89390000D02*
X141220000Y-90970269D01*
X138960000Y-96110000D02*
X138960000Y-101240000D01*
X137440000Y-94590000D02*
X138960000Y-96110000D01*
X137350000Y-93930000D02*
X137440000Y-94020000D01*
X137440000Y-94020000D02*
X137440000Y-94590000D01*
X138840180Y-89390000D02*
X137350000Y-90880180D01*
X137350000Y-90880180D02*
X137350000Y-93930000D01*
D28*
X178790000Y-84840000D02*
X178790000Y-78280000D01*
X177410000Y-86220000D02*
X178790000Y-84840000D01*
X178790000Y-78280000D02*
X177924199Y-77414199D01*
X171530000Y-86220000D02*
X177410000Y-86220000D01*
X170240000Y-84930000D02*
X171530000Y-86220000D01*
X170240000Y-83000000D02*
X170240000Y-84930000D01*
X177924199Y-77414199D02*
X177924199Y-76119692D01*
X165020000Y-83060000D02*
X165080000Y-83000000D01*
D27*
X141380000Y-76180000D02*
X141030000Y-76180000D01*
X141030000Y-76180000D02*
X138540000Y-78670000D01*
X138540000Y-78670000D02*
X138540000Y-80430000D01*
X136000000Y-78046399D02*
X136000000Y-80430000D01*
X137866399Y-76180000D02*
X136000000Y-78046399D01*
X133460000Y-77912566D02*
X133460000Y-80430000D01*
X135322566Y-76050000D02*
X133460000Y-77912566D01*
X135670000Y-76050000D02*
X135322566Y-76050000D01*
X130920000Y-77390000D02*
X130920000Y-80430000D01*
X132010000Y-76300000D02*
X130920000Y-77390000D01*
X149560000Y-76400000D02*
X150660799Y-75299201D01*
X150660799Y-75299201D02*
X150660799Y-70408800D01*
X144900000Y-80056866D02*
X148556866Y-76400000D01*
X144900000Y-81690000D02*
X144900000Y-80056866D01*
X143620000Y-82970000D02*
X144900000Y-81690000D01*
X148556866Y-76400000D02*
X149560000Y-76400000D01*
X149400000Y-76920000D02*
X153170000Y-76920000D01*
X153170000Y-76920000D02*
X154620799Y-75469201D01*
X147430000Y-78890000D02*
X149400000Y-76920000D01*
X154620799Y-75469201D02*
X154620799Y-70408800D01*
X147430000Y-81700000D02*
X147430000Y-78890000D01*
X146160000Y-82970000D02*
X147430000Y-81700000D01*
X158580799Y-75289201D02*
X158580799Y-70408800D01*
X153105264Y-78560000D02*
X155944464Y-75720800D01*
X155944464Y-75720800D02*
X158149200Y-75720800D01*
X151190000Y-78560000D02*
X153105264Y-78560000D01*
X149990000Y-79760000D02*
X151190000Y-78560000D01*
X148700001Y-82970000D02*
X149990000Y-81680001D01*
X149990000Y-81680001D02*
X149990000Y-79760000D01*
X158149200Y-75720800D02*
X158580799Y-75289201D01*
X156112800Y-76127200D02*
X161722800Y-76127200D01*
X161722800Y-76127200D02*
X162540799Y-75309201D01*
X152520000Y-79720000D02*
X156112800Y-76127200D01*
X162540799Y-75309201D02*
X162540799Y-70408800D01*
X152520000Y-81690000D02*
X152520000Y-79720000D01*
X151240000Y-82970000D02*
X152520000Y-81690000D01*
X157456400Y-76533600D02*
X165556400Y-76533600D01*
X165556400Y-76533600D02*
X166500799Y-75589201D01*
X166500799Y-75589201D02*
X166500799Y-70408800D01*
X155340000Y-78650000D02*
X157456400Y-76533600D01*
X155340000Y-81410000D02*
X155340000Y-78650000D01*
X153780000Y-82970000D02*
X155340000Y-81410000D01*
X170473500Y-75486500D02*
X170473500Y-70332600D01*
X158470000Y-76940000D02*
X169020000Y-76940000D01*
X157640000Y-77770000D02*
X158470000Y-76940000D01*
X169020000Y-76940000D02*
X170473500Y-75486500D01*
D28*
X156700000Y-80884000D02*
X156700000Y-83450000D01*
X156356000Y-80540000D02*
X156700000Y-80884000D01*
D27*
X140390000Y-91240180D02*
X138840180Y-92790000D01*
X140390000Y-88120000D02*
X140390000Y-91240180D01*
X137330000Y-85060000D02*
X140390000Y-88120000D01*
X137330000Y-84960000D02*
X137330000Y-85060000D01*
X130920000Y-89390000D02*
X130920000Y-82970000D01*
X157903701Y-87503600D02*
X164674409Y-87503600D01*
X157657301Y-87257200D02*
X157903701Y-87503600D01*
X153780000Y-86310000D02*
X154727200Y-87257200D01*
X154727200Y-87257200D02*
X157657301Y-87257200D01*
X153780000Y-82970000D02*
X153780000Y-86310000D01*
X164674409Y-87503600D02*
X166560809Y-89390000D01*
X161120720Y-87910000D02*
X162600720Y-89390000D01*
X157735365Y-87910000D02*
X161120720Y-87910000D01*
X157488965Y-87663600D02*
X157735365Y-87910000D01*
X152663600Y-87663600D02*
X157488965Y-87663600D01*
X151240000Y-86240000D02*
X152663600Y-87663600D01*
X151240000Y-82970000D02*
X151240000Y-86240000D01*
X157320629Y-88070000D02*
X158640629Y-89390000D01*
X152194736Y-88070000D02*
X157320629Y-88070000D01*
X151118336Y-86993600D02*
X152194736Y-88070000D01*
X149833600Y-86993600D02*
X151118336Y-86993600D01*
X148700001Y-85860001D02*
X149833600Y-86993600D01*
X148700001Y-82970000D02*
X148700001Y-85860001D01*
X152940000Y-89390000D02*
X154680540Y-89390000D01*
X150950000Y-87400000D02*
X152940000Y-89390000D01*
X149060000Y-87400000D02*
X150950000Y-87400000D01*
X146160000Y-82970000D02*
X146160000Y-84500000D01*
X146160000Y-84500000D02*
X149060000Y-87400000D01*
X145040000Y-91069640D02*
X145040000Y-88223158D01*
X146760360Y-92790000D02*
X145040000Y-91069640D01*
X145040000Y-88223158D02*
X142388421Y-85571579D01*
X144290000Y-91300271D02*
X142800270Y-92790001D01*
X144290000Y-88860000D02*
X144290000Y-91300271D01*
X139830000Y-84400000D02*
X144290000Y-88860000D01*
X142800269Y-89320269D02*
X142800269Y-89390000D01*
X138540000Y-82970000D02*
X138540000Y-85060000D01*
X138540000Y-85060000D02*
X142800269Y-89320269D01*
D28*
X165020000Y-83060000D02*
X157090000Y-83060000D01*
D27*
X175580000Y-76830000D02*
X176952800Y-78202800D01*
X174420799Y-75360000D02*
X174420799Y-75670799D01*
X174420799Y-75360000D02*
X174420799Y-70408800D01*
X174420799Y-75670799D02*
X175580000Y-76830000D01*
X176952800Y-78202800D02*
X176952800Y-79800000D01*
D28*
X157090000Y-83060000D02*
X156700000Y-83450000D01*
X156700000Y-83450000D02*
X156700000Y-86000000D01*
D27*
X148700000Y-79370000D02*
X148700000Y-80430000D01*
X149870000Y-77920000D02*
X149870000Y-78200000D01*
X149870000Y-78200000D02*
X148700000Y-79370000D01*
X143953421Y-77066579D02*
X141080000Y-79940000D01*
X143953421Y-76643421D02*
X143953421Y-77066579D01*
X141080000Y-79940000D02*
X141080000Y-80430000D01*
X146700799Y-75469201D02*
X146700799Y-70408800D01*
X142400000Y-79770000D02*
X146700799Y-75469201D01*
X142400000Y-81650000D02*
X142400000Y-79770000D01*
X141080000Y-82970000D02*
X142400000Y-81650000D01*
X150040000Y-89390000D02*
X150720449Y-89390000D01*
X143620000Y-82970000D02*
X150040000Y-89390000D01*
X141080000Y-82970000D02*
X146760360Y-88650360D01*
X146760360Y-88650360D02*
X146760360Y-89390000D01*
X135999999Y-85159999D02*
X138840180Y-88000180D01*
X138840180Y-88000180D02*
X138840180Y-89390000D01*
X135999999Y-82970000D02*
X135999999Y-85159999D01*
X133460000Y-82410000D02*
X133460000Y-82970000D01*
X134820799Y-75219201D02*
X132305200Y-77734800D01*
X132305200Y-81255200D02*
X133460000Y-82410000D01*
X134820799Y-70408800D02*
X134820799Y-75219201D01*
X132305200Y-77734800D02*
X132305200Y-81255200D01*
X138780799Y-77459201D02*
X138780799Y-70408800D01*
X137290000Y-78950000D02*
X138780799Y-77459201D01*
X137290000Y-81679999D02*
X137290000Y-78950000D01*
X135999999Y-82970000D02*
X137290000Y-81679999D01*
X136410000Y-91260091D02*
X134880090Y-92790001D01*
X136410000Y-87720000D02*
X136410000Y-91260091D01*
X134610000Y-85920000D02*
X136410000Y-87720000D01*
X134610000Y-83453134D02*
X134610000Y-85920000D01*
X134614800Y-83448334D02*
X134610000Y-83453134D01*
X134614800Y-81584800D02*
X134614800Y-83448334D01*
X133460000Y-80430000D02*
X134614800Y-81584800D01*
X133460000Y-82970000D02*
X133460000Y-87969911D01*
X133460000Y-87969911D02*
X134880089Y-89390000D01*
X132220000Y-91490000D02*
X130920000Y-92790000D01*
X132220000Y-81960400D02*
X132220000Y-91490000D01*
X130920000Y-80660400D02*
X132220000Y-81960400D01*
X130920000Y-80430000D02*
X130920000Y-80660400D01*
X129330000Y-81200000D02*
X129330000Y-81380000D01*
X129330000Y-76780000D02*
X129330000Y-81200000D01*
X129330000Y-81380000D02*
X130920000Y-82970000D01*
X130860799Y-75249201D02*
X129330000Y-76780000D01*
X130860799Y-70408800D02*
X130860799Y-75249201D01*
X142740799Y-75300799D02*
X142740799Y-70408800D01*
X142750000Y-75310000D02*
X142740799Y-75300799D01*
X142750000Y-76990000D02*
X142750000Y-75310000D01*
X139820000Y-79920000D02*
X142750000Y-76990000D01*
X138540000Y-82970000D02*
X139820000Y-81690000D01*
X139820000Y-81690000D02*
X139820000Y-79920000D01*
D29*
X182140000Y-66540000D02*
X182130000Y-94510000D01*
X181350000Y-65760000D02*
X182140000Y-66540000D01*
X123240000Y-66560000D02*
X123800000Y-65790000D01*
X123240000Y-94550000D02*
X123240000Y-66560000D01*
X127991000Y-94547100D02*
X123240000Y-94550000D01*
X177140000Y-94509000D02*
X182130000Y-94510000D01*
X123800000Y-65790000D02*
X181350000Y-65760000D01*
X136436500Y-96731500D02*
X137516000Y-96731500D01*
X165265500Y-96668000D02*
X164186000Y-96668000D01*
X129388000Y-105748500D02*
X135039500Y-105748500D01*
X177140000Y-104351500D02*
X177140000Y-94509000D01*
X138913000Y-105748500D02*
X162789000Y-105748500D01*
X166662500Y-105748500D02*
X175743000Y-105748500D01*
X165265500Y-104351500D02*
X165265500Y-96668000D01*
X136436500Y-96731500D02*
X136436500Y-104351500D01*
X138913000Y-105748500D02*
G75*
G02*
X137516000Y-104351500I0J1397000D01*
G01*
X136436500Y-104351500D02*
G75*
G02*
X135039500Y-105748500I-1397000J0D01*
G01*
X164186000Y-96668000D02*
X164186000Y-104351500D01*
X177140000Y-104351500D02*
G75*
G02*
X175743000Y-105748500I-1397000J0D01*
G01*
X164186000Y-104351500D02*
G75*
G02*
X162789000Y-105748500I-1397000J0D01*
G01*
X137516000Y-104351500D02*
X137516000Y-96731500D01*
X166662500Y-105748500D02*
G75*
G02*
X165265500Y-104351500I0J1397000D01*
G01*
X129388000Y-105748500D02*
G75*
G02*
X127991000Y-104351500I0J1397000D01*
G01*
X127827228Y-68620000D02*
G75*
G02*
X124452772Y-68620000I-1687228J0D01*
G01*
X124452772Y-68620000D02*
G75*
G02*
X127827228Y-68620000I1687228J0D01*
G01*
X127827228Y-91510000D02*
G75*
G02*
X124452772Y-91510000I-1687228J0D01*
G01*
X124452772Y-91510000D02*
G75*
G02*
X127827228Y-91510000I1687228J0D01*
G01*
X127991000Y-104351500D02*
X127991000Y-94547100D01*
X180879528Y-68620800D02*
G75*
G02*
X177505072Y-68620800I-1687228J0D01*
G01*
X177505072Y-68620800D02*
G75*
G02*
X180879528Y-68620800I1687228J0D01*
G01*
X180947227Y-91680000D02*
G75*
G02*
X177572773Y-91680000I-1687227J0D01*
G01*
X177572773Y-91680000D02*
G75*
G02*
X180947227Y-91680000I1687227J0D01*
G01*
M02*
