G04 #@! TF.GenerationSoftware,KiCad,Pcbnew,8.0.6*
G04 #@! TF.CreationDate,2024-11-18T08:46:01-05:00*
G04 #@! TF.ProjectId,cbmSD-pass,63626d53-442d-4706-9173-732e6b696361,rev?*
G04 #@! TF.SameCoordinates,Original*
G04 #@! TF.FileFunction,Profile,NP*
%FSLAX46Y46*%
G04 Gerber Fmt 4.6, Leading zero omitted, Abs format (unit mm)*
G04 Created by KiCad (PCBNEW 8.0.6) date 2024-11-18 08:46:01*
%MOMM*%
%LPD*%
G01*
G04 APERTURE LIST*
G04 #@! TA.AperFunction,Profile*
%ADD10C,0.200660*%
G04 #@! TD*
G04 APERTURE END LIST*
D10*
X182140000Y-66540000D02*
X182130000Y-94510000D01*
X181350000Y-65760000D02*
X182140000Y-66540000D01*
X123240000Y-66560000D02*
X123800000Y-65790000D01*
X123240000Y-94550000D02*
X123240000Y-66560000D01*
X127991000Y-94547100D02*
X123240000Y-94550000D01*
X177140000Y-94509000D02*
X182130000Y-94510000D01*
X123800000Y-65790000D02*
X181350000Y-65760000D01*
X136436500Y-96731500D02*
X137516000Y-96731500D01*
X165265500Y-96668000D02*
X164186000Y-96668000D01*
X129388000Y-105748500D02*
X135039500Y-105748500D01*
X177140000Y-104351500D02*
X177140000Y-94509000D01*
X138913000Y-105748500D02*
X162789000Y-105748500D01*
X166662500Y-105748500D02*
X175743000Y-105748500D01*
X165265500Y-104351500D02*
X165265500Y-96668000D01*
X136436500Y-96731500D02*
X136436500Y-104351500D01*
X138913000Y-105748500D02*
G75*
G02*
X137516000Y-104351500I0J1397000D01*
G01*
X136436500Y-104351500D02*
G75*
G02*
X135039500Y-105748500I-1397000J0D01*
G01*
X164186000Y-96668000D02*
X164186000Y-104351500D01*
X177140000Y-104351500D02*
G75*
G02*
X175743000Y-105748500I-1397000J0D01*
G01*
X164186000Y-104351500D02*
G75*
G02*
X162789000Y-105748500I-1397000J0D01*
G01*
X137516000Y-104351500D02*
X137516000Y-96731500D01*
X166662500Y-105748500D02*
G75*
G02*
X165265500Y-104351500I0J1397000D01*
G01*
X129388000Y-105748500D02*
G75*
G02*
X127991000Y-104351500I0J1397000D01*
G01*
X127827228Y-68620000D02*
G75*
G02*
X124452772Y-68620000I-1687228J0D01*
G01*
X124452772Y-68620000D02*
G75*
G02*
X127827228Y-68620000I1687228J0D01*
G01*
X127827228Y-91510000D02*
G75*
G02*
X124452772Y-91510000I-1687228J0D01*
G01*
X124452772Y-91510000D02*
G75*
G02*
X127827228Y-91510000I1687228J0D01*
G01*
X127991000Y-104351500D02*
X127991000Y-94547100D01*
X180879528Y-68620800D02*
G75*
G02*
X177505072Y-68620800I-1687228J0D01*
G01*
X177505072Y-68620800D02*
G75*
G02*
X180879528Y-68620800I1687228J0D01*
G01*
X180947227Y-91680000D02*
G75*
G02*
X177572773Y-91680000I-1687227J0D01*
G01*
X177572773Y-91680000D02*
G75*
G02*
X180947227Y-91680000I1687227J0D01*
G01*
M02*
